solid bed clips
facet normal -0.999464587476366 0.0327190828217772 7.84237408490578e-017
outer loop
vertex -5.0 11.6 2.5
vertex -5.0 8.4 -2.0
vertex -5.0 8.4 2.5
endloop
endfacet
facet normal -0.999464587476366 -0.0327190828217762 4.51157757110838e-017
outer loop
vertex -5.0 8.4 -2.0
vertex -5.0 11.6 2.5
vertex -5.0 11.6 -2.0
endloop
endfacet
facet normal -0.707106781186547 0.707106781186548 0.0
outer loop
vertex -3.1254833995939 16.1254833995939 2.5
vertex -2.49607314565581 16.6774613778639 -2.0
vertex -3.1254833995939 16.1254833995939 -2.0
endloop
endfacet
facet normal -0.608761429008721 0.793353340291235 0.0
outer loop
vertex -2.49607314565581 16.6774613778639 -2.0
vertex -3.1254833995939 16.1254833995939 2.5
vertex -2.49607314565581 16.6774613778639 2.5
endloop
endfacet
facet normal -0.608761429008721 0.793353340291235 0.0
outer loop
vertex -2.49607314565581 16.6774613778639 2.5
vertex -1.8 17.1425625842204 -2.0
vertex -2.49607314565581 16.6774613778639 -2.0
endloop
endfacet
facet normal -0.5 0.866025403784439 0.0
outer loop
vertex -1.8 17.1425625842204 -2.0
vertex -2.49607314565581 16.6774613778639 2.5
vertex -1.8 17.1425625842204 2.5
endloop
endfacet
facet normal -0.5 0.866025403784439 0.0
outer loop
vertex -1.8 17.1425625842204 2.5
vertex -1.04917396713657 17.5128290080722 -2.0
vertex -1.8 17.1425625842204 -2.0
endloop
endfacet
facet normal -0.38268343236509 0.923879532511287 0.0
outer loop
vertex -1.04917396713657 17.5128290080722 -2.0
vertex -1.8 17.1425625842204 2.5
vertex -1.04917396713657 17.5128290080722 2.5
endloop
endfacet
facet normal -0.38268343236509 0.923879532511287 0.0
outer loop
vertex -1.04917396713657 17.5128290080722 2.5
vertex -0.256441888656131 17.78192528825 -2.0
vertex -1.04917396713657 17.5128290080722 -2.0
endloop
endfacet
facet normal -0.258819045102521 0.965925826289068 0.0
outer loop
vertex -0.256441888656131 17.78192528825 -2.0
vertex -1.04917396713657 17.5128290080722 2.5
vertex -0.256441888656131 17.78192528825 2.5
endloop
endfacet
facet normal -0.258819045102521 0.965925826289068 0.0
outer loop
vertex -0.256441888656131 17.78192528825 2.5
vertex 0.564632369791672 17.9452471127924 -2.0
vertex -0.256441888656131 17.78192528825 -2.0
endloop
endfacet
facet normal -0.130526192220052 0.99144486137381 -3.99159967343259e-020
outer loop
vertex 0.564632369791672 17.9452471127924 -2.0
vertex -0.256441888656131 17.78192528825 2.5
vertex 0.564632369791672 17.9452471127924 2.5
endloop
endfacet
facet normal -0.130526192220052 0.99144486137381 -3.99159967343259e-020
outer loop
vertex 0.564632369791672 17.9452471127924 2.5
vertex 1.4 18.0 -2.0
vertex 0.564632369791672 17.9452471127924 -2.0
endloop
endfacet
facet normal -0.0327190828217771 0.999464587476366 -3.98518707119795e-020
outer loop
vertex 1.4 18.0 -2.0
vertex 0.564632369791672 17.9452471127924 2.5
vertex 1.4 18.0 2.5
endloop
endfacet
facet normal -0.999464587476366 0.0327190828217772 7.84237408490578e-017
outer loop
vertex -5.0 11.6 2.5
vertex -4.94524711279239 12.4353676302083 -2.0
vertex -5.0 11.6 -2.0
endloop
endfacet
facet normal -0.99144486137381 0.130526192220053 3.33336579957977e-017
outer loop
vertex -4.94524711279239 12.4353676302083 -2.0
vertex -5.0 11.6 2.5
vertex -4.94524711279239 12.4353676302083 2.5
endloop
endfacet
facet normal -0.965925826289068 0.258819045102521 0.0
outer loop
vertex -4.78192528825003 13.2564418886561 2.5
vertex -4.94524711279239 12.4353676302083 -2.0
vertex -4.94524711279239 12.4353676302083 2.5
endloop
endfacet
facet normal -0.99144486137381 0.130526192220053 3.33336579957977e-017
outer loop
vertex -4.94524711279239 12.4353676302083 -2.0
vertex -4.78192528825003 13.2564418886561 2.5
vertex -4.78192528825003 13.2564418886561 -2.0
endloop
endfacet
facet normal -0.923879532511287 0.38268343236509 0.0
outer loop
vertex -4.51282900807223 14.0491739671366 2.5
vertex -4.78192528825003 13.2564418886561 -2.0
vertex -4.78192528825003 13.2564418886561 2.5
endloop
endfacet
facet normal -0.965925826289068 0.258819045102521 0.0
outer loop
vertex -4.78192528825003 13.2564418886561 -2.0
vertex -4.51282900807223 14.0491739671366 2.5
vertex -4.51282900807223 14.0491739671366 -2.0
endloop
endfacet
facet normal -0.866025403784439 0.5 0.0
outer loop
vertex -4.14256258422041 14.8 2.5
vertex -4.51282900807223 14.0491739671366 -2.0
vertex -4.51282900807223 14.0491739671366 2.5
endloop
endfacet
facet normal -0.923879532511287 0.38268343236509 0.0
outer loop
vertex -4.51282900807223 14.0491739671366 -2.0
vertex -4.14256258422041 14.8 2.5
vertex -4.14256258422041 14.8 -2.0
endloop
endfacet
facet normal -0.793353340291235 0.608761429008721 0.0
outer loop
vertex -3.6774613778639 15.4960731456558 2.5
vertex -4.14256258422041 14.8 -2.0
vertex -4.14256258422041 14.8 2.5
endloop
endfacet
facet normal -0.866025403784439 0.5 0.0
outer loop
vertex -4.14256258422041 14.8 -2.0
vertex -3.6774613778639 15.4960731456558 2.5
vertex -3.6774613778639 15.4960731456558 -2.0
endloop
endfacet
facet normal -0.707106781186547 0.707106781186548 0.0
outer loop
vertex -3.1254833995939 16.1254833995939 2.5
vertex -3.6774613778639 15.4960731456558 -2.0
vertex -3.6774613778639 15.4960731456558 2.5
endloop
endfacet
facet normal -0.793353340291235 0.608761429008721 0.0
outer loop
vertex -3.6774613778639 15.4960731456558 -2.0
vertex -3.1254833995939 16.1254833995939 2.5
vertex -3.1254833995939 16.1254833995939 -2.0
endloop
endfacet
facet normal -0.793353340291235 -0.608761429008721 0.0
outer loop
vertex -3.67746137786391 4.50392685434419 2.5
vertex -3.1254833995939 3.8745166004061 -2.0
vertex -3.1254833995939 3.8745166004061 2.5
endloop
endfacet
facet normal -0.707106781186548 -0.707106781186548 0.0
outer loop
vertex -3.1254833995939 3.8745166004061 -2.0
vertex -3.67746137786391 4.50392685434419 2.5
vertex -3.67746137786391 4.50392685434419 -2.0
endloop
endfacet
facet normal -0.866025403784439 -0.5 0.0
outer loop
vertex -4.14256258422041 5.2 2.5
vertex -3.67746137786391 4.50392685434419 -2.0
vertex -3.67746137786391 4.50392685434419 2.5
endloop
endfacet
facet normal -0.793353340291235 -0.608761429008721 0.0
outer loop
vertex -3.67746137786391 4.50392685434419 -2.0
vertex -4.14256258422041 5.2 2.5
vertex -4.14256258422041 5.2 -2.0
endloop
endfacet
facet normal -0.923879532511287 -0.38268343236509 0.0
outer loop
vertex -4.51282900807223 5.95082603286343 2.5
vertex -4.14256258422041 5.2 -2.0
vertex -4.14256258422041 5.2 2.5
endloop
endfacet
facet normal -0.866025403784439 -0.5 0.0
outer loop
vertex -4.14256258422041 5.2 -2.0
vertex -4.51282900807223 5.95082603286343 2.5
vertex -4.51282900807223 5.95082603286343 -2.0
endloop
endfacet
facet normal -0.965925826289068 -0.258819045102521 0.0
outer loop
vertex -4.78192528825004 6.74355811134387 2.5
vertex -4.51282900807223 5.95082603286343 -2.0
vertex -4.51282900807223 5.95082603286343 2.5
endloop
endfacet
facet normal -0.923879532511287 -0.38268343236509 0.0
outer loop
vertex -4.51282900807223 5.95082603286343 -2.0
vertex -4.78192528825004 6.74355811134387 2.5
vertex -4.78192528825004 6.74355811134387 -2.0
endloop
endfacet
facet normal -0.0327190828217763 -0.999464587476366 2.32945057294555e-019
outer loop
vertex 1.4 2.0 2.5
vertex 0.564632369791673 2.05475288720761 -2.0
vertex 1.4 2.0 -2.0
endloop
endfacet
facet normal -0.130526192220051 -0.99144486137381 2.33319891390989e-019
outer loop
vertex 0.564632369791673 2.05475288720761 -2.0
vertex 1.4 2.0 2.5
vertex 0.564632369791673 2.05475288720761 2.5
endloop
endfacet
facet normal -0.130526192220051 -0.99144486137381 2.33319891390989e-019
outer loop
vertex 0.564632369791673 2.05475288720761 2.5
vertex -0.256441888656131 2.21807471174996 -2.0
vertex 0.564632369791673 2.05475288720761 -2.0
endloop
endfacet
facet normal -0.258819045102521 -0.965925826289068 0.0
outer loop
vertex -0.256441888656131 2.21807471174996 -2.0
vertex 0.564632369791673 2.05475288720761 2.5
vertex -0.256441888656131 2.21807471174996 2.5
endloop
endfacet
facet normal -0.258819045102521 -0.965925826289068 0.0
outer loop
vertex -0.256441888656131 2.21807471174996 2.5
vertex -1.04917396713657 2.48717099192776 -2.0
vertex -0.256441888656131 2.21807471174996 -2.0
endloop
endfacet
facet normal -0.38268343236509 -0.923879532511287 0.0
outer loop
vertex -1.04917396713657 2.48717099192776 -2.0
vertex -0.256441888656131 2.21807471174996 2.5
vertex -1.04917396713657 2.48717099192776 2.5
endloop
endfacet
facet normal -0.38268343236509 -0.923879532511287 0.0
outer loop
vertex -1.04917396713657 2.48717099192776 2.5
vertex -1.8 2.85743741577959 -2.0
vertex -1.04917396713657 2.48717099192776 -2.0
endloop
endfacet
facet normal -0.5 -0.866025403784439 0.0
outer loop
vertex -1.8 2.85743741577959 -2.0
vertex -1.04917396713657 2.48717099192776 2.5
vertex -1.8 2.85743741577959 2.5
endloop
endfacet
facet normal -0.5 -0.866025403784439 0.0
outer loop
vertex -1.8 2.85743741577959 2.5
vertex -2.49607314565581 3.32253862213609 -2.0
vertex -1.8 2.85743741577959 -2.0
endloop
endfacet
facet normal -0.608761429008721 -0.793353340291235 0.0
outer loop
vertex -2.49607314565581 3.32253862213609 -2.0
vertex -1.8 2.85743741577959 2.5
vertex -2.49607314565581 3.32253862213609 2.5
endloop
endfacet
facet normal -0.608761429008721 -0.793353340291235 0.0
outer loop
vertex -2.49607314565581 3.32253862213609 2.5
vertex -3.1254833995939 3.8745166004061 -2.0
vertex -2.49607314565581 3.32253862213609 -2.0
endloop
endfacet
facet normal -0.707106781186548 -0.707106781186548 0.0
outer loop
vertex -3.1254833995939 3.8745166004061 -2.0
vertex -2.49607314565581 3.32253862213609 2.5
vertex -3.1254833995939 3.8745166004061 2.5
endloop
endfacet
facet normal -0.99144486137381 -0.130526192220051 -2.79033041277785e-020
outer loop
vertex -4.94524711279239 7.56463236979167 2.5
vertex -4.78192528825004 6.74355811134387 -2.0
vertex -4.78192528825004 6.74355811134387 2.5
endloop
endfacet
facet normal -0.965925826289068 -0.258819045102521 0.0
outer loop
vertex -4.78192528825004 6.74355811134387 -2.0
vertex -4.94524711279239 7.56463236979167 2.5
vertex -4.94524711279239 7.56463236979167 -2.0
endloop
endfacet
facet normal -0.999464587476366 -0.0327190828217762 4.51157757110838e-017
outer loop
vertex -5.0 8.4 2.5
vertex -4.94524711279239 7.56463236979167 -2.0
vertex -4.94524711279239 7.56463236979167 2.5
endloop
endfacet
facet normal -0.99144486137381 -0.130526192220051 -2.79033041277786e-020
outer loop
vertex -4.94524711279239 7.56463236979167 -2.0
vertex -5.0 8.4 2.5
vertex -5.0 8.4 -2.0
endloop
endfacet
facet normal 0.382683432365089 -0.923879532511287 0.0
outer loop
vertex 29.0491739671366 2.48717099192777 2.5
vertex 28.2564418886561 2.21807471174996 -2.0
vertex 29.0491739671366 2.48717099192777 -2.0
endloop
endfacet
facet normal 0.258819045102523 -0.965925826289068 0.0
outer loop
vertex 28.2564418886561 2.21807471174996 -2.0
vertex 29.0491739671366 2.48717099192777 2.5
vertex 28.2564418886561 2.21807471174996 2.5
endloop
endfacet
facet normal 0.258819045102523 -0.965925826289068 0.0
outer loop
vertex 28.2564418886561 2.21807471174996 2.5
vertex 27.4353676302083 2.05475288720761 -2.0
vertex 28.2564418886561 2.21807471174996 -2.0
endloop
endfacet
facet normal 0.130526192220054 -0.99144486137381 0.0
outer loop
vertex 27.4353676302083 2.05475288720761 -2.0
vertex 28.2564418886561 2.21807471174996 2.5
vertex 27.4353676302083 2.05475288720761 2.5
endloop
endfacet
facet normal 0.997858923238604 -0.0654031292301383 4.04371094344922e-019
outer loop
vertex 33.0 8.4 -2.0
vertex 32.9452471127924 7.56463236979167 2.5
vertex 32.9452471127924 7.56463236979167 -2.0
endloop
endfacet
facet normal 0.991444861373811 -0.130526192220049 2.02619370798687e-019
outer loop
vertex 32.9452471127924 7.56463236979167 2.5
vertex 33.0 8.4 -2.0
vertex 33.0 8.4 2.5
endloop
endfacet
facet normal 0.999464587476366 -0.0327190828217738 2.02293857837401e-019
outer loop
vertex 33.0 8.4 2.5
vertex 33.0 8.4 -2.0
vertex 33.0 8.4 -1.58623114643319e-015
endloop
endfacet
facet normal 0.500000000000001 -0.866025403784438 0.0
outer loop
vertex 29.8 2.85743741577959 2.5
vertex 29.0491739671366 2.48717099192777 -2.0
vertex 29.8 2.85743741577959 -2.0
endloop
endfacet
facet normal 0.382683432365089 -0.923879532511287 0.0
outer loop
vertex 29.0491739671366 2.48717099192777 -2.0
vertex 29.8 2.85743741577959 2.5
vertex 29.0491739671366 2.48717099192777 2.5
endloop
endfacet
facet normal 0.793353340291239 -0.608761429008716 0.0
outer loop
vertex 31.6774613778639 4.50392685434419 -2.0
vertex 31.1254833995939 3.8745166004061 2.5
vertex 31.1254833995939 3.8745166004061 -2.0
endloop
endfacet
facet normal 0.707106781186546 -0.707106781186549 0.0
outer loop
vertex 31.1254833995939 3.8745166004061 2.5
vertex 31.6774613778639 4.50392685434419 -2.0
vertex 31.6774613778639 4.50392685434419 2.5
endloop
endfacet
facet normal 0.608761429008719 -0.793353340291236 0.0
outer loop
vertex 30.4960731456558 3.3225386221361 2.5
vertex 29.8 2.85743741577959 -2.0
vertex 30.4960731456558 3.3225386221361 -2.0
endloop
endfacet
facet normal 0.500000000000001 -0.866025403784438 0.0
outer loop
vertex 29.8 2.85743741577959 -2.0
vertex 30.4960731456558 3.3225386221361 2.5
vertex 29.8 2.85743741577959 2.5
endloop
endfacet
facet normal 0.130526192220054 -0.99144486137381 0.0
outer loop
vertex 27.4353676302083 2.05475288720761 2.5
vertex 26.6 2.0 -2.0
vertex 27.4353676302083 2.05475288720761 -2.0
endloop
endfacet
facet normal 0.065403129230144 -0.997858923238604 0.0
outer loop
vertex 26.6 2.0 -2.0
vertex 27.4353676302083 2.05475288720761 2.5
vertex 26.6 2.0 2.5
endloop
endfacet
facet normal 0.991444861373811 -0.130526192220049 2.02619370798687e-019
outer loop
vertex 32.9452471127924 7.56463236979167 -2.0
vertex 32.78192528825 6.74355811134387 2.5
vertex 32.78192528825 6.74355811134387 -2.0
endloop
endfacet
facet normal 0.965925826289068 -0.258819045102524 0.0
outer loop
vertex 32.78192528825 6.74355811134387 2.5
vertex 32.9452471127924 7.56463236979167 -2.0
vertex 32.9452471127924 7.56463236979167 2.5
endloop
endfacet
facet normal 0.707106781186546 -0.707106781186549 0.0
outer loop
vertex 31.1254833995939 3.8745166004061 2.5
vertex 30.4960731456558 3.3225386221361 -2.0
vertex 31.1254833995939 3.8745166004061 -2.0
endloop
endfacet
facet normal 0.608761429008719 -0.793353340291236 0.0
outer loop
vertex 30.4960731456558 3.3225386221361 -2.0
vertex 31.1254833995939 3.8745166004061 2.5
vertex 30.4960731456558 3.3225386221361 2.5
endloop
endfacet
facet normal 0.965925826289068 -0.258819045102524 0.0
outer loop
vertex 32.78192528825 6.74355811134387 -2.0
vertex 32.5128290080722 5.95082603286343 2.5
vertex 32.5128290080722 5.95082603286343 -2.0
endloop
endfacet
facet normal 0.923879532511286 -0.382683432365093 0.0
outer loop
vertex 32.5128290080722 5.95082603286343 2.5
vertex 32.78192528825 6.74355811134387 -2.0
vertex 32.78192528825 6.74355811134387 2.5
endloop
endfacet
facet normal 0.923879532511286 -0.382683432365093 0.0
outer loop
vertex 32.5128290080722 5.95082603286343 -2.0
vertex 32.1425625842204 5.2 2.5
vertex 32.1425625842204 5.2 -2.0
endloop
endfacet
facet normal 0.866025403784441 -0.499999999999996 0.0
outer loop
vertex 32.1425625842204 5.2 2.5
vertex 32.5128290080722 5.95082603286343 -2.0
vertex 32.5128290080722 5.95082603286343 2.5
endloop
endfacet
facet normal 0.866025403784441 -0.499999999999996 0.0
outer loop
vertex 32.1425625842204 5.2 -2.0
vertex 31.6774613778639 4.50392685434419 2.5
vertex 31.6774613778639 4.50392685434419 -2.0
endloop
endfacet
facet normal 0.793353340291239 -0.608761429008716 0.0
outer loop
vertex 31.6774613778639 4.50392685434419 2.5
vertex 32.1425625842204 5.2 -2.0
vertex 32.1425625842204 5.2 2.5
endloop
endfacet
facet normal 0.999048070541598 0.0436228466186089 -2.15767269037384e-019
outer loop
vertex 33.0 11.6 -1.05748743095546e-015
vertex 33.0 8.4 2.5
vertex 33.0 8.4 -1.58623114643319e-015
endloop
endfacet
facet normal 0.999464587476366 -0.0327190828217738 2.02293857837401e-019
outer loop
vertex 33.0 8.4 2.5
vertex 33.0 11.6 -1.05748743095546e-015
vertex 33.0 11.6 2.5
endloop
endfacet
facet normal 5.51655254758274e-016 3.67183135748425e-017 -1.0
outer loop
vertex 33.0 11.6 -1.05748743095546e-015
vertex 28.414110472164 11.5454813220625 -3.87745391350336e-015
vertex 28.0 11.6 -3.87745391350336e-015
endloop
endfacet
facet normal 5.51655254758274e-016 3.67183135748425e-017 -1.0
outer loop
vertex 28.414110472164 11.5454813220625 -3.87745391350336e-015
vertex 33.0 11.6 -1.05748743095546e-015
vertex 28.8 11.3856406460551 -3.87745391350336e-015
endloop
endfacet
facet normal 5.51655254758274e-016 3.67183135748425e-017 -1.0
outer loop
vertex 28.8 11.3856406460551 -3.87745391350336e-015
vertex 33.0 11.6 -1.05748743095546e-015
vertex 29.1313708498985 11.1313708498985 -3.87745391350336e-015
endloop
endfacet
facet normal 5.51655254758274e-016 3.67183135748425e-017 -1.0
outer loop
vertex 29.1313708498985 11.1313708498985 -3.87745391350336e-015
vertex 33.0 11.6 -1.05748743095546e-015
vertex 29.3856406460551 10.8 -3.87745391350336e-015
endloop
endfacet
facet normal 5.51655254758274e-016 3.67183135748425e-017 -1.0
outer loop
vertex 29.3856406460551 10.8 -3.87745391350336e-015
vertex 33.0 11.6 -1.05748743095546e-015
vertex 29.5454813220625 10.414110472164 -3.87745391350336e-015
endloop
endfacet
facet normal 5.51655254758274e-016 3.67183135748425e-017 -1.0
outer loop
vertex 29.5454813220625 10.414110472164 -3.87745391350336e-015
vertex 33.0 11.6 -1.05748743095546e-015
vertex 29.6 10.0 -3.87745391350336e-015
endloop
endfacet
facet normal 5.51655254758274e-016 3.67183135748425e-017 -1.0
outer loop
vertex 28.414110472164 8.45451867793749 -3.87745391350336e-015
vertex 33.0 8.4 -1.58623114643319e-015
vertex 28.0 8.4 -3.87745391350336e-015
endloop
endfacet
facet normal 5.51655254758274e-016 3.67183135748425e-017 -1.0
outer loop
vertex 33.0 8.4 -1.58623114643319e-015
vertex 28.414110472164 8.45451867793749 -3.87745391350336e-015
vertex 28.8 8.6143593539449 -3.87745391350336e-015
endloop
endfacet
facet normal 5.51655254758274e-016 3.67183135748425e-017 -1.0
outer loop
vertex 33.0 8.4 -1.58623114643319e-015
vertex 28.8 8.6143593539449 -3.87745391350336e-015
vertex 29.1313708498985 8.86862915010152 -3.87745391350336e-015
endloop
endfacet
facet normal 5.51655254758274e-016 3.67183135748425e-017 -1.0
outer loop
vertex 33.0 8.4 -1.58623114643319e-015
vertex 29.1313708498985 8.86862915010152 -3.87745391350336e-015
vertex 29.3856406460551 9.2 -3.87745391350336e-015
endloop
endfacet
facet normal 5.51655254758274e-016 3.67183135748425e-017 -1.0
outer loop
vertex 33.0 8.4 -1.58623114643319e-015
vertex 29.3856406460551 9.2 -3.87745391350336e-015
vertex 29.5454813220625 9.58588952783597 -3.87745391350336e-015
endloop
endfacet
facet normal 5.51655254758274e-016 3.67183135748425e-017 -1.0
outer loop
vertex 33.0 8.4 -1.58623114643319e-015
vertex 29.5454813220625 9.58588952783597 -3.87745391350336e-015
vertex 29.6 10.0 -3.87745391350336e-015
endloop
endfacet
facet normal 5.51655254758274e-016 3.67183135748425e-017 -1.0
outer loop
vertex 33.0 8.4 -1.58623114643319e-015
vertex 29.6 10.0 -3.87745391350336e-015
vertex 33.0 11.6 -1.05748743095546e-015
endloop
endfacet
facet normal 0.130526192220052 0.991444861373811 0.0
outer loop
vertex 27.4353676302083 17.9452471127924 2.5
vertex 28.2564418886561 17.78192528825 -2.0
vertex 27.4353676302083 17.9452471127924 -2.0
endloop
endfacet
facet normal 0.25881904510252 0.965925826289069 0.0
outer loop
vertex 28.2564418886561 17.78192528825 -2.0
vertex 27.4353676302083 17.9452471127924 2.5
vertex 28.2564418886561 17.78192528825 2.5
endloop
endfacet
facet normal 0.0654031292301415 0.997858923238604 0.0
outer loop
vertex 26.6 18.0 2.5
vertex 27.4353676302083 17.9452471127924 -2.0
vertex 26.6 18.0 -2.0
endloop
endfacet
facet normal 0.130526192220052 0.991444861373811 0.0
outer loop
vertex 27.4353676302083 17.9452471127924 -2.0
vertex 26.6 18.0 2.5
vertex 27.4353676302083 17.9452471127924 2.5
endloop
endfacet
facet normal 0.382683432365087 0.923879532511288 0.0
outer loop
vertex 29.0491739671366 17.5128290080722 2.5
vertex 29.8 17.1425625842204 -2.0
vertex 29.0491739671366 17.5128290080722 -2.0
endloop
endfacet
facet normal 0.500000000000001 0.866025403784438 0.0
outer loop
vertex 29.8 17.1425625842204 -2.0
vertex 29.0491739671366 17.5128290080722 2.5
vertex 29.8 17.1425625842204 2.5
endloop
endfacet
facet normal 0.25881904510252 0.965925826289069 0.0
outer loop
vertex 28.2564418886561 17.78192528825 2.5
vertex 29.0491739671366 17.5128290080722 -2.0
vertex 28.2564418886561 17.78192528825 -2.0
endloop
endfacet
facet normal 0.382683432365087 0.923879532511288 0.0
outer loop
vertex 29.0491739671366 17.5128290080722 -2.0
vertex 28.2564418886561 17.78192528825 2.5
vertex 29.0491739671366 17.5128290080722 2.5
endloop
endfacet
facet normal 0.500000000000001 0.866025403784438 0.0
outer loop
vertex 29.8 17.1425625842204 2.5
vertex 30.4960731456558 16.6774613778639 -2.0
vertex 29.8 17.1425625842204 -2.0
endloop
endfacet
facet normal 0.60876142900872 0.793353340291236 0.0
outer loop
vertex 30.4960731456558 16.6774613778639 -2.0
vertex 29.8 17.1425625842204 2.5
vertex 30.4960731456558 16.6774613778639 2.5
endloop
endfacet
facet normal 0.60876142900872 0.793353340291236 0.0
outer loop
vertex 30.4960731456558 16.6774613778639 2.5
vertex 31.1254833995939 16.1254833995939 -2.0
vertex 30.4960731456558 16.6774613778639 -2.0
endloop
endfacet
facet normal 0.70710678118655 0.707106781186545 0.0
outer loop
vertex 31.1254833995939 16.1254833995939 -2.0
vertex 30.4960731456558 16.6774613778639 2.5
vertex 31.1254833995939 16.1254833995939 2.5
endloop
endfacet
facet normal 0.70710678118655 0.707106781186545 0.0
outer loop
vertex 31.1254833995939 16.1254833995939 -2.0
vertex 31.6774613778639 15.4960731456558 2.5
vertex 31.6774613778639 15.4960731456558 -2.0
endloop
endfacet
facet normal 0.793353340291238 0.608761429008718 0.0
outer loop
vertex 31.6774613778639 15.4960731456558 2.5
vertex 31.1254833995939 16.1254833995939 -2.0
vertex 31.1254833995939 16.1254833995939 2.5
endloop
endfacet
facet normal 0.793353340291238 0.608761429008718 0.0
outer loop
vertex 31.6774613778639 15.4960731456558 -2.0
vertex 32.1425625842204 14.8 2.5
vertex 32.1425625842204 14.8 -2.0
endloop
endfacet
facet normal 0.866025403784438 0.500000000000001 0.0
outer loop
vertex 32.1425625842204 14.8 2.5
vertex 31.6774613778639 15.4960731456558 -2.0
vertex 31.6774613778639 15.4960731456558 2.5
endloop
endfacet
facet normal 0.866025403784438 0.500000000000001 0.0
outer loop
vertex 32.1425625842204 14.8 -2.0
vertex 32.5128290080722 14.0491739671366 2.5
vertex 32.5128290080722 14.0491739671366 -2.0
endloop
endfacet
facet normal 0.923879532511286 0.382683432365092 0.0
outer loop
vertex 32.5128290080722 14.0491739671366 2.5
vertex 32.1425625842204 14.8 -2.0
vertex 32.1425625842204 14.8 2.5
endloop
endfacet
facet normal 0.923879532511286 0.382683432365092 0.0
outer loop
vertex 32.5128290080722 14.0491739671366 -2.0
vertex 32.78192528825 13.2564418886561 2.5
vertex 32.78192528825 13.2564418886561 -2.0
endloop
endfacet
facet normal 0.965925826289068 0.258819045102524 0.0
outer loop
vertex 32.78192528825 13.2564418886561 2.5
vertex 32.5128290080722 14.0491739671366 -2.0
vertex 32.5128290080722 14.0491739671366 2.5
endloop
endfacet
facet normal 0.965925826289068 0.258819045102524 0.0
outer loop
vertex 32.78192528825 13.2564418886561 -2.0
vertex 32.9452471127924 12.4353676302083 2.5
vertex 32.9452471127924 12.4353676302083 -2.0
endloop
endfacet
facet normal 0.991444861373811 0.130526192220049 -1.62095496638949e-019
outer loop
vertex 32.9452471127924 12.4353676302083 2.5
vertex 32.78192528825 13.2564418886561 -2.0
vertex 32.78192528825 13.2564418886561 2.5
endloop
endfacet
facet normal 0.991444861373811 0.130526192220049 -1.62095496638949e-019
outer loop
vertex 32.9452471127924 12.4353676302083 -2.0
vertex 33.0 11.6 -1.05748743095546e-015
vertex 33.0 11.6 -2.0
endloop
endfacet
facet normal 0.999048070541598 0.0436228466186089 -2.15767269037384e-019
outer loop
vertex 33.0 11.6 -1.05748743095546e-015
vertex 32.9452471127924 12.4353676302083 -2.0
vertex 33.0 11.6 2.5
endloop
endfacet
facet normal 0.999464587476366 0.0327190828217737 -1.6183508626992e-019
outer loop
vertex 33.0 11.6 2.5
vertex 32.9452471127924 12.4353676302083 -2.0
vertex 32.9452471127924 12.4353676302083 2.5
endloop
endfacet
facet normal 1.0 0.0 0.0
outer loop
vertex 3.0 11.6 -2.0
vertex 3.0 8.4 2.5
vertex 3.0 8.4 -2.0
endloop
endfacet
facet normal 1.0 0.0 0.0
outer loop
vertex 3.0 8.4 2.5
vertex 3.0 11.6 -2.0
vertex 3.0 11.6 2.5
endloop
endfacet
facet normal 1.27428871507751e-015 1.0 0.0
outer loop
vertex -0.799999999999999 8.2 4.5
vertex -0.334125718815462 8.26133351267968 -2.0
vertex -0.799999999999999 8.2 -2.0
endloop
endfacet
facet normal -0.258819045102521 0.965925826289068 0.0
outer loop
vertex -0.334125718815462 8.26133351267968 -2.0
vertex -0.799999999999999 8.2 4.5
vertex -0.334125718815462 8.26133351267968 4.5
endloop
endfacet
facet normal 0.258819045102522 0.965925826289068 0.0
outer loop
vertex -1.26587428118454 8.26133351267968 4.5
vertex -0.799999999999999 8.2 -2.0
vertex -1.26587428118454 8.26133351267968 -2.0
endloop
endfacet
facet normal 1.27428871507751e-015 1.0 0.0
outer loop
vertex -0.799999999999999 8.2 -2.0
vertex -1.26587428118454 8.26133351267968 4.5
vertex -0.799999999999999 8.2 4.5
endloop
endfacet
facet normal 0.499999999999999 0.866025403784439 0.0
outer loop
vertex -1.7 8.44115427318801 4.5
vertex -1.26587428118454 8.26133351267968 -2.0
vertex -1.7 8.44115427318801 -2.0
endloop
endfacet
facet normal 0.258819045102522 0.965925826289068 0.0
outer loop
vertex -1.26587428118454 8.26133351267968 -2.0
vertex -1.7 8.44115427318801 4.5
vertex -1.26587428118454 8.26133351267968 4.5
endloop
endfacet
facet normal 0.707106781186548 0.707106781186547 0.0
outer loop
vertex -2.07279220613579 8.72720779386422 4.5
vertex -1.7 8.44115427318801 -2.0
vertex -2.07279220613579 8.72720779386422 -2.0
endloop
endfacet
facet normal 0.499999999999999 0.866025403784439 0.0
outer loop
vertex -1.7 8.44115427318801 -2.0
vertex -2.07279220613579 8.72720779386422 4.5
vertex -1.7 8.44115427318801 4.5
endloop
endfacet
facet normal 0.86602540378444 0.499999999999998 -1.38066430382814e-019
outer loop
vertex -2.35884572681199 9.1 -2.0
vertex -2.07279220613579 8.72720779386422 4.5
vertex -2.07279220613579 8.72720779386422 -2.0
endloop
endfacet
facet normal 0.707106781186548 0.707106781186547 0.0
outer loop
vertex -2.07279220613579 8.72720779386422 4.5
vertex -2.35884572681199 9.1 -2.0
vertex -2.35884572681199 9.1 4.5
endloop
endfacet
facet normal 0.965925826289069 0.25881904510252 -1.38066430382814e-019
outer loop
vertex -2.53866648732032 9.53412571881546 -2.0
vertex -2.35884572681199 9.1 4.5
vertex -2.35884572681199 9.1 -2.0
endloop
endfacet
facet normal 0.86602540378444 0.499999999999998 -1.38066430382814e-019
outer loop
vertex -2.35884572681199 9.1 4.5
vertex -2.53866648732032 9.53412571881546 -2.0
vertex -2.53866648732032 9.53412571881546 4.5
endloop
endfacet
facet normal 1.0 3.92088835408464e-016 0.0
outer loop
vertex -2.6 10.0 -2.0
vertex -2.53866648732032 9.53412571881546 4.5
vertex -2.53866648732032 9.53412571881546 -2.0
endloop
endfacet
facet normal 0.965925826289068 0.25881904510252 -1.38066430382814e-019
outer loop
vertex -2.53866648732032 9.53412571881546 4.5
vertex -2.6 10.0 -2.0
vertex -2.6 10.0 4.5
endloop
endfacet
facet normal 0.965925826289068 -0.258819045102521 0.0
outer loop
vertex -2.53866648732032 10.4658742811845 -2.0
vertex -2.6 10.0 4.5
vertex -2.6 10.0 -2.0
endloop
endfacet
facet normal 1.0 3.92088835408464e-016 0.0
outer loop
vertex -2.6 10.0 4.5
vertex -2.53866648732032 10.4658742811845 -2.0
vertex -2.53866648732032 10.4658742811845 4.5
endloop
endfacet
facet normal 0.866025403784438 -0.500000000000001 -1.06047697808018e-018
outer loop
vertex -2.35884572681199 10.9 -2.0
vertex -2.53866648732032 10.4658742811845 4.5
vertex -2.53866648732032 10.4658742811845 -2.0
endloop
endfacet
facet normal 0.965925826289068 -0.258819045102521 0.0
outer loop
vertex -2.53866648732032 10.4658742811845 4.5
vertex -2.35884572681199 10.9 -2.0
vertex -2.35884572681199 10.9 4.5
endloop
endfacet
facet normal 0.707106781186547 -0.707106781186548 -1.06047697808018e-018
outer loop
vertex -2.07279220613578 11.2727922061358 -2.0
vertex -2.35884572681199 10.9 4.5
vertex -2.35884572681199 10.9 -2.0
endloop
endfacet
facet normal 0.866025403784438 -0.500000000000001 -1.06047697808018e-018
outer loop
vertex -2.35884572681199 10.9 4.5
vertex -2.07279220613578 11.2727922061358 -2.0
vertex -2.07279220613578 11.2727922061358 4.5
endloop
endfacet
facet normal 0.5 -0.866025403784439 0.0
outer loop
vertex -1.7 11.558845726812 4.5
vertex -2.07279220613578 11.2727922061358 -2.0
vertex -1.7 11.558845726812 -2.0
endloop
endfacet
facet normal 0.707106781186547 -0.707106781186548 -1.06047697808018e-018
outer loop
vertex -2.07279220613578 11.2727922061358 -2.0
vertex -1.7 11.558845726812 4.5
vertex -2.07279220613578 11.2727922061358 4.5
endloop
endfacet
facet normal 0.25881904510252 -0.965925826289068 0.0
outer loop
vertex -1.26587428118454 11.7386664873203 4.5
vertex -1.7 11.558845726812 -2.0
vertex -1.26587428118454 11.7386664873203 -2.0
endloop
endfacet
facet normal 0.5 -0.866025403784439 0.0
outer loop
vertex -1.7 11.558845726812 -2.0
vertex -1.26587428118454 11.7386664873203 4.5
vertex -1.7 11.558845726812 4.5
endloop
endfacet
facet normal -1.41686647340786e-015 -1.0 0.0
outer loop
vertex -0.799999999999999 11.8 4.5
vertex -1.26587428118454 11.7386664873203 -2.0
vertex -0.799999999999999 11.8 -2.0
endloop
endfacet
facet normal 0.25881904510252 -0.965925826289068 0.0
outer loop
vertex -1.26587428118454 11.7386664873203 -2.0
vertex -0.799999999999999 11.8 4.5
vertex -1.26587428118454 11.7386664873203 4.5
endloop
endfacet
facet normal -0.258819045102521 -0.965925826289068 0.0
outer loop
vertex -0.334125718815462 11.7386664873203 4.5
vertex -0.799999999999999 11.8 -2.0
vertex -0.334125718815462 11.7386664873203 -2.0
endloop
endfacet
facet normal -1.41686647340786e-015 -1.0 0.0
outer loop
vertex -0.799999999999999 11.8 -2.0
vertex -0.334125718815462 11.7386664873203 4.5
vertex -0.799999999999999 11.8 4.5
endloop
endfacet
facet normal -0.499999999999999 -0.866025403784439 -2.33304935177642e-017
outer loop
vertex 0.100000000000001 11.558845726812 4.5
vertex -0.334125718815462 11.7386664873203 -2.0
vertex 0.100000000000001 11.558845726812 -2.0
endloop
endfacet
facet normal -0.258819045102521 -0.965925826289068 0.0
outer loop
vertex -0.334125718815462 11.7386664873203 -2.0
vertex 0.100000000000001 11.558845726812 4.5
vertex -0.334125718815462 11.7386664873203 4.5
endloop
endfacet
facet normal -0.707106781186547 -0.707106781186548 -5.51174251361699e-017
outer loop
vertex 0.472792206135786 11.2727922061358 4.5
vertex 0.100000000000001 11.558845726812 -2.0
vertex 0.472792206135786 11.2727922061358 -2.0
endloop
endfacet
facet normal -0.499999999999999 -0.866025403784439 -2.33304935177642e-017
outer loop
vertex 0.100000000000001 11.558845726812 -2.0
vertex 0.472792206135786 11.2727922061358 4.5
vertex 0.100000000000001 11.558845726812 4.5
endloop
endfacet
facet normal -0.707106781186547 -0.707106781186548 -5.51174251361699e-017
outer loop
vertex 0.472792206135786 11.2727922061358 4.5
vertex 0.75884572681199 10.9 -2.0
vertex 0.75884572681199 10.9 4.5
endloop
endfacet
facet normal -0.866025403784439 -0.5 5.36780069353794e-018
outer loop
vertex 0.75884572681199 10.9 -2.0
vertex 0.472792206135786 11.2727922061358 4.5
vertex 0.472792206135786 11.2727922061358 -2.0
endloop
endfacet
facet normal -0.866025403784439 -0.5 5.36780069353795e-018
outer loop
vertex 0.75884572681199 10.9 4.5
vertex 0.938666487320323 10.4658742811845 -2.0
vertex 0.938666487320324 10.4658742811845 4.5
endloop
endfacet
facet normal -0.965925826289068 -0.258819045102521 7.623083759643e-017
outer loop
vertex 0.938666487320323 10.4658742811845 -2.0
vertex 0.75884572681199 10.9 4.5
vertex 0.75884572681199 10.9 -2.0
endloop
endfacet
facet normal -0.965925826289068 -0.258819045102521 7.623083759643e-017
outer loop
vertex 0.938666487320324 10.4658742811845 4.5
vertex 1.0 10.0 -2.0
vertex 1.0 10.0 4.5
endloop
endfacet
facet normal -1.0 3.65355505721523e-016 3.90761052844863e-017
outer loop
vertex 1.0 10.0 -2.0
vertex 0.938666487320324 10.4658742811845 4.5
vertex 0.938666487320323 10.4658742811845 -2.0
endloop
endfacet
facet normal -1.0 3.65355505721523e-016 3.90761052844863e-017
outer loop
vertex 1.0 10.0 4.5
vertex 0.938666487320323 9.53412571881546 -2.0
vertex 0.938666487320323 9.53412571881546 4.5
endloop
endfacet
facet normal -0.965925826289068 0.258819045102521 0.0
outer loop
vertex 0.938666487320323 9.53412571881546 -2.0
vertex 1.0 10.0 4.5
vertex 1.0 10.0 -2.0
endloop
endfacet
facet normal -0.965925826289068 0.258819045102521 0.0
outer loop
vertex 0.938666487320323 9.53412571881546 4.5
vertex 0.75884572681199 9.1 -2.0
vertex 0.75884572681199 9.1 4.5
endloop
endfacet
facet normal -0.866025403784439 0.5 -3.21563527067881e-019
outer loop
vertex 0.75884572681199 9.1 -2.0
vertex 0.938666487320323 9.53412571881546 4.5
vertex 0.938666487320323 9.53412571881546 -2.0
endloop
endfacet
facet normal -0.866025403784439 0.5 -3.21563527067881e-019
outer loop
vertex 0.75884572681199 9.1 4.5
vertex 0.472792206135786 8.72720779386422 -2.0
vertex 0.472792206135786 8.72720779386422 4.5
endloop
endfacet
facet normal -0.707106781186547 0.707106781186548 -3.21563527067881e-019
outer loop
vertex 0.472792206135786 8.72720779386422 -2.0
vertex 0.75884572681199 9.1 4.5
vertex 0.75884572681199 9.1 -2.0
endloop
endfacet
facet normal -0.5 0.866025403784439 0.0
outer loop
vertex 0.100000000000001 8.44115427318801 4.5
vertex 0.472792206135786 8.72720779386422 -2.0
vertex 0.100000000000001 8.44115427318801 -2.0
endloop
endfacet
facet normal -0.707106781186547 0.707106781186548 -3.21563527067881e-019
outer loop
vertex 0.472792206135786 8.72720779386422 -2.0
vertex 0.100000000000001 8.44115427318801 4.5
vertex 0.472792206135786 8.72720779386422 4.5
endloop
endfacet
facet normal -0.258819045102521 0.965925826289068 0.0
outer loop
vertex -0.334125718815462 8.26133351267968 4.5
vertex 0.100000000000001 8.44115427318801 -2.0
vertex -0.334125718815462 8.26133351267968 -2.0
endloop
endfacet
facet normal -0.5 0.866025403784439 0.0
outer loop
vertex 0.100000000000001 8.44115427318801 -2.0
vertex -0.334125718815462 8.26133351267968 4.5
vertex 0.100000000000001 8.44115427318801 4.5
endloop
endfacet
facet normal 0.0 0.0 1.0
outer loop
vertex -2.55 6.96891108675446 4.5
vertex -2.6 10.0 4.5
vertex -3.27487373415291 7.52512626584708 4.5
endloop
endfacet
facet normal 0.0 0.0 1.0
outer loop
vertex -2.6 10.0 4.5
vertex -2.55 6.96891108675446 4.5
vertex -2.53866648732032 9.53412571881546 4.5
endloop
endfacet
facet normal 0.0 0.0 1.0
outer loop
vertex -2.53866648732032 9.53412571881546 4.5
vertex -2.55 6.96891108675446 4.5
vertex -1.70586665785882 6.61925960798826 4.5
endloop
endfacet
facet normal 0.0 0.0 1.0
outer loop
vertex -2.53866648732032 9.53412571881546 4.5
vertex -1.70586665785882 6.61925960798826 4.5
vertex -2.35884572681199 9.1 4.5
endloop
endfacet
facet normal 0.0 0.0 1.0
outer loop
vertex -2.35884572681199 9.1 4.5
vertex -1.70586665785882 6.61925960798826 4.5
vertex -2.07279220613579 8.72720779386422 4.5
endloop
endfacet
facet normal 0.0 0.0 1.0
outer loop
vertex -2.07279220613579 8.72720779386422 4.5
vertex -1.70586665785882 6.61925960798826 4.5
vertex -1.7 8.44115427318801 4.5
endloop
endfacet
facet normal 0.0 0.0 1.0
outer loop
vertex -1.7 8.44115427318801 4.5
vertex -1.70586665785882 6.61925960798826 4.5
vertex -0.799999999999998 6.5 4.5
endloop
endfacet
facet normal 0.0 0.0 1.0
outer loop
vertex -1.7 8.44115427318801 4.5
vertex -0.799999999999998 6.5 4.5
vertex -1.26587428118454 8.26133351267968 4.5
endloop
endfacet
facet normal 0.0 0.0 1.0
outer loop
vertex -1.26587428118454 8.26133351267968 4.5
vertex -0.799999999999998 6.5 4.5
vertex -0.799999999999999 8.2 4.5
endloop
endfacet
facet normal 0.0 0.0 1.0
outer loop
vertex -0.799999999999999 8.2 4.5
vertex -0.799999999999998 6.5 4.5
vertex -0.334125718815462 8.26133351267968 4.5
endloop
endfacet
facet normal 0.0 0.0 1.0
outer loop
vertex -0.334125718815462 8.26133351267968 4.5
vertex -0.799999999999998 6.5 4.5
vertex 0.105866657858826 6.61925960798826 4.5
endloop
endfacet
facet normal 0.0 0.0 1.0
outer loop
vertex -0.334125718815462 8.26133351267968 4.5
vertex 0.105866657858826 6.61925960798826 4.5
vertex 0.100000000000001 8.44115427318801 4.5
endloop
endfacet
facet normal 0.0 0.0 1.0
outer loop
vertex 0.100000000000001 8.44115427318801 4.5
vertex 0.105866657858826 6.61925960798826 4.5
vertex 0.472792206135786 8.72720779386422 4.5
endloop
endfacet
facet normal 0.0 0.0 1.0
outer loop
vertex 0.472792206135786 8.72720779386422 4.5
vertex 0.105866657858826 6.61925960798826 4.5
vertex 0.950000000000002 6.96891108675447 4.5
endloop
endfacet
facet normal 0.0 0.0 1.0
outer loop
vertex 0.472792206135786 8.72720779386422 4.5
vertex 0.950000000000002 6.96891108675447 4.5
vertex 0.75884572681199 9.1 4.5
endloop
endfacet
facet normal 0.0 0.0 1.0
outer loop
vertex 0.75884572681199 9.1 4.5
vertex 0.950000000000002 6.96891108675447 4.5
vertex 0.938666487320323 9.53412571881546 4.5
endloop
endfacet
facet normal 0.0 0.0 1.0
outer loop
vertex 0.938666487320323 9.53412571881546 4.5
vertex 0.950000000000002 6.96891108675447 4.5
vertex 1.0 10.0 4.5
endloop
endfacet
facet normal 0.0 0.0 1.0
outer loop
vertex 1.0 10.0 4.5
vertex 0.950000000000002 6.96891108675447 4.5
vertex 1.67487373415292 7.52512626584709 4.5
endloop
endfacet
facet normal 0.0 0.0 1.0
outer loop
vertex 1.0 10.0 4.5
vertex 1.67487373415292 7.52512626584709 4.5
vertex 1.67487373415291 12.4748737341529 4.5
endloop
endfacet
facet normal 0.0 0.0 1.0
outer loop
vertex 1.67487373415291 12.4748737341529 4.5
vertex 1.67487373415292 7.52512626584709 4.5
vertex 2.23108891324553 11.75 4.5
endloop
endfacet
facet normal 0.0 0.0 1.0
outer loop
vertex 2.23108891324553 11.75 4.5
vertex 1.67487373415292 7.52512626584709 4.5
vertex 2.23108891324554 8.25 4.5
endloop
endfacet
facet normal 0.0 0.0 1.0
outer loop
vertex 2.23108891324553 11.75 4.5
vertex 2.23108891324554 8.25 4.5
vertex 2.58074039201174 10.9058666578588 4.5
endloop
endfacet
facet normal 0.0 0.0 1.0
outer loop
vertex 2.58074039201174 10.9058666578588 4.5
vertex 2.23108891324554 8.25 4.5
vertex 2.58074039201174 9.09413334214118 4.5
endloop
endfacet
facet normal 0.0 0.0 1.0
outer loop
vertex 2.58074039201174 10.9058666578588 4.5
vertex 2.58074039201174 9.09413334214118 4.5
vertex 2.7 10.0 4.5
endloop
endfacet
facet normal 0.0 0.0 1.0
outer loop
vertex -4.18074039201174 9.09413334214118 4.5
vertex -4.18074039201174 10.9058666578588 4.5
vertex -4.3 10.0 4.5
endloop
endfacet
facet normal 0.0 0.0 1.0
outer loop
vertex -4.18074039201174 10.9058666578588 4.5
vertex -4.18074039201174 9.09413334214118 4.5
vertex -3.83108891324554 11.75 4.5
endloop
endfacet
facet normal 0.0 0.0 1.0
outer loop
vertex -3.83108891324554 11.75 4.5
vertex -4.18074039201174 9.09413334214118 4.5
vertex -3.83108891324553 8.25 4.5
endloop
endfacet
facet normal 0.0 0.0 1.0
outer loop
vertex -3.83108891324554 11.75 4.5
vertex -3.83108891324553 8.25 4.5
vertex -3.27487373415292 12.4748737341529 4.5
endloop
endfacet
facet normal 0.0 0.0 1.0
outer loop
vertex -3.27487373415292 12.4748737341529 4.5
vertex -3.83108891324553 8.25 4.5
vertex -3.27487373415291 7.52512626584708 4.5
endloop
endfacet
facet normal 0.0 0.0 1.0
outer loop
vertex -3.27487373415292 12.4748737341529 4.5
vertex -3.27487373415291 7.52512626584708 4.5
vertex -2.55 13.0310889132455 4.5
endloop
endfacet
facet normal 0.0 0.0 1.0
outer loop
vertex -2.55 13.0310889132455 4.5
vertex -3.27487373415291 7.52512626584708 4.5
vertex -2.6 10.0 4.5
endloop
endfacet
facet normal 0.0 0.0 1.0
outer loop
vertex -2.55 13.0310889132455 4.5
vertex -2.6 10.0 4.5
vertex -2.53866648732032 10.4658742811845 4.5
endloop
endfacet
facet normal 0.0 0.0 1.0
outer loop
vertex -2.55 13.0310889132455 4.5
vertex -2.53866648732032 10.4658742811845 4.5
vertex -1.70586665785883 13.3807403920117 4.5
endloop
endfacet
facet normal 0.0 0.0 1.0
outer loop
vertex -1.70586665785883 13.3807403920117 4.5
vertex -2.53866648732032 10.4658742811845 4.5
vertex -2.35884572681199 10.9 4.5
endloop
endfacet
facet normal 0.0 0.0 1.0
outer loop
vertex -1.70586665785883 13.3807403920117 4.5
vertex -2.35884572681199 10.9 4.5
vertex -2.07279220613578 11.2727922061358 4.5
endloop
endfacet
facet normal 0.0 0.0 1.0
outer loop
vertex -1.70586665785883 13.3807403920117 4.5
vertex -2.07279220613578 11.2727922061358 4.5
vertex -1.7 11.558845726812 4.5
endloop
endfacet
facet normal 0.0 0.0 1.0
outer loop
vertex -1.70586665785883 13.3807403920117 4.5
vertex -1.7 11.558845726812 4.5
vertex -0.800000000000001 13.5 4.5
endloop
endfacet
facet normal 0.0 0.0 1.0
outer loop
vertex -0.800000000000001 13.5 4.5
vertex -1.7 11.558845726812 4.5
vertex -1.26587428118454 11.7386664873203 4.5
endloop
endfacet
facet normal 0.0 0.0 1.0
outer loop
vertex -0.800000000000001 13.5 4.5
vertex -1.26587428118454 11.7386664873203 4.5
vertex -0.799999999999999 11.8 4.5
endloop
endfacet
facet normal 0.0 0.0 1.0
outer loop
vertex -0.800000000000001 13.5 4.5
vertex -0.799999999999999 11.8 4.5
vertex 0.105866657858821 13.3807403920117 4.5
endloop
endfacet
facet normal 0.0 0.0 1.0
outer loop
vertex 0.105866657858821 13.3807403920117 4.5
vertex -0.799999999999999 11.8 4.5
vertex -0.334125718815462 11.7386664873203 4.5
endloop
endfacet
facet normal 0.0 0.0 1.0
outer loop
vertex 0.105866657858821 13.3807403920117 4.5
vertex -0.334125718815462 11.7386664873203 4.5
vertex 0.100000000000001 11.558845726812 4.5
endloop
endfacet
facet normal 0.0 0.0 1.0
outer loop
vertex 0.105866657858821 13.3807403920117 4.5
vertex 0.100000000000001 11.558845726812 4.5
vertex 0.472792206135786 11.2727922061358 4.5
endloop
endfacet
facet normal 0.0 0.0 1.0
outer loop
vertex 0.105866657858821 13.3807403920117 4.5
vertex 0.472792206135786 11.2727922061358 4.5
vertex 0.949999999999998 13.0310889132455 4.5
endloop
endfacet
facet normal 0.0 0.0 1.0
outer loop
vertex 0.949999999999998 13.0310889132455 4.5
vertex 0.472792206135786 11.2727922061358 4.5
vertex 0.75884572681199 10.9 4.5
endloop
endfacet
facet normal 0.0 0.0 1.0
outer loop
vertex 0.949999999999998 13.0310889132455 4.5
vertex 0.75884572681199 10.9 4.5
vertex 0.938666487320324 10.4658742811845 4.5
endloop
endfacet
facet normal 0.0 0.0 1.0
outer loop
vertex 0.949999999999998 13.0310889132455 4.5
vertex 0.938666487320324 10.4658742811845 4.5
vertex 1.0 10.0 4.5
endloop
endfacet
facet normal 0.0 0.0 1.0
outer loop
vertex 0.949999999999998 13.0310889132455 4.5
vertex 1.0 10.0 4.5
vertex 1.67487373415291 12.4748737341529 4.5
endloop
endfacet
facet normal 6.95066571860459e-016 -1.0 0.0
outer loop
vertex -0.799999999999998 6.5 4.5
vertex -1.70586665785882 6.61925960798826 2.5
vertex -0.799999999999998 6.5 2.5
endloop
endfacet
facet normal -0.258819045102521 -0.965925826289068 0.0
outer loop
vertex -1.70586665785882 6.61925960798826 2.5
vertex -0.799999999999998 6.5 4.5
vertex -1.70586665785882 6.61925960798826 4.5
endloop
endfacet
facet normal 0.258819045102522 -0.965925826289068 0.0
outer loop
vertex 0.105866657858826 6.61925960798826 4.5
vertex -0.799999999999998 6.5 2.5
vertex 0.105866657858826 6.61925960798826 2.5
endloop
endfacet
facet normal 6.95066571860459e-016 -1.0 0.0
outer loop
vertex -0.799999999999998 6.5 2.5
vertex 0.105866657858826 6.61925960798826 4.5
vertex -0.799999999999998 6.5 4.5
endloop
endfacet
facet normal 0.5 -0.866025403784439 0.0
outer loop
vertex 0.950000000000002 6.96891108675447 4.5
vertex 0.105866657858826 6.61925960798826 2.5
vertex 0.950000000000002 6.96891108675447 2.5
endloop
endfacet
facet normal 0.258819045102522 -0.965925826289068 0.0
outer loop
vertex 0.105866657858826 6.61925960798826 2.5
vertex 0.950000000000002 6.96891108675447 4.5
vertex 0.105866657858826 6.61925960798826 4.5
endloop
endfacet
facet normal 0.707106781186548 -0.707106781186547 0.0
outer loop
vertex 1.67487373415292 7.52512626584709 4.5
vertex 0.950000000000002 6.96891108675447 2.5
vertex 1.67487373415292 7.52512626584709 2.5
endloop
endfacet
facet normal 0.5 -0.866025403784439 0.0
outer loop
vertex 0.950000000000002 6.96891108675447 2.5
vertex 1.67487373415292 7.52512626584709 4.5
vertex 0.950000000000002 6.96891108675447 4.5
endloop
endfacet
facet normal 0.866025403784439 -0.5 0.0
outer loop
vertex 2.23108891324554 8.25 2.5
vertex 1.67487373415292 7.52512626584709 4.5
vertex 1.67487373415292 7.52512626584709 2.5
endloop
endfacet
facet normal 0.707106781186548 -0.707106781186547 0.0
outer loop
vertex 1.67487373415292 7.52512626584709 4.5
vertex 2.23108891324554 8.25 2.5
vertex 2.23108891324554 8.25 4.5
endloop
endfacet
facet normal 0.965925826289068 -0.25881904510252 0.0
outer loop
vertex 2.58074039201174 9.09413334214118 2.5
vertex 2.23108891324554 8.25 4.5
vertex 2.23108891324554 8.25 2.5
endloop
endfacet
facet normal 0.866025403784439 -0.5 0.0
outer loop
vertex 2.23108891324554 8.25 4.5
vertex 2.58074039201174 9.09413334214118 2.5
vertex 2.58074039201174 9.09413334214118 4.5
endloop
endfacet
facet normal 1.0 9.44577648938572e-016 0.0
outer loop
vertex 2.7 10.0 2.5
vertex 2.58074039201174 9.09413334214118 4.5
vertex 2.58074039201174 9.09413334214118 2.5
endloop
endfacet
facet normal 0.965925826289068 -0.25881904510252 0.0
outer loop
vertex 2.58074039201174 9.09413334214118 4.5
vertex 2.7 10.0 2.5
vertex 2.7 10.0 4.5
endloop
endfacet
facet normal 0.965925826289068 0.258819045102522 0.0
outer loop
vertex 2.58074039201174 10.9058666578588 2.5
vertex 2.7 10.0 4.5
vertex 2.7 10.0 2.5
endloop
endfacet
facet normal 1.0 9.44577648938572e-016 0.0
outer loop
vertex 2.7 10.0 4.5
vertex 2.58074039201174 10.9058666578588 2.5
vertex 2.58074039201174 10.9058666578588 4.5
endloop
endfacet
facet normal 0.866025403784439 0.5 0.0
outer loop
vertex 2.23108891324553 11.75 2.5
vertex 2.58074039201174 10.9058666578588 4.5
vertex 2.58074039201174 10.9058666578588 2.5
endloop
endfacet
facet normal 0.965925826289068 0.258819045102522 0.0
outer loop
vertex 2.58074039201174 10.9058666578588 4.5
vertex 2.23108891324553 11.75 2.5
vertex 2.23108891324553 11.75 4.5
endloop
endfacet
facet normal 0.707106781186547 0.707106781186548 0.0
outer loop
vertex 1.67487373415291 12.4748737341529 2.5
vertex 2.23108891324553 11.75 4.5
vertex 2.23108891324553 11.75 2.5
endloop
endfacet
facet normal 0.866025403784439 0.5 0.0
outer loop
vertex 2.23108891324553 11.75 4.5
vertex 1.67487373415291 12.4748737341529 2.5
vertex 1.67487373415291 12.4748737341529 4.5
endloop
endfacet
facet normal 0.499999999999999 0.866025403784439 0.0
outer loop
vertex 0.949999999999998 13.0310889132455 4.5
vertex 1.67487373415291 12.4748737341529 2.5
vertex 0.949999999999998 13.0310889132455 2.5
endloop
endfacet
facet normal 0.707106781186547 0.707106781186548 0.0
outer loop
vertex 1.67487373415291 12.4748737341529 2.5
vertex 0.949999999999998 13.0310889132455 4.5
vertex 1.67487373415291 12.4748737341529 4.5
endloop
endfacet
facet normal 0.25881904510252 0.965925826289069 0.0
outer loop
vertex 0.105866657858821 13.3807403920117 4.5
vertex 0.949999999999998 13.0310889132455 2.5
vertex 0.105866657858821 13.3807403920117 2.5
endloop
endfacet
facet normal 0.499999999999999 0.866025403784439 0.0
outer loop
vertex 0.949999999999998 13.0310889132455 2.5
vertex 0.105866657858821 13.3807403920117 4.5
vertex 0.949999999999998 13.0310889132455 4.5
endloop
endfacet
facet normal -1.31884426455574e-015 1.0 0.0
outer loop
vertex -0.800000000000001 13.5 4.5
vertex 0.105866657858821 13.3807403920117 2.5
vertex -0.800000000000001 13.5 2.5
endloop
endfacet
facet normal 0.25881904510252 0.965925826289069 0.0
outer loop
vertex 0.105866657858821 13.3807403920117 2.5
vertex -0.800000000000001 13.5 4.5
vertex 0.105866657858821 13.3807403920117 4.5
endloop
endfacet
facet normal -0.258819045102523 0.965925826289068 0.0
outer loop
vertex -1.70586665785883 13.3807403920117 4.5
vertex -0.800000000000001 13.5 2.5
vertex -1.70586665785883 13.3807403920117 2.5
endloop
endfacet
facet normal -1.31884426455574e-015 1.0 0.0
outer loop
vertex -0.800000000000001 13.5 2.5
vertex -1.70586665785883 13.3807403920117 4.5
vertex -0.800000000000001 13.5 4.5
endloop
endfacet
facet normal -0.5 0.866025403784439 0.0
outer loop
vertex -2.55 13.0310889132455 4.5
vertex -1.70586665785883 13.3807403920117 2.5
vertex -2.55 13.0310889132455 2.5
endloop
endfacet
facet normal -0.258819045102523 0.965925826289068 0.0
outer loop
vertex -1.70586665785883 13.3807403920117 2.5
vertex -2.55 13.0310889132455 4.5
vertex -1.70586665785883 13.3807403920117 4.5
endloop
endfacet
facet normal -0.707106781186548 0.707106781186547 0.0
outer loop
vertex -3.27487373415292 12.4748737341529 4.5
vertex -2.55 13.0310889132455 2.5
vertex -3.27487373415292 12.4748737341529 2.5
endloop
endfacet
facet normal -0.5 0.866025403784439 0.0
outer loop
vertex -2.55 13.0310889132455 2.5
vertex -3.27487373415292 12.4748737341529 4.5
vertex -2.55 13.0310889132455 4.5
endloop
endfacet
facet normal -0.707106781186548 0.707106781186547 0.0
outer loop
vertex -3.27487373415292 12.4748737341529 4.5
vertex -3.83108891324554 11.75 2.5
vertex -3.83108891324554 11.75 4.5
endloop
endfacet
facet normal -0.866025403784439 0.499999999999999 0.0
outer loop
vertex -3.83108891324554 11.75 2.5
vertex -3.27487373415292 12.4748737341529 4.5
vertex -3.27487373415292 12.4748737341529 2.5
endloop
endfacet
facet normal -0.866025403784439 0.499999999999999 0.0
outer loop
vertex -3.83108891324554 11.75 4.5
vertex -4.18074039201174 10.9058666578588 2.5
vertex -4.18074039201174 10.9058666578588 4.5
endloop
endfacet
facet normal -0.965925826289069 0.25881904510252 0.0
outer loop
vertex -4.18074039201174 10.9058666578588 2.5
vertex -3.83108891324554 11.75 4.5
vertex -3.83108891324554 11.75 2.5
endloop
endfacet
facet normal -0.965925826289069 0.25881904510252 0.0
outer loop
vertex -4.18074039201174 10.9058666578588 4.5
vertex -4.3 10.0 2.5
vertex -4.3 10.0 4.5
endloop
endfacet
facet normal -1.0 -9.53488758834219e-016 0.0
outer loop
vertex -4.3 10.0 2.5
vertex -4.18074039201174 10.9058666578588 4.5
vertex -4.18074039201174 10.9058666578588 2.5
endloop
endfacet
facet normal -1.0 -9.53488758834219e-016 0.0
outer loop
vertex -4.3 10.0 4.5
vertex -4.18074039201174 9.09413334214118 2.5
vertex -4.18074039201174 9.09413334214118 4.5
endloop
endfacet
facet normal -0.965925826289068 -0.258819045102522 0.0
outer loop
vertex -4.18074039201174 9.09413334214118 2.5
vertex -4.3 10.0 4.5
vertex -4.3 10.0 2.5
endloop
endfacet
facet normal -0.965925826289068 -0.258819045102522 0.0
outer loop
vertex -4.18074039201174 9.09413334214118 4.5
vertex -3.83108891324553 8.25 2.5
vertex -3.83108891324553 8.25 4.5
endloop
endfacet
facet normal -0.866025403784439 -0.5 0.0
outer loop
vertex -3.83108891324553 8.25 2.5
vertex -4.18074039201174 9.09413334214118 4.5
vertex -4.18074039201174 9.09413334214118 2.5
endloop
endfacet
facet normal -0.866025403784439 -0.5 0.0
outer loop
vertex -3.83108891324553 8.25 4.5
vertex -3.27487373415291 7.52512626584708 2.5
vertex -3.27487373415291 7.52512626584708 4.5
endloop
endfacet
facet normal -0.707106781186547 -0.707106781186548 0.0
outer loop
vertex -3.27487373415291 7.52512626584708 2.5
vertex -3.83108891324553 8.25 4.5
vertex -3.83108891324553 8.25 2.5
endloop
endfacet
facet normal -0.499999999999999 -0.866025403784439 0.0
outer loop
vertex -2.55 6.96891108675446 4.5
vertex -3.27487373415291 7.52512626584708 2.5
vertex -2.55 6.96891108675446 2.5
endloop
endfacet
facet normal -0.707106781186547 -0.707106781186548 0.0
outer loop
vertex -3.27487373415291 7.52512626584708 2.5
vertex -2.55 6.96891108675446 4.5
vertex -3.27487373415291 7.52512626584708 4.5
endloop
endfacet
facet normal -0.258819045102521 -0.965925826289068 0.0
outer loop
vertex -1.70586665785882 6.61925960798826 4.5
vertex -2.55 6.96891108675446 2.5
vertex -1.70586665785882 6.61925960798826 2.5
endloop
endfacet
facet normal -0.499999999999999 -0.866025403784439 0.0
outer loop
vertex -2.55 6.96891108675446 2.5
vertex -1.70586665785882 6.61925960798826 4.5
vertex -2.55 6.96891108675446 4.5
endloop
endfacet
facet normal -0.130526192220049 0.991444861373811 0.0
outer loop
vertex 28.0 8.4 2.5
vertex 28.414110472164 8.45451867793749 -3.87745391350336e-015
vertex 28.0 8.4 -3.87745391350336e-015
endloop
endfacet
facet normal -0.25881904510252 0.965925826289069 1.30363040713326e-018
outer loop
vertex 28.414110472164 8.45451867793749 -3.87745391350336e-015
vertex 28.0 8.4 2.5
vertex 28.414110472164 8.45451867793749 2.5
endloop
endfacet
facet normal -0.25881904510252 0.965925826289069 1.30363040713326e-018
outer loop
vertex 28.414110472164 8.45451867793749 2.5
vertex 28.8 8.6143593539449 -3.87745391350336e-015
vertex 28.414110472164 8.45451867793749 -3.87745391350336e-015
endloop
endfacet
facet normal -0.499999999999996 0.866025403784441 1.30363040713326e-018
outer loop
vertex 28.8 8.6143593539449 -3.87745391350336e-015
vertex 28.414110472164 8.45451867793749 2.5
vertex 28.8 8.6143593539449 2.5
endloop
endfacet
facet normal -0.499999999999996 0.866025403784441 1.30363040713326e-018
outer loop
vertex 28.8 8.6143593539449 2.5
vertex 29.1313708498985 8.86862915010152 -3.87745391350336e-015
vertex 28.8 8.6143593539449 -3.87745391350336e-015
endloop
endfacet
facet normal -0.707106781186544 0.707106781186551 2.44138605081887e-032
outer loop
vertex 29.1313708498985 8.86862915010152 -3.87745391350336e-015
vertex 28.8 8.6143593539449 2.5
vertex 29.1313708498985 8.86862915010152 2.5
endloop
endfacet
facet normal -0.866025403784439 0.499999999999999 2.44138605081887e-032
outer loop
vertex 29.3856406460551 9.2 2.5
vertex 29.1313708498985 8.86862915010152 -3.87745391350336e-015
vertex 29.1313708498985 8.86862915010152 2.5
endloop
endfacet
facet normal -0.707106781186544 0.707106781186551 2.44138605081887e-032
outer loop
vertex 29.1313708498985 8.86862915010152 -3.87745391350336e-015
vertex 29.3856406460551 9.2 2.5
vertex 29.3856406460551 9.2 -3.87745391350336e-015
endloop
endfacet
facet normal -0.965925826289071 0.258819045102511 5.23464217290173e-033
outer loop
vertex 29.5454813220625 9.58588952783597 2.5
vertex 29.3856406460551 9.2 -3.87745391350336e-015
vertex 29.3856406460551 9.2 2.5
endloop
endfacet
facet normal -0.866025403784439 0.499999999999999 2.44138605081887e-032
outer loop
vertex 29.3856406460551 9.2 -3.87745391350336e-015
vertex 29.5454813220625 9.58588952783597 2.5
vertex 29.5454813220625 9.58588952783597 -3.87745391350336e-015
endloop
endfacet
facet normal -1.0 -2.31688857286819e-016 5.23464217290172e-033
outer loop
vertex 29.6 10.0 2.5
vertex 29.5454813220625 9.58588952783597 -3.87745391350336e-015
vertex 29.5454813220625 9.58588952783597 2.5
endloop
endfacet
facet normal -0.965925826289071 0.258819045102511 5.23464217290173e-033
outer loop
vertex 29.5454813220625 9.58588952783597 -3.87745391350336e-015
vertex 29.6 10.0 2.5
vertex 29.6 10.0 -3.87745391350336e-015
endloop
endfacet
facet normal -0.25881904510252 -0.965925826289069 -1.30363040713326e-018
outer loop
vertex 28.414110472164 11.5454813220625 2.5
vertex 28.0 11.6 -3.87745391350336e-015
vertex 28.414110472164 11.5454813220625 -3.87745391350336e-015
endloop
endfacet
facet normal -0.130526192220049 -0.991444861373811 0.0
outer loop
vertex 28.0 11.6 -3.87745391350336e-015
vertex 28.414110472164 11.5454813220625 2.5
vertex 28.0 11.6 2.5
endloop
endfacet
facet normal -0.965925826289071 -0.258819045102511 0.0
outer loop
vertex 29.5454813220625 10.414110472164 2.5
vertex 29.6 10.0 -3.87745391350336e-015
vertex 29.6 10.0 2.5
endloop
endfacet
facet normal -1.0 -2.31688857286819e-016 5.23464217290172e-033
outer loop
vertex 29.6 10.0 -3.87745391350336e-015
vertex 29.5454813220625 10.414110472164 2.5
vertex 29.5454813220625 10.414110472164 -3.87745391350336e-015
endloop
endfacet
facet normal -0.866025403784439 -0.5 -1.71797270448989e-018
outer loop
vertex 29.3856406460551 10.8 2.5
vertex 29.5454813220625 10.414110472164 -3.87745391350336e-015
vertex 29.5454813220625 10.414110472164 2.5
endloop
endfacet
facet normal -0.965925826289071 -0.258819045102511 0.0
outer loop
vertex 29.5454813220625 10.414110472164 -3.87745391350336e-015
vertex 29.3856406460551 10.8 2.5
vertex 29.3856406460551 10.8 -3.87745391350336e-015
endloop
endfacet
facet normal -0.707106781186544 -0.707106781186551 -1.71797270448989e-018
outer loop
vertex 29.1313708498985 11.1313708498985 2.5
vertex 29.3856406460551 10.8 -3.87745391350336e-015
vertex 29.3856406460551 10.8 2.5
endloop
endfacet
facet normal -0.866025403784439 -0.5 -1.71797270448989e-018
outer loop
vertex 29.3856406460551 10.8 -3.87745391350336e-015
vertex 29.1313708498985 11.1313708498985 2.5
vertex 29.1313708498985 11.1313708498985 -3.87745391350336e-015
endloop
endfacet
facet normal -0.707106781186544 -0.707106781186551 -1.71797270448989e-018
outer loop
vertex 29.1313708498985 11.1313708498985 2.5
vertex 28.8 11.3856406460551 -3.87745391350336e-015
vertex 29.1313708498985 11.1313708498985 -3.87745391350336e-015
endloop
endfacet
facet normal -0.499999999999998 -0.86602540378444 -1.30363040713326e-018
outer loop
vertex 28.8 11.3856406460551 -3.87745391350336e-015
vertex 29.1313708498985 11.1313708498985 2.5
vertex 28.8 11.3856406460551 2.5
endloop
endfacet
facet normal -0.499999999999998 -0.86602540378444 -1.30363040713326e-018
outer loop
vertex 28.8 11.3856406460551 2.5
vertex 28.414110472164 11.5454813220625 -3.87745391350336e-015
vertex 28.8 11.3856406460551 -3.87745391350336e-015
endloop
endfacet
facet normal -0.25881904510252 -0.965925826289069 -1.30363040713326e-018
outer loop
vertex 28.414110472164 11.5454813220625 -3.87745391350336e-015
vertex 28.8 11.3856406460551 2.5
vertex 28.414110472164 11.5454813220625 2.5
endloop
endfacet
facet normal -0.0327190828217771 0.999464587476366 -3.98518707119796e-020
outer loop
vertex 1.4 18.0 2.5
vertex 26.6 18.0 -2.0
vertex 1.4 18.0 -2.0
endloop
endfacet
facet normal 0.0 1.0 0.0
outer loop
vertex 26.6 18.0 -2.0
vertex 1.4 18.0 2.5
vertex 26.6 18.0 2.5
endloop
endfacet
facet normal 0.0 -1.0 0.0
outer loop
vertex 26.6 2.0 2.5
vertex 1.4 2.0 -2.0
vertex 26.6 2.0 -2.0
endloop
endfacet
facet normal -0.0327190828217763 -0.999464587476366 2.32945057294555e-019
outer loop
vertex 1.4 2.0 -2.0
vertex 26.6 2.0 2.5
vertex 1.4 2.0 2.5
endloop
endfacet
facet normal 0.0 1.0 0.0
outer loop
vertex 3.0 8.4 2.5
vertex 28.0 8.4 -3.87745391350336e-015
vertex 3.0 8.4 -2.0
endloop
endfacet
facet normal 0.0 1.0 0.0
outer loop
vertex 28.0 8.4 -3.87745391350336e-015
vertex 3.0 8.4 2.5
vertex 28.0 8.4 2.5
endloop
endfacet
facet normal 0.0 1.0 0.0
outer loop
vertex 3.0 8.4 -2.0
vertex 33.0 8.4 -1.58623114643319e-015
vertex 33.0 8.4 -2.0
endloop
endfacet
facet normal 0.0 1.0 0.0
outer loop
vertex 33.0 8.4 -1.58623114643319e-015
vertex 3.0 8.4 -2.0
vertex 28.0 8.4 -3.87745391350336e-015
endloop
endfacet
facet normal 1.96740892049135e-017 -1.98819982778233e-033 1.0
outer loop
vertex -4.94524711279239 7.56463236979167 2.5
vertex -5.0 11.6 2.5
vertex -5.0 8.4 2.5
endloop
endfacet
facet normal 1.96740892049135e-017 -1.98819982778233e-033 1.0
outer loop
vertex -5.0 11.6 2.5
vertex -4.94524711279239 7.56463236979167 2.5
vertex -4.94524711279239 12.4353676302083 2.5
endloop
endfacet
facet normal 1.96740892049135e-017 -1.98819982778233e-033 1.0
outer loop
vertex -4.94524711279239 12.4353676302083 2.5
vertex -4.94524711279239 7.56463236979167 2.5
vertex -4.78192528825004 6.74355811134387 2.5
endloop
endfacet
facet normal 1.96740892049135e-017 -1.98819982778233e-033 1.0
outer loop
vertex -4.94524711279239 12.4353676302083 2.5
vertex -4.78192528825004 6.74355811134387 2.5
vertex -4.78192528825003 13.2564418886561 2.5
endloop
endfacet
facet normal 1.96740892049135e-017 -1.98819982778233e-033 1.0
outer loop
vertex -4.78192528825003 13.2564418886561 2.5
vertex -4.78192528825004 6.74355811134387 2.5
vertex -4.51282900807223 5.95082603286343 2.5
endloop
endfacet
facet normal 1.96740892049135e-017 -1.98819982778233e-033 1.0
outer loop
vertex -4.78192528825003 13.2564418886561 2.5
vertex -4.51282900807223 5.95082603286343 2.5
vertex -4.51282900807223 14.0491739671366 2.5
endloop
endfacet
facet normal 1.96740892049135e-017 -1.98819982778233e-033 1.0
outer loop
vertex -4.51282900807223 14.0491739671366 2.5
vertex -4.51282900807223 5.95082603286343 2.5
vertex -4.14256258422041 5.2 2.5
endloop
endfacet
facet normal 1.96740892049135e-017 -1.98819982778233e-033 1.0
outer loop
vertex -4.51282900807223 14.0491739671366 2.5
vertex -4.14256258422041 5.2 2.5
vertex -4.3 10.0 2.5
endloop
endfacet
facet normal 1.96740892049135e-017 -1.98819982778233e-033 1.0
outer loop
vertex -4.3 10.0 2.5
vertex -4.14256258422041 5.2 2.5
vertex -4.18074039201174 9.09413334214118 2.5
endloop
endfacet
facet normal 1.96740892049135e-017 -1.98819982778233e-033 1.0
outer loop
vertex -4.18074039201174 9.09413334214118 2.5
vertex -4.14256258422041 5.2 2.5
vertex -3.83108891324553 8.25 2.5
endloop
endfacet
facet normal 1.96740892049135e-017 -1.98819982778233e-033 1.0
outer loop
vertex -3.83108891324553 8.25 2.5
vertex -4.14256258422041 5.2 2.5
vertex -3.67746137786391 4.50392685434419 2.5
endloop
endfacet
facet normal 1.96740892049135e-017 -1.98819982778233e-033 1.0
outer loop
vertex -3.83108891324553 8.25 2.5
vertex -3.67746137786391 4.50392685434419 2.5
vertex -3.27487373415291 7.52512626584708 2.5
endloop
endfacet
facet normal 1.96740892049135e-017 -1.98819982778233e-033 1.0
outer loop
vertex -3.27487373415291 7.52512626584708 2.5
vertex -3.67746137786391 4.50392685434419 2.5
vertex -3.1254833995939 3.8745166004061 2.5
endloop
endfacet
facet normal 1.96740892049135e-017 -1.98819982778233e-033 1.0
outer loop
vertex -3.27487373415291 7.52512626584708 2.5
vertex -3.1254833995939 3.8745166004061 2.5
vertex -2.55 6.96891108675446 2.5
endloop
endfacet
facet normal 1.96740892049135e-017 -1.98819982778233e-033 1.0
outer loop
vertex -2.55 6.96891108675446 2.5
vertex -3.1254833995939 3.8745166004061 2.5
vertex -2.49607314565581 3.32253862213609 2.5
endloop
endfacet
facet normal 1.96740892049135e-017 -1.98819982778233e-033 1.0
outer loop
vertex -2.55 6.96891108675446 2.5
vertex -2.49607314565581 3.32253862213609 2.5
vertex -1.70586665785882 6.61925960798826 2.5
endloop
endfacet
facet normal 1.96740892049135e-017 -1.98819982778233e-033 1.0
outer loop
vertex -1.70586665785882 6.61925960798826 2.5
vertex -2.49607314565581 3.32253862213609 2.5
vertex -1.8 2.85743741577959 2.5
endloop
endfacet
facet normal 1.96740892049135e-017 -1.98819982778233e-033 1.0
outer loop
vertex -1.70586665785882 6.61925960798826 2.5
vertex -1.8 2.85743741577959 2.5
vertex -1.04917396713657 2.48717099192776 2.5
endloop
endfacet
facet normal 1.96740892049135e-017 -1.98819982778233e-033 1.0
outer loop
vertex -1.70586665785882 6.61925960798826 2.5
vertex -1.04917396713657 2.48717099192776 2.5
vertex -0.799999999999998 6.5 2.5
endloop
endfacet
facet normal 1.96740892049135e-017 -1.98819982778233e-033 1.0
outer loop
vertex -0.799999999999998 6.5 2.5
vertex -1.04917396713657 2.48717099192776 2.5
vertex -0.256441888656131 2.21807471174996 2.5
endloop
endfacet
facet normal 1.96740892049135e-017 -1.98819982778233e-033 1.0
outer loop
vertex -0.799999999999998 6.5 2.5
vertex -0.256441888656131 2.21807471174996 2.5
vertex 0.105866657858826 6.61925960798826 2.5
endloop
endfacet
facet normal 1.96740892049135e-017 -1.98819982778233e-033 1.0
outer loop
vertex 0.105866657858826 6.61925960798826 2.5
vertex -0.256441888656131 2.21807471174996 2.5
vertex 0.564632369791673 2.05475288720761 2.5
endloop
endfacet
facet normal 1.96740892049135e-017 -1.98819982778233e-033 1.0
outer loop
vertex 0.105866657858826 6.61925960798826 2.5
vertex 0.564632369791673 2.05475288720761 2.5
vertex 0.950000000000002 6.96891108675447 2.5
endloop
endfacet
facet normal 1.96740892049135e-017 -1.98819982778233e-033 1.0
outer loop
vertex 0.950000000000002 6.96891108675447 2.5
vertex 0.564632369791673 2.05475288720761 2.5
vertex 1.4 2.0 2.5
endloop
endfacet
facet normal 1.96740892049135e-017 -1.98819982778233e-033 1.0
outer loop
vertex 0.950000000000002 6.96891108675447 2.5
vertex 1.4 2.0 2.5
vertex 1.67487373415292 7.52512626584709 2.5
endloop
endfacet
facet normal 1.96740892049135e-017 -1.98819982778233e-033 1.0
outer loop
vertex 1.67487373415292 7.52512626584709 2.5
vertex 1.4 2.0 2.5
vertex 26.6 2.0 2.5
endloop
endfacet
facet normal 1.96740892049135e-017 -1.98819982778233e-033 1.0
outer loop
vertex 1.67487373415292 7.52512626584709 2.5
vertex 26.6 2.0 2.5
vertex 2.23108891324554 8.25 2.5
endloop
endfacet
facet normal 1.96740892049135e-017 -1.98819982778233e-033 1.0
outer loop
vertex 2.23108891324554 8.25 2.5
vertex 26.6 2.0 2.5
vertex 3.0 8.4 2.5
endloop
endfacet
facet normal 1.96740892049135e-017 -1.98819982778233e-033 1.0
outer loop
vertex 2.23108891324554 8.25 2.5
vertex 3.0 8.4 2.5
vertex 2.58074039201174 9.09413334214118 2.5
endloop
endfacet
facet normal 1.96740892049135e-017 -1.98819982778233e-033 1.0
outer loop
vertex 2.58074039201174 9.09413334214118 2.5
vertex 3.0 8.4 2.5
vertex 2.7 10.0 2.5
endloop
endfacet
facet normal 1.96740892049135e-017 -1.98819982778233e-033 1.0
outer loop
vertex 3.0 8.4 2.5
vertex 26.6 2.0 2.5
vertex 28.0 8.4 2.5
endloop
endfacet
facet normal 1.96740892049135e-017 -1.98819982778233e-033 1.0
outer loop
vertex 28.0 8.4 2.5
vertex 26.6 2.0 2.5
vertex 27.4353676302083 2.05475288720761 2.5
endloop
endfacet
facet normal 1.96740892049135e-017 -1.98819982778233e-033 1.0
outer loop
vertex 28.0 8.4 2.5
vertex 27.4353676302083 2.05475288720761 2.5
vertex 28.2564418886561 2.21807471174996 2.5
endloop
endfacet
facet normal 1.96740892049135e-017 -1.98819982778233e-033 1.0
outer loop
vertex 28.0 8.4 2.5
vertex 28.2564418886561 2.21807471174996 2.5
vertex 28.414110472164 8.45451867793749 2.5
endloop
endfacet
facet normal 1.96740892049135e-017 -1.98819982778233e-033 1.0
outer loop
vertex 28.414110472164 8.45451867793749 2.5
vertex 28.2564418886561 2.21807471174996 2.5
vertex 29.0491739671366 2.48717099192777 2.5
endloop
endfacet
facet normal 1.96740892049135e-017 -1.98819982778233e-033 1.0
outer loop
vertex 28.414110472164 8.45451867793749 2.5
vertex 29.0491739671366 2.48717099192777 2.5
vertex 28.8 8.6143593539449 2.5
endloop
endfacet
facet normal 1.96740892049135e-017 -1.98819982778233e-033 1.0
outer loop
vertex 28.8 8.6143593539449 2.5
vertex 29.0491739671366 2.48717099192777 2.5
vertex 29.1313708498985 8.86862915010152 2.5
endloop
endfacet
facet normal 1.96740892049135e-017 -1.98819982778233e-033 1.0
outer loop
vertex 29.1313708498985 8.86862915010152 2.5
vertex 29.0491739671366 2.48717099192777 2.5
vertex 29.8 2.85743741577959 2.5
endloop
endfacet
facet normal 1.96740892049135e-017 -1.98819982778233e-033 1.0
outer loop
vertex 29.1313708498985 8.86862915010152 2.5
vertex 29.8 2.85743741577959 2.5
vertex 29.3856406460551 9.2 2.5
endloop
endfacet
facet normal 1.96740892049135e-017 -1.98819982778233e-033 1.0
outer loop
vertex 29.3856406460551 9.2 2.5
vertex 29.8 2.85743741577959 2.5
vertex 29.5454813220625 9.58588952783597 2.5
endloop
endfacet
facet normal 1.96740892049135e-017 -1.98819982778233e-033 1.0
outer loop
vertex 29.5454813220625 9.58588952783597 2.5
vertex 29.8 2.85743741577959 2.5
vertex 29.6 10.0 2.5
endloop
endfacet
facet normal 1.96740892049135e-017 -1.98819982778233e-033 1.0
outer loop
vertex -4.3 10.0 2.5
vertex -4.14256258422041 14.8 2.5
vertex -4.51282900807223 14.0491739671366 2.5
endloop
endfacet
facet normal 1.96740892049135e-017 -1.98819982778233e-033 1.0
outer loop
vertex -4.14256258422041 14.8 2.5
vertex -4.3 10.0 2.5
vertex -4.18074039201174 10.9058666578588 2.5
endloop
endfacet
facet normal 1.96740892049135e-017 -1.98819982778233e-033 1.0
outer loop
vertex -4.14256258422041 14.8 2.5
vertex -4.18074039201174 10.9058666578588 2.5
vertex -3.83108891324554 11.75 2.5
endloop
endfacet
facet normal 1.96740892049135e-017 -1.98819982778233e-033 1.0
outer loop
vertex -4.14256258422041 14.8 2.5
vertex -3.83108891324554 11.75 2.5
vertex -3.6774613778639 15.4960731456558 2.5
endloop
endfacet
facet normal 1.96740892049135e-017 -1.98819982778233e-033 1.0
outer loop
vertex -3.6774613778639 15.4960731456558 2.5
vertex -3.83108891324554 11.75 2.5
vertex -3.27487373415292 12.4748737341529 2.5
endloop
endfacet
facet normal 1.96740892049135e-017 -1.98819982778233e-033 1.0
outer loop
vertex -3.6774613778639 15.4960731456558 2.5
vertex -3.27487373415292 12.4748737341529 2.5
vertex -3.1254833995939 16.1254833995939 2.5
endloop
endfacet
facet normal 1.96740892049135e-017 -1.98819982778233e-033 1.0
outer loop
vertex -3.1254833995939 16.1254833995939 2.5
vertex -3.27487373415292 12.4748737341529 2.5
vertex -2.55 13.0310889132455 2.5
endloop
endfacet
facet normal 1.96740892049135e-017 -1.98819982778233e-033 1.0
outer loop
vertex -3.1254833995939 16.1254833995939 2.5
vertex -2.55 13.0310889132455 2.5
vertex -2.49607314565581 16.6774613778639 2.5
endloop
endfacet
facet normal 1.96740892049135e-017 -1.98819982778233e-033 1.0
outer loop
vertex -2.49607314565581 16.6774613778639 2.5
vertex -2.55 13.0310889132455 2.5
vertex -1.70586665785883 13.3807403920117 2.5
endloop
endfacet
facet normal 1.96740892049135e-017 -1.98819982778233e-033 1.0
outer loop
vertex -2.49607314565581 16.6774613778639 2.5
vertex -1.70586665785883 13.3807403920117 2.5
vertex -1.8 17.1425625842204 2.5
endloop
endfacet
facet normal 1.96740892049135e-017 -1.98819982778233e-033 1.0
outer loop
vertex -1.8 17.1425625842204 2.5
vertex -1.70586665785883 13.3807403920117 2.5
vertex -1.04917396713657 17.5128290080722 2.5
endloop
endfacet
facet normal 1.96740892049135e-017 -1.98819982778233e-033 1.0
outer loop
vertex -1.04917396713657 17.5128290080722 2.5
vertex -1.70586665785883 13.3807403920117 2.5
vertex -0.800000000000001 13.5 2.5
endloop
endfacet
facet normal 1.96740892049135e-017 -1.98819982778233e-033 1.0
outer loop
vertex -1.04917396713657 17.5128290080722 2.5
vertex -0.800000000000001 13.5 2.5
vertex -0.256441888656131 17.78192528825 2.5
endloop
endfacet
facet normal 1.96740892049135e-017 -1.98819982778233e-033 1.0
outer loop
vertex -0.256441888656131 17.78192528825 2.5
vertex -0.800000000000001 13.5 2.5
vertex 0.105866657858821 13.3807403920117 2.5
endloop
endfacet
facet normal 1.96740892049135e-017 -1.98819982778233e-033 1.0
outer loop
vertex -0.256441888656131 17.78192528825 2.5
vertex 0.105866657858821 13.3807403920117 2.5
vertex 0.564632369791672 17.9452471127924 2.5
endloop
endfacet
facet normal 1.96740892049135e-017 -1.98819982778233e-033 1.0
outer loop
vertex 0.564632369791672 17.9452471127924 2.5
vertex 0.105866657858821 13.3807403920117 2.5
vertex 0.949999999999998 13.0310889132455 2.5
endloop
endfacet
facet normal 1.96740892049135e-017 -1.98819982778233e-033 1.0
outer loop
vertex 0.564632369791672 17.9452471127924 2.5
vertex 0.949999999999998 13.0310889132455 2.5
vertex 1.4 18.0 2.5
endloop
endfacet
facet normal 1.96740892049135e-017 -1.98819982778233e-033 1.0
outer loop
vertex 1.4 18.0 2.5
vertex 0.949999999999998 13.0310889132455 2.5
vertex 1.67487373415291 12.4748737341529 2.5
endloop
endfacet
facet normal 1.96740892049135e-017 -1.98819982778233e-033 1.0
outer loop
vertex 1.4 18.0 2.5
vertex 1.67487373415291 12.4748737341529 2.5
vertex 26.6 18.0 2.5
endloop
endfacet
facet normal 1.96740892049135e-017 -1.98819982778233e-033 1.0
outer loop
vertex 26.6 18.0 2.5
vertex 1.67487373415291 12.4748737341529 2.5
vertex 2.23108891324553 11.75 2.5
endloop
endfacet
facet normal 1.96740892049135e-017 -1.98819982778233e-033 1.0
outer loop
vertex 26.6 18.0 2.5
vertex 2.23108891324553 11.75 2.5
vertex 3.0 11.6 2.5
endloop
endfacet
facet normal 1.96740892049135e-017 -1.98819982778233e-033 1.0
outer loop
vertex 3.0 11.6 2.5
vertex 2.23108891324553 11.75 2.5
vertex 2.58074039201174 10.9058666578588 2.5
endloop
endfacet
facet normal 1.96740892049135e-017 -1.98819982778233e-033 1.0
outer loop
vertex 3.0 11.6 2.5
vertex 2.58074039201174 10.9058666578588 2.5
vertex 2.7 10.0 2.5
endloop
endfacet
facet normal 1.96740892049135e-017 -1.98819982778233e-033 1.0
outer loop
vertex 3.0 11.6 2.5
vertex 2.7 10.0 2.5
vertex 3.0 8.4 2.5
endloop
endfacet
facet normal 1.96740892049135e-017 -1.98819982778233e-033 1.0
outer loop
vertex 26.6 18.0 2.5
vertex 3.0 11.6 2.5
vertex 28.0 11.6 2.5
endloop
endfacet
facet normal 1.96740892049135e-017 -1.98819982778233e-033 1.0
outer loop
vertex 26.6 18.0 2.5
vertex 28.0 11.6 2.5
vertex 27.4353676302083 17.9452471127924 2.5
endloop
endfacet
facet normal 1.96740892049135e-017 -1.98819982778233e-033 1.0
outer loop
vertex 27.4353676302083 17.9452471127924 2.5
vertex 28.0 11.6 2.5
vertex 28.2564418886561 17.78192528825 2.5
endloop
endfacet
facet normal 1.96740892049135e-017 -1.98819982778233e-033 1.0
outer loop
vertex 28.2564418886561 17.78192528825 2.5
vertex 28.0 11.6 2.5
vertex 28.414110472164 11.5454813220625 2.5
endloop
endfacet
facet normal 1.96740892049135e-017 -1.98819982778233e-033 1.0
outer loop
vertex 28.2564418886561 17.78192528825 2.5
vertex 28.414110472164 11.5454813220625 2.5
vertex 29.0491739671366 17.5128290080722 2.5
endloop
endfacet
facet normal 1.96740892049135e-017 -1.98819982778233e-033 1.0
outer loop
vertex 29.0491739671366 17.5128290080722 2.5
vertex 28.414110472164 11.5454813220625 2.5
vertex 28.8 11.3856406460551 2.5
endloop
endfacet
facet normal 1.96740892049135e-017 -1.98819982778233e-033 1.0
outer loop
vertex 29.0491739671366 17.5128290080722 2.5
vertex 28.8 11.3856406460551 2.5
vertex 29.1313708498985 11.1313708498985 2.5
endloop
endfacet
facet normal 1.96740892049135e-017 -1.98819982778233e-033 1.0
outer loop
vertex 29.0491739671366 17.5128290080722 2.5
vertex 29.1313708498985 11.1313708498985 2.5
vertex 29.8 17.1425625842204 2.5
endloop
endfacet
facet normal 1.96740892049135e-017 -1.98819982778233e-033 1.0
outer loop
vertex 29.8 17.1425625842204 2.5
vertex 29.1313708498985 11.1313708498985 2.5
vertex 29.3856406460551 10.8 2.5
endloop
endfacet
facet normal 1.96740892049135e-017 -1.98819982778233e-033 1.0
outer loop
vertex 29.8 17.1425625842204 2.5
vertex 29.3856406460551 10.8 2.5
vertex 29.5454813220625 10.414110472164 2.5
endloop
endfacet
facet normal 1.96740892049135e-017 -1.98819982778233e-033 1.0
outer loop
vertex 29.8 17.1425625842204 2.5
vertex 29.5454813220625 10.414110472164 2.5
vertex 29.6 10.0 2.5
endloop
endfacet
facet normal 1.96740892049135e-017 -1.98819982778233e-033 1.0
outer loop
vertex 29.8 17.1425625842204 2.5
vertex 29.6 10.0 2.5
vertex 29.8 2.85743741577959 2.5
endloop
endfacet
facet normal 1.96740892049135e-017 -1.98819982778233e-033 1.0
outer loop
vertex 29.8 17.1425625842204 2.5
vertex 29.8 2.85743741577959 2.5
vertex 30.4960731456558 3.3225386221361 2.5
endloop
endfacet
facet normal 1.96740892049135e-017 -1.98819982778233e-033 1.0
outer loop
vertex 29.8 17.1425625842204 2.5
vertex 30.4960731456558 3.3225386221361 2.5
vertex 30.4960731456558 16.6774613778639 2.5
endloop
endfacet
facet normal 1.96740892049135e-017 -1.98819982778233e-033 1.0
outer loop
vertex 30.4960731456558 16.6774613778639 2.5
vertex 30.4960731456558 3.3225386221361 2.5
vertex 31.1254833995939 3.8745166004061 2.5
endloop
endfacet
facet normal 1.96740892049135e-017 -1.98819982778233e-033 1.0
outer loop
vertex 30.4960731456558 16.6774613778639 2.5
vertex 31.1254833995939 3.8745166004061 2.5
vertex 31.1254833995939 16.1254833995939 2.5
endloop
endfacet
facet normal 1.96740892049135e-017 -1.98819982778233e-033 1.0
outer loop
vertex 31.1254833995939 16.1254833995939 2.5
vertex 31.1254833995939 3.8745166004061 2.5
vertex 31.6774613778639 4.50392685434419 2.5
endloop
endfacet
facet normal 1.96740892049135e-017 -1.98819982778233e-033 1.0
outer loop
vertex 31.1254833995939 16.1254833995939 2.5
vertex 31.6774613778639 4.50392685434419 2.5
vertex 31.6774613778639 15.4960731456558 2.5
endloop
endfacet
facet normal 1.96740892049135e-017 -1.98819982778233e-033 1.0
outer loop
vertex 31.6774613778639 15.4960731456558 2.5
vertex 31.6774613778639 4.50392685434419 2.5
vertex 32.1425625842204 14.8 2.5
endloop
endfacet
facet normal 1.96740892049135e-017 -1.98819982778233e-033 1.0
outer loop
vertex 32.1425625842204 14.8 2.5
vertex 31.6774613778639 4.50392685434419 2.5
vertex 32.1425625842204 5.2 2.5
endloop
endfacet
facet normal 1.96740892049135e-017 -1.98819982778233e-033 1.0
outer loop
vertex 32.1425625842204 14.8 2.5
vertex 32.1425625842204 5.2 2.5
vertex 32.5128290080722 5.95082603286343 2.5
endloop
endfacet
facet normal 1.96740892049135e-017 -1.98819982778233e-033 1.0
outer loop
vertex 32.1425625842204 14.8 2.5
vertex 32.5128290080722 5.95082603286343 2.5
vertex 32.5128290080722 14.0491739671366 2.5
endloop
endfacet
facet normal 1.96740892049135e-017 -1.98819982778233e-033 1.0
outer loop
vertex 32.5128290080722 14.0491739671366 2.5
vertex 32.5128290080722 5.95082603286343 2.5
vertex 32.78192528825 6.74355811134387 2.5
endloop
endfacet
facet normal 1.96740892049135e-017 -1.98819982778233e-033 1.0
outer loop
vertex 32.5128290080722 14.0491739671366 2.5
vertex 32.78192528825 6.74355811134387 2.5
vertex 32.78192528825 13.2564418886561 2.5
endloop
endfacet
facet normal 1.96740892049135e-017 -1.98819982778233e-033 1.0
outer loop
vertex 32.78192528825 13.2564418886561 2.5
vertex 32.78192528825 6.74355811134387 2.5
vertex 32.9452471127924 7.56463236979167 2.5
endloop
endfacet
facet normal 1.96740892049135e-017 -1.98819982778233e-033 1.0
outer loop
vertex 32.78192528825 13.2564418886561 2.5
vertex 32.9452471127924 7.56463236979167 2.5
vertex 32.9452471127924 12.4353676302083 2.5
endloop
endfacet
facet normal 1.96740892049135e-017 -1.98819982778233e-033 1.0
outer loop
vertex 32.9452471127924 12.4353676302083 2.5
vertex 32.9452471127924 7.56463236979167 2.5
vertex 33.0 8.4 2.5
endloop
endfacet
facet normal 1.96740892049135e-017 -1.98819982778233e-033 1.0
outer loop
vertex 32.9452471127924 12.4353676302083 2.5
vertex 33.0 8.4 2.5
vertex 33.0 11.6 2.5
endloop
endfacet
facet normal -1.79000078988796e-017 -1.91065886505612e-016 -1.0
outer loop
vertex -2.49607314565581 16.6774613778639 -2.0
vertex -2.6 10.0 -2.0
vertex -3.1254833995939 16.1254833995939 -2.0
endloop
endfacet
facet normal -1.79000078988796e-017 -1.91065886505612e-016 -1.0
outer loop
vertex -2.6 10.0 -2.0
vertex -2.49607314565581 16.6774613778639 -2.0
vertex -2.53866648732032 10.4658742811845 -2.0
endloop
endfacet
facet normal -1.79000078988796e-017 -1.91065886505612e-016 -1.0
outer loop
vertex -2.53866648732032 10.4658742811845 -2.0
vertex -2.49607314565581 16.6774613778639 -2.0
vertex -2.35884572681199 10.9 -2.0
endloop
endfacet
facet normal -1.79000078988796e-017 -1.91065886505612e-016 -1.0
outer loop
vertex -2.35884572681199 10.9 -2.0
vertex -2.49607314565581 16.6774613778639 -2.0
vertex -1.8 17.1425625842204 -2.0
endloop
endfacet
facet normal -1.79000078988796e-017 -1.91065886505612e-016 -1.0
outer loop
vertex -2.35884572681199 10.9 -2.0
vertex -1.8 17.1425625842204 -2.0
vertex -2.07279220613578 11.2727922061358 -2.0
endloop
endfacet
facet normal -1.79000078988796e-017 -1.91065886505612e-016 -1.0
outer loop
vertex -2.07279220613578 11.2727922061358 -2.0
vertex -1.8 17.1425625842204 -2.0
vertex -1.7 11.558845726812 -2.0
endloop
endfacet
facet normal -1.79000078988796e-017 -1.91065886505612e-016 -1.0
outer loop
vertex -1.7 11.558845726812 -2.0
vertex -1.8 17.1425625842204 -2.0
vertex -1.04917396713657 17.5128290080722 -2.0
endloop
endfacet
facet normal -1.79000078988796e-017 -1.91065886505612e-016 -1.0
outer loop
vertex -1.7 11.558845726812 -2.0
vertex -1.04917396713657 17.5128290080722 -2.0
vertex -1.26587428118454 11.7386664873203 -2.0
endloop
endfacet
facet normal -1.79000078988796e-017 -1.91065886505612e-016 -1.0
outer loop
vertex -1.26587428118454 11.7386664873203 -2.0
vertex -1.04917396713657 17.5128290080722 -2.0
vertex -0.799999999999999 11.8 -2.0
endloop
endfacet
facet normal -1.79000078988796e-017 -1.91065886505612e-016 -1.0
outer loop
vertex -0.799999999999999 11.8 -2.0
vertex -1.04917396713657 17.5128290080722 -2.0
vertex -0.256441888656131 17.78192528825 -2.0
endloop
endfacet
facet normal -1.79000078988796e-017 -1.91065886505612e-016 -1.0
outer loop
vertex -0.799999999999999 11.8 -2.0
vertex -0.256441888656131 17.78192528825 -2.0
vertex -0.334125718815462 11.7386664873203 -2.0
endloop
endfacet
facet normal -1.79000078988796e-017 -1.91065886505612e-016 -1.0
outer loop
vertex -0.334125718815462 11.7386664873203 -2.0
vertex -0.256441888656131 17.78192528825 -2.0
vertex 0.100000000000001 11.558845726812 -2.0
endloop
endfacet
facet normal -1.79000078988796e-017 -1.91065886505612e-016 -1.0
outer loop
vertex 0.100000000000001 11.558845726812 -2.0
vertex -0.256441888656131 17.78192528825 -2.0
vertex 0.564632369791672 17.9452471127924 -2.0
endloop
endfacet
facet normal -1.79000078988796e-017 -1.91065886505612e-016 -1.0
outer loop
vertex 0.100000000000001 11.558845726812 -2.0
vertex 0.564632369791672 17.9452471127924 -2.0
vertex 0.472792206135786 11.2727922061358 -2.0
endloop
endfacet
facet normal -1.79000078988796e-017 -1.91065886505612e-016 -1.0
outer loop
vertex 0.472792206135786 11.2727922061358 -2.0
vertex 0.564632369791672 17.9452471127924 -2.0
vertex 0.75884572681199 10.9 -2.0
endloop
endfacet
facet normal -1.79000078988796e-017 -1.91065886505612e-016 -1.0
outer loop
vertex 0.75884572681199 10.9 -2.0
vertex 0.564632369791672 17.9452471127924 -2.0
vertex 1.4 18.0 -2.0
endloop
endfacet
facet normal -1.79000078988796e-017 -1.91065886505612e-016 -1.0
outer loop
vertex 0.75884572681199 10.9 -2.0
vertex 1.4 18.0 -2.0
vertex 0.938666487320323 10.4658742811845 -2.0
endloop
endfacet
facet normal -1.79000078988796e-017 -1.91065886505612e-016 -1.0
outer loop
vertex 0.938666487320323 10.4658742811845 -2.0
vertex 1.4 18.0 -2.0
vertex 1.0 10.0 -2.0
endloop
endfacet
facet normal -1.79000078988796e-017 -1.91065886505612e-016 -1.0
outer loop
vertex -4.94524711279239 12.4353676302083 -2.0
vertex -5.0 8.4 -2.0
vertex -5.0 11.6 -2.0
endloop
endfacet
facet normal -1.79000078988796e-017 -1.91065886505612e-016 -1.0
outer loop
vertex -5.0 8.4 -2.0
vertex -4.94524711279239 12.4353676302083 -2.0
vertex -4.94524711279239 7.56463236979167 -2.0
endloop
endfacet
facet normal -1.79000078988796e-017 -1.91065886505612e-016 -1.0
outer loop
vertex -4.94524711279239 7.56463236979167 -2.0
vertex -4.94524711279239 12.4353676302083 -2.0
vertex -4.78192528825004 6.74355811134387 -2.0
endloop
endfacet
facet normal -1.79000078988796e-017 -1.91065886505612e-016 -1.0
outer loop
vertex -4.78192528825004 6.74355811134387 -2.0
vertex -4.94524711279239 12.4353676302083 -2.0
vertex -4.78192528825003 13.2564418886561 -2.0
endloop
endfacet
facet normal -1.79000078988796e-017 -1.91065886505612e-016 -1.0
outer loop
vertex -4.78192528825004 6.74355811134387 -2.0
vertex -4.78192528825003 13.2564418886561 -2.0
vertex -4.51282900807223 5.95082603286343 -2.0
endloop
endfacet
facet normal -1.79000078988796e-017 -1.91065886505612e-016 -1.0
outer loop
vertex -4.51282900807223 5.95082603286343 -2.0
vertex -4.78192528825003 13.2564418886561 -2.0
vertex -4.51282900807223 14.0491739671366 -2.0
endloop
endfacet
facet normal -1.79000078988796e-017 -1.91065886505612e-016 -1.0
outer loop
vertex -4.51282900807223 5.95082603286343 -2.0
vertex -4.51282900807223 14.0491739671366 -2.0
vertex -4.14256258422041 5.2 -2.0
endloop
endfacet
facet normal -1.79000078988796e-017 -1.91065886505612e-016 -1.0
outer loop
vertex -4.14256258422041 5.2 -2.0
vertex -4.51282900807223 14.0491739671366 -2.0
vertex -4.14256258422041 14.8 -2.0
endloop
endfacet
facet normal -1.79000078988796e-017 -1.91065886505612e-016 -1.0
outer loop
vertex -4.14256258422041 5.2 -2.0
vertex -4.14256258422041 14.8 -2.0
vertex -3.67746137786391 4.50392685434419 -2.0
endloop
endfacet
facet normal -1.79000078988796e-017 -1.91065886505612e-016 -1.0
outer loop
vertex -3.67746137786391 4.50392685434419 -2.0
vertex -4.14256258422041 14.8 -2.0
vertex -3.6774613778639 15.4960731456558 -2.0
endloop
endfacet
facet normal -1.79000078988796e-017 -1.91065886505612e-016 -1.0
outer loop
vertex -3.67746137786391 4.50392685434419 -2.0
vertex -3.6774613778639 15.4960731456558 -2.0
vertex -3.1254833995939 3.8745166004061 -2.0
endloop
endfacet
facet normal -1.79000078988796e-017 -1.91065886505612e-016 -1.0
outer loop
vertex -3.1254833995939 3.8745166004061 -2.0
vertex -3.6774613778639 15.4960731456558 -2.0
vertex -3.1254833995939 16.1254833995939 -2.0
endloop
endfacet
facet normal -1.79000078988796e-017 -1.91065886505612e-016 -1.0
outer loop
vertex -3.1254833995939 3.8745166004061 -2.0
vertex -3.1254833995939 16.1254833995939 -2.0
vertex -2.49607314565581 3.32253862213609 -2.0
endloop
endfacet
facet normal -1.79000078988796e-017 -1.91065886505612e-016 -1.0
outer loop
vertex -2.49607314565581 3.32253862213609 -2.0
vertex -3.1254833995939 16.1254833995939 -2.0
vertex -2.6 10.0 -2.0
endloop
endfacet
facet normal -1.79000078988796e-017 -1.91065886505612e-016 -1.0
outer loop
vertex -2.49607314565581 3.32253862213609 -2.0
vertex -2.6 10.0 -2.0
vertex -2.53866648732032 9.53412571881546 -2.0
endloop
endfacet
facet normal -1.79000078988796e-017 -1.91065886505612e-016 -1.0
outer loop
vertex -2.49607314565581 3.32253862213609 -2.0
vertex -2.53866648732032 9.53412571881546 -2.0
vertex -2.35884572681199 9.1 -2.0
endloop
endfacet
facet normal -1.79000078988796e-017 -1.91065886505612e-016 -1.0
outer loop
vertex -2.49607314565581 3.32253862213609 -2.0
vertex -2.35884572681199 9.1 -2.0
vertex -1.8 2.85743741577959 -2.0
endloop
endfacet
facet normal -1.79000078988796e-017 -1.91065886505612e-016 -1.0
outer loop
vertex -1.8 2.85743741577959 -2.0
vertex -2.35884572681199 9.1 -2.0
vertex -2.07279220613579 8.72720779386422 -2.0
endloop
endfacet
facet normal -1.79000078988796e-017 -1.91065886505612e-016 -1.0
outer loop
vertex -1.8 2.85743741577959 -2.0
vertex -2.07279220613579 8.72720779386422 -2.0
vertex -1.7 8.44115427318801 -2.0
endloop
endfacet
facet normal -1.79000078988796e-017 -1.91065886505612e-016 -1.0
outer loop
vertex -1.8 2.85743741577959 -2.0
vertex -1.7 8.44115427318801 -2.0
vertex -1.04917396713657 2.48717099192776 -2.0
endloop
endfacet
facet normal -1.79000078988796e-017 -1.91065886505612e-016 -1.0
outer loop
vertex -1.04917396713657 2.48717099192776 -2.0
vertex -1.7 8.44115427318801 -2.0
vertex -1.26587428118454 8.26133351267968 -2.0
endloop
endfacet
facet normal -1.79000078988796e-017 -1.91065886505612e-016 -1.0
outer loop
vertex -1.04917396713657 2.48717099192776 -2.0
vertex -1.26587428118454 8.26133351267968 -2.0
vertex -0.799999999999999 8.2 -2.0
endloop
endfacet
facet normal -1.79000078988796e-017 -1.91065886505612e-016 -1.0
outer loop
vertex -1.04917396713657 2.48717099192776 -2.0
vertex -0.799999999999999 8.2 -2.0
vertex -0.256441888656131 2.21807471174996 -2.0
endloop
endfacet
facet normal -1.79000078988796e-017 -1.91065886505612e-016 -1.0
outer loop
vertex -0.256441888656131 2.21807471174996 -2.0
vertex -0.799999999999999 8.2 -2.0
vertex -0.334125718815462 8.26133351267968 -2.0
endloop
endfacet
facet normal -1.79000078988796e-017 -1.91065886505612e-016 -1.0
outer loop
vertex -0.256441888656131 2.21807471174996 -2.0
vertex -0.334125718815462 8.26133351267968 -2.0
vertex 0.100000000000001 8.44115427318801 -2.0
endloop
endfacet
facet normal -1.79000078988796e-017 -1.91065886505612e-016 -1.0
outer loop
vertex -0.256441888656131 2.21807471174996 -2.0
vertex 0.100000000000001 8.44115427318801 -2.0
vertex 0.564632369791673 2.05475288720761 -2.0
endloop
endfacet
facet normal -1.79000078988796e-017 -1.91065886505612e-016 -1.0
outer loop
vertex 0.564632369791673 2.05475288720761 -2.0
vertex 0.100000000000001 8.44115427318801 -2.0
vertex 0.472792206135786 8.72720779386422 -2.0
endloop
endfacet
facet normal -1.79000078988796e-017 -1.91065886505612e-016 -1.0
outer loop
vertex 0.564632369791673 2.05475288720761 -2.0
vertex 0.472792206135786 8.72720779386422 -2.0
vertex 0.75884572681199 9.1 -2.0
endloop
endfacet
facet normal -1.79000078988796e-017 -1.91065886505612e-016 -1.0
outer loop
vertex 0.564632369791673 2.05475288720761 -2.0
vertex 0.75884572681199 9.1 -2.0
vertex 1.4 2.0 -2.0
endloop
endfacet
facet normal -1.79000078988796e-017 -1.91065886505612e-016 -1.0
outer loop
vertex 1.4 2.0 -2.0
vertex 0.75884572681199 9.1 -2.0
vertex 0.938666487320323 9.53412571881546 -2.0
endloop
endfacet
facet normal -1.79000078988796e-017 -1.91065886505612e-016 -1.0
outer loop
vertex 1.4 2.0 -2.0
vertex 0.938666487320323 9.53412571881546 -2.0
vertex 1.0 10.0 -2.0
endloop
endfacet
facet normal -1.79000078988796e-017 -1.91065886505612e-016 -1.0
outer loop
vertex 1.4 2.0 -2.0
vertex 1.0 10.0 -2.0
vertex 1.4 18.0 -2.0
endloop
endfacet
facet normal -1.79000078988796e-017 -1.91065886505612e-016 -1.0
outer loop
vertex 1.4 2.0 -2.0
vertex 1.4 18.0 -2.0
vertex 3.0 11.6 -2.0
endloop
endfacet
facet normal -1.79000078988796e-017 -1.91065886505612e-016 -1.0
outer loop
vertex 3.0 11.6 -2.0
vertex 1.4 18.0 -2.0
vertex 26.6 18.0 -2.0
endloop
endfacet
facet normal -1.79000078988796e-017 -1.91065886505612e-016 -1.0
outer loop
vertex 3.0 11.6 -2.0
vertex 26.6 18.0 -2.0
vertex 33.0 11.6 -2.0
endloop
endfacet
facet normal -1.79000078988796e-017 -1.91065886505612e-016 -1.0
outer loop
vertex 33.0 11.6 -2.0
vertex 26.6 18.0 -2.0
vertex 27.4353676302083 17.9452471127924 -2.0
endloop
endfacet
facet normal -1.79000078988796e-017 -1.91065886505612e-016 -1.0
outer loop
vertex 33.0 11.6 -2.0
vertex 27.4353676302083 17.9452471127924 -2.0
vertex 28.2564418886561 17.78192528825 -2.0
endloop
endfacet
facet normal -1.79000078988796e-017 -1.91065886505612e-016 -1.0
outer loop
vertex 33.0 11.6 -2.0
vertex 28.2564418886561 17.78192528825 -2.0
vertex 29.0491739671366 17.5128290080722 -2.0
endloop
endfacet
facet normal -1.79000078988796e-017 -1.91065886505612e-016 -1.0
outer loop
vertex 33.0 11.6 -2.0
vertex 29.0491739671366 17.5128290080722 -2.0
vertex 29.8 17.1425625842204 -2.0
endloop
endfacet
facet normal -1.79000078988796e-017 -1.91065886505612e-016 -1.0
outer loop
vertex 33.0 11.6 -2.0
vertex 29.8 17.1425625842204 -2.0
vertex 30.4960731456558 16.6774613778639 -2.0
endloop
endfacet
facet normal -1.79000078988796e-017 -1.91065886505612e-016 -1.0
outer loop
vertex 33.0 11.6 -2.0
vertex 30.4960731456558 16.6774613778639 -2.0
vertex 31.1254833995939 16.1254833995939 -2.0
endloop
endfacet
facet normal -1.79000078988796e-017 -1.91065886505612e-016 -1.0
outer loop
vertex 33.0 11.6 -2.0
vertex 31.1254833995939 16.1254833995939 -2.0
vertex 31.6774613778639 15.4960731456558 -2.0
endloop
endfacet
facet normal -1.79000078988796e-017 -1.91065886505612e-016 -1.0
outer loop
vertex 33.0 11.6 -2.0
vertex 31.6774613778639 15.4960731456558 -2.0
vertex 32.1425625842204 14.8 -2.0
endloop
endfacet
facet normal -1.79000078988796e-017 -1.91065886505612e-016 -1.0
outer loop
vertex 33.0 11.6 -2.0
vertex 32.1425625842204 14.8 -2.0
vertex 32.5128290080722 14.0491739671366 -2.0
endloop
endfacet
facet normal -1.79000078988796e-017 -1.91065886505612e-016 -1.0
outer loop
vertex 33.0 11.6 -2.0
vertex 32.5128290080722 14.0491739671366 -2.0
vertex 32.78192528825 13.2564418886561 -2.0
endloop
endfacet
facet normal -1.79000078988796e-017 -1.91065886505612e-016 -1.0
outer loop
vertex 33.0 11.6 -2.0
vertex 32.78192528825 13.2564418886561 -2.0
vertex 32.9452471127924 12.4353676302083 -2.0
endloop
endfacet
facet normal -1.79000078988796e-017 -1.91065886505612e-016 -1.0
outer loop
vertex 1.4 2.0 -2.0
vertex 3.0 8.4 -2.0
vertex 26.6 2.0 -2.0
endloop
endfacet
facet normal -1.79000078988796e-017 -1.91065886505612e-016 -1.0
outer loop
vertex 3.0 8.4 -2.0
vertex 1.4 2.0 -2.0
vertex 3.0 11.6 -2.0
endloop
endfacet
facet normal -1.79000078988796e-017 -1.91065886505612e-016 -1.0
outer loop
vertex 26.6 2.0 -2.0
vertex 3.0 8.4 -2.0
vertex 33.0 8.4 -2.0
endloop
endfacet
facet normal -1.79000078988796e-017 -1.91065886505612e-016 -1.0
outer loop
vertex 26.6 2.0 -2.0
vertex 33.0 8.4 -2.0
vertex 27.4353676302083 2.05475288720761 -2.0
endloop
endfacet
facet normal -1.79000078988796e-017 -1.91065886505612e-016 -1.0
outer loop
vertex 27.4353676302083 2.05475288720761 -2.0
vertex 33.0 8.4 -2.0
vertex 28.2564418886561 2.21807471174996 -2.0
endloop
endfacet
facet normal -1.79000078988796e-017 -1.91065886505612e-016 -1.0
outer loop
vertex 28.2564418886561 2.21807471174996 -2.0
vertex 33.0 8.4 -2.0
vertex 29.0491739671366 2.48717099192777 -2.0
endloop
endfacet
facet normal -1.79000078988796e-017 -1.91065886505612e-016 -1.0
outer loop
vertex 29.0491739671366 2.48717099192777 -2.0
vertex 33.0 8.4 -2.0
vertex 29.8 2.85743741577959 -2.0
endloop
endfacet
facet normal -1.79000078988796e-017 -1.91065886505612e-016 -1.0
outer loop
vertex 29.8 2.85743741577959 -2.0
vertex 33.0 8.4 -2.0
vertex 30.4960731456558 3.3225386221361 -2.0
endloop
endfacet
facet normal -1.79000078988796e-017 -1.91065886505612e-016 -1.0
outer loop
vertex 30.4960731456558 3.3225386221361 -2.0
vertex 33.0 8.4 -2.0
vertex 31.1254833995939 3.8745166004061 -2.0
endloop
endfacet
facet normal -1.79000078988796e-017 -1.91065886505612e-016 -1.0
outer loop
vertex 31.1254833995939 3.8745166004061 -2.0
vertex 33.0 8.4 -2.0
vertex 31.6774613778639 4.50392685434419 -2.0
endloop
endfacet
facet normal -1.79000078988796e-017 -1.91065886505612e-016 -1.0
outer loop
vertex 31.6774613778639 4.50392685434419 -2.0
vertex 33.0 8.4 -2.0
vertex 32.1425625842204 5.2 -2.0
endloop
endfacet
facet normal -1.79000078988796e-017 -1.91065886505612e-016 -1.0
outer loop
vertex 32.1425625842204 5.2 -2.0
vertex 33.0 8.4 -2.0
vertex 32.5128290080722 5.95082603286343 -2.0
endloop
endfacet
facet normal -1.79000078988796e-017 -1.91065886505612e-016 -1.0
outer loop
vertex 32.5128290080722 5.95082603286343 -2.0
vertex 33.0 8.4 -2.0
vertex 32.78192528825 6.74355811134387 -2.0
endloop
endfacet
facet normal -1.79000078988796e-017 -1.91065886505612e-016 -1.0
outer loop
vertex 32.78192528825 6.74355811134387 -2.0
vertex 33.0 8.4 -2.0
vertex 32.9452471127924 7.56463236979167 -2.0
endloop
endfacet
facet normal 0.0 -1.0 0.0
outer loop
vertex 33.0 11.6 -1.05748743095546e-015
vertex 3.0 11.6 -2.0
vertex 33.0 11.6 -2.0
endloop
endfacet
facet normal 0.0 -1.0 0.0
outer loop
vertex 3.0 11.6 -2.0
vertex 33.0 11.6 -1.05748743095546e-015
vertex 28.0 11.6 -3.87745391350336e-015
endloop
endfacet
facet normal 0.0 -1.0 0.0
outer loop
vertex 28.0 11.6 -3.87745391350336e-015
vertex 3.0 11.6 2.5
vertex 3.0 11.6 -2.0
endloop
endfacet
facet normal 0.0 -1.0 0.0
outer loop
vertex 3.0 11.6 2.5
vertex 28.0 11.6 -3.87745391350336e-015
vertex 28.0 11.6 2.5
endloop
endfacet
endsolid bed clips
