solid solidoodlebed
facet normal -6.16392904856894e-017 1.08702548931299e-017 -1.0
outer loop
vertex -2.00000000000012 154.0 3.15000000000001
vertex 32.0 76.9999999999999 3.15000000000001
vertex -1.99999999999999 76.9999999999998 3.15000000000001
endloop
endfacet
facet normal -6.16392904856894e-017 1.08702548931299e-017 -1.0
outer loop
vertex 32.0 76.9999999999999 3.15000000000001
vertex -2.00000000000012 154.0 3.15000000000001
vertex 28.4734603858307 96.9999999999999 3.15
endloop
endfacet
facet normal -6.16392904856894e-017 1.08702548931299e-017 -1.0
outer loop
vertex 28.4734603858307 96.9999999999999 3.15
vertex -2.00000000000012 154.0 3.15000000000001
vertex 8.93933982822008 142.93933982822 3.15000000000001
endloop
endfacet
facet normal -6.16392904856894e-017 1.08702548931299e-017 -1.0
outer loop
vertex 28.4734603858307 96.9999999999999 3.15
vertex 8.93933982822008 142.93933982822 3.15000000000001
vertex 55.5265396141693 97.0 3.15
endloop
endfacet
facet normal -6.16392904856894e-017 1.08702548931299e-017 -1.0
outer loop
vertex 55.5265396141693 97.0 3.15
vertex 8.93933982822008 142.93933982822 3.15000000000001
vertex 9.24999999999989 142.700961894323 3.15000000000001
endloop
endfacet
facet normal -6.16392904856894e-017 1.08702548931299e-017 -1.0
outer loop
vertex 55.5265396141693 97.0 3.15
vertex 9.24999999999989 142.700961894323 3.15000000000001
vertex 77.0 102.5 3.15000000000001
endloop
endfacet
facet normal -6.16392904856894e-017 1.08702548931299e-017 -1.0
outer loop
vertex 77.0 102.5 3.15000000000001
vertex 9.24999999999989 142.700961894323 3.15000000000001
vertex 9.61177143234612 142.551111260566 3.15000000000001
endloop
endfacet
facet normal -6.16392904856894e-017 1.08702548931299e-017 -1.0
outer loop
vertex 77.0 102.5 3.15000000000001
vertex 9.61177143234612 142.551111260566 3.15000000000001
vertex 76.9999999999999 121.5 3.15000000000001
endloop
endfacet
facet normal -6.16392904856894e-017 1.08702548931299e-017 -1.0
outer loop
vertex 76.9999999999999 121.5 3.15000000000001
vertex 9.61177143234612 142.551111260566 3.15000000000001
vertex 9.9999999999999 142.5 3.15000000000001
endloop
endfacet
facet normal -6.16392904856894e-017 1.08702548931299e-017 -1.0
outer loop
vertex 8.93933982822008 142.93933982822 3.15000000000001
vertex -2.00000000000012 154.0 3.15000000000001
vertex 8.70096189432323 143.25 3.15000000000001
endloop
endfacet
facet normal -6.16392904856894e-017 1.08702548931299e-017 -1.0
outer loop
vertex 8.70096189432323 143.25 3.15000000000001
vertex -2.00000000000012 154.0 3.15000000000001
vertex 8.55111126056628 143.611771432346 3.15000000000001
endloop
endfacet
facet normal -6.16392904856894e-017 1.08702548931299e-017 -1.0
outer loop
vertex 8.55111126056628 143.611771432346 3.15000000000001
vertex -2.00000000000012 154.0 3.15000000000001
vertex 8.49999999999988 144.0 3.15000000000001
endloop
endfacet
facet normal -6.16392904856894e-017 1.08702548931299e-017 -1.0
outer loop
vertex 8.49999999999988 144.0 3.15000000000001
vertex -2.00000000000012 154.0 3.15000000000001
vertex 8.55111126056628 144.388228567654 3.15000000000001
endloop
endfacet
facet normal -6.16392904856894e-017 1.08702548931299e-017 -1.0
outer loop
vertex 8.55111126056628 144.388228567654 3.15000000000001
vertex -2.00000000000012 154.0 3.15000000000001
vertex 8.70096189432323 144.75 3.15000000000001
endloop
endfacet
facet normal -6.16392904856894e-017 1.08702548931299e-017 -1.0
outer loop
vertex 8.70096189432323 144.75 3.15000000000001
vertex -2.00000000000012 154.0 3.15000000000001
vertex 8.93933982822006 145.06066017178 3.15000000000001
endloop
endfacet
facet normal -6.16392904856894e-017 1.08702548931299e-017 -1.0
outer loop
vertex 8.93933982822006 145.06066017178 3.15000000000001
vertex -2.00000000000012 154.0 3.15000000000001
vertex 9.24999999999989 145.299038105677 3.15000000000001
endloop
endfacet
facet normal -6.16392904856894e-017 1.08702548931299e-017 -1.0
outer loop
vertex 9.24999999999989 145.299038105677 3.15000000000001
vertex -2.00000000000012 154.0 3.15000000000001
vertex 9.6117714323461 145.448888739433 3.15000000000001
endloop
endfacet
facet normal -6.16392904856894e-017 1.08702548931299e-017 -1.0
outer loop
vertex 9.6117714323461 145.448888739433 3.15000000000001
vertex -2.00000000000012 154.0 3.15000000000001
vertex 9.99999999999988 145.5 3.15000000000001
endloop
endfacet
facet normal -6.16392904856894e-017 1.08702548931299e-017 -1.0
outer loop
vertex 76.9999999999999 121.5 3.15000000000001
vertex 10.3882285676537 142.551111260566 3.15000000000001
vertex 76.9999999999999 156.0 3.15
endloop
endfacet
facet normal -6.16392904856894e-017 1.08702548931299e-017 -1.0
outer loop
vertex 10.3882285676537 142.551111260566 3.15000000000001
vertex 76.9999999999999 121.5 3.15000000000001
vertex 9.9999999999999 142.5 3.15000000000001
endloop
endfacet
facet normal -6.16392904856894e-017 1.08702548931299e-017 -1.0
outer loop
vertex 76.9999999999999 156.0 3.15
vertex 10.3882285676537 142.551111260566 3.15000000000001
vertex 10.7499999999999 142.700961894323 3.15000000000001
endloop
endfacet
facet normal -6.16392904856894e-017 1.08702548931299e-017 -1.0
outer loop
vertex 76.9999999999999 156.0 3.15
vertex 10.7499999999999 142.700961894323 3.15000000000001
vertex 11.0606601717797 142.93933982822 3.15000000000001
endloop
endfacet
facet normal -6.16392904856894e-017 1.08702548931299e-017 -1.0
outer loop
vertex 76.9999999999999 156.0 3.15
vertex 11.0606601717797 142.93933982822 3.15000000000001
vertex 11.2990381056765 143.25 3.15000000000001
endloop
endfacet
facet normal -6.16392904856894e-017 1.08702548931299e-017 -1.0
outer loop
vertex 76.9999999999999 156.0 3.15
vertex 11.2990381056765 143.25 3.15000000000001
vertex 11.4488887394335 143.611771432346 3.15000000000001
endloop
endfacet
facet normal -6.16392904856894e-017 1.08702548931299e-017 -1.0
outer loop
vertex 76.9999999999999 156.0 3.15
vertex 11.4488887394335 143.611771432346 3.15000000000001
vertex 11.4999999999999 144.0 3.15000000000001
endloop
endfacet
facet normal -6.16392904856894e-017 1.08702548931299e-017 -1.0
outer loop
vertex 76.9999999999999 156.0 3.15
vertex 11.4999999999999 144.0 3.15000000000001
vertex 11.4488887394335 144.388228567654 3.15000000000001
endloop
endfacet
facet normal -6.16392904856894e-017 1.08702548931299e-017 -1.0
outer loop
vertex 76.9999999999999 156.0 3.15
vertex 11.4488887394335 144.388228567654 3.15000000000001
vertex 11.2990381056765 144.75 3.15000000000001
endloop
endfacet
facet normal -6.16392904856894e-017 1.08702548931299e-017 -1.0
outer loop
vertex 76.9999999999999 156.0 3.15
vertex 11.2990381056765 144.75 3.15000000000001
vertex 11.0606601717797 145.06066017178 3.15000000000001
endloop
endfacet
facet normal -6.16392904856894e-017 1.08702548931299e-017 -1.0
outer loop
vertex 76.9999999999999 156.0 3.15
vertex 11.0606601717797 145.06066017178 3.15000000000001
vertex 10.7499999999999 145.299038105677 3.15000000000001
endloop
endfacet
facet normal -6.16392904856894e-017 1.08702548931299e-017 -1.0
outer loop
vertex 76.9999999999999 156.0 3.15
vertex 10.7499999999999 145.299038105677 3.15000000000001
vertex 10.3882285676537 145.448888739433 3.15000000000001
endloop
endfacet
facet normal -6.16392904856894e-017 1.08702548931299e-017 -1.0
outer loop
vertex 76.9999999999999 156.0 3.15
vertex 10.3882285676537 145.448888739433 3.15000000000001
vertex 9.99999999999988 145.5 3.15000000000001
endloop
endfacet
facet normal -6.16392904856894e-017 1.08702548931299e-017 -1.0
outer loop
vertex 76.9999999999999 156.0 3.15
vertex 9.99999999999988 145.5 3.15000000000001
vertex -2.00000000000012 154.0 3.15000000000001
endloop
endfacet
facet normal -6.16392904856894e-017 1.08702548931299e-017 -1.0
outer loop
vertex 76.9999999999999 156.0 3.15
vertex -2.00000000000012 154.0 3.15000000000001
vertex -1.93185165257827 154.517638090205 3.15000000000001
endloop
endfacet
facet normal -6.16392904856894e-017 1.08702548931299e-017 -1.0
outer loop
vertex 76.9999999999999 156.0 3.15
vertex -1.93185165257827 154.517638090205 3.15000000000001
vertex -1.84775906502273 154.76536686473 3.15000000000001
endloop
endfacet
facet normal -6.16392904856894e-017 1.08702548931299e-017 -1.0
outer loop
vertex 76.9999999999999 156.0 3.15
vertex -1.84775906502273 154.76536686473 3.15000000000001
vertex -1.73205080756901 155.0 3.15000000000001
endloop
endfacet
facet normal -6.16392904856894e-017 1.08702548931299e-017 -1.0
outer loop
vertex 76.9999999999999 156.0 3.15
vertex -1.73205080756901 155.0 3.15000000000001
vertex -1.58670668058261 155.217522858017 3.15000000000001
endloop
endfacet
facet normal -6.16392904856894e-017 1.08702548931299e-017 -1.0
outer loop
vertex 76.9999999999999 156.0 3.15
vertex -1.58670668058261 155.217522858017 3.15000000000001
vertex -1.41421356237325 155.414213562373 3.15000000000001
endloop
endfacet
facet normal -6.16392904856894e-017 1.08702548931299e-017 -1.0
outer loop
vertex 76.9999999999999 156.0 3.15
vertex -1.41421356237325 155.414213562373 3.15000000000001
vertex -1.2175228580176 155.586706680582 3.15000000000001
endloop
endfacet
facet normal -6.16392904856894e-017 1.08702548931299e-017 -1.0
outer loop
vertex 76.9999999999999 156.0 3.15
vertex -1.2175228580176 155.586706680582 3.15000000000001
vertex -1.00000000000014 155.732050807569 3.15000000000001
endloop
endfacet
facet normal -6.16392904856894e-017 1.08702548931299e-017 -1.0
outer loop
vertex 76.9999999999999 156.0 3.15
vertex -1.00000000000014 155.732050807569 3.15000000000001
vertex -0.765366864730317 155.847759065022 3.15000000000001
endloop
endfacet
facet normal -6.16392904856894e-017 1.08702548931299e-017 -1.0
outer loop
vertex 76.9999999999999 156.0 3.15
vertex -0.765366864730317 155.847759065022 3.15000000000001
vertex -0.517638090205192 155.931851652578 3.15000000000001
endloop
endfacet
facet normal -6.16392904856894e-017 1.08702548931299e-017 -1.0
outer loop
vertex 76.9999999999999 156.0 3.15
vertex -0.517638090205192 155.931851652578 3.15000000000001
vertex -1.46638257092491e-013 156.0 3.15000000000001
endloop
endfacet
facet normal -6.16392904856894e-017 1.08702548931299e-017 -1.0
outer loop
vertex 55.5265396141693 97.0 3.15
vertex 77.0 77.0 3.15
vertex 52.0 77.0 3.15000000000001
endloop
endfacet
facet normal -6.16392904856894e-017 1.08702548931299e-017 -1.0
outer loop
vertex 77.0 77.0 3.15
vertex 55.5265396141693 97.0 3.15
vertex 77.0 102.5 3.15000000000001
endloop
endfacet
facet normal 1.0 2.32351383669504e-015 2.35718795027032e-016
outer loop
vertex 76.9999999999999 121.5 7.65
vertex 76.9999999999999 121.5 3.15000000000001
vertex 76.9999999999999 154.5 7.65
endloop
endfacet
facet normal 1.0 2.32351383669504e-015 2.35718795027032e-016
outer loop
vertex 76.9999999999999 156.0 3.15
vertex 76.9999999999999 154.5 7.65
vertex 76.9999999999999 121.5 3.15000000000001
endloop
endfacet
facet normal 1.0 2.32351383669504e-015 2.35718795027032e-016
outer loop
vertex 76.9999999999999 154.5 7.65
vertex 76.9999999999999 156.0 3.15
vertex 76.9999999999999 156.0 9.15
endloop
endfacet
facet normal 1.0 2.32351383669504e-015 2.35718795027032e-016
outer loop
vertex 76.9999999999999 154.5 7.65
vertex 76.9999999999999 156.0 9.15
vertex 76.9999999999999 154.5 9.15
endloop
endfacet
facet normal -1.96005385927235e-015 1.0 2.66533059407415e-018
outer loop
vertex -1.46638257092491e-013 156.0 3.15000000000001
vertex 76.9999999999999 156.0 9.15
vertex 76.9999999999999 156.0 3.15
endloop
endfacet
facet normal -1.96005385927235e-015 1.0 2.66533059407415e-018
outer loop
vertex 76.9999999999999 156.0 9.15
vertex -1.46638257092491e-013 156.0 3.15000000000001
vertex -1.46638257092491e-013 156.0 9.15000000000001
endloop
endfacet
facet normal -0.130526192220031 0.991444861373813 1.76515219468666e-017
outer loop
vertex -0.517638090205192 155.931851652578 3.15000000000001
vertex -1.46638257092491e-013 156.0 9.15000000000001
vertex -1.46638257092491e-013 156.0 3.15000000000001
endloop
endfacet
facet normal -0.130526192220031 0.991444861373813 1.76515219468666e-017
outer loop
vertex -1.46638257092491e-013 156.0 9.15000000000001
vertex -0.517638090205192 155.931851652578 3.15000000000001
vertex -0.517638090205192 155.931851652578 9.15000000000001
endloop
endfacet
facet normal -0.321439465303182 0.946930129495099 3.94856808802225e-017
outer loop
vertex -0.765366864730317 155.847759065022 3.15000000000001
vertex -0.517638090205192 155.931851652578 9.15000000000001
vertex -0.517638090205192 155.931851652578 3.15000000000001
endloop
endfacet
facet normal -0.321439465303182 0.946930129495099 3.94856808802225e-017
outer loop
vertex -0.517638090205192 155.931851652578 9.15000000000001
vertex -0.765366864730317 155.847759065022 3.15000000000001
vertex -0.765366864730317 155.847759065022 9.15000000000001
endloop
endfacet
facet normal -0.442288690219044 0.896872741532667 5.32485163554034e-017
outer loop
vertex -1.00000000000014 155.732050807569 3.15000000000001
vertex -0.765366864730317 155.847759065022 9.15000000000001
vertex -0.765366864730317 155.847759065022 3.15000000000001
endloop
endfacet
facet normal -0.442288690219044 0.896872741532667 5.32485163554034e-017
outer loop
vertex -0.765366864730317 155.847759065022 9.15000000000001
vertex -1.00000000000014 155.732050807569 3.15000000000001
vertex -1.00000000000014 155.732050807569 9.15000000000001
endloop
endfacet
facet normal -0.555570233019584 0.831469612302557 6.61002549524562e-017
outer loop
vertex -1.2175228580176 155.586706680582 3.15000000000001
vertex -1.00000000000014 155.732050807569 9.15000000000001
vertex -1.00000000000014 155.732050807569 3.15000000000001
endloop
endfacet
facet normal -0.555570233019584 0.831469612302557 6.61002549524562e-017
outer loop
vertex -1.00000000000014 155.732050807569 9.15000000000001
vertex -1.2175228580176 155.586706680582 3.15000000000001
vertex -1.2175228580176 155.586706680582 9.15000000000001
endloop
endfacet
facet normal -0.659345815100052 0.751839807478993 7.78209998608264e-017
outer loop
vertex -1.41421356237325 155.414213562373 3.15000000000001
vertex -1.2175228580176 155.586706680582 9.15000000000001
vertex -1.2175228580176 155.586706680582 3.15000000000001
endloop
endfacet
facet normal -0.659345815100052 0.751839807478993 7.78209998608264e-017
outer loop
vertex -1.2175228580176 155.586706680582 9.15000000000001
vertex -1.41421356237325 155.414213562373 3.15000000000001
vertex -1.41421356237325 155.414213562373 9.15000000000001
endloop
endfacet
facet normal -0.751839807478995 0.659345815100049 8.82102058855244e-017
outer loop
vertex -1.58670668058261 155.217522858017 9.15000000000001
vertex -1.41421356237325 155.414213562373 3.15000000000001
vertex -1.58670668058261 155.217522858017 3.15000000000001
endloop
endfacet
facet normal -0.751839807478995 0.659345815100049 8.82102058855244e-017
outer loop
vertex -1.41421356237325 155.414213562373 3.15000000000001
vertex -1.58670668058261 155.217522858017 9.15000000000001
vertex -1.41421356237325 155.414213562373 9.15000000000001
endloop
endfacet
facet normal -0.83146961230256 0.555570233019581 9.70901108310273e-017
outer loop
vertex -1.73205080756901 155.0 9.15000000000001
vertex -1.58670668058261 155.217522858017 3.15000000000001
vertex -1.73205080756901 155.0 3.15000000000001
endloop
endfacet
facet normal -0.83146961230256 0.555570233019581 9.70901108310273e-017
outer loop
vertex -1.58670668058261 155.217522858017 3.15000000000001
vertex -1.73205080756901 155.0 9.15000000000001
vertex -1.58670668058261 155.217522858017 9.15000000000001
endloop
endfacet
facet normal -0.896872741532669 0.44228869021904 1.04308777061744e-016
outer loop
vertex -1.84775906502273 154.76536686473 9.15000000000001
vertex -1.73205080756901 155.0 3.15000000000001
vertex -1.84775906502273 154.76536686473 3.15000000000001
endloop
endfacet
facet normal -0.896872741532669 0.44228869021904 1.04308777061744e-016
outer loop
vertex -1.73205080756901 155.0 3.15000000000001
vertex -1.84775906502273 154.76536686473 9.15000000000001
vertex -1.73205080756901 155.0 9.15000000000001
endloop
endfacet
facet normal -0.9469301294951 0.321439465303178 1.09742691197082e-016
outer loop
vertex -1.93185165257827 154.517638090205 9.15000000000001
vertex -1.84775906502273 154.76536686473 3.15000000000001
vertex -1.93185165257827 154.517638090205 3.15000000000001
endloop
endfacet
facet normal -0.9469301294951 0.321439465303178 1.09742691197082e-016
outer loop
vertex -1.84775906502273 154.76536686473 3.15000000000001
vertex -1.93185165257827 154.517638090205 9.15000000000001
vertex -1.84775906502273 154.76536686473 9.15000000000001
endloop
endfacet
facet normal -0.991444861373814 0.130526192220028 1.143525205123e-016
outer loop
vertex -2.00000000000012 154.0 9.15000000000001
vertex -1.93185165257827 154.517638090205 3.15000000000001
vertex -2.00000000000012 154.0 3.15000000000001
endloop
endfacet
facet normal -0.991444861373814 0.130526192220028 1.143525205123e-016
outer loop
vertex -1.93185165257827 154.517638090205 3.15000000000001
vertex -2.00000000000012 154.0 9.15000000000001
vertex -1.93185165257827 154.517638090205 9.15000000000001
endloop
endfacet
facet normal -1.0 -1.96005385927235e-015 1.14988366474435e-016
outer loop
vertex -1.99999999999999 76.9999999999998 9.15000000000001
vertex -2.00000000000012 154.0 3.15000000000001
vertex -1.99999999999999 76.9999999999998 3.15000000000001
endloop
endfacet
facet normal -1.0 -1.96005385927235e-015 1.14988366474435e-016
outer loop
vertex -2.00000000000012 154.0 3.15000000000001
vertex -1.99999999999999 76.9999999999998 9.15000000000001
vertex -2.00000000000012 154.0 9.15000000000001
endloop
endfacet
facet normal 1.3412887915918e-016 -3.07224377388676e-017 1.0
outer loop
vertex 76.9999999999999 156.0 9.15
vertex -0.500000000000123 154.5 9.15
vertex 76.9999999999999 154.5 9.15
endloop
endfacet
facet normal 1.3412887915918e-016 -3.07224377388676e-017 1.0
outer loop
vertex -0.500000000000123 154.5 9.15
vertex 76.9999999999999 156.0 9.15
vertex -1.93185165257827 154.517638090205 9.15000000000001
endloop
endfacet
facet normal 1.3412887915918e-016 -3.07224377388676e-017 1.0
outer loop
vertex -1.93185165257827 154.517638090205 9.15000000000001
vertex 76.9999999999999 156.0 9.15
vertex -1.84775906502273 154.76536686473 9.15000000000001
endloop
endfacet
facet normal 1.3412887915918e-016 -3.07224377388676e-017 1.0
outer loop
vertex -1.84775906502273 154.76536686473 9.15000000000001
vertex 76.9999999999999 156.0 9.15
vertex -1.73205080756901 155.0 9.15000000000001
endloop
endfacet
facet normal 1.3412887915918e-016 -3.07224377388676e-017 1.0
outer loop
vertex -1.73205080756901 155.0 9.15000000000001
vertex 76.9999999999999 156.0 9.15
vertex -1.58670668058261 155.217522858017 9.15000000000001
endloop
endfacet
facet normal 1.3412887915918e-016 -3.07224377388676e-017 1.0
outer loop
vertex -1.58670668058261 155.217522858017 9.15000000000001
vertex 76.9999999999999 156.0 9.15
vertex -1.41421356237325 155.414213562373 9.15000000000001
endloop
endfacet
facet normal 1.3412887915918e-016 -3.07224377388676e-017 1.0
outer loop
vertex -1.41421356237325 155.414213562373 9.15000000000001
vertex 76.9999999999999 156.0 9.15
vertex -1.2175228580176 155.586706680582 9.15000000000001
endloop
endfacet
facet normal 1.3412887915918e-016 -3.07224377388676e-017 1.0
outer loop
vertex -1.2175228580176 155.586706680582 9.15000000000001
vertex 76.9999999999999 156.0 9.15
vertex -1.00000000000014 155.732050807569 9.15000000000001
endloop
endfacet
facet normal 1.3412887915918e-016 -3.07224377388676e-017 1.0
outer loop
vertex -1.00000000000014 155.732050807569 9.15000000000001
vertex 76.9999999999999 156.0 9.15
vertex -0.765366864730317 155.847759065022 9.15000000000001
endloop
endfacet
facet normal 1.3412887915918e-016 -3.07224377388676e-017 1.0
outer loop
vertex -0.765366864730317 155.847759065022 9.15000000000001
vertex 76.9999999999999 156.0 9.15
vertex -0.517638090205192 155.931851652578 9.15000000000001
endloop
endfacet
facet normal 1.3412887915918e-016 -3.07224377388676e-017 1.0
outer loop
vertex -0.517638090205192 155.931851652578 9.15000000000001
vertex 76.9999999999999 156.0 9.15
vertex -1.46638257092491e-013 156.0 9.15000000000001
endloop
endfacet
facet normal 1.3412887915918e-016 -3.07224377388676e-017 1.0
outer loop
vertex -0.500000000000123 154.5 9.15
vertex -1.99999999999999 76.9999999999998 9.15000000000001
vertex -0.499999999999988 76.9999999999998 9.15
endloop
endfacet
facet normal 1.3412887915918e-016 -3.07224377388676e-017 1.0
outer loop
vertex -1.99999999999999 76.9999999999998 9.15000000000001
vertex -0.500000000000123 154.5 9.15
vertex -2.00000000000012 154.0 9.15000000000001
endloop
endfacet
facet normal 1.3412887915918e-016 -3.07224377388676e-017 1.0
outer loop
vertex -2.00000000000012 154.0 9.15000000000001
vertex -0.500000000000123 154.5 9.15
vertex -1.93185165257827 154.517638090205 9.15000000000001
endloop
endfacet
facet normal 1.96005385927235e-015 -1.0 -2.66533059407415e-018
outer loop
vertex -1.99999999999999 76.9999999999998 9.15000000000001
vertex -0.499999999999988 76.9999999999998 7.65
vertex -0.499999999999988 76.9999999999998 9.15
endloop
endfacet
facet normal 1.96005385927235e-015 -1.0 -2.66533059407415e-018
outer loop
vertex -0.499999999999988 76.9999999999998 7.65
vertex 32.0 76.9999999999999 3.15000000000001
vertex 32.0 76.9999999999999 7.65
endloop
endfacet
facet normal 1.96005385927235e-015 -1.0 -2.66533059407415e-018
outer loop
vertex 32.0 76.9999999999999 3.15000000000001
vertex -0.499999999999988 76.9999999999998 7.65
vertex -1.99999999999999 76.9999999999998 3.15000000000001
endloop
endfacet
facet normal 1.96005385927235e-015 -1.0 -2.66533059407415e-018
outer loop
vertex -1.99999999999999 76.9999999999998 3.15000000000001
vertex -0.499999999999988 76.9999999999998 7.65
vertex -1.99999999999999 76.9999999999998 9.15000000000001
endloop
endfacet
facet normal 1.96005385927235e-015 -1.0 4.28179997696016e-017
outer loop
vertex -0.500000000000123 154.5 9.15
vertex 76.9999999999999 154.5 7.65
vertex 76.9999999999999 154.5 9.15
endloop
endfacet
facet normal 1.96005385927235e-015 -1.0 4.28179997696016e-017
outer loop
vertex 76.9999999999999 154.5 7.65
vertex -0.500000000000123 154.5 9.15
vertex -0.500000000000123 154.5 7.65
endloop
endfacet
facet normal 1.0 1.96005385927235e-015 -5.13117039652893e-017
outer loop
vertex -0.500000000000123 154.5 9.15
vertex -0.499999999999988 76.9999999999998 7.65
vertex -0.500000000000123 154.5 7.65
endloop
endfacet
facet normal 1.0 1.96005385927235e-015 -5.13117039652893e-017
outer loop
vertex -0.499999999999988 76.9999999999998 7.65
vertex -0.500000000000123 154.5 9.15
vertex -0.499999999999988 76.9999999999998 9.15
endloop
endfacet
facet normal -0.832050294337846 -1.43667278354057e-015 0.554700196225226
outer loop
vertex 14.4999999999998 144.0 7.65000000000001
vertex 11.4488887394335 144.388228567654 3.15000000000001
vertex 11.4999999999999 144.0 3.15000000000001
endloop
endfacet
facet normal -0.803698868072342 -0.215350462657804 0.554700196225228
outer loop
vertex 11.4488887394335 144.388228567654 3.15000000000001
vertex 14.4999999999998 144.0 7.65000000000001
vertex 14.3466662183007 145.164685702961 7.65000000000001
endloop
endfacet
facet normal 1.50829596817395e-015 -0.832050294337846 0.554700196225226
outer loop
vertex 9.99999999999989 148.5 7.65000000000001
vertex 10.3882285676537 145.448888739433 3.15000000000001
vertex 11.1646857029612 148.346666218301 7.65000000000001
endloop
endfacet
facet normal -0.215350462657789 -0.803698868072346 0.554700196225228
outer loop
vertex 10.3882285676537 145.448888739433 3.15000000000001
vertex 9.99999999999989 148.5 7.65000000000001
vertex 9.99999999999988 145.5 3.15000000000001
endloop
endfacet
facet normal 0.215350462657803 -0.803698868072342 0.554700196225228
outer loop
vertex 8.83531429703858 148.346666218301 7.65000000000001
vertex 9.24999999999989 145.299038105677 3.15000000000001
vertex 9.6117714323461 145.448888739433 3.15000000000001
endloop
endfacet
facet normal 0.416025147168908 -0.720576692122905 0.554700196225223
outer loop
vertex 9.24999999999989 145.299038105677 3.15000000000001
vertex 8.83531429703858 148.346666218301 7.65000000000001
vertex 7.74999999999995 147.89711431703 7.65000000000001
endloop
endfacet
facet normal -0.803698868072346 0.215350462657789 0.554700196225228
outer loop
vertex 14.3466662183007 142.835314297039 7.65000000000001
vertex 11.4999999999999 144.0 3.15000000000001
vertex 11.4488887394335 143.611771432346 3.15000000000001
endloop
endfacet
facet normal -0.832050294337846 -1.63234184992913e-015 0.554700196225226
outer loop
vertex 11.4999999999999 144.0 3.15000000000001
vertex 14.3466662183007 142.835314297039 7.65000000000001
vertex 14.4999999999998 144.0 7.65000000000001
endloop
endfacet
facet normal 0.588348405414539 -0.588348405414562 0.554700196225232
outer loop
vertex 6.81801948466039 147.181980515339 7.65000000000001
vertex 8.70096189432323 144.75 3.15000000000001
vertex 8.93933982822006 145.06066017178 3.15000000000001
endloop
endfacet
facet normal 0.720576692122901 -0.416025147168909 0.554700196225227
outer loop
vertex 8.70096189432323 144.75 3.15000000000001
vertex 6.81801948466039 147.181980515339 7.65000000000001
vertex 6.10288568296995 146.25 7.65000000000001
endloop
endfacet
facet normal -1.62690373993148e-016 -8.68599610795662e-017 -1.0
outer loop
vertex 77.0 102.5 3.15000000000001
vertex 96.4999999999999 125.026539614169 3.15000000000001
vertex 96.5 98.9734603858307 3.15000000000001
endloop
endfacet
facet normal -1.62690373993148e-016 -8.68599610795662e-017 -1.0
outer loop
vertex 96.4999999999999 125.026539614169 3.15000000000001
vertex 77.0 102.5 3.15000000000001
vertex 76.9999999999999 121.5 3.15000000000001
endloop
endfacet
facet normal -0.177961390850186 0.984037470509466 -2.77657583404315e-017
outer loop
vertex 76.9999999999999 121.5 3.15000000000001
vertex 96.4999999999999 125.026539614169 7.65
vertex 96.4999999999999 125.026539614169 3.15000000000001
endloop
endfacet
facet normal -0.177961390850186 0.984037470509466 -2.77657583404315e-017
outer loop
vertex 96.4999999999999 125.026539614169 7.65
vertex 76.9999999999999 121.5 3.15000000000001
vertex 76.9999999999999 121.5 7.65
endloop
endfacet
facet normal -0.803698868072342 -0.215350462657803 0.554700196225228
outer loop
vertex 14.3466662183007 145.164685702961 7.65000000000001
vertex 11.2990381056765 144.75 3.15000000000001
vertex 11.4488887394335 144.388228567654 3.15000000000001
endloop
endfacet
facet normal -0.720576692122905 -0.416025147168908 0.554700196225223
outer loop
vertex 11.2990381056765 144.75 3.15000000000001
vertex 14.3466662183007 145.164685702961 7.65000000000001
vertex 13.8971143170298 146.25 7.65000000000001
endloop
endfacet
facet normal 0.215350462657803 -0.803698868072342 0.554700196225228
outer loop
vertex 8.83531429703858 148.346666218301 7.65000000000001
vertex 9.99999999999988 145.5 3.15000000000001
vertex 9.99999999999989 148.5 7.65000000000001
endloop
endfacet
facet normal 1.83057997703252e-015 -0.832050294337846 0.554700196225226
outer loop
vertex 9.99999999999988 145.5 3.15000000000001
vertex 8.83531429703858 148.346666218301 7.65000000000001
vertex 9.6117714323461 145.448888739433 3.15000000000001
endloop
endfacet
facet normal 0.416025147168909 -0.720576692122905 0.554700196225223
outer loop
vertex 7.74999999999995 147.89711431703 7.65000000000001
vertex 8.93933982822006 145.06066017178 3.15000000000001
vertex 9.24999999999989 145.299038105677 3.15000000000001
endloop
endfacet
facet normal 0.588348405414538 -0.588348405414564 0.554700196225232
outer loop
vertex 8.93933982822006 145.06066017178 3.15000000000001
vertex 7.74999999999995 147.89711431703 7.65000000000001
vertex 6.81801948466039 147.181980515339 7.65000000000001
endloop
endfacet
facet normal 0.7205766921229 -0.416025147168911 0.554700196225227
outer loop
vertex 6.10288568296995 146.25 7.65000000000001
vertex 8.55111126056628 144.388228567654 3.15000000000001
vertex 8.70096189432323 144.75 3.15000000000001
endloop
endfacet
facet normal 0.803698868072346 -0.215350462657789 0.554700196225228
outer loop
vertex 8.55111126056628 144.388228567654 3.15000000000001
vertex 6.10288568296995 146.25 7.65000000000001
vertex 5.65333378169907 145.164685702961 7.65000000000001
endloop
endfacet
facet normal 1.0 1.73182844627781e-015 -7.39557098644699e-032
outer loop
vertex 96.4999999999999 125.026539614169 7.65
vertex 96.5 98.9734603858307 3.15000000000001
vertex 96.4999999999999 125.026539614169 3.15000000000001
endloop
endfacet
facet normal 1.0 1.73182844627781e-015 -7.39557098644699e-032
outer loop
vertex 96.5 98.9734603858307 3.15000000000001
vertex 96.4999999999999 125.026539614169 7.65
vertex 96.5 98.9734603858307 7.65
endloop
endfacet
facet normal -0.177961390850182 -0.984037470509466 -1.9083440527264e-017
outer loop
vertex 77.0 102.5 7.65
vertex 96.5 98.9734603858307 3.15000000000001
vertex 96.5 98.9734603858307 7.65
endloop
endfacet
facet normal -0.177961390850182 -0.984037470509466 -1.9083440527264e-017
outer loop
vertex 96.5 98.9734603858307 3.15000000000001
vertex 77.0 102.5 7.65
vertex 77.0 102.5 3.15000000000001
endloop
endfacet
facet normal -0.215350462657789 -0.803698868072346 0.554700196225228
outer loop
vertex 11.1646857029612 148.346666218301 7.65000000000001
vertex 10.7499999999999 145.299038105677 3.15000000000001
vertex 12.2499999999999 147.89711431703 7.65000000000001
endloop
endfacet
facet normal -0.41602514716891 -0.720576692122901 0.554700196225227
outer loop
vertex 10.7499999999999 145.299038105677 3.15000000000001
vertex 11.1646857029612 148.346666218301 7.65000000000001
vertex 10.3882285676537 145.448888739433 3.15000000000001
endloop
endfacet
facet normal -0.416025147168911 -0.7205766921229 0.554700196225227
outer loop
vertex 12.2499999999999 147.89711431703 7.65000000000001
vertex 11.0606601717797 145.06066017178 3.15000000000001
vertex 13.1819805153394 147.181980515339 7.65000000000001
endloop
endfacet
facet normal -0.588348405414564 -0.588348405414537 0.554700196225232
outer loop
vertex 11.0606601717797 145.06066017178 3.15000000000001
vertex 12.2499999999999 147.89711431703 7.65000000000001
vertex 10.7499999999999 145.299038105677 3.15000000000001
endloop
endfacet
facet normal -0.720576692122905 -0.416025147168909 0.554700196225223
outer loop
vertex 13.8971143170298 146.25 7.65000000000001
vertex 11.0606601717797 145.06066017178 3.15000000000001
vertex 11.2990381056765 144.75 3.15000000000001
endloop
endfacet
facet normal -0.588348405414564 -0.588348405414537 0.554700196225232
outer loop
vertex 11.0606601717797 145.06066017178 3.15000000000001
vertex 13.8971143170298 146.25 7.65000000000001
vertex 13.1819805153394 147.181980515339 7.65000000000001
endloop
endfacet
facet normal 0.720576692122905 0.416025147168909 0.554700196225223
outer loop
vertex 6.10288568296997 141.75 7.65000000000001
vertex 8.93933982822008 142.93933982822 3.15000000000001
vertex 8.70096189432323 143.25 3.15000000000001
endloop
endfacet
facet normal 0.588348405414563 0.588348405414538 0.554700196225232
outer loop
vertex 8.93933982822008 142.93933982822 3.15000000000001
vertex 6.10288568296997 141.75 7.65000000000001
vertex 6.8180194846604 140.81801948466 7.65000000000001
endloop
endfacet
facet normal 0.588348405414563 0.588348405414538 0.554700196225232
outer loop
vertex 8.93933982822008 142.93933982822 3.15000000000001
vertex 7.74999999999986 140.10288568297 7.65000000000001
vertex 9.24999999999989 142.700961894323 3.15000000000001
endloop
endfacet
facet normal 0.416025147168911 0.7205766921229 0.554700196225227
outer loop
vertex 7.74999999999986 140.10288568297 7.65000000000001
vertex 8.93933982822008 142.93933982822 3.15000000000001
vertex 6.8180194846604 140.81801948466 7.65000000000001
endloop
endfacet
facet normal -0.588348405414538 0.588348405414563 0.554700196225233
outer loop
vertex 11.0606601717797 142.93933982822 3.15000000000001
vertex 13.8971143170298 141.75 7.65000000000001
vertex 11.2990381056765 143.25 3.15000000000001
endloop
endfacet
facet normal -0.7205766921229 0.416025147168911 0.554700196225227
outer loop
vertex 13.8971143170298 141.75 7.65000000000001
vertex 11.0606601717797 142.93933982822 3.15000000000001
vertex 13.1819805153394 140.81801948466 7.65000000000001
endloop
endfacet
facet normal 0.215350462657789 0.803698868072346 0.554700196225228
outer loop
vertex 9.61177143234612 142.551111260566 3.15000000000001
vertex 9.99999999999989 139.5 7.65000000000001
vertex 9.9999999999999 142.5 3.15000000000001
endloop
endfacet
facet normal -1.37141025469004e-015 0.832050294337846 0.554700196225226
outer loop
vertex 9.99999999999989 139.5 7.65000000000001
vertex 9.61177143234612 142.551111260566 3.15000000000001
vertex 8.83531429703858 139.653333781699 7.65000000000001
endloop
endfacet
facet normal 0.416025147168909 0.720576692122901 0.554700196225227
outer loop
vertex 9.24999999999989 142.700961894323 3.15000000000001
vertex 8.83531429703858 139.653333781699 7.65000000000001
vertex 9.61177143234612 142.551111260566 3.15000000000001
endloop
endfacet
facet normal 0.215350462657789 0.803698868072346 0.554700196225228
outer loop
vertex 8.83531429703858 139.653333781699 7.65000000000001
vertex 9.24999999999989 142.700961894323 3.15000000000001
vertex 7.74999999999986 140.10288568297 7.65000000000001
endloop
endfacet
facet normal -0.215350462657804 0.803698868072342 0.554700196225228
outer loop
vertex 10.3882285676537 142.551111260566 3.15000000000001
vertex 9.99999999999989 139.5 7.65000000000001
vertex 11.1646857029612 139.653333781699 7.65000000000001
endloop
endfacet
facet normal -1.37141025469004e-015 0.832050294337846 0.554700196225226
outer loop
vertex 9.99999999999989 139.5 7.65000000000001
vertex 10.3882285676537 142.551111260566 3.15000000000001
vertex 9.9999999999999 142.5 3.15000000000001
endloop
endfacet
facet normal -0.416025147168908 0.720576692122905 0.554700196225223
outer loop
vertex 10.7499999999999 142.700961894323 3.15000000000001
vertex 11.1646857029612 139.653333781699 7.65000000000001
vertex 12.2499999999998 140.10288568297 7.65000000000001
endloop
endfacet
facet normal -0.215350462657802 0.803698868072342 0.554700196225228
outer loop
vertex 11.1646857029612 139.653333781699 7.65000000000001
vertex 10.7499999999999 142.700961894323 3.15000000000001
vertex 10.3882285676537 142.551111260566 3.15000000000001
endloop
endfacet
facet normal -0.588348405414538 0.588348405414563 0.554700196225233
outer loop
vertex 11.0606601717797 142.93933982822 3.15000000000001
vertex 12.2499999999998 140.10288568297 7.65000000000001
vertex 13.1819805153394 140.81801948466 7.65000000000001
endloop
endfacet
facet normal -0.416025147168908 0.720576692122905 0.554700196225223
outer loop
vertex 12.2499999999998 140.10288568297 7.65000000000001
vertex 11.0606601717797 142.93933982822 3.15000000000001
vertex 10.7499999999999 142.700961894323 3.15000000000001
endloop
endfacet
facet normal -0.7205766921229 0.416025147168911 0.554700196225227
outer loop
vertex 13.8971143170298 141.75 7.65000000000001
vertex 11.4488887394335 143.611771432346 3.15000000000001
vertex 11.2990381056765 143.25 3.15000000000001
endloop
endfacet
facet normal -0.803698868072346 0.215350462657789 0.554700196225228
outer loop
vertex 11.4488887394335 143.611771432346 3.15000000000001
vertex 13.8971143170298 141.75 7.65000000000001
vertex 14.3466662183007 142.835314297039 7.65000000000001
endloop
endfacet
facet normal 0.803698868072343 0.215350462657803 0.554700196225227
outer loop
vertex 5.6533337816991 142.835314297039 7.65000000000001
vertex 8.70096189432323 143.25 3.15000000000001
vertex 8.55111126056628 143.611771432346 3.15000000000001
endloop
endfacet
facet normal 0.720576692122905 0.416025147168908 0.554700196225223
outer loop
vertex 8.70096189432323 143.25 3.15000000000001
vertex 5.6533337816991 142.835314297039 7.65000000000001
vertex 6.10288568296997 141.75 7.65000000000001
endloop
endfacet
facet normal 1.0 1.32704305061078e-015 2.46519032881566e-032
outer loop
vertex 77.0 102.5 3.15000000000001
vertex 77.0 77.0 7.65
vertex 77.0 77.0 3.15
endloop
endfacet
facet normal 1.0 1.32704305061078e-015 2.46519032881566e-032
outer loop
vertex 77.0 77.0 7.65
vertex 77.0 102.5 3.15000000000001
vertex 77.0 102.5 7.65
endloop
endfacet
facet normal 0.832050294337846 1.13555347785568e-015 0.554700196225226
outer loop
vertex 5.49999999999991 144.0 7.65000000000001
vertex 8.55111126056628 143.611771432346 3.15000000000001
vertex 8.49999999999988 144.0 3.15000000000001
endloop
endfacet
facet normal 0.803698868072342 0.215350462657804 0.554700196225227
outer loop
vertex 8.55111126056628 143.611771432346 3.15000000000001
vertex 5.49999999999991 144.0 7.65000000000001
vertex 5.6533337816991 142.835314297039 7.65000000000001
endloop
endfacet
facet normal 0.803698868072346 -0.215350462657789 0.554700196225228
outer loop
vertex 5.65333378169907 145.164685702961 7.65000000000001
vertex 8.49999999999988 144.0 3.15000000000001
vertex 8.55111126056628 144.388228567654 3.15000000000001
endloop
endfacet
facet normal 0.832050294337846 1.90124996524193e-015 0.554700196225226
outer loop
vertex 8.49999999999988 144.0 3.15000000000001
vertex 5.65333378169907 145.164685702961 7.65000000000001
vertex 5.49999999999991 144.0 7.65000000000001
endloop
endfacet
facet normal 6.11701462932602e-017 4.86760662358028e-017 1.0
outer loop
vertex 77.0 102.5 7.65
vertex 52.0 77.0 7.65
vertex 77.0 77.0 7.65
endloop
endfacet
facet normal 6.11701462932602e-017 4.86760662358028e-017 1.0
outer loop
vertex 52.0 77.0 7.65
vertex 77.0 102.5 7.65
vertex 55.5265396141693 97.0 7.65
endloop
endfacet
facet normal 6.11701462932602e-017 4.86760662358028e-017 1.0
outer loop
vertex 55.5265396141693 97.0 7.65
vertex 77.0 102.5 7.65
vertex 28.4734603858307 96.9999999999999 7.65
endloop
endfacet
facet normal 6.11701462932602e-017 4.86760662358028e-017 1.0
outer loop
vertex 96.4999999999999 125.026539614169 7.65
vertex 77.0 102.5 7.65
vertex 96.5 98.9734603858307 7.65
endloop
endfacet
facet normal 6.11701462932602e-017 4.86760662358028e-017 1.0
outer loop
vertex 77.0 102.5 7.65
vertex 96.4999999999999 125.026539614169 7.65
vertex 76.9999999999999 121.5 7.65
endloop
endfacet
facet normal 6.11701462932602e-017 4.86760662358028e-017 1.0
outer loop
vertex 76.9999999999999 121.5 7.65
vertex 11.1646857029612 139.653333781699 7.65000000000001
vertex 9.99999999999989 139.5 7.65000000000001
endloop
endfacet
facet normal 6.11701462932602e-017 4.86760662358028e-017 1.0
outer loop
vertex 11.1646857029612 139.653333781699 7.65000000000001
vertex 76.9999999999999 121.5 7.65
vertex 76.9999999999999 154.5 7.65
endloop
endfacet
facet normal 6.11701462932602e-017 4.86760662358028e-017 1.0
outer loop
vertex 11.1646857029612 139.653333781699 7.65000000000001
vertex 76.9999999999999 154.5 7.65
vertex 12.2499999999998 140.10288568297 7.65000000000001
endloop
endfacet
facet normal 6.11701462932602e-017 4.86760662358028e-017 1.0
outer loop
vertex 12.2499999999998 140.10288568297 7.65000000000001
vertex 76.9999999999999 154.5 7.65
vertex 13.1819805153394 140.81801948466 7.65000000000001
endloop
endfacet
facet normal 6.11701462932602e-017 4.86760662358028e-017 1.0
outer loop
vertex 13.1819805153394 140.81801948466 7.65000000000001
vertex 76.9999999999999 154.5 7.65
vertex 13.8971143170298 141.75 7.65000000000001
endloop
endfacet
facet normal 6.11701462932602e-017 4.86760662358028e-017 1.0
outer loop
vertex 13.8971143170298 141.75 7.65000000000001
vertex 76.9999999999999 154.5 7.65
vertex 14.3466662183007 142.835314297039 7.65000000000001
endloop
endfacet
facet normal 6.11701462932602e-017 4.86760662358028e-017 1.0
outer loop
vertex 14.3466662183007 142.835314297039 7.65000000000001
vertex 76.9999999999999 154.5 7.65
vertex 14.4999999999998 144.0 7.65000000000001
endloop
endfacet
facet normal 6.11701462932602e-017 4.86760662358028e-017 1.0
outer loop
vertex 14.4999999999998 144.0 7.65000000000001
vertex 76.9999999999999 154.5 7.65
vertex 14.3466662183007 145.164685702961 7.65000000000001
endloop
endfacet
facet normal 6.11701462932602e-017 4.86760662358028e-017 1.0
outer loop
vertex 14.3466662183007 145.164685702961 7.65000000000001
vertex 76.9999999999999 154.5 7.65
vertex 13.8971143170298 146.25 7.65000000000001
endloop
endfacet
facet normal 6.11701462932602e-017 4.86760662358028e-017 1.0
outer loop
vertex 13.8971143170298 146.25 7.65000000000001
vertex 76.9999999999999 154.5 7.65
vertex 13.1819805153394 147.181980515339 7.65000000000001
endloop
endfacet
facet normal 6.11701462932602e-017 4.86760662358028e-017 1.0
outer loop
vertex 13.1819805153394 147.181980515339 7.65000000000001
vertex 76.9999999999999 154.5 7.65
vertex 12.2499999999999 147.89711431703 7.65000000000001
endloop
endfacet
facet normal 6.11701462932602e-017 4.86760662358028e-017 1.0
outer loop
vertex 12.2499999999999 147.89711431703 7.65000000000001
vertex 76.9999999999999 154.5 7.65
vertex 11.1646857029612 148.346666218301 7.65000000000001
endloop
endfacet
facet normal 6.11701462932602e-017 4.86760662358028e-017 1.0
outer loop
vertex 11.1646857029612 148.346666218301 7.65000000000001
vertex 76.9999999999999 154.5 7.65
vertex 9.99999999999989 148.5 7.65000000000001
endloop
endfacet
facet normal 6.11701462932602e-017 4.86760662358028e-017 1.0
outer loop
vertex 28.4734603858307 96.9999999999999 7.65
vertex -0.499999999999988 76.9999999999998 7.65
vertex 32.0 76.9999999999999 7.65
endloop
endfacet
facet normal 6.11701462932602e-017 4.86760662358028e-017 1.0
outer loop
vertex -0.499999999999988 76.9999999999998 7.65
vertex 28.4734603858307 96.9999999999999 7.65
vertex -0.500000000000123 154.5 7.65
endloop
endfacet
facet normal 6.11701462932602e-017 4.86760662358028e-017 1.0
outer loop
vertex -0.500000000000123 154.5 7.65
vertex 28.4734603858307 96.9999999999999 7.65
vertex 6.10288568296997 141.75 7.65000000000001
endloop
endfacet
facet normal 6.11701462932602e-017 4.86760662358028e-017 1.0
outer loop
vertex 6.10288568296997 141.75 7.65000000000001
vertex 28.4734603858307 96.9999999999999 7.65
vertex 6.8180194846604 140.81801948466 7.65000000000001
endloop
endfacet
facet normal 6.11701462932602e-017 4.86760662358028e-017 1.0
outer loop
vertex 6.8180194846604 140.81801948466 7.65000000000001
vertex 28.4734603858307 96.9999999999999 7.65
vertex 7.74999999999986 140.10288568297 7.65000000000001
endloop
endfacet
facet normal 6.11701462932602e-017 4.86760662358028e-017 1.0
outer loop
vertex 7.74999999999986 140.10288568297 7.65000000000001
vertex 28.4734603858307 96.9999999999999 7.65
vertex 77.0 102.5 7.65
endloop
endfacet
facet normal 6.11701462932602e-017 4.86760662358028e-017 1.0
outer loop
vertex 7.74999999999986 140.10288568297 7.65000000000001
vertex 77.0 102.5 7.65
vertex 8.83531429703858 139.653333781699 7.65000000000001
endloop
endfacet
facet normal 6.11701462932602e-017 4.86760662358028e-017 1.0
outer loop
vertex 8.83531429703858 139.653333781699 7.65000000000001
vertex 77.0 102.5 7.65
vertex 76.9999999999999 121.5 7.65
endloop
endfacet
facet normal 6.11701462932602e-017 4.86760662358028e-017 1.0
outer loop
vertex 8.83531429703858 139.653333781699 7.65000000000001
vertex 76.9999999999999 121.5 7.65
vertex 9.99999999999989 139.5 7.65000000000001
endloop
endfacet
facet normal 6.11701462932602e-017 4.86760662358028e-017 1.0
outer loop
vertex -0.500000000000123 154.5 7.65
vertex 6.10288568296997 141.75 7.65000000000001
vertex 5.6533337816991 142.835314297039 7.65000000000001
endloop
endfacet
facet normal 6.11701462932602e-017 4.86760662358028e-017 1.0
outer loop
vertex -0.500000000000123 154.5 7.65
vertex 5.6533337816991 142.835314297039 7.65000000000001
vertex 5.49999999999991 144.0 7.65000000000001
endloop
endfacet
facet normal 6.11701462932602e-017 4.86760662358028e-017 1.0
outer loop
vertex -0.500000000000123 154.5 7.65
vertex 5.49999999999991 144.0 7.65000000000001
vertex 5.65333378169907 145.164685702961 7.65000000000001
endloop
endfacet
facet normal 6.11701462932602e-017 4.86760662358028e-017 1.0
outer loop
vertex -0.500000000000123 154.5 7.65
vertex 5.65333378169907 145.164685702961 7.65000000000001
vertex 6.10288568296995 146.25 7.65000000000001
endloop
endfacet
facet normal 6.11701462932602e-017 4.86760662358028e-017 1.0
outer loop
vertex -0.500000000000123 154.5 7.65
vertex 6.10288568296995 146.25 7.65000000000001
vertex 6.81801948466039 147.181980515339 7.65000000000001
endloop
endfacet
facet normal 6.11701462932602e-017 4.86760662358028e-017 1.0
outer loop
vertex -0.500000000000123 154.5 7.65
vertex 6.81801948466039 147.181980515339 7.65000000000001
vertex 7.74999999999995 147.89711431703 7.65000000000001
endloop
endfacet
facet normal 6.11701462932602e-017 4.86760662358028e-017 1.0
outer loop
vertex -0.500000000000123 154.5 7.65
vertex 7.74999999999995 147.89711431703 7.65000000000001
vertex 8.83531429703858 148.346666218301 7.65000000000001
endloop
endfacet
facet normal 6.11701462932602e-017 4.86760662358028e-017 1.0
outer loop
vertex -0.500000000000123 154.5 7.65
vertex 8.83531429703858 148.346666218301 7.65000000000001
vertex 9.99999999999989 148.5 7.65000000000001
endloop
endfacet
facet normal 6.11701462932602e-017 4.86760662358028e-017 1.0
outer loop
vertex -0.500000000000123 154.5 7.65
vertex 9.99999999999989 148.5 7.65000000000001
vertex 76.9999999999999 154.5 7.65
endloop
endfacet
facet normal -0.984807753012208 0.173648177666929 1.22902796669154e-016
outer loop
vertex 52.0 77.0 3.15000000000001
vertex 55.5265396141693 97.0 7.65
vertex 55.5265396141693 97.0 3.15
endloop
endfacet
facet normal -0.984807753012208 0.173648177666929 1.22902796669154e-016
outer loop
vertex 55.5265396141693 97.0 7.65
vertex 52.0 77.0 3.15000000000001
vertex 52.0 77.0 7.65
endloop
endfacet
facet normal 1.96005385927235e-015 -1.0 1.7358257456517e-016
outer loop
vertex 28.4734603858307 96.9999999999999 7.65
vertex 55.5265396141693 97.0 3.15
vertex 55.5265396141693 97.0 7.65
endloop
endfacet
facet normal 1.96005385927235e-015 -1.0 1.7358257456517e-016
outer loop
vertex 55.5265396141693 97.0 3.15
vertex 28.4734603858307 96.9999999999999 7.65
vertex 28.4734603858307 96.9999999999999 3.15
endloop
endfacet
facet normal 1.50885922206469e-015 -1.0 -2.66533059407411e-018
outer loop
vertex 52.0 77.0 7.65
vertex 77.0 77.0 3.15
vertex 77.0 77.0 7.65
endloop
endfacet
facet normal 1.50885922206469e-015 -1.0 -2.66533059407411e-018
outer loop
vertex 77.0 77.0 3.15
vertex 52.0 77.0 7.65
vertex 52.0 77.0 3.15000000000001
endloop
endfacet
facet normal 0.984807753012208 0.173648177666932 -9.09610245222675e-017
outer loop
vertex 28.4734603858307 96.9999999999999 7.65
vertex 32.0 76.9999999999999 3.15000000000001
vertex 28.4734603858307 96.9999999999999 3.15
endloop
endfacet
facet normal 0.984807753012208 0.173648177666932 -9.09610245222675e-017
outer loop
vertex 32.0 76.9999999999999 3.15000000000001
vertex 28.4734603858307 96.9999999999999 7.65
vertex 32.0 76.9999999999999 7.65
endloop
endfacet
endsolid solidoodlebed
