solid solidoodlebed
facet normal -1.05966093586634e-016 -6.19541313689977e-017 -1.0
outer loop
vertex 9.02389274415327e-014 -2.00000000000009 3.15000000000001
vertex 77.0000000000001 32.0 3.15000000000001
vertex 77.0000000000001 -2.00000000000001 3.15000000000001
endloop
endfacet
facet normal -1.05966093586634e-016 -6.19541313689977e-017 -1.0
outer loop
vertex 77.0000000000001 32.0 3.15000000000001
vertex 9.02389274415327e-014 -2.00000000000009 3.15000000000001
vertex 57.0000000000001 28.4734603858307 3.15
endloop
endfacet
facet normal -1.05966093586634e-016 -6.19541313689977e-017 -1.0
outer loop
vertex 57.0000000000001 28.4734603858307 3.15
vertex 9.02389274415327e-014 -2.00000000000009 3.15000000000001
vertex 11.0606601717799 8.9393398282201 3.15000000000001
endloop
endfacet
facet normal -1.05966093586634e-016 -6.19541313689977e-017 -1.0
outer loop
vertex 57.0000000000001 28.4734603858307 3.15
vertex 11.0606601717799 8.9393398282201 3.15000000000001
vertex 57.0 55.7045709580285 3.15
endloop
endfacet
facet normal -1.05966093586634e-016 -6.19541313689977e-017 -1.0
outer loop
vertex 57.0 55.7045709580285 3.15
vertex 11.0606601717799 8.9393398282201 3.15000000000001
vertex 11.2990381056767 9.24999999999991 3.15000000000001
endloop
endfacet
facet normal -1.05966093586634e-016 -6.19541313689977e-017 -1.0
outer loop
vertex 57.0 55.7045709580285 3.15
vertex 11.2990381056767 9.24999999999991 3.15000000000001
vertex 51.5 77.0 3.15000000000001
endloop
endfacet
facet normal -1.05966093586634e-016 -6.19541313689977e-017 -1.0
outer loop
vertex 51.5 77.0 3.15000000000001
vertex 11.2990381056767 9.24999999999991 3.15000000000001
vertex 11.4488887394337 9.61177143234615 3.15000000000001
endloop
endfacet
facet normal -1.05966093586634e-016 -6.19541313689977e-017 -1.0
outer loop
vertex 51.5 77.0 3.15000000000001
vertex 11.4488887394337 9.61177143234615 3.15000000000001
vertex 32.5 77.0 3.15000000000001
endloop
endfacet
facet normal -1.05966093586634e-016 -6.19541313689977e-017 -1.0
outer loop
vertex 32.5 77.0 3.15000000000001
vertex 11.4488887394337 9.61177143234615 3.15000000000001
vertex 11.5000000000001 9.99999999999993 3.15000000000001
endloop
endfacet
facet normal -1.05966093586634e-016 -6.19541313689977e-017 -1.0
outer loop
vertex 11.0606601717799 8.9393398282201 3.15000000000001
vertex 9.02389274415327e-014 -2.00000000000009 3.15000000000001
vertex 10.7500000000001 8.70096189432327 3.15000000000001
endloop
endfacet
facet normal -1.05966093586634e-016 -6.19541313689977e-017 -1.0
outer loop
vertex 10.7500000000001 8.70096189432327 3.15000000000001
vertex 9.02389274415327e-014 -2.00000000000009 3.15000000000001
vertex 10.3882285676539 8.55111126056632 3.15000000000001
endloop
endfacet
facet normal -1.05966093586634e-016 -6.19541313689977e-017 -1.0
outer loop
vertex 10.3882285676539 8.55111126056632 3.15000000000001
vertex 9.02389274415327e-014 -2.00000000000009 3.15000000000001
vertex 10.0000000000001 8.49999999999993 3.15000000000002
endloop
endfacet
facet normal -1.05966093586634e-016 -6.19541313689977e-017 -1.0
outer loop
vertex 10.0000000000001 8.49999999999993 3.15000000000002
vertex 9.02389274415327e-014 -2.00000000000009 3.15000000000001
vertex 9.61177143234631 8.55111126056632 3.15000000000002
endloop
endfacet
facet normal -1.05966093586634e-016 -6.19541313689977e-017 -1.0
outer loop
vertex 9.61177143234631 8.55111126056632 3.15000000000002
vertex 9.02389274415327e-014 -2.00000000000009 3.15000000000001
vertex 9.25000000000007 8.70096189432327 3.15000000000002
endloop
endfacet
facet normal -1.05966093586634e-016 -6.19541313689977e-017 -1.0
outer loop
vertex 9.25000000000007 8.70096189432327 3.15000000000002
vertex 9.02389274415327e-014 -2.00000000000009 3.15000000000001
vertex 8.93933982822026 8.9393398282201 3.15000000000002
endloop
endfacet
facet normal -1.05966093586634e-016 -6.19541313689977e-017 -1.0
outer loop
vertex 8.93933982822026 8.9393398282201 3.15000000000002
vertex 9.02389274415327e-014 -2.00000000000009 3.15000000000001
vertex 8.70096189432343 9.24999999999994 3.15000000000002
endloop
endfacet
facet normal -1.05966093586634e-016 -6.19541313689977e-017 -1.0
outer loop
vertex 8.70096189432343 9.24999999999994 3.15000000000002
vertex 9.02389274415327e-014 -2.00000000000009 3.15000000000001
vertex 8.55111126056648 9.61177143234615 3.15000000000002
endloop
endfacet
facet normal -1.05966093586634e-016 -6.19541313689977e-017 -1.0
outer loop
vertex 8.55111126056648 9.61177143234615 3.15000000000002
vertex 9.02389274415327e-014 -2.00000000000009 3.15000000000001
vertex 8.50000000000009 9.99999999999993 3.15000000000002
endloop
endfacet
facet normal -1.05966093586634e-016 -6.19541313689977e-017 -1.0
outer loop
vertex 32.5 77.0 3.15000000000001
vertex 11.4488887394337 10.3882285676537 3.15000000000001
vertex -1.99999999999999 76.9999999999999 3.15000000000001
endloop
endfacet
facet normal -1.05966093586634e-016 -6.19541313689977e-017 -1.0
outer loop
vertex 11.4488887394337 10.3882285676537 3.15000000000001
vertex 32.5 77.0 3.15000000000001
vertex 11.5000000000001 9.99999999999993 3.15000000000001
endloop
endfacet
facet normal -1.05966093586634e-016 -6.19541313689977e-017 -1.0
outer loop
vertex -1.99999999999999 76.9999999999999 3.15000000000001
vertex 11.4488887394337 10.3882285676537 3.15000000000001
vertex 11.2990381056767 10.7499999999999 3.15000000000001
endloop
endfacet
facet normal -1.05966093586634e-016 -6.19541313689977e-017 -1.0
outer loop
vertex -1.99999999999999 76.9999999999999 3.15000000000001
vertex 11.2990381056767 10.7499999999999 3.15000000000001
vertex 11.0606601717799 11.0606601717798 3.15000000000001
endloop
endfacet
facet normal -1.05966093586634e-016 -6.19541313689977e-017 -1.0
outer loop
vertex -1.99999999999999 76.9999999999999 3.15000000000001
vertex 11.0606601717799 11.0606601717798 3.15000000000001
vertex 10.7500000000001 11.2990381056766 3.15000000000001
endloop
endfacet
facet normal -1.05966093586634e-016 -6.19541313689977e-017 -1.0
outer loop
vertex -1.99999999999999 76.9999999999999 3.15000000000001
vertex 10.7500000000001 11.2990381056766 3.15000000000001
vertex 10.3882285676539 11.4488887394335 3.15000000000001
endloop
endfacet
facet normal -1.05966093586634e-016 -6.19541313689977e-017 -1.0
outer loop
vertex -1.99999999999999 76.9999999999999 3.15000000000001
vertex 10.3882285676539 11.4488887394335 3.15000000000001
vertex 10.0000000000001 11.4999999999999 3.15000000000001
endloop
endfacet
facet normal -1.05966093586634e-016 -6.19541313689977e-017 -1.0
outer loop
vertex -1.99999999999999 76.9999999999999 3.15000000000001
vertex 10.0000000000001 11.4999999999999 3.15000000000001
vertex 9.61177143234631 11.4488887394335 3.15000000000001
endloop
endfacet
facet normal -1.05966093586634e-016 -6.19541313689977e-017 -1.0
outer loop
vertex -1.99999999999999 76.9999999999999 3.15000000000001
vertex 9.61177143234631 11.4488887394335 3.15000000000001
vertex 9.2500000000001 11.2990381056766 3.15000000000001
endloop
endfacet
facet normal -1.05966093586634e-016 -6.19541313689977e-017 -1.0
outer loop
vertex -1.99999999999999 76.9999999999999 3.15000000000001
vertex 9.2500000000001 11.2990381056766 3.15000000000001
vertex 8.93933982822026 11.0606601717798 3.15000000000001
endloop
endfacet
facet normal -1.05966093586634e-016 -6.19541313689977e-017 -1.0
outer loop
vertex -1.99999999999999 76.9999999999999 3.15000000000001
vertex 8.93933982822026 11.0606601717798 3.15000000000001
vertex 8.70096189432343 10.7499999999999 3.15000000000001
endloop
endfacet
facet normal -1.05966093586634e-016 -6.19541313689977e-017 -1.0
outer loop
vertex -1.99999999999999 76.9999999999999 3.15000000000001
vertex 8.70096189432343 10.7499999999999 3.15000000000001
vertex 8.55111126056648 10.3882285676537 3.15000000000001
endloop
endfacet
facet normal -1.05966093586634e-016 -6.19541313689977e-017 -1.0
outer loop
vertex -1.99999999999999 76.9999999999999 3.15000000000001
vertex 8.55111126056648 10.3882285676537 3.15000000000001
vertex 8.50000000000009 9.99999999999993 3.15000000000002
endloop
endfacet
facet normal -1.05966093586634e-016 -6.19541313689977e-017 -1.0
outer loop
vertex -1.99999999999999 76.9999999999999 3.15000000000001
vertex 8.50000000000009 9.99999999999993 3.15000000000002
vertex 9.02389274415327e-014 -2.00000000000009 3.15000000000001
endloop
endfacet
facet normal -1.05966093586634e-016 -6.19541313689977e-017 -1.0
outer loop
vertex -1.99999999999999 76.9999999999999 3.15000000000001
vertex 9.02389274415327e-014 -2.00000000000009 3.15000000000001
vertex -0.517638090204955 -1.93185165257823 3.15000000000001
endloop
endfacet
facet normal -1.05966093586634e-016 -6.19541313689977e-017 -1.0
outer loop
vertex -1.99999999999999 76.9999999999999 3.15000000000001
vertex -0.517638090204955 -1.93185165257823 3.15000000000001
vertex -0.76536686473008 -1.84775906502267 3.15000000000001
endloop
endfacet
facet normal -1.05966093586634e-016 -6.19541313689977e-017 -1.0
outer loop
vertex -1.99999999999999 76.9999999999999 3.15000000000001
vertex -0.76536686473008 -1.84775906502267 3.15000000000001
vertex -0.999999999999908 -1.73205080756896 3.15000000000001
endloop
endfacet
facet normal -1.05966093586634e-016 -6.19541313689977e-017 -1.0
outer loop
vertex -1.99999999999999 76.9999999999999 3.15000000000001
vertex -0.999999999999908 -1.73205080756896 3.15000000000001
vertex -1.21752285801736 -1.58670668058255 3.15000000000002
endloop
endfacet
facet normal -1.05966093586634e-016 -6.19541313689977e-017 -1.0
outer loop
vertex -1.99999999999999 76.9999999999999 3.15000000000001
vertex -1.21752285801736 -1.58670668058255 3.15000000000002
vertex -1.41421356237301 -1.41421356237319 3.15000000000002
endloop
endfacet
facet normal -1.05966093586634e-016 -6.19541313689977e-017 -1.0
outer loop
vertex -1.99999999999999 76.9999999999999 3.15000000000001
vertex -1.41421356237301 -1.41421356237319 3.15000000000002
vertex -1.58670668058237 -1.21752285801754 3.15000000000002
endloop
endfacet
facet normal -1.05966093586634e-016 -6.19541313689977e-017 -1.0
outer loop
vertex -1.99999999999999 76.9999999999999 3.15000000000001
vertex -1.58670668058237 -1.21752285801754 3.15000000000002
vertex -1.73205080756878 -1.00000000000009 3.15000000000002
endloop
endfacet
facet normal -1.05966093586634e-016 -6.19541313689977e-017 -1.0
outer loop
vertex -1.99999999999999 76.9999999999999 3.15000000000001
vertex -1.73205080756878 -1.00000000000009 3.15000000000002
vertex -1.84775906502249 -0.765366864730261 3.15000000000001
endloop
endfacet
facet normal -1.05966093586634e-016 -6.19541313689977e-017 -1.0
outer loop
vertex -1.99999999999999 76.9999999999999 3.15000000000001
vertex -1.84775906502249 -0.765366864730261 3.15000000000001
vertex -1.93185165257805 -0.517638090205136 3.15000000000001
endloop
endfacet
facet normal -1.05966093586634e-016 -6.19541313689977e-017 -1.0
outer loop
vertex -1.99999999999999 76.9999999999999 3.15000000000001
vertex -1.93185165257805 -0.517638090205136 3.15000000000001
vertex -1.99999999999991 -9.02389274415327e-014 3.15000000000001
endloop
endfacet
facet normal -1.05966093586634e-016 -6.19541313689977e-017 -1.0
outer loop
vertex 77.0 52.0 3.15
vertex 51.5 77.0 3.15000000000001
vertex 77.0 77.0 3.14999999999999
endloop
endfacet
facet normal -1.05966093586634e-016 -6.19541313689977e-017 -1.0
outer loop
vertex 51.5 77.0 3.15000000000001
vertex 77.0 52.0 3.15
vertex 57.0 55.7045709580285 3.15
endloop
endfacet
facet normal -1.32772219239717e-015 1.0 1.34696454301161e-016
outer loop
vertex 32.5 77.0 7.65
vertex 32.5 77.0 3.15000000000001
vertex -0.499999999999988 76.9999999999999 7.65
endloop
endfacet
facet normal -1.32772219239717e-015 1.0 1.34696454301161e-016
outer loop
vertex -1.99999999999999 76.9999999999999 3.15000000000001
vertex -0.499999999999988 76.9999999999999 7.65
vertex 32.5 77.0 3.15000000000001
endloop
endfacet
facet normal -1.32772219239717e-015 1.0 1.34696454301161e-016
outer loop
vertex -0.499999999999988 76.9999999999999 7.65
vertex -1.99999999999999 76.9999999999999 3.15000000000001
vertex -1.99999999999999 76.9999999999999 9.15000000000001
endloop
endfacet
facet normal -1.32772219239717e-015 1.0 1.34696454301161e-016
outer loop
vertex -0.499999999999988 76.9999999999999 7.65
vertex -1.99999999999999 76.9999999999999 9.15000000000001
vertex -0.499999999999988 76.9999999999999 9.15
endloop
endfacet
facet normal -0.997858923238604 -0.065403129230133 1.24748069503028e-016
outer loop
vertex -1.99999999999991 -9.02389274415327e-014 3.15000000000001
vertex -1.99999999999999 76.9999999999999 9.15000000000001
vertex -1.99999999999999 76.9999999999999 3.15000000000001
endloop
endfacet
facet normal -1.0 -1.01064309961486e-015 1.17653697068509e-016
outer loop
vertex -1.99999999999999 76.9999999999999 9.15000000000001
vertex -1.99999999999991 -9.02389274415327e-014 3.15000000000001
vertex -1.99999999999991 -9.02389274415327e-014 9.15000000000002
endloop
endfacet
facet normal -0.973876979277334 -0.227076263034373 1.40086122342279e-016
outer loop
vertex -1.93185165257805 -0.517638090205136 3.15000000000001
vertex -1.99999999999991 -9.02389274415327e-014 9.15000000000002
vertex -1.99999999999991 -9.02389274415327e-014 3.15000000000001
endloop
endfacet
facet normal -0.997858923238604 -0.065403129230133 1.24748069503028e-016
outer loop
vertex -1.99999999999991 -9.02389274415327e-014 9.15000000000002
vertex -1.93185165257805 -0.517638090205136 3.15000000000001
vertex -1.93185165257805 -0.517638090205136 9.15000000000002
endloop
endfacet
facet normal -0.923879532511274 -0.38268343236512 1.51682007550245e-016
outer loop
vertex -1.84775906502249 -0.765366864730261 3.15000000000001
vertex -1.93185165257805 -0.517638090205136 9.15000000000002
vertex -1.93185165257805 -0.517638090205136 3.15000000000001
endloop
endfacet
facet normal -0.973876979277334 -0.227076263034373 1.40086122342279e-016
outer loop
vertex -1.93185165257805 -0.517638090205136 9.15000000000002
vertex -1.84775906502249 -0.765366864730261 3.15000000000001
vertex -1.84775906502249 -0.765366864730261 9.15000000000002
endloop
endfacet
facet normal -0.866025403784433 -0.50000000000001 1.58052608450669e-016
outer loop
vertex -1.73205080756878 -1.00000000000009 3.15000000000002
vertex -1.84775906502249 -0.765366864730261 9.15000000000002
vertex -1.84775906502249 -0.765366864730261 3.15000000000001
endloop
endfacet
facet normal -0.923879532511274 -0.382683432365121 1.51682007550245e-016
outer loop
vertex -1.84775906502249 -0.765366864730261 9.15000000000002
vertex -1.73205080756878 -1.00000000000009 3.15000000000002
vertex -1.73205080756878 -1.00000000000009 9.15000000000002
endloop
endfacet
facet normal -0.79335334029125 -0.608761429008702 1.61718885400041e-016
outer loop
vertex -1.58670668058237 -1.21752285801754 3.15000000000002
vertex -1.73205080756878 -1.00000000000009 9.15000000000002
vertex -1.73205080756878 -1.00000000000009 3.15000000000002
endloop
endfacet
facet normal -0.866025403784433 -0.50000000000001 1.58052608450669e-016
outer loop
vertex -1.73205080756878 -1.00000000000009 9.15000000000002
vertex -1.58670668058237 -1.21752285801754 3.15000000000002
vertex -1.58670668058237 -1.21752285801754 9.15000000000002
endloop
endfacet
facet normal -0.707106781186547 -0.707106781186548 1.62618107383274e-016
outer loop
vertex -1.41421356237301 -1.41421356237319 3.15000000000002
vertex -1.58670668058237 -1.21752285801754 9.15000000000002
vertex -1.58670668058237 -1.21752285801754 3.15000000000002
endloop
endfacet
facet normal -0.79335334029125 -0.608761429008702 1.61718885400041e-016
outer loop
vertex -1.58670668058237 -1.21752285801754 9.15000000000002
vertex -1.41421356237301 -1.41421356237319 3.15000000000002
vertex -1.41421356237301 -1.41421356237319 9.15000000000002
endloop
endfacet
facet normal -0.6087614290087 -0.793353340291251 1.60734888462921e-016
outer loop
vertex -1.21752285801736 -1.58670668058255 9.15000000000002
vertex -1.41421356237301 -1.41421356237319 3.15000000000002
vertex -1.21752285801736 -1.58670668058255 3.15000000000002
endloop
endfacet
facet normal -0.707106781186547 -0.707106781186548 1.62618107383274e-016
outer loop
vertex -1.41421356237301 -1.41421356237319 3.15000000000002
vertex -1.21752285801736 -1.58670668058255 9.15000000000002
vertex -1.41421356237301 -1.41421356237319 9.15000000000002
endloop
endfacet
facet normal -0.500000000000008 -0.866025403784434 1.56101451036839e-016
outer loop
vertex -0.999999999999908 -1.73205080756896 9.15000000000002
vertex -1.21752285801736 -1.58670668058255 3.15000000000002
vertex -0.999999999999908 -1.73205080756896 3.15000000000001
endloop
endfacet
facet normal -0.6087614290087 -0.793353340291251 1.60734888462921e-016
outer loop
vertex -1.21752285801736 -1.58670668058255 3.15000000000002
vertex -0.999999999999908 -1.73205080756896 9.15000000000002
vertex -1.21752285801736 -1.58670668058255 9.15000000000002
endloop
endfacet
facet normal -0.382683432365119 -0.923879532511275 1.48797074504018e-016
outer loop
vertex -0.76536686473008 -1.84775906502267 9.15000000000002
vertex -0.999999999999908 -1.73205080756896 3.15000000000001
vertex -0.76536686473008 -1.84775906502267 3.15000000000001
endloop
endfacet
facet normal -0.500000000000008 -0.866025403784434 1.56101451036839e-016
outer loop
vertex -0.999999999999908 -1.73205080756896 3.15000000000001
vertex -0.76536686473008 -1.84775906502267 9.15000000000002
vertex -0.999999999999908 -1.73205080756896 9.15000000000002
endloop
endfacet
facet normal -0.227076263034371 -0.973876979277334 1.36105180748921e-016
outer loop
vertex -0.517638090204955 -1.93185165257823 9.15000000000002
vertex -0.76536686473008 -1.84775906502267 3.15000000000001
vertex -0.517638090204955 -1.93185165257823 3.15000000000001
endloop
endfacet
facet normal -0.382683432365119 -0.923879532511275 1.48797074504018e-016
outer loop
vertex -0.76536686473008 -1.84775906502267 3.15000000000001
vertex -0.517638090204955 -1.93185165257823 9.15000000000002
vertex -0.76536686473008 -1.84775906502267 9.15000000000002
endloop
endfacet
facet normal -0.0654031292301308 -0.997858923238604 3.0657115290753e-016
outer loop
vertex 9.02389274415327e-014 -2.00000000000009 9.15000000000002
vertex -0.517638090204955 -1.93185165257823 3.15000000000001
vertex 9.02389274415327e-014 -2.00000000000009 3.15000000000001
endloop
endfacet
facet normal -0.227076263034371 -0.973876979277334 1.36105180748921e-016
outer loop
vertex -0.517638090204955 -1.93185165257823 3.15000000000001
vertex 9.02389274415327e-014 -2.00000000000009 9.15000000000002
vertex -0.517638090204955 -1.93185165257823 9.15000000000002
endloop
endfacet
facet normal 1.26791200196523e-015 -1.0 4.851105352562e-016
outer loop
vertex 77.0000000000001 -2.00000000000001 3.15000000000001
vertex 9.02389274415327e-014 -2.00000000000009 9.15000000000002
vertex 9.02389274415327e-014 -2.00000000000009 3.15000000000001
endloop
endfacet
facet normal -0.0654031292301308 -0.997858923238604 3.0657115290753e-016
outer loop
vertex 9.02389274415327e-014 -2.00000000000009 9.15000000000002
vertex 77.0000000000001 -2.00000000000001 3.15000000000001
vertex 68.2500000000001 -1.99999999999997 3.85000000000002
endloop
endfacet
facet normal 1.26791200196523e-015 -1.0 4.851105352562e-016
outer loop
vertex 68.2500000000001 -1.99999999999997 3.85000000000002
vertex 77.0000000000001 -2.00000000000001 3.15000000000001
vertex 77.0000000000001 -2.00000000000001 3.85000000000001
endloop
endfacet
facet normal -0.0654031292301308 -0.997858923238604 3.0657115290753e-016
outer loop
vertex 9.02389274415327e-014 -2.00000000000009 9.15000000000002
vertex 68.2500000000001 -1.99999999999997 3.85000000000002
vertex 52.0000000000001 -2.00000000000003 6.85000000000002
endloop
endfacet
facet normal 1.26791200196523e-015 -1.0 4.851105352562e-016
outer loop
vertex 52.0000000000001 -2.00000000000003 6.85000000000002
vertex 68.2500000000001 -1.99999999999997 3.85000000000002
vertex 62.2500000000001 -1.99999999999997 6.85000000000002
endloop
endfacet
facet normal -0.0654031292301308 -0.997858923238604 3.0657115290753e-016
outer loop
vertex 9.02389274415327e-014 -2.00000000000009 9.15000000000002
vertex 52.0000000000001 -2.00000000000003 6.85000000000002
vertex 52.0000000000001 -2.00000000000003 9.15
endloop
endfacet
facet normal 2.27156742446624e-016 1.27051834995655e-016 1.0
outer loop
vertex -1.99999999999999 76.9999999999999 9.15000000000001
vertex -0.499999999999909 -0.500000000000089 9.15000000000001
vertex -0.499999999999988 76.9999999999999 9.15
endloop
endfacet
facet normal 2.27156742446624e-016 1.27051834995655e-016 1.0
outer loop
vertex -0.499999999999909 -0.500000000000089 9.15000000000001
vertex -1.99999999999999 76.9999999999999 9.15000000000001
vertex -0.517638090204955 -1.93185165257823 9.15000000000002
endloop
endfacet
facet normal 2.27156742446624e-016 1.27051834995655e-016 1.0
outer loop
vertex -0.517638090204955 -1.93185165257823 9.15000000000002
vertex -1.99999999999999 76.9999999999999 9.15000000000001
vertex -0.76536686473008 -1.84775906502267 9.15000000000002
endloop
endfacet
facet normal 2.27156742446624e-016 1.27051834995655e-016 1.0
outer loop
vertex -0.76536686473008 -1.84775906502267 9.15000000000002
vertex -1.99999999999999 76.9999999999999 9.15000000000001
vertex -0.999999999999908 -1.73205080756896 9.15000000000002
endloop
endfacet
facet normal 2.27156742446624e-016 1.27051834995655e-016 1.0
outer loop
vertex -0.999999999999908 -1.73205080756896 9.15000000000002
vertex -1.99999999999999 76.9999999999999 9.15000000000001
vertex -1.21752285801736 -1.58670668058255 9.15000000000002
endloop
endfacet
facet normal 2.27156742446624e-016 1.27051834995655e-016 1.0
outer loop
vertex -1.21752285801736 -1.58670668058255 9.15000000000002
vertex -1.99999999999999 76.9999999999999 9.15000000000001
vertex -1.41421356237301 -1.41421356237319 9.15000000000002
endloop
endfacet
facet normal 2.27156742446624e-016 1.27051834995655e-016 1.0
outer loop
vertex -1.41421356237301 -1.41421356237319 9.15000000000002
vertex -1.99999999999999 76.9999999999999 9.15000000000001
vertex -1.58670668058237 -1.21752285801754 9.15000000000002
endloop
endfacet
facet normal 2.27156742446624e-016 1.27051834995655e-016 1.0
outer loop
vertex -1.58670668058237 -1.21752285801754 9.15000000000002
vertex -1.99999999999999 76.9999999999999 9.15000000000001
vertex -1.73205080756878 -1.00000000000009 9.15000000000002
endloop
endfacet
facet normal 2.27156742446624e-016 1.27051834995655e-016 1.0
outer loop
vertex -1.73205080756878 -1.00000000000009 9.15000000000002
vertex -1.99999999999999 76.9999999999999 9.15000000000001
vertex -1.84775906502249 -0.765366864730261 9.15000000000002
endloop
endfacet
facet normal 2.27156742446624e-016 1.27051834995655e-016 1.0
outer loop
vertex -1.84775906502249 -0.765366864730261 9.15000000000002
vertex -1.99999999999999 76.9999999999999 9.15000000000001
vertex -1.93185165257805 -0.517638090205136 9.15000000000002
endloop
endfacet
facet normal 2.27156742446624e-016 1.27051834995655e-016 1.0
outer loop
vertex -1.93185165257805 -0.517638090205136 9.15000000000002
vertex -1.99999999999999 76.9999999999999 9.15000000000001
vertex -1.99999999999991 -9.02389274415327e-014 9.15000000000002
endloop
endfacet
facet normal 2.27156742446624e-016 1.27051834995655e-016 1.0
outer loop
vertex -0.499999999999909 -0.500000000000089 9.15000000000001
vertex 52.0000000000001 -2.00000000000003 9.15
vertex 52.0000000000001 -0.500000000000033 9.15
endloop
endfacet
facet normal 2.27156742446624e-016 1.27051834995655e-016 1.0
outer loop
vertex 52.0000000000001 -2.00000000000003 9.15
vertex -0.499999999999909 -0.500000000000089 9.15000000000001
vertex 9.02389274415327e-014 -2.00000000000009 9.15000000000002
endloop
endfacet
facet normal 2.27156742446624e-016 1.27051834995655e-016 1.0
outer loop
vertex 9.02389274415327e-014 -2.00000000000009 9.15000000000002
vertex -0.499999999999909 -0.500000000000089 9.15000000000001
vertex -0.517638090204955 -1.93185165257823 9.15000000000002
endloop
endfacet
facet normal 1.0 9.95282287958081e-016 -1.23259516440783e-031
outer loop
vertex 77.0000000000001 19.0 5.10000000000001
vertex 77.0000000000001 32.0 3.15000000000001
vertex 77.0000000000001 32.0 5.10000000000001
endloop
endfacet
facet normal 1.0 9.95282287958081e-016 -1.23259516440783e-031
outer loop
vertex 77.0000000000001 32.0 3.15000000000001
vertex 77.0000000000001 19.0 5.10000000000001
vertex 77.0000000000001 19.0 3.85000000000001
endloop
endfacet
facet normal 1.0 9.95282287958081e-016 -1.23259516440783e-031
outer loop
vertex 77.0000000000001 32.0 3.15000000000001
vertex 77.0000000000001 19.0 3.85000000000001
vertex 77.0000000000001 -2.00000000000001 3.15000000000001
endloop
endfacet
facet normal 1.0 9.95282287958081e-016 -1.23259516440783e-031
outer loop
vertex 77.0000000000001 -2.00000000000001 3.15000000000001
vertex 77.0000000000001 19.0 3.85000000000001
vertex 77.0000000000001 -2.00000000000001 3.85000000000001
endloop
endfacet
facet normal 1.0 1.01064309961486e-015 -7.21703667048335e-017
outer loop
vertex -0.499999999999909 -0.500000000000089 9.15000000000001
vertex -0.499999999999988 76.9999999999999 7.65
vertex -0.499999999999988 76.9999999999999 9.15
endloop
endfacet
facet normal 1.0 1.01064309961486e-015 -7.21703667048335e-017
outer loop
vertex -0.499999999999988 76.9999999999999 7.65
vertex -0.499999999999909 -0.500000000000089 9.15000000000001
vertex -0.499999999999909 -0.500000000000089 7.65000000000001
endloop
endfacet
facet normal 3.63621777220551e-015 -0.832050294337846 0.554700196225226
outer loop
vertex 9.99999999999987 14.4999999999999 7.65000000000001
vertex 9.61177143234631 11.4488887394335 3.15000000000001
vertex 10.0000000000001 11.4999999999999 3.15000000000001
endloop
endfacet
facet normal 0.215350462657801 -0.803698868072343 0.554700196225228
outer loop
vertex 9.61177143234631 11.4488887394335 3.15000000000001
vertex 9.99999999999987 14.4999999999999 7.65000000000001
vertex 8.83531429703856 14.3466662183007 7.65000000000001
endloop
endfacet
facet normal 0.832050294337846 9.03211498548507e-016 0.554700196225226
outer loop
vertex 5.50000000000011 9.99999999999993 7.65000000000002
vertex 8.55111126056648 10.3882285676537 3.15000000000001
vertex 5.65333378169928 11.1646857029612 7.65000000000002
endloop
endfacet
facet normal 0.803698868072346 -0.21535046265779 0.554700196225228
outer loop
vertex 8.55111126056648 10.3882285676537 3.15000000000001
vertex 5.50000000000011 9.99999999999993 7.65000000000002
vertex 8.50000000000009 9.99999999999993 3.15000000000002
endloop
endfacet
facet normal 0.803698868072343 0.215350462657802 0.554700196225228
outer loop
vertex 5.65333378169928 8.83531429703861 7.65000000000002
vertex 8.70096189432343 9.24999999999994 3.15000000000002
vertex 8.55111126056648 9.61177143234615 3.15000000000002
endloop
endfacet
facet normal 0.720576692122906 0.416025147168907 0.554700196225223
outer loop
vertex 8.70096189432343 9.24999999999994 3.15000000000002
vertex 5.65333378169928 8.83531429703861 7.65000000000002
vertex 6.10288568297015 7.74999999999999 7.65000000000002
endloop
endfacet
facet normal -0.215350462657787 -0.803698868072346 0.554700196225228
outer loop
vertex 11.1646857029612 14.3466662183007 7.65000000000001
vertex 10.0000000000001 11.4999999999999 3.15000000000001
vertex 10.3882285676539 11.4488887394335 3.15000000000001
endloop
endfacet
facet normal -2.03337226406551e-015 -0.832050294337846 0.554700196225226
outer loop
vertex 10.0000000000001 11.4999999999999 3.15000000000001
vertex 11.1646857029612 14.3466662183007 7.65000000000001
vertex 9.99999999999987 14.4999999999999 7.65000000000001
endloop
endfacet
facet normal 0.588348405414562 0.58834840541454 0.554700196225232
outer loop
vertex 6.81801948466058 6.81801948466043 7.65000000000002
vertex 9.25000000000007 8.70096189432327 3.15000000000002
vertex 8.93933982822026 8.9393398282201 3.15000000000002
endloop
endfacet
facet normal 0.416025147168908 0.720576692122902 0.554700196225227
outer loop
vertex 9.25000000000007 8.70096189432327 3.15000000000002
vertex 6.81801948466058 6.81801948466043 7.65000000000002
vertex 7.74999999999985 6.10288568297 7.65000000000002
endloop
endfacet
facet normal 3.95748466347154e-017 -2.53073915100452e-016 -1.0
outer loop
vertex 51.5 77.0 3.15000000000001
vertex 28.9734603858306 96.4999999999999 3.15
vertex 55.0265396141693 96.5 3.15
endloop
endfacet
facet normal 3.95748466347154e-017 -2.53073915100452e-016 -1.0
outer loop
vertex 28.9734603858306 96.4999999999999 3.15
vertex 51.5 77.0 3.15000000000001
vertex 32.5 77.0 3.15000000000001
endloop
endfacet
facet normal -0.984037470509465 -0.177961390850188 1.44705296885861e-017
outer loop
vertex 32.5 77.0 3.15000000000001
vertex 28.9734603858306 96.4999999999999 7.65
vertex 28.9734603858306 96.4999999999999 3.15
endloop
endfacet
facet normal -0.984037470509465 -0.177961390850188 1.44705296885861e-017
outer loop
vertex 28.9734603858306 96.4999999999999 7.65
vertex 32.5 77.0 3.15000000000001
vertex 32.5 77.0 7.65
endloop
endfacet
facet normal 0.215350462657805 -0.803698868072342 0.554700196225228
outer loop
vertex 8.83531429703856 14.3466662183007 7.65000000000001
vertex 9.2500000000001 11.2990381056766 3.15000000000001
vertex 9.61177143234631 11.4488887394335 3.15000000000001
endloop
endfacet
facet normal 0.416025147168905 -0.720576692122907 0.554700196225223
outer loop
vertex 9.2500000000001 11.2990381056766 3.15000000000001
vertex 8.83531429703856 14.3466662183007 7.65000000000001
vertex 7.74999999999993 13.8971143170299 7.65000000000001
endloop
endfacet
facet normal 0.803698868072343 0.215350462657802 0.554700196225228
outer loop
vertex 5.65333378169928 8.83531429703861 7.65000000000002
vertex 8.50000000000009 9.99999999999993 3.15000000000002
vertex 5.50000000000011 9.99999999999993 7.65000000000002
endloop
endfacet
facet normal 0.832050294337846 4.52935035787473e-016 0.554700196225226
outer loop
vertex 8.50000000000009 9.99999999999993 3.15000000000002
vertex 5.65333378169928 8.83531429703861 7.65000000000002
vertex 8.55111126056648 9.61177143234615 3.15000000000002
endloop
endfacet
facet normal 0.720576692122905 0.416025147168908 0.554700196225223
outer loop
vertex 6.10288568297015 7.74999999999999 7.65000000000002
vertex 8.93933982822026 8.9393398282201 3.15000000000002
vertex 8.70096189432343 9.24999999999994 3.15000000000002
endloop
endfacet
facet normal 0.588348405414564 0.588348405414537 0.554700196225232
outer loop
vertex 8.93933982822026 8.9393398282201 3.15000000000002
vertex 6.10288568297015 7.74999999999999 7.65000000000002
vertex 6.81801948466058 6.81801948466043 7.65000000000002
endloop
endfacet
facet normal 0.416025147168912 0.7205766921229 0.554700196225227
outer loop
vertex 7.74999999999985 6.10288568297 7.65000000000002
vertex 9.61177143234631 8.55111126056632 3.15000000000002
vertex 9.25000000000007 8.70096189432327 3.15000000000002
endloop
endfacet
facet normal 0.215350462657787 0.803698868072346 0.554700196225228
outer loop
vertex 9.61177143234631 8.55111126056632 3.15000000000002
vertex 7.74999999999985 6.10288568297 7.65000000000002
vertex 8.83531429703857 5.65333378169912 7.65000000000002
endloop
endfacet
facet normal -8.65914223138903e-016 1.0 4.93038065763132e-032
outer loop
vertex 28.9734603858306 96.4999999999999 7.65
vertex 55.0265396141693 96.5 3.15
vertex 28.9734603858306 96.4999999999999 3.15
endloop
endfacet
facet normal -8.65914223138903e-016 1.0 4.93038065763132e-032
outer loop
vertex 55.0265396141693 96.5 3.15
vertex 28.9734603858306 96.4999999999999 7.65
vertex 55.0265396141693 96.5 7.65
endloop
endfacet
facet normal 0.984037470509466 -0.177961390850183 -6.82538103656934e-017
outer loop
vertex 51.5 77.0 7.65
vertex 55.0265396141693 96.5 3.15
vertex 55.0265396141693 96.5 7.65
endloop
endfacet
facet normal 0.984037470509466 -0.177961390850183 -6.82538103656934e-017
outer loop
vertex 55.0265396141693 96.5 3.15
vertex 51.5 77.0 7.65
vertex 51.5 77.0 3.15000000000001
endloop
endfacet
facet normal 0.803698868072346 -0.215350462657789 0.554700196225228
outer loop
vertex 5.65333378169928 11.1646857029612 7.65000000000002
vertex 8.70096189432343 10.7499999999999 3.15000000000001
vertex 6.10288568297015 12.25 7.65000000000001
endloop
endfacet
facet normal 0.720576692122901 -0.41602514716891 0.554700196225227
outer loop
vertex 8.70096189432343 10.7499999999999 3.15000000000001
vertex 5.65333378169928 11.1646857029612 7.65000000000002
vertex 8.55111126056648 10.3882285676537 3.15000000000001
endloop
endfacet
facet normal 0.7205766921229 -0.416025147168912 0.554700196225227
outer loop
vertex 6.10288568297015 12.25 7.65000000000001
vertex 8.93933982822026 11.0606601717798 3.15000000000001
vertex 6.81801948466059 13.1819805153394 7.65000000000001
endloop
endfacet
facet normal 0.588348405414537 -0.588348405414564 0.554700196225232
outer loop
vertex 8.93933982822026 11.0606601717798 3.15000000000001
vertex 6.10288568297015 12.25 7.65000000000001
vertex 8.70096189432343 10.7499999999999 3.15000000000001
endloop
endfacet
facet normal 0.416025147168908 -0.720576692122905 0.554700196225223
outer loop
vertex 7.74999999999993 13.8971143170299 7.65000000000001
vertex 8.93933982822026 11.0606601717798 3.15000000000001
vertex 9.2500000000001 11.2990381056766 3.15000000000001
endloop
endfacet
facet normal 0.588348405414537 -0.588348405414564 0.554700196225232
outer loop
vertex 8.93933982822026 11.0606601717798 3.15000000000001
vertex 7.74999999999993 13.8971143170299 7.65000000000001
vertex 6.81801948466059 13.1819805153394 7.65000000000001
endloop
endfacet
facet normal -0.416025147168907 0.720576692122905 0.554700196225223
outer loop
vertex 12.2499999999998 6.10288568297 7.65000000000001
vertex 11.0606601717799 8.9393398282201 3.15000000000001
vertex 10.7500000000001 8.70096189432327 3.15000000000001
endloop
endfacet
facet normal -0.588348405414537 0.588348405414565 0.554700196225232
outer loop
vertex 11.0606601717799 8.9393398282201 3.15000000000001
vertex 12.2499999999998 6.10288568297 7.65000000000001
vertex 13.1819805153396 6.81801948466043 7.65000000000001
endloop
endfacet
facet normal -0.588348405414537 0.588348405414565 0.554700196225232
outer loop
vertex 11.0606601717799 8.9393398282201 3.15000000000001
vertex 13.89711431703 7.7499999999999 7.65000000000001
vertex 11.2990381056767 9.24999999999991 3.15000000000001
endloop
endfacet
facet normal -0.7205766921229 0.416025147168911 0.554700196225227
outer loop
vertex 13.89711431703 7.7499999999999 7.65000000000001
vertex 11.0606601717799 8.9393398282201 3.15000000000001
vertex 13.1819805153396 6.81801948466043 7.65000000000001
endloop
endfacet
facet normal -0.588348405414564 -0.588348405414536 0.554700196225233
outer loop
vertex 13.1819805153396 13.1819805153394 7.65000000000001
vertex 10.7500000000001 11.2990381056766 3.15000000000001
vertex 11.0606601717799 11.0606601717798 3.15000000000001
endloop
endfacet
facet normal -0.416025147168912 -0.7205766921229 0.554700196225227
outer loop
vertex 10.7500000000001 11.2990381056766 3.15000000000001
vertex 13.1819805153396 13.1819805153394 7.65000000000001
vertex 12.2499999999999 13.8971143170299 7.65000000000001
endloop
endfacet
facet normal -0.803698868072346 0.21535046265779 0.554700196225228
outer loop
vertex 11.4488887394337 9.61177143234615 3.15000000000001
vertex 14.5000000000001 9.99999999999993 7.65000000000001
vertex 11.5000000000001 9.99999999999993 3.15000000000001
endloop
endfacet
facet normal -0.832050294337846 -7.13377256332088e-016 0.554700196225226
outer loop
vertex 14.5000000000001 9.99999999999993 7.65000000000001
vertex 11.4488887394337 9.61177143234615 3.15000000000001
vertex 14.3466662183009 8.83531429703861 7.65000000000001
endloop
endfacet
facet normal -0.720576692122901 0.41602514716891 0.554700196225227
outer loop
vertex 11.2990381056767 9.24999999999991 3.15000000000001
vertex 14.3466662183009 8.83531429703861 7.65000000000001
vertex 11.4488887394337 9.61177143234615 3.15000000000001
endloop
endfacet
facet normal -0.803698868072346 0.215350462657789 0.554700196225228
outer loop
vertex 14.3466662183009 8.83531429703861 7.65000000000001
vertex 11.2990381056767 9.24999999999991 3.15000000000001
vertex 13.89711431703 7.7499999999999 7.65000000000001
endloop
endfacet
facet normal -0.803698868072342 -0.215350462657804 0.554700196225228
outer loop
vertex 11.4488887394337 10.3882285676537 3.15000000000001
vertex 14.5000000000001 9.99999999999993 7.65000000000001
vertex 14.3466662183009 11.1646857029612 7.65000000000001
endloop
endfacet
facet normal -0.832050294337846 -7.13377256332088e-016 0.554700196225226
outer loop
vertex 14.5000000000001 9.99999999999993 7.65000000000001
vertex 11.4488887394337 10.3882285676537 3.15000000000001
vertex 11.5000000000001 9.99999999999993 3.15000000000001
endloop
endfacet
facet normal -0.720576692122906 -0.416025147168907 0.554700196225223
outer loop
vertex 11.2990381056767 10.7499999999999 3.15000000000001
vertex 14.3466662183009 11.1646857029612 7.65000000000001
vertex 13.89711431703 12.2499999999999 7.65000000000001
endloop
endfacet
facet normal -0.803698868072342 -0.215350462657802 0.554700196225228
outer loop
vertex 14.3466662183009 11.1646857029612 7.65000000000001
vertex 11.2990381056767 10.7499999999999 3.15000000000001
vertex 11.4488887394337 10.3882285676537 3.15000000000001
endloop
endfacet
facet normal -0.588348405414564 -0.588348405414537 0.554700196225233
outer loop
vertex 11.0606601717799 11.0606601717798 3.15000000000001
vertex 13.89711431703 12.2499999999999 7.65000000000001
vertex 13.1819805153396 13.1819805153394 7.65000000000001
endloop
endfacet
facet normal -0.720576692122905 -0.416025147168908 0.554700196225223
outer loop
vertex 13.89711431703 12.2499999999999 7.65000000000001
vertex 11.0606601717799 11.0606601717798 3.15000000000001
vertex 11.2990381056767 10.7499999999999 3.15000000000001
endloop
endfacet
facet normal -0.416025147168911 -0.7205766921229 0.554700196225227
outer loop
vertex 12.2499999999999 13.8971143170299 7.65000000000001
vertex 10.3882285676539 11.4488887394335 3.15000000000001
vertex 10.7500000000001 11.2990381056766 3.15000000000001
endloop
endfacet
facet normal -0.215350462657792 -0.803698868072345 0.554700196225228
outer loop
vertex 10.3882285676539 11.4488887394335 3.15000000000001
vertex 12.2499999999999 13.8971143170299 7.65000000000001
vertex 11.1646857029612 14.3466662183007 7.65000000000001
endloop
endfacet
facet normal -0.215350462657799 0.803698868072343 0.554700196225228
outer loop
vertex 11.1646857029612 5.65333378169912 7.65000000000002
vertex 10.7500000000001 8.70096189432327 3.15000000000001
vertex 10.3882285676539 8.55111126056632 3.15000000000001
endloop
endfacet
facet normal -0.416025147168909 0.720576692122905 0.554700196225223
outer loop
vertex 10.7500000000001 8.70096189432327 3.15000000000001
vertex 11.1646857029612 5.65333378169912 7.65000000000002
vertex 12.2499999999998 6.10288568297 7.65000000000001
endloop
endfacet
facet normal -4.42347683536925e-016 1.0 2.46519032881566e-032
outer loop
vertex 51.5 77.0 3.15000000000001
vertex 77.0 77.0 7.65
vertex 77.0 77.0 3.14999999999999
endloop
endfacet
facet normal -4.42347683536925e-016 1.0 2.46519032881566e-032
outer loop
vertex 77.0 77.0 7.65
vertex 51.5 77.0 3.15000000000001
vertex 51.5 77.0 7.65
endloop
endfacet
facet normal -3.71518404107562e-015 0.832050294337846 0.554700196225226
outer loop
vertex 10.0000000000001 8.49999999999993 3.15000000000002
vertex 11.1646857029612 5.65333378169912 7.65000000000002
vertex 10.3882285676539 8.55111126056632 3.15000000000001
endloop
endfacet
facet normal -0.215350462657799 0.803698868072343 0.554700196225228
outer loop
vertex 11.1646857029612 5.65333378169912 7.65000000000002
vertex 10.0000000000001 8.49999999999993 3.15000000000002
vertex 9.99999999999988 5.49999999999996 7.65000000000002
endloop
endfacet
facet normal 0.215350462657792 0.803698868072345 0.554700196225228
outer loop
vertex 8.83531429703857 5.65333378169912 7.65000000000002
vertex 10.0000000000001 8.49999999999993 3.15000000000002
vertex 9.61177143234631 8.55111126056632 3.15000000000002
endloop
endfacet
facet normal -3.71518404107562e-015 0.832050294337846 0.554700196225226
outer loop
vertex 10.0000000000001 8.49999999999993 3.15000000000002
vertex 8.83531429703857 5.65333378169912 7.65000000000002
vertex 9.99999999999988 5.49999999999996 7.65000000000002
endloop
endfacet
facet normal 8.33244274918686e-017 5.64531959578661e-017 1.0
outer loop
vertex 28.9734603858306 96.4999999999999 7.65
vertex 51.5 77.0 7.65
vertex 55.0265396141693 96.5 7.65
endloop
endfacet
facet normal 8.33244274918686e-017 5.64531959578661e-017 1.0
outer loop
vertex 51.5 77.0 7.65
vertex 28.9734603858306 96.4999999999999 7.65
vertex 32.5 77.0 7.65
endloop
endfacet
facet normal 8.33244274918686e-017 5.64531959578661e-017 1.0
outer loop
vertex 32.5 77.0 7.65
vertex 14.3466662183009 11.1646857029612 7.65000000000001
vertex 14.5000000000001 9.99999999999993 7.65000000000001
endloop
endfacet
facet normal 8.33244274918686e-017 5.64531959578661e-017 1.0
outer loop
vertex 14.3466662183009 11.1646857029612 7.65000000000001
vertex 32.5 77.0 7.65
vertex -0.499999999999988 76.9999999999999 7.65
endloop
endfacet
facet normal 8.33244274918686e-017 5.64531959578661e-017 1.0
outer loop
vertex 14.3466662183009 11.1646857029612 7.65000000000001
vertex -0.499999999999988 76.9999999999999 7.65
vertex 13.89711431703 12.2499999999999 7.65000000000001
endloop
endfacet
facet normal 8.33244274918686e-017 5.64531959578661e-017 1.0
outer loop
vertex 13.89711431703 12.2499999999999 7.65000000000001
vertex -0.499999999999988 76.9999999999999 7.65
vertex 13.1819805153396 13.1819805153394 7.65000000000001
endloop
endfacet
facet normal 8.33244274918686e-017 5.64531959578661e-017 1.0
outer loop
vertex 13.1819805153396 13.1819805153394 7.65000000000001
vertex -0.499999999999988 76.9999999999999 7.65
vertex 12.2499999999999 13.8971143170299 7.65000000000001
endloop
endfacet
facet normal 8.33244274918686e-017 5.64531959578661e-017 1.0
outer loop
vertex 12.2499999999999 13.8971143170299 7.65000000000001
vertex -0.499999999999988 76.9999999999999 7.65
vertex 11.1646857029612 14.3466662183007 7.65000000000001
endloop
endfacet
facet normal 8.33244274918686e-017 5.64531959578661e-017 1.0
outer loop
vertex 11.1646857029612 14.3466662183007 7.65000000000001
vertex -0.499999999999988 76.9999999999999 7.65
vertex 9.99999999999987 14.4999999999999 7.65000000000001
endloop
endfacet
facet normal 8.33244274918686e-017 5.64531959578661e-017 1.0
outer loop
vertex 9.99999999999987 14.4999999999999 7.65000000000001
vertex -0.499999999999988 76.9999999999999 7.65
vertex 8.83531429703856 14.3466662183007 7.65000000000001
endloop
endfacet
facet normal 8.33244274918686e-017 5.64531959578661e-017 1.0
outer loop
vertex 8.83531429703856 14.3466662183007 7.65000000000001
vertex -0.499999999999988 76.9999999999999 7.65
vertex 7.74999999999993 13.8971143170299 7.65000000000001
endloop
endfacet
facet normal 8.33244274918686e-017 5.64531959578661e-017 1.0
outer loop
vertex 7.74999999999993 13.8971143170299 7.65000000000001
vertex -0.499999999999988 76.9999999999999 7.65
vertex 6.81801948466059 13.1819805153394 7.65000000000001
endloop
endfacet
facet normal 8.33244274918686e-017 5.64531959578661e-017 1.0
outer loop
vertex 6.81801948466059 13.1819805153394 7.65000000000001
vertex -0.499999999999988 76.9999999999999 7.65
vertex 6.10288568297015 12.25 7.65000000000001
endloop
endfacet
facet normal 8.33244274918686e-017 5.64531959578661e-017 1.0
outer loop
vertex 6.10288568297015 12.25 7.65000000000001
vertex -0.499999999999988 76.9999999999999 7.65
vertex 5.65333378169928 11.1646857029612 7.65000000000002
endloop
endfacet
facet normal 8.33244274918686e-017 5.64531959578661e-017 1.0
outer loop
vertex 5.65333378169928 11.1646857029612 7.65000000000002
vertex -0.499999999999988 76.9999999999999 7.65
vertex 5.50000000000011 9.99999999999993 7.65000000000002
endloop
endfacet
facet normal 8.33244274918686e-017 5.64531959578661e-017 1.0
outer loop
vertex 77.0 77.0 7.65
vertex 52.0 61.5 7.65
vertex 77.0 61.5 7.65
endloop
endfacet
facet normal 8.33244274918686e-017 5.64531959578661e-017 1.0
outer loop
vertex 52.0 61.5 7.65
vertex 77.0 77.0 7.65
vertex 51.5 77.0 7.65
endloop
endfacet
facet normal 8.33244274918686e-017 5.64531959578661e-017 1.0
outer loop
vertex 52.0 61.5 7.65
vertex 51.5 77.0 7.65
vertex 52.0000000000001 -0.500000000000033 7.65000000000001
endloop
endfacet
facet normal 8.33244274918686e-017 5.64531959578661e-017 1.0
outer loop
vertex 52.0000000000001 -0.500000000000033 7.65000000000001
vertex 51.5 77.0 7.65
vertex 13.89711431703 7.7499999999999 7.65000000000001
endloop
endfacet
facet normal 8.33244274918686e-017 5.64531959578661e-017 1.0
outer loop
vertex 52.0000000000001 -0.500000000000033 7.65000000000001
vertex 13.89711431703 7.7499999999999 7.65000000000001
vertex 13.1819805153396 6.81801948466043 7.65000000000001
endloop
endfacet
facet normal 8.33244274918686e-017 5.64531959578661e-017 1.0
outer loop
vertex 52.0000000000001 -0.500000000000033 7.65000000000001
vertex 13.1819805153396 6.81801948466043 7.65000000000001
vertex 12.2499999999998 6.10288568297 7.65000000000001
endloop
endfacet
facet normal 8.33244274918686e-017 5.64531959578661e-017 1.0
outer loop
vertex 52.0000000000001 -0.500000000000033 7.65000000000001
vertex 12.2499999999998 6.10288568297 7.65000000000001
vertex -0.499999999999909 -0.500000000000089 7.65000000000001
endloop
endfacet
facet normal 8.33244274918686e-017 5.64531959578661e-017 1.0
outer loop
vertex 13.89711431703 7.7499999999999 7.65000000000001
vertex 51.5 77.0 7.65
vertex 14.3466662183009 8.83531429703861 7.65000000000001
endloop
endfacet
facet normal 8.33244274918686e-017 5.64531959578661e-017 1.0
outer loop
vertex 14.3466662183009 8.83531429703861 7.65000000000001
vertex 51.5 77.0 7.65
vertex 32.5 77.0 7.65
endloop
endfacet
facet normal 8.33244274918686e-017 5.64531959578661e-017 1.0
outer loop
vertex 14.3466662183009 8.83531429703861 7.65000000000001
vertex 32.5 77.0 7.65
vertex 14.5000000000001 9.99999999999993 7.65000000000001
endloop
endfacet
facet normal 8.33244274918686e-017 5.64531959578661e-017 1.0
outer loop
vertex -0.499999999999909 -0.500000000000089 7.65000000000001
vertex 12.2499999999998 6.10288568297 7.65000000000001
vertex 11.1646857029612 5.65333378169912 7.65000000000002
endloop
endfacet
facet normal 8.33244274918686e-017 5.64531959578661e-017 1.0
outer loop
vertex -0.499999999999909 -0.500000000000089 7.65000000000001
vertex 11.1646857029612 5.65333378169912 7.65000000000002
vertex 9.99999999999988 5.49999999999996 7.65000000000002
endloop
endfacet
facet normal 8.33244274918686e-017 5.64531959578661e-017 1.0
outer loop
vertex -0.499999999999909 -0.500000000000089 7.65000000000001
vertex 9.99999999999988 5.49999999999996 7.65000000000002
vertex 8.83531429703857 5.65333378169912 7.65000000000002
endloop
endfacet
facet normal 8.33244274918686e-017 5.64531959578661e-017 1.0
outer loop
vertex -0.499999999999909 -0.500000000000089 7.65000000000001
vertex 8.83531429703857 5.65333378169912 7.65000000000002
vertex 7.74999999999985 6.10288568297 7.65000000000002
endloop
endfacet
facet normal 8.33244274918686e-017 5.64531959578661e-017 1.0
outer loop
vertex -0.499999999999909 -0.500000000000089 7.65000000000001
vertex 7.74999999999985 6.10288568297 7.65000000000002
vertex 6.81801948466058 6.81801948466043 7.65000000000002
endloop
endfacet
facet normal 8.33244274918686e-017 5.64531959578661e-017 1.0
outer loop
vertex -0.499999999999909 -0.500000000000089 7.65000000000001
vertex 6.81801948466058 6.81801948466043 7.65000000000002
vertex 6.10288568297015 7.74999999999999 7.65000000000002
endloop
endfacet
facet normal 8.33244274918686e-017 5.64531959578661e-017 1.0
outer loop
vertex -0.499999999999909 -0.500000000000089 7.65000000000001
vertex 6.10288568297015 7.74999999999999 7.65000000000002
vertex 5.65333378169928 8.83531429703861 7.65000000000002
endloop
endfacet
facet normal 8.33244274918686e-017 5.64531959578661e-017 1.0
outer loop
vertex -0.499999999999909 -0.500000000000089 7.65000000000001
vertex 5.65333378169928 8.83531429703861 7.65000000000002
vertex 5.50000000000011 9.99999999999993 7.65000000000002
endloop
endfacet
facet normal 8.33244274918686e-017 5.64531959578661e-017 1.0
outer loop
vertex -0.499999999999909 -0.500000000000089 7.65000000000001
vertex 5.50000000000011 9.99999999999993 7.65000000000002
vertex -0.499999999999988 76.9999999999999 7.65
endloop
endfacet
facet normal 9.02389274415327e-016 -1.0 8.62107120354217e-017
outer loop
vertex 77.0 61.5 7.65
vertex 52.0 61.5 6.85000000000001
vertex 77.0 61.5 6.85000000000001
endloop
endfacet
facet normal 9.02389274415327e-016 -1.0 8.62107120354217e-017
outer loop
vertex 52.0 61.5 6.85000000000001
vertex 77.0 61.5 7.65
vertex 52.0 61.5 7.65
endloop
endfacet
facet normal 1.0 8.93695664118644e-016 -1.91669785655385e-016
outer loop
vertex 52.0000000000001 -2.00000000000003 9.15
vertex 52.0000000000001 -0.500000000000033 7.65000000000001
vertex 52.0000000000001 -0.500000000000033 9.15
endloop
endfacet
facet normal 1.0 8.93695664118644e-016 -1.91669785655385e-016
outer loop
vertex 52.0000000000001 -0.500000000000033 7.65000000000001
vertex 52.0 61.5 6.85000000000001
vertex 52.0 61.5 7.65
endloop
endfacet
facet normal 1.0 8.93695664118644e-016 -1.91669785655385e-016
outer loop
vertex 52.0 61.5 6.85000000000001
vertex 52.0000000000001 -0.500000000000033 7.65000000000001
vertex 52.0000000000001 -2.00000000000003 6.85000000000002
endloop
endfacet
facet normal 1.0 8.93695664118644e-016 -1.91669785655385e-016
outer loop
vertex 52.0000000000001 -2.00000000000003 6.85000000000002
vertex 52.0000000000001 -0.500000000000033 7.65000000000001
vertex 52.0000000000001 -2.00000000000003 9.15
endloop
endfacet
facet normal -1.06084453391088e-015 1.0 4.69994413757984e-016
outer loop
vertex -0.499999999999909 -0.500000000000089 9.15000000000001
vertex 52.0000000000001 -0.500000000000033 7.65000000000001
vertex -0.499999999999909 -0.500000000000089 7.65000000000001
endloop
endfacet
facet normal -1.06084453391088e-015 1.0 4.69994413757984e-016
outer loop
vertex 52.0000000000001 -0.500000000000033 7.65000000000001
vertex -0.499999999999909 -0.500000000000089 9.15000000000001
vertex 52.0000000000001 -0.500000000000033 9.15
endloop
endfacet
facet normal 4.02852354649699e-017 5.03565443312125e-017 1.0
outer loop
vertex 68.2500000000001 19.0 3.85000000000001
vertex 77.0000000000001 -2.00000000000001 3.85000000000001
vertex 77.0000000000001 19.0 3.85000000000001
endloop
endfacet
facet normal 4.02852354649699e-017 5.03565443312125e-017 1.0
outer loop
vertex 77.0000000000001 -2.00000000000001 3.85000000000001
vertex 68.2500000000001 19.0 3.85000000000001
vertex 68.2500000000001 -1.99999999999997 3.85000000000002
endloop
endfacet
facet normal 0.447213595499958 5.26613608786412e-016 0.894427190999916
outer loop
vertex 62.2500000000001 19.0 6.85000000000002
vertex 68.2500000000001 -1.99999999999997 3.85000000000002
vertex 68.2500000000001 19.0 3.85000000000001
endloop
endfacet
facet normal 0.447213595499958 5.26613608786412e-016 0.894427190999916
outer loop
vertex 68.2500000000001 -1.99999999999997 3.85000000000002
vertex 62.2500000000001 19.0 6.85000000000002
vertex 62.2500000000001 -1.99999999999997 6.85000000000002
endloop
endfacet
facet normal -0.173648177666932 0.984807753012208 0.0
outer loop
vertex 57.0000000000001 28.4734603858307 6.85000000000001
vertex 77.0000000000001 32.0 3.15000000000001
vertex 57.0000000000001 28.4734603858307 3.15
endloop
endfacet
facet normal -0.12258212089464 0.95794639860007 0.259446181405948
outer loop
vertex 57.0000000000001 28.4734603858307 6.85000000000001
vertex 71.0000000000001 30.9420381157492 4.35000000000001
vertex 77.0000000000001 32.0 3.15000000000001
endloop
endfacet
facet normal 0.616447998223205 5.37917605216284e-016 0.787395621963066
outer loop
vertex 71.0000000000001 30.9420381157492 6.85000000000001
vertex 73.0724392578304 19.0 5.22749792316139
vertex 73.0724392578304 30.9420381157492 5.22749792316139
endloop
endfacet
facet normal 0.616447998223205 5.37917605216284e-016 0.787395621963066
outer loop
vertex 73.0724392578304 19.0 5.22749792316139
vertex 71.0000000000001 30.9420381157492 6.85000000000001
vertex 71.0000000000001 19.0 6.85000000000001
endloop
endfacet
facet normal -0.173648177666932 0.984807753012208 3.0436601031559e-017
outer loop
vertex 77.0000000000001 32.0 5.10000000000001
vertex 77.0000000000001 32.0 3.15000000000001
vertex 71.0000000000001 30.9420381157492 4.35000000000001
endloop
endfacet
facet normal -0.1962487253034 0.864095649733343 0.463492336429313
outer loop
vertex 73.0724392578304 30.9420381157492 5.22749792316139
vertex 77.0000000000001 32.0 5.10000000000001
vertex 71.0000000000001 30.9420381157492 4.35000000000001
endloop
endfacet
facet normal -0.12258212089464 0.95794639860007 0.259446181405948
outer loop
vertex 57.0000000000001 28.4734603858307 6.85000000000001
vertex 73.0724392578304 30.9420381157492 5.22749792316139
vertex 71.0000000000001 30.9420381157492 4.35000000000001
endloop
endfacet
facet normal -0.169528152299953 0.961441928052101 -0.216540122289663
outer loop
vertex 71.0000000000001 30.9420381157492 6.85000000000001
vertex 73.0724392578304 30.9420381157492 5.22749792316139
vertex 57.0000000000001 28.4734603858307 6.85000000000001
endloop
endfacet
facet normal 9.18036258093186e-016 -1.0 -1.32853209064046e-016
outer loop
vertex 77.0000000000001 19.0 3.85000000000001
vertex 62.2500000000001 19.0 6.85000000000002
vertex 68.2500000000001 19.0 3.85000000000001
endloop
endfacet
facet normal 9.18036258093186e-016 -1.0 -1.32853209064046e-016
outer loop
vertex 62.2500000000001 19.0 6.85000000000002
vertex 77.0000000000001 19.0 3.85000000000001
vertex 73.0724392578304 19.0 5.22749792316139
endloop
endfacet
facet normal 9.18036258093186e-016 -1.0 -1.32853209064046e-016
outer loop
vertex 73.0724392578304 19.0 5.22749792316139
vertex 77.0000000000001 19.0 3.85000000000001
vertex 77.0000000000001 19.0 5.10000000000001
endloop
endfacet
facet normal 9.18036258093186e-016 -1.0 -1.32853209064046e-016
outer loop
vertex 62.2500000000001 19.0 6.85000000000002
vertex 73.0724392578304 19.0 5.22749792316139
vertex 71.0000000000001 19.0 6.85000000000001
endloop
endfacet
facet normal 0.032445277254359 2.98359926754853e-017 0.999473513397873
outer loop
vertex 73.0724392578304 30.9420381157492 5.22749792316139
vertex 77.0000000000001 19.0 5.10000000000001
vertex 77.0000000000001 32.0 5.10000000000001
endloop
endfacet
facet normal 0.032445277254359 2.98359926754853e-017 0.999473513397873
outer loop
vertex 77.0000000000001 19.0 5.10000000000001
vertex 73.0724392578304 30.9420381157492 5.22749792316139
vertex 73.0724392578304 19.0 5.22749792316139
endloop
endfacet
facet normal 1.0 8.99969591651452e-016 -2.95393108929435e-015
outer loop
vertex 77.0 61.5 7.65
vertex 77.0 77.0 3.14999999999999
vertex 77.0 77.0 7.65
endloop
endfacet
facet normal 1.0 8.99969591651452e-016 -2.95393108929435e-015
outer loop
vertex 77.0 77.0 3.14999999999999
vertex 77.0 61.5 7.65
vertex 77.0 61.5 6.85000000000001
endloop
endfacet
facet normal 1.0 8.99969591651452e-016 -2.95393108929435e-015
outer loop
vertex 77.0 77.0 3.14999999999999
vertex 77.0 61.5 6.85000000000001
vertex 77.0 52.0 3.15
endloop
endfacet
facet normal 1.0 8.99969591651452e-016 -2.95393108929435e-015
outer loop
vertex 77.0 52.0 3.15
vertex 77.0 61.5 6.85000000000001
vertex 77.0000000000001 56.4999999999999 5.09999999999896
endloop
endfacet
facet normal 1.0 8.99969591651452e-016 -2.95393108929435e-015
outer loop
vertex 77.0000000000001 56.4999999999999 5.09999999999896
vertex 77.0 61.5 6.85000000000001
vertex 77.0000000000001 56.5000000000003 6.84999999999907
endloop
endfacet
facet normal 1.0 8.99969591651452e-016 -2.95393108929435e-015
outer loop
vertex 77.0 52.0 3.15
vertex 77.0000000000001 56.4999999999999 5.09999999999896
vertex 77.0 51.9999999999996 5.09999999999991
endloop
endfacet
facet normal 8.70618182462641e-016 -1.0 2.29308767938388e-013
outer loop
vertex 77.0000000000001 56.4999999999999 5.09999999999896
vertex 71.0000000000001 56.5000000000003 6.84999999999907
vertex 72.9643590901896 56.4999999999999 5.09999999999896
endloop
endfacet
facet normal 8.70618182462641e-016 -1.0 2.29308767938388e-013
outer loop
vertex 71.0000000000001 56.5000000000003 6.84999999999907
vertex 77.0000000000001 56.4999999999999 5.09999999999896
vertex 77.0000000000001 56.5000000000003 6.84999999999907
endloop
endfacet
facet normal 1.62005332911455e-014 3.97473136667879e-015 1.0
outer loop
vertex 52.0 61.5 6.85000000000001
vertex 77.0000000000001 56.5000000000003 6.84999999999907
vertex 77.0 61.5 6.85000000000001
endloop
endfacet
facet normal 1.62005332911455e-014 3.97473136667879e-015 1.0
outer loop
vertex 77.0000000000001 56.5000000000003 6.84999999999907
vertex 52.0 61.5 6.85000000000001
vertex 71.0000000000001 56.5000000000003 6.84999999999907
endloop
endfacet
facet normal 1.62005332911455e-014 3.97473136667879e-015 1.0
outer loop
vertex 71.0000000000001 56.5000000000003 6.84999999999907
vertex 52.0 61.5 6.85000000000001
vertex 57.4924038765061 55.6133637030023 6.8499999999999
endloop
endfacet
facet normal 1.62005332911455e-014 3.97473136667879e-015 1.0
outer loop
vertex 57.4924038765061 55.6133637030023 6.8499999999999
vertex 52.0 61.5 6.85000000000001
vertex 57.0 55.7045709580285 6.84999999999996
endloop
endfacet
facet normal 1.62005332911455e-014 3.97473136667879e-015 1.0
outer loop
vertex 57.0 55.7045709580285 6.84999999999996
vertex 52.0 61.5 6.85000000000001
vertex 57.0000000000001 28.4734603858307 6.85000000000001
endloop
endfacet
facet normal 1.62005332911455e-014 3.97473136667879e-015 1.0
outer loop
vertex 57.0000000000001 28.4734603858307 6.85000000000001
vertex 71.0000000000001 19.0 6.85000000000001
vertex 71.0000000000001 30.9420381157492 6.85000000000001
endloop
endfacet
facet normal 1.62005332911455e-014 3.97473136667879e-015 1.0
outer loop
vertex 71.0000000000001 19.0 6.85000000000001
vertex 57.0000000000001 28.4734603858307 6.85000000000001
vertex 62.2500000000001 19.0 6.85000000000002
endloop
endfacet
facet normal 1.62005332911455e-014 3.97473136667879e-015 1.0
outer loop
vertex 62.2500000000001 19.0 6.85000000000002
vertex 57.0000000000001 28.4734603858307 6.85000000000001
vertex 62.2500000000001 -1.99999999999997 6.85000000000002
endloop
endfacet
facet normal 1.62005332911455e-014 3.97473136667879e-015 1.0
outer loop
vertex 62.2500000000001 -1.99999999999997 6.85000000000002
vertex 57.0000000000001 28.4734603858307 6.85000000000001
vertex 52.0000000000001 -2.00000000000003 6.85000000000002
endloop
endfacet
facet normal 1.62005332911455e-014 3.97473136667879e-015 1.0
outer loop
vertex 52.0000000000001 -2.00000000000003 6.85000000000002
vertex 57.0000000000001 28.4734603858307 6.85000000000001
vertex 52.0 61.5 6.85000000000001
endloop
endfacet
facet normal 1.62005332911455e-014 3.97473136667879e-015 1.0
outer loop
vertex 57.4924038765061 55.6133637030023 6.8499999999999
vertex 71.0000000000001 53.1113712874084 6.84999999999989
vertex 71.0000000000001 56.5000000000003 6.84999999999907
endloop
endfacet
facet normal -0.182130483761319 -0.983274370094567 -2.75122021164117e-014
outer loop
vertex 77.0 51.9999999999996 5.09999999999991
vertex 57.0 55.7045709580285 3.15
vertex 77.0 52.0 3.15
endloop
endfacet
facet normal -0.182130483761319 -0.983274370094567 -2.75122021164117e-014
outer loop
vertex 57.0 55.7045709580285 3.15
vertex 77.0 51.9999999999996 5.09999999999991
vertex 72.9696155060245 52.7465422673033 5.09999999999991
endloop
endfacet
facet normal -0.182130483761319 -0.983274370094567 -2.75122021164117e-014
outer loop
vertex 72.9696155060245 52.7465422673033 5.09999999999991
vertex 57.0 55.7045709580285 6.84999999999996
vertex 57.0 55.7045709580285 3.15
endloop
endfacet
facet normal -0.182130483761319 -0.983274370094567 -2.75122021164117e-014
outer loop
vertex 57.0 55.7045709580285 6.84999999999996
vertex 72.9696155060245 52.7465422673033 5.09999999999991
vertex 57.4924038765061 55.6133637030023 6.8499999999999
endloop
endfacet
facet normal -0.182130483761319 -0.983274370094567 -2.75122021164117e-014
outer loop
vertex 57.4924038765061 55.6133637030023 6.8499999999999
vertex 72.9696155060245 52.7465422673033 5.09999999999991
vertex 71.0000000000001 53.1113712874084 6.84999999999989
endloop
endfacet
facet normal 1.0 8.28454344547225e-016 -1.72563323017096e-031
outer loop
vertex 57.0000000000001 28.4734603858307 6.85000000000001
vertex 57.0 55.7045709580285 3.15
vertex 57.0 55.7045709580285 6.84999999999996
endloop
endfacet
facet normal 1.0 8.28454344547225e-016 -1.72563323017096e-031
outer loop
vertex 57.0 55.7045709580285 3.15
vertex 57.0000000000001 28.4734603858307 6.85000000000001
vertex 57.0000000000001 28.4734603858307 3.15
endloop
endfacet
facet normal 0.664722089007807 0.000512842579071259 0.747090544296731
outer loop
vertex 72.9643590901896 56.4999999999999 5.09999999999896
vertex 71.0000000000001 53.1113712874084 6.84999999999989
vertex 72.9696155060245 52.7465422673033 5.09999999999991
endloop
endfacet
facet normal 0.664722089007807 0.000512842579071259 0.747090544296731
outer loop
vertex 71.0000000000001 53.1113712874084 6.84999999999989
vertex 72.9643590901896 56.4999999999999 5.09999999999896
vertex 71.0000000000001 56.5000000000003 6.84999999999907
endloop
endfacet
facet normal 2.08423674652484e-014 2.27241905118165e-013 1.0
outer loop
vertex 72.9643590901896 56.4999999999999 5.09999999999896
vertex 77.0 51.9999999999996 5.09999999999991
vertex 77.0000000000001 56.4999999999999 5.09999999999896
endloop
endfacet
facet normal 2.08423674652484e-014 2.27241905118165e-013 1.0
outer loop
vertex 77.0 51.9999999999996 5.09999999999991
vertex 72.9643590901896 56.4999999999999 5.09999999999896
vertex 72.9696155060245 52.7465422673033 5.09999999999991
endloop
endfacet
endsolid solidoodlebed
