solid solidoodlebed
facet normal 8.32308730535555e-018 -5.26034961703546e-017 -1.0
outer loop
vertex 154.0 156.0 3.15
vertex 77.0 122.0 3.15
vertex 77.0 156.0 3.15
endloop
endfacet
facet normal 8.32308730535555e-018 -5.26034961703546e-017 -1.0
outer loop
vertex 77.0 122.0 3.15
vertex 154.0 156.0 3.15
vertex 97.0 125.526539614169 3.15
endloop
endfacet
facet normal 8.32308730535555e-018 -5.26034961703546e-017 -1.0
outer loop
vertex 97.0 125.526539614169 3.15
vertex 154.0 156.0 3.15
vertex 142.93933982822 145.06066017178 3.15
endloop
endfacet
facet normal 8.32308730535555e-018 -5.26034961703546e-017 -1.0
outer loop
vertex 97.0 125.526539614169 3.15
vertex 142.93933982822 145.06066017178 3.15
vertex 97.0 98.4734603858307 3.15
endloop
endfacet
facet normal 8.32308730535555e-018 -5.26034961703546e-017 -1.0
outer loop
vertex 97.0 98.4734603858307 3.15
vertex 142.93933982822 145.06066017178 3.15
vertex 142.700961894323 144.75 3.15
endloop
endfacet
facet normal 8.32308730535555e-018 -5.26034961703546e-017 -1.0
outer loop
vertex 97.0 98.4734603858307 3.15
vertex 142.700961894323 144.75 3.15
vertex 102.5 77.0 3.15000000000001
endloop
endfacet
facet normal 8.32308730535555e-018 -5.26034961703546e-017 -1.0
outer loop
vertex 102.5 77.0 3.15000000000001
vertex 142.700961894323 144.75 3.15
vertex 142.551111260566 144.388228567654 3.15
endloop
endfacet
facet normal 8.32308730535555e-018 -5.26034961703546e-017 -1.0
outer loop
vertex 102.5 77.0 3.15000000000001
vertex 142.551111260566 144.388228567654 3.15
vertex 121.5 77.0 3.15000000000001
endloop
endfacet
facet normal 8.32308730535555e-018 -5.26034961703546e-017 -1.0
outer loop
vertex 121.5 77.0 3.15000000000001
vertex 142.551111260566 144.388228567654 3.15
vertex 142.5 144.0 3.15
endloop
endfacet
facet normal 8.32308730535555e-018 -5.26034961703546e-017 -1.0
outer loop
vertex 142.93933982822 145.06066017178 3.15
vertex 154.0 156.0 3.15
vertex 143.25 145.299038105677 3.15
endloop
endfacet
facet normal 8.32308730535555e-018 -5.26034961703546e-017 -1.0
outer loop
vertex 143.25 145.299038105677 3.15
vertex 154.0 156.0 3.15
vertex 143.611771432346 145.448888739434 3.15
endloop
endfacet
facet normal 8.32308730535555e-018 -5.26034961703546e-017 -1.0
outer loop
vertex 143.611771432346 145.448888739434 3.15
vertex 154.0 156.0 3.15
vertex 144.0 145.5 3.15
endloop
endfacet
facet normal 8.32308730535555e-018 -5.26034961703546e-017 -1.0
outer loop
vertex 144.0 145.5 3.15
vertex 154.0 156.0 3.15
vertex 144.388228567654 145.448888739434 3.15
endloop
endfacet
facet normal 8.32308730535555e-018 -5.26034961703546e-017 -1.0
outer loop
vertex 144.388228567654 145.448888739434 3.15
vertex 154.0 156.0 3.15
vertex 144.75 145.299038105677 3.15
endloop
endfacet
facet normal 8.32308730535555e-018 -5.26034961703546e-017 -1.0
outer loop
vertex 144.75 145.299038105677 3.15
vertex 154.0 156.0 3.15
vertex 145.06066017178 145.06066017178 3.15
endloop
endfacet
facet normal 8.32308730535555e-018 -5.26034961703546e-017 -1.0
outer loop
vertex 145.06066017178 145.06066017178 3.15
vertex 154.0 156.0 3.15
vertex 145.299038105677 144.75 3.15
endloop
endfacet
facet normal 8.32308730535555e-018 -5.26034961703546e-017 -1.0
outer loop
vertex 145.299038105677 144.75 3.15
vertex 154.0 156.0 3.15
vertex 145.448888739434 144.388228567654 3.15
endloop
endfacet
facet normal 8.32308730535555e-018 -5.26034961703546e-017 -1.0
outer loop
vertex 145.448888739434 144.388228567654 3.15
vertex 154.0 156.0 3.15
vertex 145.5 144.0 3.15
endloop
endfacet
facet normal 8.32308730535555e-018 -5.26034961703546e-017 -1.0
outer loop
vertex 121.5 77.0 3.15000000000001
vertex 142.551111260566 143.611771432346 3.15
vertex 156.0 77.0 3.15
endloop
endfacet
facet normal 8.32308730535555e-018 -5.26034961703546e-017 -1.0
outer loop
vertex 142.551111260566 143.611771432346 3.15
vertex 121.5 77.0 3.15000000000001
vertex 142.5 144.0 3.15
endloop
endfacet
facet normal 8.32308730535555e-018 -5.26034961703546e-017 -1.0
outer loop
vertex 156.0 77.0 3.15
vertex 142.551111260566 143.611771432346 3.15
vertex 142.700961894323 143.25 3.15
endloop
endfacet
facet normal 8.32308730535555e-018 -5.26034961703546e-017 -1.0
outer loop
vertex 156.0 77.0 3.15
vertex 142.700961894323 143.25 3.15
vertex 142.93933982822 142.93933982822 3.15
endloop
endfacet
facet normal 8.32308730535555e-018 -5.26034961703546e-017 -1.0
outer loop
vertex 156.0 77.0 3.15
vertex 142.93933982822 142.93933982822 3.15
vertex 143.25 142.700961894323 3.15
endloop
endfacet
facet normal 8.32308730535555e-018 -5.26034961703546e-017 -1.0
outer loop
vertex 156.0 77.0 3.15
vertex 143.25 142.700961894323 3.15
vertex 143.611771432346 142.551111260566 3.15
endloop
endfacet
facet normal 8.32308730535555e-018 -5.26034961703546e-017 -1.0
outer loop
vertex 156.0 77.0 3.15
vertex 143.611771432346 142.551111260566 3.15
vertex 144.0 142.5 3.15
endloop
endfacet
facet normal 8.32308730535555e-018 -5.26034961703546e-017 -1.0
outer loop
vertex 156.0 77.0 3.15
vertex 144.0 142.5 3.15
vertex 144.388228567654 142.551111260566 3.15
endloop
endfacet
facet normal 8.32308730535555e-018 -5.26034961703546e-017 -1.0
outer loop
vertex 156.0 77.0 3.15
vertex 144.388228567654 142.551111260566 3.15
vertex 144.75 142.700961894323 3.15
endloop
endfacet
facet normal 8.32308730535555e-018 -5.26034961703546e-017 -1.0
outer loop
vertex 156.0 77.0 3.15
vertex 144.75 142.700961894323 3.15
vertex 145.06066017178 142.93933982822 3.15
endloop
endfacet
facet normal 8.32308730535555e-018 -5.26034961703546e-017 -1.0
outer loop
vertex 156.0 77.0 3.15
vertex 145.06066017178 142.93933982822 3.15
vertex 145.299038105677 143.25 3.15
endloop
endfacet
facet normal 8.32308730535555e-018 -5.26034961703546e-017 -1.0
outer loop
vertex 156.0 77.0 3.15
vertex 145.299038105677 143.25 3.15
vertex 145.448888739434 143.611771432346 3.15
endloop
endfacet
facet normal 8.32308730535555e-018 -5.26034961703546e-017 -1.0
outer loop
vertex 156.0 77.0 3.15
vertex 145.448888739434 143.611771432346 3.15
vertex 145.5 144.0 3.15
endloop
endfacet
facet normal 8.32308730535555e-018 -5.26034961703546e-017 -1.0
outer loop
vertex 156.0 77.0 3.15
vertex 145.5 144.0 3.15
vertex 154.0 156.0 3.15
endloop
endfacet
facet normal 8.32308730535555e-018 -5.26034961703546e-017 -1.0
outer loop
vertex 156.0 77.0 3.15
vertex 154.0 156.0 3.15
vertex 154.517638090205 155.931851652578 3.15
endloop
endfacet
facet normal 8.32308730535555e-018 -5.26034961703546e-017 -1.0
outer loop
vertex 156.0 77.0 3.15
vertex 154.517638090205 155.931851652578 3.15
vertex 154.76536686473 155.847759065023 3.15
endloop
endfacet
facet normal 8.32308730535555e-018 -5.26034961703546e-017 -1.0
outer loop
vertex 156.0 77.0 3.15
vertex 154.76536686473 155.847759065023 3.15
vertex 155.0 155.732050807569 3.15
endloop
endfacet
facet normal 8.32308730535555e-018 -5.26034961703546e-017 -1.0
outer loop
vertex 156.0 77.0 3.15
vertex 155.0 155.732050807569 3.15
vertex 155.217522858017 155.586706680582 3.15
endloop
endfacet
facet normal 8.32308730535555e-018 -5.26034961703546e-017 -1.0
outer loop
vertex 156.0 77.0 3.15
vertex 155.217522858017 155.586706680582 3.15
vertex 155.414213562373 155.414213562373 3.15
endloop
endfacet
facet normal 8.32308730535555e-018 -5.26034961703546e-017 -1.0
outer loop
vertex 156.0 77.0 3.15
vertex 155.414213562373 155.414213562373 3.15
vertex 155.586706680582 155.217522858017 3.15
endloop
endfacet
facet normal 8.32308730535555e-018 -5.26034961703546e-017 -1.0
outer loop
vertex 156.0 77.0 3.15
vertex 155.586706680582 155.217522858017 3.15
vertex 155.732050807569 155.0 3.15
endloop
endfacet
facet normal 8.32308730535555e-018 -5.26034961703546e-017 -1.0
outer loop
vertex 156.0 77.0 3.15
vertex 155.732050807569 155.0 3.15
vertex 155.847759065023 154.76536686473 3.15
endloop
endfacet
facet normal 8.32308730535555e-018 -5.26034961703546e-017 -1.0
outer loop
vertex 156.0 77.0 3.15
vertex 155.847759065023 154.76536686473 3.15
vertex 155.931851652578 154.517638090205 3.15
endloop
endfacet
facet normal 8.32308730535555e-018 -5.26034961703546e-017 -1.0
outer loop
vertex 156.0 77.0 3.15
vertex 155.931851652578 154.517638090205 3.15
vertex 156.0 154.0 3.15
endloop
endfacet
facet normal 8.32308730535555e-018 -5.26034961703546e-017 -1.0
outer loop
vertex 77.0 102.0 3.15
vertex 102.5 77.0 3.15000000000001
vertex 77.0 77.0 3.15
endloop
endfacet
facet normal 8.32308730535555e-018 -5.26034961703546e-017 -1.0
outer loop
vertex 102.5 77.0 3.15000000000001
vertex 77.0 102.0 3.15
vertex 97.0 98.4734603858307 3.15
endloop
endfacet
facet normal 3.31930548099292e-016 -1.0 3.36741135752903e-017
outer loop
vertex 121.5 77.0 7.65
vertex 121.5 77.0 3.15000000000001
vertex 154.5 77.0 7.65
endloop
endfacet
facet normal 3.31930548099292e-016 -1.0 3.36741135752903e-017
outer loop
vertex 156.0 77.0 3.15
vertex 154.5 77.0 7.65
vertex 121.5 77.0 3.15000000000001
endloop
endfacet
facet normal 3.31930548099292e-016 -1.0 3.36741135752903e-017
outer loop
vertex 154.5 77.0 7.65
vertex 156.0 77.0 3.15
vertex 156.0 77.0 9.15
endloop
endfacet
facet normal 3.31930548099292e-016 -1.0 3.36741135752903e-017
outer loop
vertex 154.5 77.0 7.65
vertex 156.0 77.0 9.15
vertex 154.5 77.0 9.15
endloop
endfacet
facet normal 1.0 0.0 0.0
outer loop
vertex 156.0 154.0 3.15
vertex 156.0 77.0 9.15
vertex 156.0 77.0 3.15
endloop
endfacet
facet normal 1.0 0.0 0.0
outer loop
vertex 156.0 77.0 9.15
vertex 156.0 154.0 3.15
vertex 156.0 154.0 9.15
endloop
endfacet
facet normal 0.991444861373813 0.13052619222003 0.0
outer loop
vertex 155.931851652578 154.517638090205 3.15
vertex 156.0 154.0 9.15
vertex 156.0 154.0 3.15
endloop
endfacet
facet normal 0.991444861373813 0.13052619222003 0.0
outer loop
vertex 156.0 154.0 9.15
vertex 155.931851652578 154.517638090205 3.15
vertex 155.931851652578 154.517638090205 9.15
endloop
endfacet
facet normal 0.946930129495099 0.32143946530318 0.0
outer loop
vertex 155.847759065023 154.76536686473 3.15
vertex 155.931851652578 154.517638090205 9.15
vertex 155.931851652578 154.517638090205 3.15
endloop
endfacet
facet normal 0.946930129495099 0.32143946530318 0.0
outer loop
vertex 155.931851652578 154.517638090205 9.15
vertex 155.847759065023 154.76536686473 3.15
vertex 155.847759065023 154.76536686473 9.15
endloop
endfacet
facet normal 0.896872741532668 0.442288690219042 0.0
outer loop
vertex 155.732050807569 155.0 3.15
vertex 155.847759065023 154.76536686473 9.15
vertex 155.847759065023 154.76536686473 3.15
endloop
endfacet
facet normal 0.896872741532668 0.442288690219042 0.0
outer loop
vertex 155.847759065023 154.76536686473 9.15
vertex 155.732050807569 155.0 3.15
vertex 155.732050807569 155.0 9.15
endloop
endfacet
facet normal 0.831469612302559 0.555570233019582 0.0
outer loop
vertex 155.586706680582 155.217522858017 3.15
vertex 155.732050807569 155.0 9.15
vertex 155.732050807569 155.0 3.15
endloop
endfacet
facet normal 0.831469612302559 0.555570233019582 0.0
outer loop
vertex 155.732050807569 155.0 9.15
vertex 155.586706680582 155.217522858017 3.15
vertex 155.586706680582 155.217522858017 9.15
endloop
endfacet
facet normal 0.751839807478994 0.65934581510005 0.0
outer loop
vertex 155.414213562373 155.414213562373 3.15
vertex 155.586706680582 155.217522858017 9.15
vertex 155.586706680582 155.217522858017 3.15
endloop
endfacet
facet normal 0.751839807478994 0.65934581510005 0.0
outer loop
vertex 155.586706680582 155.217522858017 9.15
vertex 155.414213562373 155.414213562373 3.15
vertex 155.414213562373 155.414213562373 9.15
endloop
endfacet
facet normal 0.65934581510005 0.751839807478994 0.0
outer loop
vertex 155.217522858017 155.586706680582 9.15
vertex 155.414213562373 155.414213562373 3.15
vertex 155.217522858017 155.586706680582 3.15
endloop
endfacet
facet normal 0.65934581510005 0.751839807478994 0.0
outer loop
vertex 155.414213562373 155.414213562373 3.15
vertex 155.217522858017 155.586706680582 9.15
vertex 155.414213562373 155.414213562373 9.15
endloop
endfacet
facet normal 0.555570233019582 0.831469612302559 0.0
outer loop
vertex 155.0 155.732050807569 9.15
vertex 155.217522858017 155.586706680582 3.15
vertex 155.0 155.732050807569 3.15
endloop
endfacet
facet normal 0.555570233019582 0.831469612302559 0.0
outer loop
vertex 155.217522858017 155.586706680582 3.15
vertex 155.0 155.732050807569 9.15
vertex 155.217522858017 155.586706680582 9.15
endloop
endfacet
facet normal 0.442288690219042 0.896872741532668 0.0
outer loop
vertex 154.76536686473 155.847759065023 9.15
vertex 155.0 155.732050807569 3.15
vertex 154.76536686473 155.847759065023 3.15
endloop
endfacet
facet normal 0.442288690219042 0.896872741532668 0.0
outer loop
vertex 155.0 155.732050807569 3.15
vertex 154.76536686473 155.847759065023 9.15
vertex 155.0 155.732050807569 9.15
endloop
endfacet
facet normal 0.32143946530318 0.946930129495099 0.0
outer loop
vertex 154.517638090205 155.931851652578 9.15
vertex 154.76536686473 155.847759065023 3.15
vertex 154.517638090205 155.931851652578 3.15
endloop
endfacet
facet normal 0.32143946530318 0.946930129495099 0.0
outer loop
vertex 154.76536686473 155.847759065023 3.15
vertex 154.517638090205 155.931851652578 9.15
vertex 154.76536686473 155.847759065023 9.15
endloop
endfacet
facet normal 0.13052619222003 0.991444861373813 0.0
outer loop
vertex 154.0 156.0 9.15
vertex 154.517638090205 155.931851652578 3.15
vertex 154.0 156.0 3.15
endloop
endfacet
facet normal 0.13052619222003 0.991444861373813 0.0
outer loop
vertex 154.517638090205 155.931851652578 3.15
vertex 154.0 156.0 9.15
vertex 154.517638090205 155.931851652578 9.15
endloop
endfacet
facet normal 0.0 1.0 0.0
outer loop
vertex 77.0 156.0 9.15
vertex 154.0 156.0 3.15
vertex 77.0 156.0 3.15
endloop
endfacet
facet normal 0.0 1.0 0.0
outer loop
vertex 154.0 156.0 3.15
vertex 77.0 156.0 9.15
vertex 154.0 156.0 9.15
endloop
endfacet
facet normal -2.80571071447938e-017 -1.91405126847445e-017 1.0
outer loop
vertex 156.0 77.0 9.15
vertex 154.5 154.5 9.14999999999999
vertex 154.5 77.0 9.15
endloop
endfacet
facet normal -2.80571071447938e-017 -1.91405126847445e-017 1.0
outer loop
vertex 154.5 154.5 9.14999999999999
vertex 156.0 77.0 9.15
vertex 154.517638090205 155.931851652578 9.15
endloop
endfacet
facet normal -2.80571071447938e-017 -1.91405126847445e-017 1.0
outer loop
vertex 154.517638090205 155.931851652578 9.15
vertex 156.0 77.0 9.15
vertex 154.76536686473 155.847759065023 9.15
endloop
endfacet
facet normal -2.80571071447938e-017 -1.91405126847445e-017 1.0
outer loop
vertex 154.76536686473 155.847759065023 9.15
vertex 156.0 77.0 9.15
vertex 155.0 155.732050807569 9.15
endloop
endfacet
facet normal -2.80571071447938e-017 -1.91405126847445e-017 1.0
outer loop
vertex 155.0 155.732050807569 9.15
vertex 156.0 77.0 9.15
vertex 155.217522858017 155.586706680582 9.15
endloop
endfacet
facet normal -2.80571071447938e-017 -1.91405126847445e-017 1.0
outer loop
vertex 155.217522858017 155.586706680582 9.15
vertex 156.0 77.0 9.15
vertex 155.414213562373 155.414213562373 9.15
endloop
endfacet
facet normal -2.80571071447938e-017 -1.91405126847445e-017 1.0
outer loop
vertex 155.414213562373 155.414213562373 9.15
vertex 156.0 77.0 9.15
vertex 155.586706680582 155.217522858017 9.15
endloop
endfacet
facet normal -2.80571071447938e-017 -1.91405126847445e-017 1.0
outer loop
vertex 155.586706680582 155.217522858017 9.15
vertex 156.0 77.0 9.15
vertex 155.732050807569 155.0 9.15
endloop
endfacet
facet normal -2.80571071447938e-017 -1.91405126847445e-017 1.0
outer loop
vertex 155.732050807569 155.0 9.15
vertex 156.0 77.0 9.15
vertex 155.847759065023 154.76536686473 9.15
endloop
endfacet
facet normal -2.80571071447938e-017 -1.91405126847445e-017 1.0
outer loop
vertex 155.847759065023 154.76536686473 9.15
vertex 156.0 77.0 9.15
vertex 155.931851652578 154.517638090205 9.15
endloop
endfacet
facet normal -2.80571071447938e-017 -1.91405126847445e-017 1.0
outer loop
vertex 155.931851652578 154.517638090205 9.15
vertex 156.0 77.0 9.15
vertex 156.0 154.0 9.15
endloop
endfacet
facet normal -2.80571071447938e-017 -1.91405126847445e-017 1.0
outer loop
vertex 154.5 154.5 9.14999999999999
vertex 77.0 156.0 9.15
vertex 77.0 154.5 9.15
endloop
endfacet
facet normal -2.80571071447938e-017 -1.91405126847445e-017 1.0
outer loop
vertex 77.0 156.0 9.15
vertex 154.5 154.5 9.14999999999999
vertex 154.0 156.0 9.15
endloop
endfacet
facet normal -2.80571071447938e-017 -1.91405126847445e-017 1.0
outer loop
vertex 154.0 156.0 9.15
vertex 154.5 154.5 9.14999999999999
vertex 154.517638090205 155.931851652578 9.15
endloop
endfacet
facet normal -1.0 0.0 0.0
outer loop
vertex 77.0 156.0 9.15
vertex 77.0 154.5 7.64999999999999
vertex 77.0 154.5 9.15
endloop
endfacet
facet normal -1.0 0.0 0.0
outer loop
vertex 77.0 154.5 7.64999999999999
vertex 77.0 122.0 3.15
vertex 77.0 122.0 7.65
endloop
endfacet
facet normal -1.0 0.0 0.0
outer loop
vertex 77.0 122.0 3.15
vertex 77.0 154.5 7.64999999999999
vertex 77.0 156.0 3.15
endloop
endfacet
facet normal -1.0 0.0 0.0
outer loop
vertex 77.0 156.0 3.15
vertex 77.0 154.5 7.64999999999999
vertex 77.0 156.0 9.15
endloop
endfacet
facet normal -1.0 2.48248000916552e-033 4.54833303636758e-017
outer loop
vertex 154.5 154.5 9.14999999999999
vertex 154.5 77.0 7.65
vertex 154.5 77.0 9.15
endloop
endfacet
facet normal -1.0 2.48248000916552e-033 4.54833303636758e-017
outer loop
vertex 154.5 77.0 7.65
vertex 154.5 154.5 9.14999999999999
vertex 154.5 154.5 7.64999999999999
endloop
endfacet
facet normal 2.31698134188782e-033 -1.0 6.36766625091461e-017
outer loop
vertex 154.5 154.5 9.14999999999999
vertex 77.0 154.5 7.64999999999999
vertex 154.5 154.5 7.64999999999999
endloop
endfacet
facet normal 2.31698134188782e-033 -1.0 6.36766625091461e-017
outer loop
vertex 77.0 154.5 7.64999999999999
vertex 154.5 154.5 9.14999999999999
vertex 77.0 154.5 9.15
endloop
endfacet
facet normal 0.0 0.832050294337846 0.554700196225226
outer loop
vertex 144.0 139.5 7.65
vertex 144.388228567654 142.551111260566 3.15
vertex 144.0 142.5 3.15
endloop
endfacet
facet normal -0.215350462657803 0.803698868072342 0.554700196225228
outer loop
vertex 144.388228567654 142.551111260566 3.15
vertex 144.0 139.5 7.65
vertex 145.164685702961 139.653333781699 7.65
endloop
endfacet
facet normal -0.832050294337846 0.0 0.554700196225226
outer loop
vertex 148.5 144.0 7.65
vertex 145.448888739434 143.611771432346 3.15
vertex 148.346666218301 142.835314297039 7.65
endloop
endfacet
facet normal -0.803698868072345 0.215350462657791 0.554700196225228
outer loop
vertex 145.448888739434 143.611771432346 3.15
vertex 148.5 144.0 7.65
vertex 145.5 144.0 3.15
endloop
endfacet
facet normal -0.803698868072343 -0.215350462657801 0.554700196225228
outer loop
vertex 148.346666218301 145.164685702961 7.65
vertex 145.299038105677 144.75 3.15
vertex 145.448888739434 144.388228567654 3.15
endloop
endfacet
facet normal -0.720576692122906 -0.416025147168906 0.554700196225223
outer loop
vertex 145.299038105677 144.75 3.15
vertex 148.346666218301 145.164685702961 7.65
vertex 147.89711431703 146.25 7.65
endloop
endfacet
facet normal 0.21535046265779 0.803698868072346 0.554700196225228
outer loop
vertex 142.835314297039 139.653333781699 7.65
vertex 144.0 142.5 3.15
vertex 143.611771432346 142.551111260566 3.15
endloop
endfacet
facet normal 0.0 0.832050294337846 0.554700196225226
outer loop
vertex 144.0 142.5 3.15
vertex 142.835314297039 139.653333781699 7.65
vertex 144.0 139.5 7.65
endloop
endfacet
facet normal -0.588348405414564 -0.588348405414537 0.554700196225233
outer loop
vertex 147.181980515339 147.181980515339 7.65
vertex 144.75 145.299038105677 3.15
vertex 145.06066017178 145.06066017178 3.15
endloop
endfacet
facet normal -0.416025147168911 -0.7205766921229 0.554700196225227
outer loop
vertex 144.75 145.299038105677 3.15
vertex 147.181980515339 147.181980515339 7.65
vertex 146.25 147.89711431703 7.65
endloop
endfacet
facet normal -0.215350462657801 0.803698868072343 0.554700196225228
outer loop
vertex 145.164685702961 139.653333781699 7.65
vertex 144.75 142.700961894323 3.15
vertex 144.388228567654 142.551111260566 3.15
endloop
endfacet
facet normal -0.416025147168906 0.720576692122906 0.554700196225223
outer loop
vertex 144.75 142.700961894323 3.15
vertex 145.164685702961 139.653333781699 7.65
vertex 146.25 140.10288568297 7.65
endloop
endfacet
facet normal -0.803698868072343 -0.215350462657801 0.554700196225228
outer loop
vertex 148.346666218301 145.164685702961 7.65
vertex 145.5 144.0 3.15
vertex 148.5 144.0 7.65
endloop
endfacet
facet normal -0.832050294337846 0.0 0.554700196225226
outer loop
vertex 145.5 144.0 3.15
vertex 148.346666218301 145.164685702961 7.65
vertex 145.448888739434 144.388228567654 3.15
endloop
endfacet
facet normal -0.720576692122906 -0.416025147168907 0.554700196225223
outer loop
vertex 147.89711431703 146.25 7.65
vertex 145.06066017178 145.06066017178 3.15
vertex 145.299038105677 144.75 3.15
endloop
endfacet
facet normal -0.588348405414565 -0.588348405414536 0.554700196225233
outer loop
vertex 145.06066017178 145.06066017178 3.15
vertex 147.89711431703 146.25 7.65
vertex 147.181980515339 147.181980515339 7.65
endloop
endfacet
facet normal -0.416025147168912 -0.720576692122899 0.554700196225227
outer loop
vertex 146.25 147.89711431703 7.65
vertex 144.388228567654 145.448888739434 3.15
vertex 144.75 145.299038105677 3.15
endloop
endfacet
facet normal -0.215350462657791 -0.803698868072346 0.554700196225228
outer loop
vertex 144.388228567654 145.448888739434 3.15
vertex 146.25 147.89711431703 7.65
vertex 145.164685702961 148.346666218301 7.65
endloop
endfacet
facet normal -4.79360686100921e-016 -1.0 3.66055106916085e-015
outer loop
vertex 125.026539614169 57.5 7.65
vertex 98.9734603858307 57.5 3.15000000000001
vertex 125.026539614169 57.5 3.15000000000001
endloop
endfacet
facet normal -4.79360686100921e-016 -1.0 3.66055106916085e-015
outer loop
vertex 98.9734603858307 57.5 3.15000000000001
vertex 125.026539614169 57.5 7.65
vertex 102.0 57.5 6.85
endloop
endfacet
facet normal -4.79360686100921e-016 -1.0 3.66055106916085e-015
outer loop
vertex 102.0 57.5 6.85
vertex 125.026539614169 57.5 7.65
vertex 102.0 57.5 7.65
endloop
endfacet
facet normal -4.79360686100921e-016 -1.0 3.66055106916085e-015
outer loop
vertex 98.9734603858307 57.5 6.85
vertex 98.9734603858307 57.5 3.15000000000001
vertex 102.0 57.5 6.85
endloop
endfacet
facet normal -0.803698868072345 0.21535046265779 0.554700196225228
outer loop
vertex 148.346666218301 142.835314297039 7.65
vertex 145.299038105677 143.25 3.15
vertex 147.89711431703 141.75 7.65
endloop
endfacet
facet normal -0.7205766921229 0.416025147168911 0.554700196225227
outer loop
vertex 145.299038105677 143.25 3.15
vertex 148.346666218301 142.835314297039 7.65
vertex 145.448888739434 143.611771432346 3.15
endloop
endfacet
facet normal -0.720576692122899 0.416025147168913 0.554700196225227
outer loop
vertex 147.89711431703 141.75 7.65
vertex 145.06066017178 142.93933982822 3.15
vertex 147.181980515339 140.818019484661 7.65
endloop
endfacet
facet normal -0.588348405414536 0.588348405414565 0.554700196225232
outer loop
vertex 145.06066017178 142.93933982822 3.15
vertex 147.89711431703 141.75 7.65
vertex 145.299038105677 143.25 3.15
endloop
endfacet
facet normal -0.416025147168907 0.720576692122906 0.554700196225223
outer loop
vertex 146.25 140.10288568297 7.65
vertex 145.06066017178 142.93933982822 3.15
vertex 144.75 142.700961894323 3.15
endloop
endfacet
facet normal -0.588348405414536 0.588348405414565 0.554700196225232
outer loop
vertex 145.06066017178 142.93933982822 3.15
vertex 146.25 140.10288568297 7.65
vertex 147.181980515339 140.818019484661 7.65
endloop
endfacet
facet normal 0.416025147168907 -0.720576692122906 0.554700196225223
outer loop
vertex 141.75 147.89711431703 7.65
vertex 142.93933982822 145.06066017178 3.15
vertex 143.25 145.299038105677 3.15
endloop
endfacet
facet normal 0.588348405414536 -0.588348405414565 0.554700196225232
outer loop
vertex 142.93933982822 145.06066017178 3.15
vertex 141.75 147.89711431703 7.65
vertex 140.818019484661 147.181980515339 7.65
endloop
endfacet
facet normal 0.588348405414536 -0.588348405414565 0.554700196225232
outer loop
vertex 142.93933982822 145.06066017178 3.15
vertex 140.10288568297 146.25 7.65
vertex 142.700961894323 144.75 3.15
endloop
endfacet
facet normal 0.720576692122899 -0.416025147168912 0.554700196225227
outer loop
vertex 140.10288568297 146.25 7.65
vertex 142.93933982822 145.06066017178 3.15
vertex 140.818019484661 147.181980515339 7.65
endloop
endfacet
facet normal 0.588348405414564 0.588348405414537 0.554700196225233
outer loop
vertex 140.818019484661 140.818019484661 7.65
vertex 143.25 142.700961894323 3.15
vertex 142.93933982822 142.93933982822 3.15
endloop
endfacet
facet normal 0.416025147168911 0.7205766921229 0.554700196225227
outer loop
vertex 143.25 142.700961894323 3.15
vertex 140.818019484661 140.818019484661 7.65
vertex 141.75 140.10288568297 7.65
endloop
endfacet
facet normal 0.803698868072345 -0.215350462657791 0.554700196225228
outer loop
vertex 142.551111260566 144.388228567654 3.15
vertex 139.5 144.0 7.65
vertex 142.5 144.0 3.15
endloop
endfacet
facet normal 0.832050294337846 -6.52230221295204e-017 0.554700196225226
outer loop
vertex 139.5 144.0 7.65
vertex 142.551111260566 144.388228567654 3.15
vertex 139.653333781699 145.164685702961 7.65
endloop
endfacet
facet normal 0.7205766921229 -0.416025147168911 0.554700196225227
outer loop
vertex 142.700961894323 144.75 3.15
vertex 139.653333781699 145.164685702961 7.65
vertex 142.551111260566 144.388228567654 3.15
endloop
endfacet
facet normal 0.803698868072346 -0.21535046265779 0.554700196225228
outer loop
vertex 139.653333781699 145.164685702961 7.65
vertex 142.700961894323 144.75 3.15
vertex 140.10288568297 146.25 7.65
endloop
endfacet
facet normal 0.803698868072343 0.215350462657802 0.554700196225227
outer loop
vertex 142.551111260566 143.611771432346 3.15
vertex 139.5 144.0 7.65
vertex 139.653333781699 142.835314297039 7.65
endloop
endfacet
facet normal 0.832050294337846 -6.52230221295204e-017 0.554700196225226
outer loop
vertex 139.5 144.0 7.65
vertex 142.551111260566 143.611771432346 3.15
vertex 142.5 144.0 3.15
endloop
endfacet
facet normal 0.720576692122906 0.416025147168906 0.554700196225223
outer loop
vertex 142.700961894323 143.25 3.15
vertex 139.653333781699 142.835314297039 7.65
vertex 140.10288568297 141.75 7.65
endloop
endfacet
facet normal 0.803698868072343 0.215350462657801 0.554700196225228
outer loop
vertex 139.653333781699 142.835314297039 7.65
vertex 142.700961894323 143.25 3.15
vertex 142.551111260566 143.611771432346 3.15
endloop
endfacet
facet normal 0.588348405414565 0.588348405414536 0.554700196225233
outer loop
vertex 142.93933982822 142.93933982822 3.15
vertex 140.10288568297 141.75 7.65
vertex 140.818019484661 140.818019484661 7.65
endloop
endfacet
facet normal 0.720576692122906 0.416025147168907 0.554700196225223
outer loop
vertex 140.10288568297 141.75 7.65
vertex 142.93933982822 142.93933982822 3.15
vertex 142.700961894323 143.25 3.15
endloop
endfacet
facet normal 0.416025147168912 0.720576692122899 0.554700196225227
outer loop
vertex 141.75 140.10288568297 7.65
vertex 143.611771432346 142.551111260566 3.15
vertex 143.25 142.700961894323 3.15
endloop
endfacet
facet normal 0.215350462657791 0.803698868072346 0.554700196225228
outer loop
vertex 143.611771432346 142.551111260566 3.15
vertex 141.75 140.10288568297 7.65
vertex 142.835314297039 139.653333781699 7.65
endloop
endfacet
facet normal 0.215350462657801 -0.803698868072343 0.554700196225228
outer loop
vertex 142.835314297039 148.346666218301 7.65
vertex 143.25 145.299038105677 3.15
vertex 143.611771432346 145.448888739434 3.15
endloop
endfacet
facet normal 0.416025147168906 -0.720576692122906 0.554700196225223
outer loop
vertex 143.25 145.299038105677 3.15
vertex 142.835314297039 148.346666218301 7.65
vertex 141.75 147.89711431703 7.65
endloop
endfacet
facet normal -4.42347683536925e-016 -1.0 -1.07800487511687e-032
outer loop
vertex 102.5 77.0 3.15000000000001
vertex 77.0 77.0 7.65
vertex 77.0 77.0 3.15
endloop
endfacet
facet normal -4.42347683536925e-016 -1.0 -1.07800487511687e-032
outer loop
vertex 77.0 77.0 7.65
vertex 102.5 77.0 3.15000000000001
vertex 102.5 77.0 7.65
endloop
endfacet
facet normal 0.0 -0.832050294337846 0.554700196225226
outer loop
vertex 144.0 148.5 7.65
vertex 143.611771432346 145.448888739434 3.15
vertex 144.0 145.5 3.15
endloop
endfacet
facet normal 0.215350462657803 -0.803698868072342 0.554700196225228
outer loop
vertex 143.611771432346 145.448888739434 3.15
vertex 144.0 148.5 7.65
vertex 142.835314297039 148.346666218301 7.65
endloop
endfacet
facet normal -0.21535046265779 -0.803698868072346 0.554700196225228
outer loop
vertex 145.164685702961 148.346666218301 7.65
vertex 144.0 145.5 3.15
vertex 144.388228567654 145.448888739434 3.15
endloop
endfacet
facet normal 0.0 -0.832050294337846 0.554700196225226
outer loop
vertex 144.0 145.5 3.15
vertex 145.164685702961 148.346666218301 7.65
vertex 144.0 148.5 7.65
endloop
endfacet
facet normal 0.173648177666931 0.984807753012208 9.19853205838002e-018
outer loop
vertex 77.0 102.0 3.15
vertex 97.0 98.4734603858307 7.65
vertex 97.0 98.4734603858307 3.15
endloop
endfacet
facet normal 0.173648177666931 0.984807753012208 9.19853205838002e-018
outer loop
vertex 97.0 98.4734603858307 7.65
vertex 77.0 102.0 3.15
vertex 77.0 102.0 7.65
endloop
endfacet
facet normal -1.0 1.83717787159591e-032 1.76247905159244e-016
outer loop
vertex 97.0 125.526539614169 7.64999999999999
vertex 97.0 98.4734603858307 3.15
vertex 97.0 98.4734603858307 7.65
endloop
endfacet
facet normal -1.0 1.83717787159591e-032 1.76247905159244e-016
outer loop
vertex 97.0 98.4734603858307 3.15
vertex 97.0 125.526539614169 7.64999999999999
vertex 97.0 125.526539614169 3.15
endloop
endfacet
facet normal -1.0 4.51194637207664e-016 -1.25664568299358e-032
outer loop
vertex 77.0 102.0 7.65
vertex 77.0 77.0 3.15
vertex 77.0 77.0 7.65
endloop
endfacet
facet normal -1.0 4.51194637207664e-016 -1.25664568299358e-032
outer loop
vertex 77.0 77.0 3.15
vertex 77.0 102.0 7.65
vertex 77.0 102.0 3.15
endloop
endfacet
facet normal 0.17364817766693 -0.984807753012208 2.18175804874245e-017
outer loop
vertex 97.0 125.526539614169 7.64999999999999
vertex 77.0 122.0 3.15
vertex 97.0 125.526539614169 3.15
endloop
endfacet
facet normal 0.17364817766693 -0.984807753012208 2.18175804874245e-017
outer loop
vertex 77.0 122.0 3.15
vertex 97.0 125.526539614169 7.64999999999999
vertex 77.0 122.0 7.65
endloop
endfacet
facet normal 0.0 -1.0 0.0
outer loop
vertex 102.0 61.5 7.64999999999999
vertex 99.7669317990188 61.5 6.85
vertex 102.0 61.5 6.84999999999999
endloop
endfacet
facet normal 0.0 -1.0 0.0
outer loop
vertex 99.7669317990188 61.5 6.85
vertex 102.0 61.5 7.64999999999999
vertex 99.7669317990188 61.5 7.65
endloop
endfacet
facet normal -8.68599610795659e-017 3.61534164429218e-017 -1.0
outer loop
vertex 102.5 77.0 3.15000000000001
vertex 125.026539614169 57.5 3.15000000000001
vertex 98.9734603858307 57.5 3.15000000000001
endloop
endfacet
facet normal -8.68599610795659e-017 3.61534164429218e-017 -1.0
outer loop
vertex 125.026539614169 57.5 3.15000000000001
vertex 102.5 77.0 3.15000000000001
vertex 121.5 77.0 3.15000000000001
endloop
endfacet
facet normal 0.984037470509466 0.177961390850184 0.0
outer loop
vertex 121.5 77.0 3.15000000000001
vertex 125.026539614169 57.5 7.65
vertex 125.026539614169 57.5 3.15000000000001
endloop
endfacet
facet normal 0.984037470509466 0.177961390850184 0.0
outer loop
vertex 125.026539614169 57.5 7.65
vertex 121.5 77.0 3.15000000000001
vertex 121.5 77.0 7.65
endloop
endfacet
facet normal -0.984807753012208 0.17364817766693 -2.12523032383354e-016
outer loop
vertex 102.5 77.0 7.65
vertex 99.7669317990188 61.5 6.85
vertex 99.7669317990188 61.5 7.65
endloop
endfacet
facet normal -0.984807753012208 0.17364817766693 -2.12523032383354e-016
outer loop
vertex 99.7669317990188 61.5 6.85
vertex 102.5 77.0 7.65
vertex 102.5 77.0 3.15000000000001
endloop
endfacet
facet normal -0.980887342777776 0.194576516513051 1.89457636768653e-017
outer loop
vertex 99.7669317990188 61.5 6.85
vertex 98.9734603858307 57.5 3.15000000000001
vertex 98.9734603858307 57.5 6.85
endloop
endfacet
facet normal -0.983866602775065 0.177930489730484 0.0186346121001539
outer loop
vertex 102.5 77.0 3.15000000000001
vertex 98.9734603858307 57.5 3.15000000000001
vertex 99.7669317990188 61.5 6.85
endloop
endfacet
facet normal -1.70615828568405e-017 -1.40878316379356e-017 1.0
outer loop
vertex 102.5 77.0 7.65
vertex 77.0 102.0 7.65
vertex 77.0 77.0 7.65
endloop
endfacet
facet normal -1.70615828568405e-017 -1.40878316379356e-017 1.0
outer loop
vertex 77.0 102.0 7.65
vertex 102.5 77.0 7.65
vertex 97.0 98.4734603858307 7.65
endloop
endfacet
facet normal -1.70615828568405e-017 -1.40878316379356e-017 1.0
outer loop
vertex 97.0 98.4734603858307 7.65
vertex 102.5 77.0 7.65
vertex 97.0 125.526539614169 7.64999999999999
endloop
endfacet
facet normal -1.70615828568405e-017 -1.40878316379356e-017 1.0
outer loop
vertex 125.026539614169 57.5 7.65
vertex 102.0 61.5 7.64999999999999
vertex 102.0 57.5 7.65
endloop
endfacet
facet normal -1.70615828568405e-017 -1.40878316379356e-017 1.0
outer loop
vertex 102.0 61.5 7.64999999999999
vertex 125.026539614169 57.5 7.65
vertex 102.5 77.0 7.65
endloop
endfacet
facet normal -1.70615828568405e-017 -1.40878316379356e-017 1.0
outer loop
vertex 102.5 77.0 7.65
vertex 125.026539614169 57.5 7.65
vertex 121.5 77.0 7.65
endloop
endfacet
facet normal -1.70615828568405e-017 -1.40878316379356e-017 1.0
outer loop
vertex 121.5 77.0 7.65
vertex 139.653333781699 142.835314297039 7.65
vertex 139.5 144.0 7.65
endloop
endfacet
facet normal -1.70615828568405e-017 -1.40878316379356e-017 1.0
outer loop
vertex 139.653333781699 142.835314297039 7.65
vertex 121.5 77.0 7.65
vertex 154.5 77.0 7.65
endloop
endfacet
facet normal -1.70615828568405e-017 -1.40878316379356e-017 1.0
outer loop
vertex 139.653333781699 142.835314297039 7.65
vertex 154.5 77.0 7.65
vertex 140.10288568297 141.75 7.65
endloop
endfacet
facet normal -1.70615828568405e-017 -1.40878316379356e-017 1.0
outer loop
vertex 140.10288568297 141.75 7.65
vertex 154.5 77.0 7.65
vertex 140.818019484661 140.818019484661 7.65
endloop
endfacet
facet normal -1.70615828568405e-017 -1.40878316379356e-017 1.0
outer loop
vertex 140.818019484661 140.818019484661 7.65
vertex 154.5 77.0 7.65
vertex 141.75 140.10288568297 7.65
endloop
endfacet
facet normal -1.70615828568405e-017 -1.40878316379356e-017 1.0
outer loop
vertex 141.75 140.10288568297 7.65
vertex 154.5 77.0 7.65
vertex 142.835314297039 139.653333781699 7.65
endloop
endfacet
facet normal -1.70615828568405e-017 -1.40878316379356e-017 1.0
outer loop
vertex 142.835314297039 139.653333781699 7.65
vertex 154.5 77.0 7.65
vertex 144.0 139.5 7.65
endloop
endfacet
facet normal -1.70615828568405e-017 -1.40878316379356e-017 1.0
outer loop
vertex 144.0 139.5 7.65
vertex 154.5 77.0 7.65
vertex 145.164685702961 139.653333781699 7.65
endloop
endfacet
facet normal -1.70615828568405e-017 -1.40878316379356e-017 1.0
outer loop
vertex 145.164685702961 139.653333781699 7.65
vertex 154.5 77.0 7.65
vertex 146.25 140.10288568297 7.65
endloop
endfacet
facet normal -1.70615828568405e-017 -1.40878316379356e-017 1.0
outer loop
vertex 146.25 140.10288568297 7.65
vertex 154.5 77.0 7.65
vertex 147.181980515339 140.818019484661 7.65
endloop
endfacet
facet normal -1.70615828568405e-017 -1.40878316379356e-017 1.0
outer loop
vertex 147.181980515339 140.818019484661 7.65
vertex 154.5 77.0 7.65
vertex 147.89711431703 141.75 7.65
endloop
endfacet
facet normal -1.70615828568405e-017 -1.40878316379356e-017 1.0
outer loop
vertex 147.89711431703 141.75 7.65
vertex 154.5 77.0 7.65
vertex 148.346666218301 142.835314297039 7.65
endloop
endfacet
facet normal -1.70615828568405e-017 -1.40878316379356e-017 1.0
outer loop
vertex 148.346666218301 142.835314297039 7.65
vertex 154.5 77.0 7.65
vertex 148.5 144.0 7.65
endloop
endfacet
facet normal -1.70615828568405e-017 -1.40878316379356e-017 1.0
outer loop
vertex 97.0 125.526539614169 7.64999999999999
vertex 77.0 154.5 7.64999999999999
vertex 77.0 122.0 7.65
endloop
endfacet
facet normal -1.70615828568405e-017 -1.40878316379356e-017 1.0
outer loop
vertex 77.0 154.5 7.64999999999999
vertex 97.0 125.526539614169 7.64999999999999
vertex 154.5 154.5 7.64999999999999
endloop
endfacet
facet normal -1.70615828568405e-017 -1.40878316379356e-017 1.0
outer loop
vertex 154.5 154.5 7.64999999999999
vertex 97.0 125.526539614169 7.64999999999999
vertex 141.75 147.89711431703 7.65
endloop
endfacet
facet normal -1.70615828568405e-017 -1.40878316379356e-017 1.0
outer loop
vertex 141.75 147.89711431703 7.65
vertex 97.0 125.526539614169 7.64999999999999
vertex 140.818019484661 147.181980515339 7.65
endloop
endfacet
facet normal -1.70615828568405e-017 -1.40878316379356e-017 1.0
outer loop
vertex 140.818019484661 147.181980515339 7.65
vertex 97.0 125.526539614169 7.64999999999999
vertex 140.10288568297 146.25 7.65
endloop
endfacet
facet normal -1.70615828568405e-017 -1.40878316379356e-017 1.0
outer loop
vertex 140.10288568297 146.25 7.65
vertex 97.0 125.526539614169 7.64999999999999
vertex 102.5 77.0 7.65
endloop
endfacet
facet normal -1.70615828568405e-017 -1.40878316379356e-017 1.0
outer loop
vertex 140.10288568297 146.25 7.65
vertex 102.5 77.0 7.65
vertex 139.653333781699 145.164685702961 7.65
endloop
endfacet
facet normal -1.70615828568405e-017 -1.40878316379356e-017 1.0
outer loop
vertex 139.653333781699 145.164685702961 7.65
vertex 102.5 77.0 7.65
vertex 121.5 77.0 7.65
endloop
endfacet
facet normal -1.70615828568405e-017 -1.40878316379356e-017 1.0
outer loop
vertex 139.653333781699 145.164685702961 7.65
vertex 121.5 77.0 7.65
vertex 139.5 144.0 7.65
endloop
endfacet
facet normal -1.70615828568405e-017 -1.40878316379356e-017 1.0
outer loop
vertex 154.5 154.5 7.64999999999999
vertex 141.75 147.89711431703 7.65
vertex 142.835314297039 148.346666218301 7.65
endloop
endfacet
facet normal -1.70615828568405e-017 -1.40878316379356e-017 1.0
outer loop
vertex 154.5 154.5 7.64999999999999
vertex 142.835314297039 148.346666218301 7.65
vertex 144.0 148.5 7.65
endloop
endfacet
facet normal -1.70615828568405e-017 -1.40878316379356e-017 1.0
outer loop
vertex 154.5 154.5 7.64999999999999
vertex 144.0 148.5 7.65
vertex 145.164685702961 148.346666218301 7.65
endloop
endfacet
facet normal -1.70615828568405e-017 -1.40878316379356e-017 1.0
outer loop
vertex 154.5 154.5 7.64999999999999
vertex 145.164685702961 148.346666218301 7.65
vertex 146.25 147.89711431703 7.65
endloop
endfacet
facet normal -1.70615828568405e-017 -1.40878316379356e-017 1.0
outer loop
vertex 154.5 154.5 7.64999999999999
vertex 146.25 147.89711431703 7.65
vertex 147.181980515339 147.181980515339 7.65
endloop
endfacet
facet normal -1.70615828568405e-017 -1.40878316379356e-017 1.0
outer loop
vertex 154.5 154.5 7.64999999999999
vertex 147.181980515339 147.181980515339 7.65
vertex 147.89711431703 146.25 7.65
endloop
endfacet
facet normal -1.70615828568405e-017 -1.40878316379356e-017 1.0
outer loop
vertex 154.5 154.5 7.64999999999999
vertex 147.89711431703 146.25 7.65
vertex 148.346666218301 145.164685702961 7.65
endloop
endfacet
facet normal -1.70615828568405e-017 -1.40878316379356e-017 1.0
outer loop
vertex 154.5 154.5 7.64999999999999
vertex 148.346666218301 145.164685702961 7.65
vertex 148.5 144.0 7.65
endloop
endfacet
facet normal -1.70615828568405e-017 -1.40878316379356e-017 1.0
outer loop
vertex 154.5 154.5 7.64999999999999
vertex 148.5 144.0 7.65
vertex 154.5 77.0 7.65
endloop
endfacet
facet normal -1.70615828568405e-017 -1.40878316379356e-017 1.0
outer loop
vertex 102.5 77.0 7.65
vertex 99.7669317990188 61.5 7.65
vertex 102.0 61.5 7.64999999999999
endloop
endfacet
facet normal -1.0 0.0 0.0
outer loop
vertex 102.0 61.5 7.64999999999999
vertex 102.0 57.5 6.85
vertex 102.0 57.5 7.65
endloop
endfacet
facet normal -1.0 0.0 0.0
outer loop
vertex 102.0 57.5 6.85
vertex 102.0 61.5 7.64999999999999
vertex 102.0 61.5 6.84999999999999
endloop
endfacet
facet normal 2.22569597473468e-016 8.59164199166223e-016 1.0
outer loop
vertex 102.0 57.5 6.85
vertex 99.7669317990188 61.5 6.85
vertex 98.9734603858307 57.5 6.85
endloop
endfacet
facet normal 2.22569597473468e-016 8.59164199166223e-016 1.0
outer loop
vertex 99.7669317990188 61.5 6.85
vertex 102.0 57.5 6.85
vertex 102.0 61.5 6.84999999999999
endloop
endfacet
endsolid solidoodlebed
