solid solidoodlebed
facet normal -9.09424486122727e-017 -1.54608522067685e-016 -1.0
outer loop
vertex 156.0 77.0000000000001 3.14999999999999
vertex 125.526539614169 57.0000000000001 3.15
vertex 122.0 77.0000000000003 3.15
endloop
endfacet
facet normal -9.09424486122727e-017 -1.54608522067685e-016 -1.0
outer loop
vertex 125.526539614169 57.0000000000001 3.15
vertex 156.0 77.0000000000001 3.14999999999999
vertex 156.0 5.6399329650958e-014 3.15
endloop
endfacet
facet normal -9.09424486122727e-017 -1.54608522067685e-016 -1.0
outer loop
vertex 125.526539614169 57.0000000000001 3.15
vertex 156.0 5.6399329650958e-014 3.15
vertex 145.06066017178 11.0606601717799 3.15000000000001
endloop
endfacet
facet normal -9.09424486122727e-017 -1.54608522067685e-016 -1.0
outer loop
vertex 125.526539614169 57.0000000000001 3.15
vertex 145.06066017178 11.0606601717799 3.15000000000001
vertex 144.75 11.2990381056767 3.15000000000001
endloop
endfacet
facet normal -9.09424486122727e-017 -1.54608522067685e-016 -1.0
outer loop
vertex 125.526539614169 57.0000000000001 3.15
vertex 144.75 11.2990381056767 3.15000000000001
vertex 77.0 51.5000000000003 3.15000000000001
endloop
endfacet
facet normal -9.09424486122727e-017 -1.54608522067685e-016 -1.0
outer loop
vertex 77.0 51.5000000000003 3.15000000000001
vertex 144.75 11.2990381056767 3.15000000000001
vertex 144.388228567654 11.4488887394337 3.15000000000001
endloop
endfacet
facet normal -9.09424486122727e-017 -1.54608522067685e-016 -1.0
outer loop
vertex 77.0 51.5000000000003 3.15000000000001
vertex 144.388228567654 11.4488887394337 3.15000000000001
vertex 77.0 32.5000000000001 3.15000000000001
endloop
endfacet
facet normal -9.09424486122727e-017 -1.54608522067685e-016 -1.0
outer loop
vertex 77.0 32.5000000000001 3.15000000000001
vertex 144.388228567654 11.4488887394337 3.15000000000001
vertex 144.0 11.5000000000001 3.15000000000001
endloop
endfacet
facet normal -9.09424486122727e-017 -1.54608522067685e-016 -1.0
outer loop
vertex 145.06066017178 11.0606601717799 3.15000000000001
vertex 156.0 5.6399329650958e-014 3.15
vertex 145.299038105677 10.7500000000001 3.15000000000001
endloop
endfacet
facet normal -9.09424486122727e-017 -1.54608522067685e-016 -1.0
outer loop
vertex 145.299038105677 10.7500000000001 3.15000000000001
vertex 156.0 5.6399329650958e-014 3.15
vertex 145.448888739434 10.3882285676539 3.15
endloop
endfacet
facet normal -9.09424486122727e-017 -1.54608522067685e-016 -1.0
outer loop
vertex 145.448888739434 10.3882285676539 3.15
vertex 156.0 5.6399329650958e-014 3.15
vertex 145.5 10.0000000000001 3.15
endloop
endfacet
facet normal -9.09424486122727e-017 -1.54608522067685e-016 -1.0
outer loop
vertex 145.5 10.0000000000001 3.15
vertex 156.0 5.6399329650958e-014 3.15
vertex 145.448888739434 9.61177143234629 3.15
endloop
endfacet
facet normal -9.09424486122727e-017 -1.54608522067685e-016 -1.0
outer loop
vertex 145.448888739434 9.61177143234629 3.15
vertex 156.0 5.6399329650958e-014 3.15
vertex 145.299038105677 9.25000000000006 3.15
endloop
endfacet
facet normal -9.09424486122727e-017 -1.54608522067685e-016 -1.0
outer loop
vertex 145.299038105677 9.25000000000006 3.15
vertex 156.0 5.6399329650958e-014 3.15
vertex 145.06066017178 8.93933982822025 3.15000000000001
endloop
endfacet
facet normal -9.09424486122727e-017 -1.54608522067685e-016 -1.0
outer loop
vertex 145.06066017178 8.93933982822025 3.15000000000001
vertex 156.0 5.6399329650958e-014 3.15
vertex 144.75 8.70096189432342 3.15000000000001
endloop
endfacet
facet normal -9.09424486122727e-017 -1.54608522067685e-016 -1.0
outer loop
vertex 144.75 8.70096189432342 3.15000000000001
vertex 156.0 5.6399329650958e-014 3.15
vertex 144.388228567654 8.55111126056647 3.15000000000001
endloop
endfacet
facet normal -9.09424486122727e-017 -1.54608522067685e-016 -1.0
outer loop
vertex 144.388228567654 8.55111126056647 3.15000000000001
vertex 156.0 5.6399329650958e-014 3.15
vertex 144.0 8.50000000000007 3.15000000000001
endloop
endfacet
facet normal -9.09424486122727e-017 -1.54608522067685e-016 -1.0
outer loop
vertex 77.0 32.5000000000001 3.15000000000001
vertex 143.611771432346 11.4488887394339 3.15000000000001
vertex 77.0 -1.99999999999975 3.15000000000001
endloop
endfacet
facet normal -9.09424486122727e-017 -1.54608522067685e-016 -1.0
outer loop
vertex 143.611771432346 11.4488887394339 3.15000000000001
vertex 77.0 32.5000000000001 3.15000000000001
vertex 144.0 11.5000000000001 3.15000000000001
endloop
endfacet
facet normal -9.09424486122727e-017 -1.54608522067685e-016 -1.0
outer loop
vertex 77.0 -1.99999999999975 3.15000000000001
vertex 143.611771432346 11.4488887394339 3.15000000000001
vertex 143.25 11.299038105677 3.15000000000001
endloop
endfacet
facet normal -9.09424486122727e-017 -1.54608522067685e-016 -1.0
outer loop
vertex 77.0 -1.99999999999975 3.15000000000001
vertex 143.25 11.299038105677 3.15000000000001
vertex 142.93933982822 11.0606601717801 3.15000000000001
endloop
endfacet
facet normal -9.09424486122727e-017 -1.54608522067685e-016 -1.0
outer loop
vertex 77.0 -1.99999999999975 3.15000000000001
vertex 142.93933982822 11.0606601717801 3.15000000000001
vertex 142.700961894323 10.7500000000003 3.15000000000001
endloop
endfacet
facet normal -9.09424486122727e-017 -1.54608522067685e-016 -1.0
outer loop
vertex 77.0 -1.99999999999975 3.15000000000001
vertex 142.700961894323 10.7500000000003 3.15000000000001
vertex 142.551111260566 10.3882285676541 3.15
endloop
endfacet
facet normal -9.09424486122727e-017 -1.54608522067685e-016 -1.0
outer loop
vertex 77.0 -1.99999999999975 3.15000000000001
vertex 142.551111260566 10.3882285676541 3.15
vertex 142.5 10.0000000000003 3.15
endloop
endfacet
facet normal -9.09424486122727e-017 -1.54608522067685e-016 -1.0
outer loop
vertex 77.0 -1.99999999999975 3.15000000000001
vertex 142.5 10.0000000000003 3.15
vertex 142.551111260566 9.61177143234654 3.15
endloop
endfacet
facet normal -9.09424486122727e-017 -1.54608522067685e-016 -1.0
outer loop
vertex 77.0 -1.99999999999975 3.15000000000001
vertex 142.551111260566 9.61177143234654 3.15
vertex 142.700961894323 9.25000000000033 3.15
endloop
endfacet
facet normal -9.09424486122727e-017 -1.54608522067685e-016 -1.0
outer loop
vertex 77.0 -1.99999999999975 3.15000000000001
vertex 142.700961894323 9.25000000000033 3.15
vertex 142.93933982822 8.9393398282205 3.15000000000001
endloop
endfacet
facet normal -9.09424486122727e-017 -1.54608522067685e-016 -1.0
outer loop
vertex 77.0 -1.99999999999975 3.15000000000001
vertex 142.93933982822 8.9393398282205 3.15000000000001
vertex 143.25 8.70096189432367 3.15000000000001
endloop
endfacet
facet normal -9.09424486122727e-017 -1.54608522067685e-016 -1.0
outer loop
vertex 77.0 -1.99999999999975 3.15000000000001
vertex 143.25 8.70096189432367 3.15000000000001
vertex 143.611771432346 8.55111126056672 3.15000000000001
endloop
endfacet
facet normal -9.09424486122727e-017 -1.54608522067685e-016 -1.0
outer loop
vertex 77.0 -1.99999999999975 3.15000000000001
vertex 143.611771432346 8.55111126056672 3.15000000000001
vertex 144.0 8.50000000000007 3.15000000000001
endloop
endfacet
facet normal -9.09424486122727e-017 -1.54608522067685e-016 -1.0
outer loop
vertex 77.0 -1.99999999999975 3.15000000000001
vertex 144.0 8.50000000000007 3.15000000000001
vertex 156.0 5.6399329650958e-014 3.15
endloop
endfacet
facet normal -9.09424486122727e-017 -1.54608522067685e-016 -1.0
outer loop
vertex 77.0 -1.99999999999975 3.15000000000001
vertex 156.0 5.6399329650958e-014 3.15
vertex 155.931851652578 -0.517638090204989 3.15000000000001
endloop
endfacet
facet normal -9.09424486122727e-017 -1.54608522067685e-016 -1.0
outer loop
vertex 77.0 -1.99999999999975 3.15000000000001
vertex 155.931851652578 -0.517638090204989 3.15000000000001
vertex 155.847759065023 -0.765366864730114 3.15000000000001
endloop
endfacet
facet normal -9.09424486122727e-017 -1.54608522067685e-016 -1.0
outer loop
vertex 77.0 -1.99999999999975 3.15000000000001
vertex 155.847759065023 -0.765366864730114 3.15000000000001
vertex 155.732050807569 -0.999999999999942 3.15000000000001
endloop
endfacet
facet normal -9.09424486122727e-017 -1.54608522067685e-016 -1.0
outer loop
vertex 77.0 -1.99999999999975 3.15000000000001
vertex 155.732050807569 -0.999999999999942 3.15000000000001
vertex 155.586706680583 -1.21752285801739 3.15000000000001
endloop
endfacet
facet normal -9.09424486122727e-017 -1.54608522067685e-016 -1.0
outer loop
vertex 77.0 -1.99999999999975 3.15000000000001
vertex 155.586706680583 -1.21752285801739 3.15000000000001
vertex 155.414213562373 -1.41421356237304 3.15000000000001
endloop
endfacet
facet normal -9.09424486122727e-017 -1.54608522067685e-016 -1.0
outer loop
vertex 77.0 -1.99999999999975 3.15000000000001
vertex 155.414213562373 -1.41421356237304 3.15000000000001
vertex 155.217522858018 -1.5867066805824 3.15000000000001
endloop
endfacet
facet normal -9.09424486122727e-017 -1.54608522067685e-016 -1.0
outer loop
vertex 77.0 -1.99999999999975 3.15000000000001
vertex 155.217522858018 -1.5867066805824 3.15000000000001
vertex 155.0 -1.73205080756881 3.15000000000001
endloop
endfacet
facet normal -9.09424486122727e-017 -1.54608522067685e-016 -1.0
outer loop
vertex 77.0 -1.99999999999975 3.15000000000001
vertex 155.0 -1.73205080756881 3.15000000000001
vertex 154.76536686473 -1.84775906502252 3.15000000000001
endloop
endfacet
facet normal -9.09424486122727e-017 -1.54608522067685e-016 -1.0
outer loop
vertex 77.0 -1.99999999999975 3.15000000000001
vertex 154.76536686473 -1.84775906502252 3.15000000000001
vertex 154.517638090205 -1.93185165257809 3.15000000000001
endloop
endfacet
facet normal -9.09424486122727e-017 -1.54608522067685e-016 -1.0
outer loop
vertex 77.0 -1.99999999999975 3.15000000000001
vertex 154.517638090205 -1.93185165257809 3.15000000000001
vertex 154.0 -1.99999999999994 3.15000000000001
endloop
endfacet
facet normal -9.09424486122727e-017 -1.54608522067685e-016 -1.0
outer loop
vertex 77.0 51.5000000000003 3.15000000000001
vertex 57.4924038765061 29.0602844746643 3.15000000000001
vertex 57.4924038765061 55.1133637030028 3.15000000000001
endloop
endfacet
facet normal -9.09424486122727e-017 -1.54608522067685e-016 -1.0
outer loop
vertex 57.4924038765061 29.0602844746643 3.15000000000001
vertex 77.0 51.5000000000003 3.15000000000001
vertex 77.0 32.5000000000001 3.15000000000001
endloop
endfacet
facet normal -9.09424486122727e-017 -1.54608522067685e-016 -1.0
outer loop
vertex 102.0 77.0 3.15
vertex 77.0 51.5000000000003 3.15000000000001
vertex 77.0 77.0000000000003 3.15
endloop
endfacet
facet normal -9.09424486122727e-017 -1.54608522067685e-016 -1.0
outer loop
vertex 77.0 51.5000000000003 3.15000000000001
vertex 102.0 77.0 3.15
vertex 98.473460385831 57.0000000000003 3.14999999999999
endloop
endfacet
facet normal -9.09424486122727e-017 -1.54608522067685e-016 -1.0
outer loop
vertex 77.0 51.5000000000003 3.15000000000001
vertex 98.473460385831 57.0000000000003 3.14999999999999
vertex 125.526539614169 57.0000000000001 3.15
endloop
endfacet
facet normal 0.0654031292301318 -0.997858923238604 -2.36996911526778e-015
outer loop
vertex 154.0 -1.99999999999994 3.15000000000001
vertex 77.0 -1.99999999999973 3.85
vertex 77.0 -1.99999999999975 3.15000000000001
endloop
endfacet
facet normal -7.06261823284866e-016 -1.0 -4.84344638854509e-015
outer loop
vertex 77.0 -1.99999999999973 3.85
vertex 154.0 -1.99999999999994 3.15000000000001
vertex 85.7561197451393 -1.99999999999989 3.96046283989523
endloop
endfacet
facet normal -7.06261823284866e-016 -1.0 -4.84344638854509e-015
outer loop
vertex 85.7561197451393 -1.99999999999989 3.96046283989523
vertex 154.0 -1.99999999999994 3.15000000000001
vertex 91.7500000000001 -1.99999999999973 6.85000000000001
endloop
endfacet
facet normal -7.06261823284866e-016 -1.0 -4.84344638854509e-015
outer loop
vertex 91.7500000000001 -1.99999999999973 6.85000000000001
vertex 154.0 -1.99999999999994 3.15000000000001
vertex 102.0 -1.99999999999995 6.85000000000001
endloop
endfacet
facet normal -7.06261823284866e-016 -1.0 -4.84344638854509e-015
outer loop
vertex 102.0 -1.99999999999995 6.85000000000001
vertex 154.0 -1.99999999999994 3.15000000000001
vertex 102.0 -1.99999999999995 9.15
endloop
endfacet
facet normal -7.06261823284866e-016 -1.0 -4.84344638854509e-015
outer loop
vertex 102.0 -1.99999999999995 9.15
vertex 154.0 -1.99999999999994 3.15000000000001
vertex 154.0 -1.99999999999994 9.15000000000001
endloop
endfacet
facet normal 0.227076263034373 -0.973876979277334 1.11379289683104e-016
outer loop
vertex 154.517638090205 -1.93185165257809 3.15000000000001
vertex 154.0 -1.99999999999994 9.15000000000001
vertex 154.0 -1.99999999999994 3.15000000000001
endloop
endfacet
facet normal 0.0654031292301318 -0.997858923238604 -2.36996911526778e-015
outer loop
vertex 154.0 -1.99999999999994 9.15000000000001
vertex 154.517638090205 -1.93185165257809 3.15000000000001
vertex 154.517638090205 -1.93185165257809 9.15000000000001
endloop
endfacet
facet normal 0.38268343236512 -0.923879532511274 1.05215420402508e-016
outer loop
vertex 154.76536686473 -1.84775906502252 3.15000000000001
vertex 154.517638090205 -1.93185165257809 9.15000000000001
vertex 154.517638090205 -1.93185165257809 3.15000000000001
endloop
endfacet
facet normal 0.227076263034369 -0.973876979277335 1.11379289683104e-016
outer loop
vertex 154.517638090205 -1.93185165257809 9.15000000000001
vertex 154.76536686473 -1.84775906502252 3.15000000000001
vertex 154.76536686473 -1.84775906502252 9.14999999999998
endloop
endfacet
facet normal 0.50000000000001 -0.866025403784433 9.82501812094982e-017
outer loop
vertex 155.0 -1.73205080756881 3.15000000000001
vertex 154.76536686473 -1.84775906502252 9.14999999999998
vertex 154.76536686473 -1.84775906502252 3.15000000000001
endloop
endfacet
facet normal 0.382683432365118 -0.923879532511275 1.05215420402508e-016
outer loop
vertex 154.76536686473 -1.84775906502252 9.14999999999998
vertex 155.0 -1.73205080756881 3.15000000000001
vertex 155.0 -1.73205080756881 9.14999999999998
endloop
endfacet
facet normal 0.608761429008702 -0.79335334029125 8.96038541758987e-017
outer loop
vertex 155.217522858018 -1.5867066805824 3.15000000000001
vertex 155.0 -1.73205080756881 9.14999999999998
vertex 155.0 -1.73205080756881 3.15000000000001
endloop
endfacet
facet normal 0.50000000000001 -0.866025403784433 9.82501812094982e-017
outer loop
vertex 155.0 -1.73205080756881 9.14999999999998
vertex 155.217522858018 -1.5867066805824 3.15000000000001
vertex 155.217522858018 -1.5867066805824 9.14999999999998
endloop
endfacet
facet normal 0.707106781186548 -0.707106781186547 7.94243803544634e-017
outer loop
vertex 155.414213562373 -1.41421356237304 3.15000000000001
vertex 155.217522858018 -1.5867066805824 9.14999999999998
vertex 155.217522858018 -1.5867066805824 3.15000000000001
endloop
endfacet
facet normal 0.608761429008702 -0.79335334029125 8.96038541758987e-017
outer loop
vertex 155.217522858018 -1.5867066805824 9.14999999999998
vertex 155.414213562373 -1.41421356237304 3.15000000000001
vertex 155.414213562373 -1.41421356237304 9.14999999999998
endloop
endfacet
facet normal 0.793353340291251 -0.608761429008701 6.78859333645644e-017
outer loop
vertex 155.586706680583 -1.21752285801739 9.14999999999998
vertex 155.414213562373 -1.41421356237304 3.15000000000001
vertex 155.586706680583 -1.21752285801739 3.15000000000001
endloop
endfacet
facet normal 0.707106781186548 -0.707106781186547 7.94243803544634e-017
outer loop
vertex 155.414213562373 -1.41421356237304 3.15000000000001
vertex 155.586706680583 -1.21752285801739 9.14999999999998
vertex 155.414213562373 -1.41421356237304 9.14999999999998
endloop
endfacet
facet normal 0.866025403784434 -0.500000000000009 5.51859392332668e-017
outer loop
vertex 155.732050807569 -0.999999999999942 9.14999999999998
vertex 155.586706680583 -1.21752285801739 3.15000000000001
vertex 155.732050807569 -0.999999999999942 3.15000000000001
endloop
endfacet
facet normal 0.793353340291251 -0.608761429008701 6.78859333645644e-017
outer loop
vertex 155.586706680583 -1.21752285801739 3.15000000000001
vertex 155.732050807569 -0.999999999999942 9.14999999999998
vertex 155.586706680583 -1.21752285801739 9.14999999999998
endloop
endfacet
facet normal 0.923879532511275 -0.382683432365119 4.15416983812541e-017
outer loop
vertex 155.847759065023 -0.765366864730114 9.14999999999998
vertex 155.732050807569 -0.999999999999942 3.15000000000001
vertex 155.847759065023 -0.765366864730114 3.15000000000001
endloop
endfacet
facet normal 0.866025403784434 -0.500000000000009 5.51859392332668e-017
outer loop
vertex 155.732050807569 -0.999999999999942 3.15000000000001
vertex 155.847759065023 -0.765366864730114 9.14999999999998
vertex 155.732050807569 -0.999999999999942 9.14999999999998
endloop
endfacet
facet normal 0.973876979277334 -0.227076263034372 2.35154244437094e-017
outer loop
vertex 155.931851652578 -0.517638090204989 9.14999999999998
vertex 155.847759065023 -0.765366864730114 3.15000000000001
vertex 155.931851652578 -0.517638090204989 3.15000000000001
endloop
endfacet
facet normal 0.923879532511275 -0.382683432365119 4.15416983812541e-017
outer loop
vertex 155.847759065023 -0.765366864730114 3.15000000000001
vertex 155.931851652578 -0.517638090204989 9.14999999999998
vertex 155.847759065023 -0.765366864730114 9.14999999999998
endloop
endfacet
facet normal 0.997858923238604 -0.0654031292301315 4.86097507581159e-018
outer loop
vertex 156.0 5.6399329650958e-014 9.14999999999998
vertex 155.931851652578 -0.517638090204989 3.15000000000001
vertex 156.0 5.6399329650958e-014 3.15
endloop
endfacet
facet normal 0.973876979277334 -0.227076263034371 2.35154244437093e-017
outer loop
vertex 155.931851652578 -0.517638090204989 3.15000000000001
vertex 156.0 5.6399329650958e-014 9.14999999999998
vertex 155.931851652578 -0.517638090204989 9.14999999999998
endloop
endfacet
facet normal 1.0 5.0532154980743e-016 -2.66533059407405e-018
outer loop
vertex 156.0 77.0000000000001 9.15
vertex 156.0 5.6399329650958e-014 3.15
vertex 156.0 77.0000000000001 3.14999999999999
endloop
endfacet
facet normal 0.997858923238604 -0.0654031292301312 4.86097507581156e-018
outer loop
vertex 156.0 5.6399329650958e-014 3.15
vertex 156.0 77.0000000000001 9.15
vertex 156.0 5.6399329650958e-014 9.14999999999998
endloop
endfacet
facet normal -7.63639956356409e-017 1.24263096097262e-016 1.0
outer loop
vertex 102.0 -1.99999999999995 9.15
vertex 154.5 -0.499999999999943 9.14999999999997
vertex 102.0 -0.499999999999965 9.14999999999997
endloop
endfacet
facet normal -7.63639956356409e-017 1.24263096097262e-016 1.0
outer loop
vertex 154.5 -0.499999999999943 9.14999999999997
vertex 102.0 -1.99999999999995 9.15
vertex 155.931851652578 -0.517638090204989 9.14999999999998
endloop
endfacet
facet normal -7.63639956356409e-017 1.24263096097262e-016 1.0
outer loop
vertex 155.931851652578 -0.517638090204989 9.14999999999998
vertex 102.0 -1.99999999999995 9.15
vertex 155.847759065023 -0.765366864730114 9.14999999999998
endloop
endfacet
facet normal -7.63639956356409e-017 1.24263096097262e-016 1.0
outer loop
vertex 155.847759065023 -0.765366864730114 9.14999999999998
vertex 102.0 -1.99999999999995 9.15
vertex 155.732050807569 -0.999999999999942 9.14999999999998
endloop
endfacet
facet normal -7.63639956356409e-017 1.24263096097262e-016 1.0
outer loop
vertex 155.732050807569 -0.999999999999942 9.14999999999998
vertex 102.0 -1.99999999999995 9.15
vertex 155.586706680583 -1.21752285801739 9.14999999999998
endloop
endfacet
facet normal -7.63639956356409e-017 1.24263096097262e-016 1.0
outer loop
vertex 155.586706680583 -1.21752285801739 9.14999999999998
vertex 102.0 -1.99999999999995 9.15
vertex 155.414213562373 -1.41421356237304 9.14999999999998
endloop
endfacet
facet normal -7.63639956356409e-017 1.24263096097262e-016 1.0
outer loop
vertex 155.414213562373 -1.41421356237304 9.14999999999998
vertex 102.0 -1.99999999999995 9.15
vertex 155.217522858018 -1.5867066805824 9.14999999999998
endloop
endfacet
facet normal -7.63639956356409e-017 1.24263096097262e-016 1.0
outer loop
vertex 155.217522858018 -1.5867066805824 9.14999999999998
vertex 102.0 -1.99999999999995 9.15
vertex 155.0 -1.73205080756881 9.14999999999998
endloop
endfacet
facet normal -7.63639956356409e-017 1.24263096097262e-016 1.0
outer loop
vertex 155.0 -1.73205080756881 9.14999999999998
vertex 102.0 -1.99999999999995 9.15
vertex 154.76536686473 -1.84775906502252 9.14999999999998
endloop
endfacet
facet normal -7.63639956356409e-017 1.24263096097262e-016 1.0
outer loop
vertex 154.76536686473 -1.84775906502252 9.14999999999998
vertex 102.0 -1.99999999999995 9.15
vertex 154.517638090205 -1.93185165257809 9.15000000000001
endloop
endfacet
facet normal -7.63639956356409e-017 1.24263096097262e-016 1.0
outer loop
vertex 154.517638090205 -1.93185165257809 9.15000000000001
vertex 102.0 -1.99999999999995 9.15
vertex 154.0 -1.99999999999994 9.15000000000001
endloop
endfacet
facet normal -7.63639956356409e-017 1.24263096097262e-016 1.0
outer loop
vertex 154.5 -0.499999999999943 9.14999999999997
vertex 156.0 77.0000000000001 9.15
vertex 154.5 77.0000000000001 9.15
endloop
endfacet
facet normal -7.63639956356409e-017 1.24263096097262e-016 1.0
outer loop
vertex 156.0 77.0000000000001 9.15
vertex 154.5 -0.499999999999943 9.14999999999997
vertex 156.0 5.6399329650958e-014 9.14999999999998
endloop
endfacet
facet normal -7.63639956356409e-017 1.24263096097262e-016 1.0
outer loop
vertex 156.0 5.6399329650958e-014 9.14999999999998
vertex 154.5 -0.499999999999943 9.14999999999997
vertex 155.931851652578 -0.517638090204989 9.14999999999998
endloop
endfacet
facet normal -5.0532154980743e-016 1.0 -1.14988366474435e-016
outer loop
vertex 156.0 77.0000000000001 9.15
vertex 154.5 77.0000000000001 7.64999999999999
vertex 154.5 77.0000000000001 9.15
endloop
endfacet
facet normal -5.0532154980743e-016 1.0 -1.14988366474435e-016
outer loop
vertex 154.5 77.0000000000001 7.64999999999999
vertex 122.0 77.0000000000003 3.15
vertex 122.0 77.0000000000003 7.65
endloop
endfacet
facet normal -5.0532154980743e-016 1.0 -1.14988366474435e-016
outer loop
vertex 122.0 77.0000000000003 3.15
vertex 154.5 77.0000000000001 7.64999999999999
vertex 156.0 77.0000000000001 3.14999999999999
endloop
endfacet
facet normal -5.0532154980743e-016 1.0 -1.14988366474435e-016
outer loop
vertex 156.0 77.0000000000001 3.14999999999999
vertex 154.5 77.0000000000001 7.64999999999999
vertex 156.0 77.0000000000001 9.15
endloop
endfacet
facet normal -4.30548454031866e-016 1.0 2.93746508598741e-017
outer loop
vertex 154.5 -0.499999999999943 9.14999999999997
vertex 102.0 -0.499999999999965 7.64999999999997
vertex 102.0 -0.499999999999965 9.14999999999997
endloop
endfacet
facet normal -4.30548454031866e-016 1.0 2.93746508598741e-017
outer loop
vertex 102.0 -0.499999999999965 7.64999999999997
vertex 154.5 -0.499999999999943 9.14999999999997
vertex 154.5 -0.499999999999943 7.64999999999997
endloop
endfacet
facet normal -1.0 -5.0532154980743e-016 6.63419931032201e-017
outer loop
vertex 154.5 -0.499999999999943 9.14999999999997
vertex 154.5 77.0000000000001 7.64999999999999
vertex 154.5 -0.499999999999943 7.64999999999997
endloop
endfacet
facet normal -1.0 -5.0532154980743e-016 6.63419931032201e-017
outer loop
vertex 154.5 77.0000000000001 7.64999999999999
vertex 154.5 -0.499999999999943 9.14999999999997
vertex 154.5 77.0000000000001 9.15
endloop
endfacet
facet normal 0.832050294337846 1.32281872679336e-015 0.554700196225226
outer loop
vertex 139.5 10.0000000000003 7.65000000000001
vertex 142.551111260566 9.61177143234654 3.15
vertex 142.5 10.0000000000003 3.15
endloop
endfacet
facet normal 0.803698868072342 0.215350462657803 0.554700196225228
outer loop
vertex 142.551111260566 9.61177143234654 3.15
vertex 139.5 10.0000000000003 7.65000000000001
vertex 139.653333781699 8.83531429703901 7.65000000000001
endloop
endfacet
facet normal -4.83550484047668e-015 0.832050294337846 0.554700196225226
outer loop
vertex 144.0 5.5000000000001 7.65000000000001
vertex 143.611771432346 8.55111126056672 3.15000000000001
vertex 142.835314297039 5.65333378169951 7.65000000000001
endloop
endfacet
facet normal 0.215350462657802 0.803698868072342 0.554700196225228
outer loop
vertex 143.611771432346 8.55111126056672 3.15000000000001
vertex 144.0 5.5000000000001 7.65000000000001
vertex 144.0 8.50000000000007 3.15000000000001
endloop
endfacet
facet normal -0.215350462657802 0.803698868072343 0.554700196225228
outer loop
vertex 145.164685702961 5.65333378169925 7.65000000000001
vertex 144.75 8.70096189432342 3.15000000000001
vertex 144.388228567654 8.55111126056647 3.15000000000001
endloop
endfacet
facet normal -0.416025147168907 0.720576692122906 0.554700196225223
outer loop
vertex 144.75 8.70096189432342 3.15000000000001
vertex 145.164685702961 5.65333378169925 7.65000000000001
vertex 146.25 6.10288568297013 7.65000000000001
endloop
endfacet
facet normal 0.803698868072346 -0.215350462657789 0.554700196225228
outer loop
vertex 139.653333781699 11.1646857029616 7.64999999999997
vertex 142.5 10.0000000000003 3.15
vertex 142.551111260566 10.3882285676541 3.15
endloop
endfacet
facet normal 0.832050294337846 4.84237013699516e-016 0.554700196225226
outer loop
vertex 142.5 10.0000000000003 3.15
vertex 139.653333781699 11.1646857029616 7.64999999999997
vertex 139.5 10.0000000000003 7.65000000000001
endloop
endfacet
facet normal -0.588348405414537 0.588348405414564 0.554700196225232
outer loop
vertex 145.06066017178 8.93933982822025 3.15000000000001
vertex 147.89711431703 7.75000000000003 7.65000000000001
vertex 145.299038105677 9.25000000000006 3.15
endloop
endfacet
facet normal -0.7205766921229 0.416025147168912 0.554700196225227
outer loop
vertex 147.89711431703 7.75000000000003 7.65000000000001
vertex 145.06066017178 8.93933982822025 3.15000000000001
vertex 147.18198051534 6.81801948466057 7.65000000000001
endloop
endfacet
facet normal 0.803698868072343 0.215350462657802 0.554700196225228
outer loop
vertex 139.653333781699 8.83531429703901 7.65000000000001
vertex 142.700961894323 9.25000000000033 3.15
vertex 142.551111260566 9.61177143234654 3.15
endloop
endfacet
facet normal 0.720576692122907 0.416025147168905 0.554700196225223
outer loop
vertex 142.700961894323 9.25000000000033 3.15
vertex 139.653333781699 8.83531429703901 7.65000000000001
vertex 140.10288568297 7.75000000000038 7.65000000000001
endloop
endfacet
facet normal -0.215350462657802 0.803698868072343 0.554700196225228
outer loop
vertex 145.164685702961 5.65333378169925 7.65000000000001
vertex 144.0 8.50000000000007 3.15000000000001
vertex 144.0 5.5000000000001 7.65000000000001
endloop
endfacet
facet normal 1.08549286488082e-014 0.832050294337846 0.554700196225226
outer loop
vertex 144.0 8.50000000000007 3.15000000000001
vertex 145.164685702961 5.65333378169925 7.65000000000001
vertex 144.388228567654 8.55111126056647 3.15000000000001
endloop
endfacet
facet normal -0.416025147168908 0.720576692122905 0.554700196225223
outer loop
vertex 146.25 6.10288568297013 7.65000000000001
vertex 145.06066017178 8.93933982822025 3.15000000000001
vertex 144.75 8.70096189432342 3.15000000000001
endloop
endfacet
facet normal -0.588348405414537 0.588348405414564 0.554700196225232
outer loop
vertex 145.06066017178 8.93933982822025 3.15000000000001
vertex 146.25 6.10288568297013 7.65000000000001
vertex 147.18198051534 6.81801948466057 7.65000000000001
endloop
endfacet
facet normal -0.7205766921229 0.416025147168912 0.554700196225227
outer loop
vertex 147.89711431703 7.75000000000003 7.65000000000001
vertex 145.448888739434 9.61177143234629 3.15
vertex 145.299038105677 9.25000000000006 3.15
endloop
endfacet
facet normal -0.803698868072346 0.21535046265779 0.554700196225228
outer loop
vertex 145.448888739434 9.61177143234629 3.15
vertex 147.89711431703 7.75000000000003 7.65000000000001
vertex 148.346666218301 8.83531429703875 7.65000000000001
endloop
endfacet
facet normal -1.0 -4.32957111569454e-016 9.74520551859941e-032
outer loop
vertex 57.4924038765061 29.0602844746643 3.15000000000001
vertex 57.4924038765061 55.1133637030028 6.85
vertex 57.4924038765061 55.1133637030028 3.15000000000001
endloop
endfacet
facet normal -1.0 -4.32957111569454e-016 9.74520551859941e-032
outer loop
vertex 57.4924038765061 55.1133637030028 6.85
vertex 57.4924038765061 29.0602844746643 3.15000000000001
vertex 57.4924038765061 29.0602844746643 6.84999999999997
endloop
endfacet
facet normal 0.182130483761324 0.983274370094566 3.2595455339929e-015
outer loop
vertex 71.0000000000001 52.6113712874089 6.84999999999999
vertex 57.4924038765061 55.1133637030028 3.15000000000001
vertex 57.4924038765061 55.1133637030028 6.85
endloop
endfacet
facet normal 0.182130483761324 0.983274370094566 3.2595455339929e-015
outer loop
vertex 57.4924038765061 55.1133637030028 3.15000000000001
vertex 71.0000000000001 52.6113712874089 6.84999999999999
vertex 72.9696155060245 52.2465422673038 5.10000000000001
endloop
endfacet
facet normal 0.182130483761324 0.983274370094566 3.2595455339929e-015
outer loop
vertex 57.4924038765061 55.1133637030028 3.15000000000001
vertex 72.9696155060245 52.2465422673038 5.10000000000001
vertex 77.0 51.5000000000003 3.15000000000001
endloop
endfacet
facet normal 0.182130483761324 0.983274370094566 3.2595455339929e-015
outer loop
vertex 77.0 51.5000000000003 3.15000000000001
vertex 72.9696155060245 52.2465422673038 5.10000000000001
vertex 77.0 51.5000000000002 5.10000000000001
endloop
endfacet
facet normal 0.215350462657786 0.803698868072347 0.554700196225228
outer loop
vertex 142.835314297039 5.65333378169951 7.65000000000001
vertex 143.25 8.70096189432367 3.15000000000001
vertex 141.75 6.10288568297039 7.65000000000001
endloop
endfacet
facet normal 0.416025147168911 0.7205766921229 0.554700196225227
outer loop
vertex 143.25 8.70096189432367 3.15000000000001
vertex 142.835314297039 5.65333378169951 7.65000000000001
vertex 143.611771432346 8.55111126056672 3.15000000000001
endloop
endfacet
facet normal 0.416025147168913 0.720576692122899 0.554700196225227
outer loop
vertex 141.75 6.10288568297039 7.65000000000001
vertex 142.93933982822 8.9393398282205 3.15000000000001
vertex 140.818019484661 6.81801948466083 7.65000000000001
endloop
endfacet
facet normal 0.588348405414565 0.588348405414537 0.554700196225232
outer loop
vertex 142.93933982822 8.9393398282205 3.15000000000001
vertex 141.75 6.10288568297039 7.65000000000001
vertex 143.25 8.70096189432367 3.15000000000001
endloop
endfacet
facet normal 0.720576692122905 0.416025147168908 0.554700196225223
outer loop
vertex 140.10288568297 7.75000000000038 7.65000000000001
vertex 142.93933982822 8.9393398282205 3.15000000000001
vertex 142.700961894323 9.25000000000033 3.15
endloop
endfacet
facet normal 0.588348405414565 0.588348405414537 0.554700196225232
outer loop
vertex 142.93933982822 8.9393398282205 3.15000000000001
vertex 140.10288568297 7.75000000000038 7.65000000000001
vertex 140.818019484661 6.81801948466083 7.65000000000001
endloop
endfacet
facet normal -0.720576692122905 -0.416025147168907 0.554700196225223
outer loop
vertex 147.89711431703 12.25 7.64999999999997
vertex 145.06066017178 11.0606601717799 3.15000000000001
vertex 145.299038105677 10.7500000000001 3.15000000000001
endloop
endfacet
facet normal -0.588348405414565 -0.588348405414536 0.554700196225232
outer loop
vertex 145.06066017178 11.0606601717799 3.15000000000001
vertex 147.89711431703 12.25 7.64999999999997
vertex 147.18198051534 13.1819805153396 7.64999999999997
endloop
endfacet
facet normal -0.588348405414565 -0.588348405414536 0.554700196225232
outer loop
vertex 145.06066017178 11.0606601717799 3.15000000000001
vertex 146.25 13.89711431703 7.64999999999997
vertex 144.75 11.2990381056767 3.15000000000001
endloop
endfacet
facet normal -0.416025147168912 -0.7205766921229 0.554700196225227
outer loop
vertex 146.25 13.89711431703 7.64999999999997
vertex 145.06066017178 11.0606601717799 3.15000000000001
vertex 147.18198051534 13.1819805153396 7.64999999999997
endloop
endfacet
facet normal 0.588348405414538 -0.588348405414563 0.554700196225233
outer loop
vertex 140.818019484661 13.1819805153398 7.64999999999997
vertex 142.700961894323 10.7500000000003 3.15000000000001
vertex 142.93933982822 11.0606601717801 3.15000000000001
endloop
endfacet
facet normal 0.720576692122901 -0.416025147168909 0.554700196225227
outer loop
vertex 142.700961894323 10.7500000000003 3.15000000000001
vertex 140.818019484661 13.1819805153398 7.64999999999997
vertex 140.10288568297 12.2500000000004 7.64999999999997
endloop
endfacet
facet normal -0.21535046265779 -0.803698868072346 0.554700196225228
outer loop
vertex 144.388228567654 11.4488887394337 3.15000000000001
vertex 144.0 14.5 7.64999999999997
vertex 144.0 11.5000000000001 3.15000000000001
endloop
endfacet
facet normal 3.56708381526546e-016 -0.832050294337846 0.554700196225226
outer loop
vertex 144.0 14.5 7.64999999999997
vertex 144.388228567654 11.4488887394337 3.15000000000001
vertex 145.164685702961 14.3466662183009 7.64999999999997
endloop
endfacet
facet normal -0.416025147168911 -0.7205766921229 0.554700196225227
outer loop
vertex 144.75 11.2990381056767 3.15000000000001
vertex 145.164685702961 14.3466662183009 7.64999999999997
vertex 144.388228567654 11.4488887394337 3.15000000000001
endloop
endfacet
facet normal -0.21535046265779 -0.803698868072346 0.554700196225228
outer loop
vertex 145.164685702961 14.3466662183009 7.64999999999997
vertex 144.75 11.2990381056767 3.15000000000001
vertex 146.25 13.89711431703 7.64999999999997
endloop
endfacet
facet normal 0.215350462657791 -0.803698868072345 0.554700196225228
outer loop
vertex 143.611771432346 11.4488887394339 3.15000000000001
vertex 144.0 14.5 7.64999999999997
vertex 142.835314297039 14.3466662183009 7.64999999999997
endloop
endfacet
facet normal 3.56708381526546e-016 -0.832050294337846 0.554700196225226
outer loop
vertex 144.0 14.5 7.64999999999997
vertex 143.611771432346 11.4488887394339 3.15000000000001
vertex 144.0 11.5000000000001 3.15000000000001
endloop
endfacet
facet normal 0.416025147168907 -0.720576692122906 0.554700196225223
outer loop
vertex 143.25 11.299038105677 3.15000000000001
vertex 142.835314297039 14.3466662183009 7.64999999999997
vertex 141.75 13.8971143170302 7.64999999999997
endloop
endfacet
facet normal 0.215350462657806 -0.803698868072342 0.554700196225228
outer loop
vertex 142.835314297039 14.3466662183009 7.64999999999997
vertex 143.25 11.299038105677 3.15000000000001
vertex 143.611771432346 11.4488887394339 3.15000000000001
endloop
endfacet
facet normal 0.588348405414537 -0.588348405414564 0.554700196225233
outer loop
vertex 142.93933982822 11.0606601717801 3.15000000000001
vertex 141.75 13.8971143170302 7.64999999999997
vertex 140.818019484661 13.1819805153398 7.64999999999997
endloop
endfacet
facet normal 0.41602514716891 -0.720576692122904 0.554700196225223
outer loop
vertex 141.75 13.8971143170302 7.64999999999997
vertex 142.93933982822 11.0606601717801 3.15000000000001
vertex 143.25 11.299038105677 3.15000000000001
endloop
endfacet
facet normal 0.720576692122901 -0.416025147168909 0.554700196225227
outer loop
vertex 142.700961894323 10.7500000000003 3.15000000000001
vertex 139.653333781699 11.1646857029616 7.64999999999997
vertex 142.551111260566 10.3882285676541 3.15
endloop
endfacet
facet normal 0.803698868072346 -0.215350462657789 0.554700196225228
outer loop
vertex 139.653333781699 11.1646857029616 7.64999999999997
vertex 142.700961894323 10.7500000000003 3.15000000000001
vertex 140.10288568297 12.2500000000004 7.64999999999997
endloop
endfacet
facet normal -0.803698868072343 -0.215350462657801 0.554700196225228
outer loop
vertex 148.346666218301 11.1646857029614 7.64999999999997
vertex 145.299038105677 10.7500000000001 3.15000000000001
vertex 145.448888739434 10.3882285676539 3.15
endloop
endfacet
facet normal -0.720576692122905 -0.416025147168907 0.554700196225223
outer loop
vertex 145.299038105677 10.7500000000001 3.15000000000001
vertex 148.346666218301 11.1646857029614 7.64999999999997
vertex 147.89711431703 12.25 7.64999999999997
endloop
endfacet
facet normal -1.0 6.74688990114332e-017 2.76069769978233e-014
outer loop
vertex 77.0 51.5000000000002 5.10000000000001
vertex 77.0000000000003 56.5000000000002 5.09999999999967
vertex 77.0 51.5000000000003 3.15000000000001
endloop
endfacet
facet normal -1.0 6.74688990114332e-017 2.76069769978233e-014
outer loop
vertex 77.0 51.5000000000003 3.15000000000001
vertex 77.0 77.0000000000003 7.64999999999997
vertex 77.0 77.0000000000003 3.15
endloop
endfacet
facet normal -1.0 6.74688990114332e-017 2.76069769978233e-014
outer loop
vertex 77.0 77.0000000000003 7.64999999999997
vertex 77.0 51.5000000000003 3.15000000000001
vertex 77.0000000000003 56.5000000000002 5.09999999999967
endloop
endfacet
facet normal -1.0 6.74688990114332e-017 2.76069769978233e-014
outer loop
vertex 77.0 77.0000000000003 7.64999999999997
vertex 77.0000000000003 56.5000000000002 5.09999999999967
vertex 77.0000000000003 61.5000000000002 6.84999999999997
endloop
endfacet
facet normal -1.0 6.74688990114332e-017 2.76069769978233e-014
outer loop
vertex 77.0000000000003 61.5000000000002 6.84999999999997
vertex 77.0000000000003 56.5000000000002 5.09999999999967
vertex 77.0000000000003 56.5000000000003 6.84999999999964
endloop
endfacet
facet normal -1.0 6.74688990114332e-017 2.76069769978233e-014
outer loop
vertex 77.0 77.0000000000003 7.64999999999997
vertex 77.0000000000003 61.5000000000002 6.84999999999997
vertex 77.0000000000003 61.5000000000002 7.64999999999996
endloop
endfacet
facet normal -0.832050294337846 6.49629180907067e-016 0.554700196225226
outer loop
vertex 148.5 10.0000000000001 7.65000000000001
vertex 145.448888739434 10.3882285676539 3.15
vertex 145.5 10.0000000000001 3.15
endloop
endfacet
facet normal -0.803698868072342 -0.215350462657803 0.554700196225228
outer loop
vertex 145.448888739434 10.3882285676539 3.15
vertex 148.5 10.0000000000001 7.65000000000001
vertex 148.346666218301 11.1646857029614 7.64999999999997
endloop
endfacet
facet normal -0.803698868072346 0.21535046265779 0.554700196225228
outer loop
vertex 148.346666218301 8.83531429703875 7.65000000000001
vertex 145.5 10.0000000000001 3.15
vertex 145.448888739434 9.61177143234629 3.15
endloop
endfacet
facet normal -0.832050294337846 -4.92601391865479e-016 0.554700196225226
outer loop
vertex 145.5 10.0000000000001 3.15
vertex 148.346666218301 8.83531429703875 7.65000000000001
vertex 148.5 10.0000000000001 7.65000000000001
endloop
endfacet
facet normal 8.18326033652958e-017 7.91103645783909e-017 1.0
outer loop
vertex 102.0 -0.499999999999965 7.64999999999997
vertex 125.526539614169 57.0000000000001 7.65
vertex 102.0 57.0 7.65
endloop
endfacet
facet normal 8.18326033652958e-017 7.91103645783909e-017 1.0
outer loop
vertex 125.526539614169 57.0000000000001 7.65
vertex 102.0 -0.499999999999965 7.64999999999997
vertex 142.835314297039 14.3466662183009 7.64999999999997
endloop
endfacet
facet normal 8.18326033652958e-017 7.91103645783909e-017 1.0
outer loop
vertex 125.526539614169 57.0000000000001 7.65
vertex 142.835314297039 14.3466662183009 7.64999999999997
vertex 144.0 14.5 7.64999999999997
endloop
endfacet
facet normal 8.18326033652958e-017 7.91103645783909e-017 1.0
outer loop
vertex 142.835314297039 14.3466662183009 7.64999999999997
vertex 102.0 -0.499999999999965 7.64999999999997
vertex 141.75 13.8971143170302 7.64999999999997
endloop
endfacet
facet normal 8.18326033652958e-017 7.91103645783909e-017 1.0
outer loop
vertex 141.75 13.8971143170302 7.64999999999997
vertex 102.0 -0.499999999999965 7.64999999999997
vertex 140.818019484661 13.1819805153398 7.64999999999997
endloop
endfacet
facet normal 8.18326033652958e-017 7.91103645783909e-017 1.0
outer loop
vertex 140.818019484661 13.1819805153398 7.64999999999997
vertex 102.0 -0.499999999999965 7.64999999999997
vertex 140.10288568297 12.2500000000004 7.64999999999997
endloop
endfacet
facet normal 8.18326033652958e-017 7.91103645783909e-017 1.0
outer loop
vertex 140.10288568297 12.2500000000004 7.64999999999997
vertex 102.0 -0.499999999999965 7.64999999999997
vertex 139.653333781699 11.1646857029616 7.64999999999997
endloop
endfacet
facet normal 8.18326033652958e-017 7.91103645783909e-017 1.0
outer loop
vertex 139.653333781699 11.1646857029616 7.64999999999997
vertex 102.0 -0.499999999999965 7.64999999999997
vertex 139.5 10.0000000000003 7.65000000000001
endloop
endfacet
facet normal 8.18326033652958e-017 7.91103645783909e-017 1.0
outer loop
vertex 139.5 10.0000000000003 7.65000000000001
vertex 102.0 -0.499999999999965 7.64999999999997
vertex 139.653333781699 8.83531429703901 7.65000000000001
endloop
endfacet
facet normal 8.18326033652958e-017 7.91103645783909e-017 1.0
outer loop
vertex 139.653333781699 8.83531429703901 7.65000000000001
vertex 102.0 -0.499999999999965 7.64999999999997
vertex 140.10288568297 7.75000000000038 7.65000000000001
endloop
endfacet
facet normal 8.18326033652958e-017 7.91103645783909e-017 1.0
outer loop
vertex 140.10288568297 7.75000000000038 7.65000000000001
vertex 102.0 -0.499999999999965 7.64999999999997
vertex 140.818019484661 6.81801948466083 7.65000000000001
endloop
endfacet
facet normal 8.18326033652958e-017 7.91103645783909e-017 1.0
outer loop
vertex 140.818019484661 6.81801948466083 7.65000000000001
vertex 102.0 -0.499999999999965 7.64999999999997
vertex 141.75 6.10288568297039 7.65000000000001
endloop
endfacet
facet normal 8.18326033652958e-017 7.91103645783909e-017 1.0
outer loop
vertex 141.75 6.10288568297039 7.65000000000001
vertex 102.0 -0.499999999999965 7.64999999999997
vertex 142.835314297039 5.65333378169951 7.65000000000001
endloop
endfacet
facet normal 8.18326033652958e-017 7.91103645783909e-017 1.0
outer loop
vertex 142.835314297039 5.65333378169951 7.65000000000001
vertex 102.0 -0.499999999999965 7.64999999999997
vertex 144.0 5.5000000000001 7.65000000000001
endloop
endfacet
facet normal 8.18326033652958e-017 7.91103645783909e-017 1.0
outer loop
vertex 125.526539614169 57.0000000000001 7.65
vertex 154.5 77.0000000000001 7.64999999999999
vertex 122.0 77.0000000000003 7.65
endloop
endfacet
facet normal 8.18326033652958e-017 7.91103645783909e-017 1.0
outer loop
vertex 154.5 77.0000000000001 7.64999999999999
vertex 125.526539614169 57.0000000000001 7.65
vertex 154.5 -0.499999999999943 7.64999999999997
endloop
endfacet
facet normal 8.18326033652958e-017 7.91103645783909e-017 1.0
outer loop
vertex 154.5 -0.499999999999943 7.64999999999997
vertex 125.526539614169 57.0000000000001 7.65
vertex 147.89711431703 12.25 7.64999999999997
endloop
endfacet
facet normal 8.18326033652958e-017 7.91103645783909e-017 1.0
outer loop
vertex 147.89711431703 12.25 7.64999999999997
vertex 125.526539614169 57.0000000000001 7.65
vertex 147.18198051534 13.1819805153396 7.64999999999997
endloop
endfacet
facet normal 8.18326033652958e-017 7.91103645783909e-017 1.0
outer loop
vertex 147.18198051534 13.1819805153396 7.64999999999997
vertex 125.526539614169 57.0000000000001 7.65
vertex 146.25 13.89711431703 7.64999999999997
endloop
endfacet
facet normal 8.18326033652958e-017 7.91103645783909e-017 1.0
outer loop
vertex 146.25 13.89711431703 7.64999999999997
vertex 125.526539614169 57.0000000000001 7.65
vertex 145.164685702961 14.3466662183009 7.64999999999997
endloop
endfacet
facet normal 8.18326033652958e-017 7.91103645783909e-017 1.0
outer loop
vertex 145.164685702961 14.3466662183009 7.64999999999997
vertex 125.526539614169 57.0000000000001 7.65
vertex 144.0 14.5 7.64999999999997
endloop
endfacet
facet normal 8.18326033652958e-017 7.91103645783909e-017 1.0
outer loop
vertex 154.5 -0.499999999999943 7.64999999999997
vertex 147.89711431703 12.25 7.64999999999997
vertex 148.346666218301 11.1646857029614 7.64999999999997
endloop
endfacet
facet normal 8.18326033652958e-017 7.91103645783909e-017 1.0
outer loop
vertex 154.5 -0.499999999999943 7.64999999999997
vertex 148.346666218301 11.1646857029614 7.64999999999997
vertex 148.5 10.0000000000001 7.65000000000001
endloop
endfacet
facet normal 8.18326033652958e-017 7.91103645783909e-017 1.0
outer loop
vertex 154.5 -0.499999999999943 7.64999999999997
vertex 148.5 10.0000000000001 7.65000000000001
vertex 148.346666218301 8.83531429703875 7.65000000000001
endloop
endfacet
facet normal 8.18326033652958e-017 7.91103645783909e-017 1.0
outer loop
vertex 154.5 -0.499999999999943 7.64999999999997
vertex 148.346666218301 8.83531429703875 7.65000000000001
vertex 147.89711431703 7.75000000000003 7.65000000000001
endloop
endfacet
facet normal 8.18326033652958e-017 7.91103645783909e-017 1.0
outer loop
vertex 154.5 -0.499999999999943 7.64999999999997
vertex 147.89711431703 7.75000000000003 7.65000000000001
vertex 147.18198051534 6.81801948466057 7.65000000000001
endloop
endfacet
facet normal 8.18326033652958e-017 7.91103645783909e-017 1.0
outer loop
vertex 154.5 -0.499999999999943 7.64999999999997
vertex 147.18198051534 6.81801948466057 7.65000000000001
vertex 146.25 6.10288568297013 7.65000000000001
endloop
endfacet
facet normal 8.18326033652958e-017 7.91103645783909e-017 1.0
outer loop
vertex 154.5 -0.499999999999943 7.64999999999997
vertex 146.25 6.10288568297013 7.65000000000001
vertex 145.164685702961 5.65333378169925 7.65000000000001
endloop
endfacet
facet normal 8.18326033652958e-017 7.91103645783909e-017 1.0
outer loop
vertex 154.5 -0.499999999999943 7.64999999999997
vertex 145.164685702961 5.65333378169925 7.65000000000001
vertex 144.0 5.5000000000001 7.65000000000001
endloop
endfacet
facet normal 8.18326033652958e-017 7.91103645783909e-017 1.0
outer loop
vertex 154.5 -0.499999999999943 7.64999999999997
vertex 144.0 5.5000000000001 7.65000000000001
vertex 102.0 -0.499999999999965 7.64999999999997
endloop
endfacet
facet normal 0.984807753012208 -0.17364817766693 2.6541214116178e-017
outer loop
vertex 102.0 77.0 7.64999999999997
vertex 99.2669317990188 61.5000000000003 6.84999999999997
vertex 102.0 77.0 3.15
endloop
endfacet
facet normal 0.984807753012208 -0.17364817766693 2.6541214116178e-017
outer loop
vertex 99.2669317990188 61.5000000000003 6.84999999999997
vertex 102.0 77.0 7.64999999999997
vertex 99.2669317990188 61.5000000000003 7.64999999999996
endloop
endfacet
facet normal 0.984807753012208 -0.17364817766693 2.6541214116178e-017
outer loop
vertex 102.0 77.0 3.15
vertex 98.473460385831 57.0000000000003 6.85
vertex 98.473460385831 57.0000000000003 3.14999999999999
endloop
endfacet
facet normal 0.984807753012208 -0.17364817766693 2.6541214116178e-017
outer loop
vertex 98.473460385831 57.0000000000003 6.85
vertex 102.0 77.0 3.15
vertex 99.2669317990188 61.5000000000003 6.84999999999997
endloop
endfacet
facet normal -5.0532154980743e-016 1.0 6.12595386848085e-017
outer loop
vertex 125.526539614169 57.0000000000001 7.65
vertex 102.0 57.0 6.85
vertex 102.0 57.0 7.65
endloop
endfacet
facet normal -5.0532154980743e-016 1.0 6.12595386848085e-017
outer loop
vertex 102.0 57.0 6.85
vertex 98.473460385831 57.0000000000003 3.14999999999999
vertex 98.473460385831 57.0000000000003 6.85
endloop
endfacet
facet normal -5.0532154980743e-016 1.0 6.12595386848085e-017
outer loop
vertex 98.473460385831 57.0000000000003 3.14999999999999
vertex 102.0 57.0 6.85
vertex 125.526539614169 57.0000000000001 3.15
endloop
endfacet
facet normal -5.0532154980743e-016 1.0 6.12595386848085e-017
outer loop
vertex 125.526539614169 57.0000000000001 3.15
vertex 102.0 57.0 6.85
vertex 125.526539614169 57.0000000000001 7.65
endloop
endfacet
facet normal -5.41269125997666e-017 1.0 -1.14988366474435e-016
outer loop
vertex 102.0 77.0 7.64999999999997
vertex 77.0 77.0000000000003 3.15
vertex 77.0 77.0000000000003 7.64999999999997
endloop
endfacet
facet normal -5.41269125997666e-017 1.0 -1.14988366474435e-016
outer loop
vertex 77.0 77.0000000000003 3.15
vertex 102.0 77.0 7.64999999999997
vertex 102.0 77.0 3.15
endloop
endfacet
facet normal -0.984807753012208 -0.173648177666931 4.44099390119921e-017
outer loop
vertex 125.526539614169 57.0000000000001 7.65
vertex 122.0 77.0000000000003 3.15
vertex 125.526539614169 57.0000000000001 3.15
endloop
endfacet
facet normal -0.984807753012208 -0.173648177666931 4.44099390119921e-017
outer loop
vertex 122.0 77.0000000000003 3.15
vertex 125.526539614169 57.0000000000001 7.65
vertex 122.0 77.0000000000003 7.65
endloop
endfacet
facet normal 2.80117286151105e-017 -2.29886263583942e-016 1.0
outer loop
vertex 77.0000000000003 61.5000000000002 7.64999999999996
vertex 102.0 77.0 7.64999999999997
vertex 77.0 77.0000000000003 7.64999999999997
endloop
endfacet
facet normal 2.80117286151105e-017 -2.29886263583942e-016 1.0
outer loop
vertex 102.0 77.0 7.64999999999997
vertex 77.0000000000003 61.5000000000002 7.64999999999996
vertex 99.2669317990188 61.5000000000003 7.64999999999996
endloop
endfacet
facet normal -1.0 -3.84908738216399e-016 8.27707245083259e-017
outer loop
vertex 102.0 -1.99999999999995 6.85000000000001
vertex 102.0 -0.499999999999965 7.64999999999997
vertex 102.0 57.0 6.85
endloop
endfacet
facet normal -1.0 -3.84908738216399e-016 8.27707245083259e-017
outer loop
vertex 102.0 -0.499999999999965 7.64999999999997
vertex 102.0 -1.99999999999995 6.85000000000001
vertex 102.0 -1.99999999999995 9.15
endloop
endfacet
facet normal -1.0 -3.84908738216399e-016 8.27707245083259e-017
outer loop
vertex 102.0 -0.499999999999965 7.64999999999997
vertex 102.0 -1.99999999999995 9.15
vertex 102.0 -0.499999999999965 9.14999999999997
endloop
endfacet
facet normal -1.0 -3.84908738216399e-016 8.27707245083259e-017
outer loop
vertex 102.0 57.0 7.65
vertex 102.0 57.0 6.85
vertex 102.0 -0.499999999999965 7.64999999999997
endloop
endfacet
facet normal -1.0 -9.14541434151832e-016 1.36054536875981e-014
outer loop
vertex 77.0 -1.99999999999973 3.85
vertex 77.0 32.5000000000001 3.15000000000001
vertex 77.0 -1.99999999999975 3.15000000000001
endloop
endfacet
facet normal -1.0 -9.14541434151832e-016 1.36054536875981e-014
outer loop
vertex 77.0 32.5000000000001 3.15000000000001
vertex 77.0 -1.99999999999973 3.85
vertex 77.0000000000001 19.0 3.85
endloop
endfacet
facet normal -1.0 -9.14541434151832e-016 1.36054536875981e-014
outer loop
vertex 77.0000000000001 19.0 3.85
vertex 77.0 32.5000000000001 4.35000000000001
vertex 77.0 32.5000000000001 3.15000000000001
endloop
endfacet
facet normal -1.0 -9.14541434151832e-016 1.36054536875981e-014
outer loop
vertex 77.0 32.5000000000001 4.35000000000001
vertex 77.0000000000001 19.0 3.85
vertex 77.0000000000001 19.0 5.10000000000001
endloop
endfacet
facet normal -1.0 -9.14541434151832e-016 1.36054536875981e-014
outer loop
vertex 77.0 32.5000000000001 4.35000000000001
vertex 77.0000000000001 19.0 5.10000000000001
vertex 77.0 32.5000000000001 5.10000000000001
endloop
endfacet
facet normal -0.0126144975206558 7.39275681458201e-017 0.999920434060781
outer loop
vertex 77.0000000000001 19.0 3.85
vertex 85.7561197451393 -1.99999999999989 3.96046283989523
vertex 85.7561197451392 19.0000000000001 3.96046283989522
endloop
endfacet
facet normal -0.0126144975206558 7.39275681458201e-017 0.999920434060781
outer loop
vertex 85.7561197451393 -1.99999999999989 3.96046283989523
vertex 77.0000000000001 19.0 3.85
vertex 77.0 -1.99999999999973 3.85
endloop
endfacet
facet normal -0.434254141945904 -4.39035206634118e-016 0.900790397485912
outer loop
vertex 85.7561197451392 19.0000000000001 3.96046283989522
vertex 91.7500000000001 -1.99999999999973 6.85000000000001
vertex 91.7500000000001 19.0000000000002 6.85000000000001
endloop
endfacet
facet normal -0.434254141945904 -4.39035206634118e-016 0.900790397485912
outer loop
vertex 91.7500000000001 -1.99999999999973 6.85000000000001
vertex 85.7561197451392 19.0000000000001 3.96046283989522
vertex 85.7561197451393 -1.99999999999989 3.96046283989523
endloop
endfacet
facet normal 8.98652458566099e-015 -1.0 -8.9872662120657e-015
outer loop
vertex 85.7561197451392 19.0000000000001 3.96046283989522
vertex 77.0000000000001 19.0 5.10000000000001
vertex 77.0000000000001 19.0 3.85
endloop
endfacet
facet normal 8.98652458566099e-015 -1.0 -8.9872662120657e-015
outer loop
vertex 77.0000000000001 19.0 5.10000000000001
vertex 85.7561197451392 19.0000000000001 3.96046283989522
vertex 81.0000000000001 19.0 5.10000000000001
endloop
endfacet
facet normal 8.98652458566099e-015 -1.0 -8.9872662120657e-015
outer loop
vertex 81.0000000000001 19.0 5.10000000000001
vertex 85.7561197451392 19.0000000000001 3.96046283989522
vertex 83.0000000000001 19.0 6.85000000000002
endloop
endfacet
facet normal 8.98652458566099e-015 -1.0 -8.9872662120657e-015
outer loop
vertex 83.0000000000001 19.0 6.85000000000002
vertex 85.7561197451392 19.0000000000001 3.96046283989522
vertex 91.7500000000001 19.0000000000002 6.85000000000001
endloop
endfacet
facet normal -1.77691782274102e-015 6.5392268085779e-016 1.0
outer loop
vertex 83.0000000000001 19.0 6.85000000000002
vertex 91.7500000000001 19.0000000000002 6.85000000000001
vertex 83.0000000000003 56.5 6.84999999999966
endloop
endfacet
facet normal -1.77691782274102e-015 6.5392268085779e-016 1.0
outer loop
vertex 77.0000000000003 61.5000000000002 6.84999999999997
vertex 98.473460385831 57.0000000000003 6.85
vertex 99.2669317990188 61.5000000000003 6.84999999999997
endloop
endfacet
facet normal -1.77691782274102e-015 6.5392268085779e-016 1.0
outer loop
vertex 98.473460385831 57.0000000000003 6.85
vertex 77.0000000000003 61.5000000000002 6.84999999999997
vertex 77.0000000000003 56.5000000000003 6.84999999999964
endloop
endfacet
facet normal -1.77691782274102e-015 6.5392268085779e-016 1.0
outer loop
vertex 98.473460385831 57.0000000000003 6.85
vertex 77.0000000000003 56.5000000000003 6.84999999999964
vertex 102.0 57.0 6.85
endloop
endfacet
facet normal -1.77691782274102e-015 6.5392268085779e-016 1.0
outer loop
vertex 102.0 57.0 6.85
vertex 77.0000000000003 56.5000000000003 6.84999999999964
vertex 83.0000000000003 56.5 6.84999999999966
endloop
endfacet
facet normal -1.77691782274102e-015 6.5392268085779e-016 1.0
outer loop
vertex 102.0 57.0 6.85
vertex 83.0000000000003 56.5 6.84999999999966
vertex 102.0 -1.99999999999995 6.85000000000001
endloop
endfacet
facet normal -1.77691782274102e-015 6.5392268085779e-016 1.0
outer loop
vertex 102.0 -1.99999999999995 6.85000000000001
vertex 83.0000000000003 56.5 6.84999999999966
vertex 91.7500000000001 19.0000000000002 6.85000000000001
endloop
endfacet
facet normal -1.77691782274102e-015 6.5392268085779e-016 1.0
outer loop
vertex 102.0 -1.99999999999995 6.85000000000001
vertex 91.7500000000001 19.0000000000002 6.85000000000001
vertex 91.7500000000001 -1.99999999999973 6.85000000000001
endloop
endfacet
facet normal -0.658504607868518 4.168139590834e-016 0.752576694706878
outer loop
vertex 81.0000000000001 19.0 5.10000000000001
vertex 83.0000000000003 56.5 6.84999999999966
vertex 81.0000000000003 56.5 5.09999999999967
endloop
endfacet
facet normal -0.658504607868518 4.168139590834e-016 0.752576694706878
outer loop
vertex 83.0000000000003 56.5 6.84999999999966
vertex 81.0000000000001 19.0 5.10000000000001
vertex 83.0000000000001 19.0 6.85000000000002
endloop
endfacet
facet normal 0.17364817766693 -0.984807753012208 -2.43303216329552e-016
outer loop
vertex 77.0 32.5000000000001 4.35000000000001
vertex 57.4924038765061 29.0602844746643 3.15000000000001
vertex 77.0 32.5000000000001 3.15000000000001
endloop
endfacet
facet normal 0.173648177666925 -0.984807753012209 2.66887526081444e-017
outer loop
vertex 71.0000000000001 31.4420381157493 4.35000000000002
vertex 57.4924038765061 29.0602844746643 6.84999999999997
vertex 57.4924038765061 29.0602844746643 3.15000000000001
endloop
endfacet
facet normal 0.664200707266919 3.7438740974406e-016 0.74755429265447
outer loop
vertex 71.0000000000001 31.4420381157493 6.85000000000001
vertex 72.9696155060245 52.2465422673038 5.10000000000001
vertex 71.0000000000001 52.6113712874089 6.84999999999999
endloop
endfacet
facet normal 0.664200707266919 3.7438740974406e-016 0.74755429265447
outer loop
vertex 72.9696155060245 52.2465422673038 5.10000000000001
vertex 71.0000000000001 31.4420381157493 6.85000000000001
vertex 72.9696155060245 31.789334471083 5.10000000000001
endloop
endfacet
facet normal 0.173648177666939 -0.984807753012207 -1.21449249530524e-013
outer loop
vertex 77.0 32.5000000000001 4.35000000000001
vertex 71.0000000000001 31.4420381157493 4.35000000000002
vertex 57.4924038765061 29.0602844746643 3.15000000000001
endloop
endfacet
facet normal 0.173648177666939 -0.984807753012207 -1.21449249530524e-013
outer loop
vertex 71.0000000000001 31.4420381157493 4.35000000000002
vertex 77.0 32.5000000000001 4.35000000000001
vertex 72.9696155060245 31.789334471083 5.10000000000001
endloop
endfacet
facet normal 0.173648177666939 -0.984807753012207 -1.21449249530524e-013
outer loop
vertex 72.9696155060245 31.789334471083 5.10000000000001
vertex 77.0 32.5000000000001 4.35000000000001
vertex 77.0 32.5000000000001 5.10000000000001
endloop
endfacet
facet normal 0.173648177666923 -0.984807753012209 2.00559658281239e-015
outer loop
vertex 71.0000000000001 31.4420381157493 4.35000000000002
vertex 71.0000000000001 31.4420381157493 6.85000000000001
vertex 57.4924038765061 29.0602844746643 6.84999999999997
endloop
endfacet
facet normal 0.173648177666923 -0.984807753012209 2.00559658281239e-015
outer loop
vertex 71.0000000000001 31.4420381157493 6.85000000000001
vertex 71.0000000000001 31.4420381157493 4.35000000000002
vertex 72.9696155060245 31.789334471083 5.10000000000001
endloop
endfacet
facet normal 5.69637262018766e-015 1.31150223309969e-015 1.0
outer loop
vertex 72.9696155060245 31.789334471083 5.10000000000001
vertex 77.0 51.5000000000002 5.10000000000001
vertex 72.9696155060245 52.2465422673038 5.10000000000001
endloop
endfacet
facet normal 5.69637262018766e-015 1.31150223309969e-015 1.0
outer loop
vertex 77.0 51.5000000000002 5.10000000000001
vertex 72.9696155060245 31.789334471083 5.10000000000001
vertex 77.0 32.5000000000001 5.10000000000001
endloop
endfacet
facet normal 5.69637262018766e-015 1.31150223309969e-015 1.0
outer loop
vertex 77.0 51.5000000000002 5.10000000000001
vertex 81.0000000000003 56.5 5.09999999999967
vertex 77.0000000000003 56.5000000000002 5.09999999999967
endloop
endfacet
facet normal 5.69637262018766e-015 1.31150223309969e-015 1.0
outer loop
vertex 81.0000000000003 56.5 5.09999999999967
vertex 77.0 51.5000000000002 5.10000000000001
vertex 81.0000000000001 19.0 5.10000000000001
endloop
endfacet
facet normal 5.69637262018766e-015 1.31150223309969e-015 1.0
outer loop
vertex 81.0000000000001 19.0 5.10000000000001
vertex 77.0 51.5000000000002 5.10000000000001
vertex 77.0 32.5000000000001 5.10000000000001
endloop
endfacet
facet normal 5.69637262018766e-015 1.31150223309969e-015 1.0
outer loop
vertex 81.0000000000001 19.0 5.10000000000001
vertex 77.0 32.5000000000001 5.10000000000001
vertex 77.0000000000001 19.0 5.10000000000001
endloop
endfacet
facet normal -4.5119463720766e-014 -1.0 6.76791955811501e-014
outer loop
vertex 81.0000000000003 56.5 5.09999999999967
vertex 77.0000000000003 56.5000000000003 6.84999999999964
vertex 77.0000000000003 56.5000000000002 5.09999999999967
endloop
endfacet
facet normal -4.5119463720766e-014 -1.0 6.76791955811501e-014
outer loop
vertex 77.0000000000003 56.5000000000003 6.84999999999964
vertex 81.0000000000003 56.5 5.09999999999967
vertex 83.0000000000003 56.5 6.84999999999966
endloop
endfacet
facet normal -6.92243389901335e-016 -9.17927285781712e-017 1.0
outer loop
vertex 57.4924038765061 29.0602844746643 6.84999999999997
vertex 71.0000000000001 52.6113712874089 6.84999999999999
vertex 57.4924038765061 55.1133637030028 6.85
endloop
endfacet
facet normal -6.92243389901335e-016 -9.17927285781712e-017 1.0
outer loop
vertex 71.0000000000001 52.6113712874089 6.84999999999999
vertex 57.4924038765061 29.0602844746643 6.84999999999997
vertex 71.0000000000001 31.4420381157493 6.85000000000001
endloop
endfacet
facet normal 1.01314954678117e-015 -1.0 1.17422834988422e-016
outer loop
vertex 99.2669317990188 61.5000000000003 6.84999999999997
vertex 77.0000000000003 61.5000000000002 7.64999999999996
vertex 77.0000000000003 61.5000000000002 6.84999999999997
endloop
endfacet
facet normal 1.01314954678117e-015 -1.0 1.17422834988422e-016
outer loop
vertex 77.0000000000003 61.5000000000002 7.64999999999996
vertex 99.2669317990188 61.5000000000003 6.84999999999997
vertex 99.2669317990188 61.5000000000003 7.64999999999996
endloop
endfacet
endsolid solidoodlebed
