0
SECTION
2
HEADER
0
ENDSEC
0
SECTION
2
TABLES
0
ENDSEC
0
SECTION
2
BLOCKS
0
ENDSEC
0
SECTION
2
ENTITIES
0
POLYLINE
8
PFV
62
0
66
1
70
8
0
VERTEX
8
PFV
62
0
70
32
10
4.000000
20
0.800000
30
0
0
VERTEX
8
PFV
62
0
70
32
10
4.000000
20
0.780952
30
0
0
VERTEX
8
PFV
62
0
70
32
10
4.009524
20
0.780952
30
0
0
VERTEX
8
PFV
62
0
70
32
10
4.019048
20
0.771429
30
0
0
VERTEX
8
PFV
62
0
70
32
10
4.038095
20
0.771429
30
0
0
SEQEND
0
POLYLINE
8
PFV
62
0
66
1
70
8
0
VERTEX
8
PFV
62
0
70
32
10
4.000000
20
0.800000
30
0
0
VERTEX
8
PFV
62
0
70
32
10
3.990476
20
0.800000
30
0
0
VERTEX
8
PFV
62
0
70
32
10
3.980952
20
0.809524
30
0
0
VERTEX
8
PFV
62
0
70
32
10
3.980952
20
0.980952
30
0
0
SEQEND
0
POLYLINE
8
PFV
62
0
66
1
70
8
0
VERTEX
8
PFV
62
0
70
32
10
4.000000
20
0.800000
30
0
0
VERTEX
8
PFV
62
0
70
32
10
4.009524
20
0.809524
30
0
0
VERTEX
8
PFV
62
0
70
32
10
4.019048
20
0.809524
30
0
0
VERTEX
8
PFV
62
0
70
32
10
4.019048
20
0.800000
30
0
0
VERTEX
8
PFV
62
0
70
32
10
4.028571
20
0.790476
30
0
0
VERTEX
8
PFV
62
0
70
32
10
4.038095
20
0.790476
30
0
0
SEQEND
0
POLYLINE
8
PFV
62
0
66
1
70
8
0
VERTEX
8
PFV
62
0
70
32
10
5.914286
20
0.838095
30
0
0
VERTEX
8
PFV
62
0
70
32
10
5.895238
20
0.780952
30
0
0
VERTEX
8
PFV
62
0
70
32
10
5.780952
20
0.742857
30
0
0
VERTEX
8
PFV
62
0
70
32
10
5.742857
20
0.742857
30
0
0
SEQEND
0
POLYLINE
8
PFV
62
0
66
1
70
8
0
VERTEX
8
PFV
62
0
70
32
10
5.914286
20
0.838095
30
0
0
VERTEX
8
PFV
62
0
70
32
10
5.904762
20
0.838095
30
0
0
VERTEX
8
PFV
62
0
70
32
10
5.895238
20
0.847619
30
0
0
VERTEX
8
PFV
62
0
70
32
10
5.895238
20
0.857143
30
0
0
VERTEX
8
PFV
62
0
70
32
10
5.885714
20
0.866667
30
0
0
VERTEX
8
PFV
62
0
70
32
10
5.885714
20
1.123810
30
0
0
SEQEND
0
POLYLINE
8
PFV
62
0
66
1
70
8
0
VERTEX
8
PFV
62
0
70
32
10
5.914286
20
0.838095
30
0
0
VERTEX
8
PFV
62
0
70
32
10
5.923810
20
0.847619
30
0
0
VERTEX
8
PFV
62
0
70
32
10
5.923810
20
1.161905
30
0
0
SEQEND
0
POLYLINE
8
PFV
62
0
66
1
70
8
0
VERTEX
8
PFV
62
0
70
32
10
5.914286
20
0.838095
30
0
0
VERTEX
8
PFV
62
0
70
32
10
5.904762
20
0.847619
30
0
0
SEQEND
0
POLYLINE
8
PFV
62
0
66
1
70
8
0
VERTEX
8
PFV
62
0
70
32
10
4.580952
20
2.304762
30
0
0
VERTEX
8
PFV
62
0
70
32
10
4.580952
20
2.323810
30
0
0
VERTEX
8
PFV
62
0
70
32
10
4.571429
20
2.333333
30
0
0
VERTEX
8
PFV
62
0
70
32
10
4.561905
20
2.333333
30
0
0
VERTEX
8
PFV
62
0
70
32
10
4.552381
20
2.342857
30
0
0
SEQEND
0
POLYLINE
8
PFV
62
0
66
1
70
8
0
VERTEX
8
PFV
62
0
70
32
10
4.580952
20
2.304762
30
0
0
VERTEX
8
PFV
62
0
70
32
10
4.580952
20
2.285714
30
0
0
SEQEND
0
POLYLINE
8
PFV
62
0
66
1
70
8
0
VERTEX
8
PFV
62
0
70
32
10
4.580952
20
2.304762
30
0
0
VERTEX
8
PFV
62
0
70
32
10
4.571429
20
2.304762
30
0
0
VERTEX
8
PFV
62
0
70
32
10
4.561905
20
2.314286
30
0
0
VERTEX
8
PFV
62
0
70
32
10
4.561905
20
2.323810
30
0
0
VERTEX
8
PFV
62
0
70
32
10
4.571429
20
2.323810
30
0
0
SEQEND
0
POLYLINE
8
PFV
62
0
66
1
70
8
0
VERTEX
8
PFV
62
0
70
32
10
5.409524
20
2.304762
30
0
0
VERTEX
8
PFV
62
0
70
32
10
5.419048
20
2.342857
30
0
0
VERTEX
8
PFV
62
0
70
32
10
5.438095
20
2.342857
30
0
0
VERTEX
8
PFV
62
0
70
32
10
5.419048
20
2.390476
30
0
0
SEQEND
0
POLYLINE
8
PFV
62
0
66
1
70
8
0
VERTEX
8
PFV
62
0
70
32
10
5.409524
20
2.304762
30
0
0
VERTEX
8
PFV
62
0
70
32
10
5.419048
20
2.304762
30
0
0
VERTEX
8
PFV
62
0
70
32
10
5.428571
20
2.295238
30
0
0
SEQEND
0
POLYLINE
8
PFV
62
0
66
1
70
8
0
VERTEX
8
PFV
62
0
70
32
10
5.409524
20
2.304762
30
0
0
VERTEX
8
PFV
62
0
70
32
10
5.400000
20
2.295238
30
0
0
VERTEX
8
PFV
62
0
70
32
10
5.400000
20
2.276190
30
0
0
SEQEND
0
POLYLINE
8
PFV
62
0
66
1
70
8
0
VERTEX
8
PFV
62
0
70
32
10
4.790476
20
2.390476
30
0
0
VERTEX
8
PFV
62
0
70
32
10
4.857143
20
2.400000
30
0
0
VERTEX
8
PFV
62
0
70
32
10
4.885714
20
2.419048
30
0
0
VERTEX
8
PFV
62
0
70
32
10
4.933333
20
2.400000
30
0
0
VERTEX
8
PFV
62
0
70
32
10
4.914286
20
2.380952
30
0
0
SEQEND
0
POLYLINE
8
PFV
62
0
66
1
70
8
0
VERTEX
8
PFV
62
0
70
32
10
4.790476
20
2.390476
30
0
0
VERTEX
8
PFV
62
0
70
32
10
4.771429
20
2.371429
30
0
0
VERTEX
8
PFV
62
0
70
32
10
4.771429
20
2.409524
30
0
0
VERTEX
8
PFV
62
0
70
32
10
4.780952
20
2.409524
30
0
0
VERTEX
8
PFV
62
0
70
32
10
4.790476
20
2.390476
30
0
0
SEQEND
0
POLYLINE
8
PFV
62
0
66
1
70
8
0
VERTEX
8
PFV
62
0
70
32
10
5.047619
20
2.390476
30
0
0
VERTEX
8
PFV
62
0
70
32
10
5.057143
20
2.409524
30
0
0
VERTEX
8
PFV
62
0
70
32
10
5.114286
20
2.409524
30
0
0
VERTEX
8
PFV
62
0
70
32
10
5.133333
20
2.380952
30
0
0
VERTEX
8
PFV
62
0
70
32
10
5.142857
20
2.438095
30
0
0
VERTEX
8
PFV
62
0
70
32
10
5.161905
20
2.438095
30
0
0
VERTEX
8
PFV
62
0
70
32
10
5.209524
20
2.419048
30
0
0
VERTEX
8
PFV
62
0
70
32
10
5.228571
20
2.390476
30
0
0
VERTEX
8
PFV
62
0
70
32
10
5.238095
20
2.466667
30
0
0
VERTEX
8
PFV
62
0
70
32
10
5.171429
20
2.457143
30
0
0
VERTEX
8
PFV
62
0
70
32
10
5.161905
20
2.438095
30
0
0
SEQEND
0
POLYLINE
8
PFV
62
0
66
1
70
8
0
VERTEX
8
PFV
62
0
70
32
10
5.047619
20
2.390476
30
0
0
VERTEX
8
PFV
62
0
70
32
10
5.057143
20
2.390476
30
0
0
VERTEX
8
PFV
62
0
70
32
10
5.066667
20
2.400000
30
0
0
VERTEX
8
PFV
62
0
70
32
10
5.076190
20
2.400000
30
0
0
VERTEX
8
PFV
62
0
70
32
10
5.085714
20
2.390476
30
0
0
VERTEX
8
PFV
62
0
70
32
10
5.085714
20
2.371429
30
0
0
SEQEND
0
POLYLINE
8
PFV
62
0
66
1
70
8
0
VERTEX
8
PFV
62
0
70
32
10
5.047619
20
2.390476
30
0
0
VERTEX
8
PFV
62
0
70
32
10
5.047619
20
2.371429
30
0
0
SEQEND
0
POLYLINE
8
PFV
62
0
66
1
70
8
0
VERTEX
8
PFV
62
0
70
32
10
5.047619
20
2.390476
30
0
0
VERTEX
8
PFV
62
0
70
32
10
5.028571
20
2.438095
30
0
0
VERTEX
8
PFV
62
0
70
32
10
4.961905
20
2.400000
30
0
0
VERTEX
8
PFV
62
0
70
32
10
4.961905
20
2.428571
30
0
0
VERTEX
8
PFV
62
0
70
32
10
4.980952
20
2.428571
30
0
0
VERTEX
8
PFV
62
0
70
32
10
4.980952
20
2.409524
30
0
0
SEQEND
0
POLYLINE
8
PFV
62
0
66
1
70
8
0
VERTEX
8
PFV
62
0
70
32
10
4.695238
20
2.400000
30
0
0
VERTEX
8
PFV
62
0
70
32
10
4.695238
20
2.428571
30
0
0
VERTEX
8
PFV
62
0
70
32
10
4.647619
20
2.428571
30
0
0
VERTEX
8
PFV
62
0
70
32
10
4.666667
20
2.457143
30
0
0
VERTEX
8
PFV
62
0
70
32
10
4.676190
20
2.438095
30
0
0
VERTEX
8
PFV
62
0
70
32
10
4.704762
20
2.457143
30
0
0
VERTEX
8
PFV
62
0
70
32
10
4.752381
20
2.438095
30
0
0
VERTEX
8
PFV
62
0
70
32
10
4.733333
20
2.419048
30
0
0
VERTEX
8
PFV
62
0
70
32
10
4.723810
20
2.428571
30
0
0
SEQEND
0
POLYLINE
8
PFV
62
0
66
1
70
8
0
VERTEX
8
PFV
62
0
70
32
10
4.695238
20
2.400000
30
0
0
VERTEX
8
PFV
62
0
70
32
10
4.733333
20
2.400000
30
0
0
VERTEX
8
PFV
62
0
70
32
10
4.742857
20
2.409524
30
0
0
VERTEX
8
PFV
62
0
70
32
10
4.752381
20
2.400000
30
0
0
VERTEX
8
PFV
62
0
70
32
10
4.761905
20
2.400000
30
0
0
SEQEND
0
POLYLINE
8
PFV
62
0
66
1
70
8
0
VERTEX
8
PFV
62
0
70
32
10
4.695238
20
2.400000
30
0
0
VERTEX
8
PFV
62
0
70
32
10
4.619048
20
2.409524
30
0
0
VERTEX
8
PFV
62
0
70
32
10
4.609524
20
2.457143
30
0
0
VERTEX
8
PFV
62
0
70
32
10
4.628571
20
2.457143
30
0
0
VERTEX
8
PFV
62
0
70
32
10
4.647619
20
2.447619
30
0
0
SEQEND
0
POLYLINE
8
PFV
62
0
66
1
70
8
0
VERTEX
8
PFV
62
0
70
32
10
4.819048
20
2.400000
30
0
0
VERTEX
8
PFV
62
0
70
32
10
4.819048
20
2.428571
30
0
0
VERTEX
8
PFV
62
0
70
32
10
4.809524
20
2.438095
30
0
0
VERTEX
8
PFV
62
0
70
32
10
4.800000
20
2.438095
30
0
0
VERTEX
8
PFV
62
0
70
32
10
4.790476
20
2.447619
30
0
0
VERTEX
8
PFV
62
0
70
32
10
4.790476
20
2.476190
30
0
0
VERTEX
8
PFV
62
0
70
32
10
4.780952
20
2.485714
30
0
0
SEQEND
0
POLYLINE
8
PFV
62
0
66
1
70
8
0
VERTEX
8
PFV
62
0
70
32
10
4.847619
20
2.400000
30
0
0
VERTEX
8
PFV
62
0
70
32
10
4.847619
20
2.438095
30
0
0
VERTEX
8
PFV
62
0
70
32
10
4.933333
20
2.457143
30
0
0
VERTEX
8
PFV
62
0
70
32
10
4.942857
20
2.409524
30
0
0
SEQEND
0
POLYLINE
8
PFV
62
0
66
1
70
8
0
VERTEX
8
PFV
62
0
70
32
10
4.847619
20
2.400000
30
0
0
VERTEX
8
PFV
62
0
70
32
10
4.838095
20
2.409524
30
0
0
VERTEX
8
PFV
62
0
70
32
10
4.828571
20
2.419048
30
0
0
VERTEX
8
PFV
62
0
70
32
10
4.819048
20
2.419048
30
0
0
SEQEND
0
POLYLINE
8
PFV
62
0
66
1
70
8
0
VERTEX
8
PFV
62
0
70
32
10
5.047619
20
2.400000
30
0
0
VERTEX
8
PFV
62
0
70
32
10
5.047619
20
2.390476
30
0
0
SEQEND
0
POLYLINE
8
PFV
62
0
66
1
70
8
0
VERTEX
8
PFV
62
0
70
32
10
4.619048
20
2.409524
30
0
0
VERTEX
8
PFV
62
0
70
32
10
4.628571
20
2.409524
30
0
0
SEQEND
0
POLYLINE
8
PFV
62
0
66
1
70
8
0
VERTEX
8
PFV
62
0
70
32
10
4.619048
20
2.409524
30
0
0
VERTEX
8
PFV
62
0
70
32
10
4.609524
20
2.400000
30
0
0
VERTEX
8
PFV
62
0
70
32
10
4.609524
20
2.390476
30
0
0
SEQEND
0
POLYLINE
8
PFV
62
0
66
1
70
8
0
VERTEX
8
PFV
62
0
70
32
10
4.619048
20
2.409524
30
0
0
VERTEX
8
PFV
62
0
70
32
10
4.609524
20
2.419048
30
0
0
SEQEND
0
POLYLINE
8
PFV
62
0
66
1
70
8
0
VERTEX
8
PFV
62
0
70
32
10
4.657143
20
2.409524
30
0
0
VERTEX
8
PFV
62
0
70
32
10
4.657143
20
2.428571
30
0
0
SEQEND
0
POLYLINE
8
PFV
62
0
66
1
70
8
0
VERTEX
8
PFV
62
0
70
32
10
4.657143
20
2.409524
30
0
0
VERTEX
8
PFV
62
0
70
32
10
4.657143
20
2.400000
30
0
0
SEQEND
0
POLYLINE
8
PFV
62
0
66
1
70
8
0
VERTEX
8
PFV
62
0
70
32
10
4.980952
20
2.409524
30
0
0
VERTEX
8
PFV
62
0
70
32
10
4.980952
20
2.400000
30
0
0
SEQEND
0
POLYLINE
8
PFV
62
0
66
1
70
8
0
VERTEX
8
PFV
62
0
70
32
10
5.057143
20
2.409524
30
0
0
VERTEX
8
PFV
62
0
70
32
10
5.057143
20
2.438095
30
0
0
VERTEX
8
PFV
62
0
70
32
10
5.123810
20
2.447619
30
0
0
VERTEX
8
PFV
62
0
70
32
10
5.142857
20
2.457143
30
0
0
VERTEX
8
PFV
62
0
70
32
10
5.142857
20
2.438095
30
0
0
SEQEND
0
POLYLINE
8
PFV
62
0
66
1
70
8
0
VERTEX
8
PFV
62
0
70
32
10
5.057143
20
2.409524
30
0
0
VERTEX
8
PFV
62
0
70
32
10
5.047619
20
2.419048
30
0
0
SEQEND
0
POLYLINE
8
PFV
62
0
66
1
70
8
0
VERTEX
8
PFV
62
0
70
32
10
5.114286
20
2.409524
30
0
0
VERTEX
8
PFV
62
0
70
32
10
5.104762
20
2.409524
30
0
0
VERTEX
8
PFV
62
0
70
32
10
5.095238
20
2.419048
30
0
0
SEQEND
0
POLYLINE
8
PFV
62
0
66
1
70
8
0
VERTEX
8
PFV
62
0
70
32
10
5.114286
20
2.409524
30
0
0
VERTEX
8
PFV
62
0
70
32
10
5.123810
20
2.419048
30
0
0
VERTEX
8
PFV
62
0
70
32
10
5.123810
20
2.447619
30
0
0
SEQEND
0
POLYLINE
8
PFV
62
0
66
1
70
8
0
VERTEX
8
PFV
62
0
70
32
10
5.142857
20
2.409524
30
0
0
VERTEX
8
PFV
62
0
70
32
10
5.161905
20
2.409524
30
0
0
VERTEX
8
PFV
62
0
70
32
10
5.161905
20
2.438095
30
0
0
SEQEND
0
POLYLINE
8
PFV
62
0
66
1
70
8
0
VERTEX
8
PFV
62
0
70
32
10
5.142857
20
2.409524
30
0
0
VERTEX
8
PFV
62
0
70
32
10
5.133333
20
2.409524
30
0
0
SEQEND
0
POLYLINE
8
PFV
62
0
66
1
70
8
0
VERTEX
8
PFV
62
0
70
32
10
5.238095
20
2.409524
30
0
0
VERTEX
8
PFV
62
0
70
32
10
5.247619
20
2.409524
30
0
0
VERTEX
8
PFV
62
0
70
32
10
5.257143
20
2.419048
30
0
0
VERTEX
8
PFV
62
0
70
32
10
5.266667
20
2.419048
30
0
0
VERTEX
8
PFV
62
0
70
32
10
5.276190
20
2.409524
30
0
0
VERTEX
8
PFV
62
0
70
32
10
5.276190
20
2.390476
30
0
0
SEQEND
0
POLYLINE
8
PFV
62
0
66
1
70
8
0
VERTEX
8
PFV
62
0
70
32
10
4.695238
20
2.419048
30
0
0
VERTEX
8
PFV
62
0
70
32
10
4.704762
20
2.419048
30
0
0
VERTEX
8
PFV
62
0
70
32
10
4.714286
20
2.428571
30
0
0
VERTEX
8
PFV
62
0
70
32
10
4.723810
20
2.428571
30
0
0
SEQEND
0
POLYLINE
8
PFV
62
0
66
1
70
8
0
VERTEX
8
PFV
62
0
70
32
10
5.095238
20
2.419048
30
0
0
VERTEX
8
PFV
62
0
70
32
10
5.095238
20
2.428571
30
0
0
VERTEX
8
PFV
62
0
70
32
10
5.085714
20
2.419048
30
0
0
VERTEX
8
PFV
62
0
70
32
10
5.095238
20
2.419048
30
0
0
SEQEND
0
POLYLINE
8
PFV
62
0
66
1
70
8
0
VERTEX
8
PFV
62
0
70
32
10
5.209524
20
2.419048
30
0
0
VERTEX
8
PFV
62
0
70
32
10
5.200000
20
2.419048
30
0
0
VERTEX
8
PFV
62
0
70
32
10
5.190476
20
2.428571
30
0
0
SEQEND
0
POLYLINE
8
PFV
62
0
66
1
70
8
0
VERTEX
8
PFV
62
0
70
32
10
5.209524
20
2.419048
30
0
0
VERTEX
8
PFV
62
0
70
32
10
5.228571
20
2.447619
30
0
0
VERTEX
8
PFV
62
0
70
32
10
5.190476
20
2.447619
30
0
0
SEQEND
0
POLYLINE
8
PFV
62
0
66
1
70
8
0
VERTEX
8
PFV
62
0
70
32
10
4.885714
20
2.428571
30
0
0
VERTEX
8
PFV
62
0
70
32
10
4.904762
20
2.428571
30
0
0
VERTEX
8
PFV
62
0
70
32
10
4.914286
20
2.419048
30
0
0
VERTEX
8
PFV
62
0
70
32
10
4.933333
20
2.447619
30
0
0
SEQEND
0
POLYLINE
8
PFV
62
0
66
1
70
8
0
VERTEX
8
PFV
62
0
70
32
10
4.885714
20
2.428571
30
0
0
VERTEX
8
PFV
62
0
70
32
10
4.866667
20
2.428571
30
0
0
VERTEX
8
PFV
62
0
70
32
10
4.866667
20
2.447619
30
0
0
SEQEND
0
POLYLINE
8
PFV
62
0
66
1
70
8
0
VERTEX
8
PFV
62
0
70
32
10
4.971429
20
2.428571
30
0
0
VERTEX
8
PFV
62
0
70
32
10
4.971429
20
2.447619
30
0
0
VERTEX
8
PFV
62
0
70
32
10
4.980952
20
2.447619
30
0
0
VERTEX
8
PFV
62
0
70
32
10
4.990476
20
2.457143
30
0
0
VERTEX
8
PFV
62
0
70
32
10
5.019048
20
2.457143
30
0
0
VERTEX
8
PFV
62
0
70
32
10
5.019048
20
2.438095
30
0
0
SEQEND
0
POLYLINE
8
PFV
62
0
66
1
70
8
0
VERTEX
8
PFV
62
0
70
32
10
5.190476
20
2.428571
30
0
0
VERTEX
8
PFV
62
0
70
32
10
5.190476
20
2.447619
30
0
0
SEQEND
0
POLYLINE
8
PFV
62
0
66
1
70
8
0
VERTEX
8
PFV
62
0
70
32
10
5.323810
20
2.428571
30
0
0
VERTEX
8
PFV
62
0
70
32
10
5.304762
20
2.457143
30
0
0
VERTEX
8
PFV
62
0
70
32
10
5.257143
20
2.457143
30
0
0
VERTEX
8
PFV
62
0
70
32
10
5.257143
20
2.428571
30
0
0
VERTEX
8
PFV
62
0
70
32
10
5.285714
20
2.438095
30
0
0
VERTEX
8
PFV
62
0
70
32
10
5.285714
20
2.466667
30
0
0
SEQEND
0
POLYLINE
8
PFV
62
0
66
1
70
8
0
VERTEX
8
PFV
62
0
70
32
10
5.323810
20
2.428571
30
0
0
VERTEX
8
PFV
62
0
70
32
10
5.333333
20
2.428571
30
0
0
VERTEX
8
PFV
62
0
70
32
10
5.342857
20
2.419048
30
0
0
VERTEX
8
PFV
62
0
70
32
10
5.342857
20
2.400000
30
0
0
SEQEND
0
POLYLINE
8
PFV
62
0
66
1
70
8
0
VERTEX
8
PFV
62
0
70
32
10
5.323810
20
2.428571
30
0
0
VERTEX
8
PFV
62
0
70
32
10
5.314286
20
2.419048
30
0
0
VERTEX
8
PFV
62
0
70
32
10
5.314286
20
2.400000
30
0
0
SEQEND
0
POLYLINE
8
PFV
62
0
66
1
70
8
0
VERTEX
8
PFV
62
0
70
32
10
4.800000
20
2.438095
30
0
0
VERTEX
8
PFV
62
0
70
32
10
4.800000
20
2.447619
30
0
0
VERTEX
8
PFV
62
0
70
32
10
4.790476
20
2.457143
30
0
0
SEQEND
0
POLYLINE
8
PFV
62
0
66
1
70
8
0
VERTEX
8
PFV
62
0
70
32
10
4.800000
20
2.438095
30
0
0
VERTEX
8
PFV
62
0
70
32
10
4.771429
20
2.419048
30
0
0
VERTEX
8
PFV
62
0
70
32
10
4.761905
20
2.476190
30
0
0
VERTEX
8
PFV
62
0
70
32
10
4.704762
20
2.476190
30
0
0
VERTEX
8
PFV
62
0
70
32
10
4.704762
20
2.457143
30
0
0
SEQEND
0
POLYLINE
8
PFV
62
0
66
1
70
8
0
VERTEX
8
PFV
62
0
70
32
10
4.809524
20
2.438095
30
0
0
VERTEX
8
PFV
62
0
70
32
10
4.819048
20
2.447619
30
0
0
VERTEX
8
PFV
62
0
70
32
10
4.819048
20
2.457143
30
0
0
VERTEX
8
PFV
62
0
70
32
10
4.828571
20
2.466667
30
0
0
VERTEX
8
PFV
62
0
70
32
10
4.828571
20
2.476190
30
0
0
VERTEX
8
PFV
62
0
70
32
10
4.819048
20
2.485714
30
0
0
SEQEND
0
POLYLINE
8
PFV
62
0
66
1
70
8
0
VERTEX
8
PFV
62
0
70
32
10
5.019048
20
2.438095
30
0
0
VERTEX
8
PFV
62
0
70
32
10
5.028571
20
2.428571
30
0
0
SEQEND
0
POLYLINE
8
PFV
62
0
66
1
70
8
0
VERTEX
8
PFV
62
0
70
32
10
5.076190
20
2.438095
30
0
0
VERTEX
8
PFV
62
0
70
32
10
5.076190
20
2.457143
30
0
0
VERTEX
8
PFV
62
0
70
32
10
5.085714
20
2.466667
30
0
0
VERTEX
8
PFV
62
0
70
32
10
5.104762
20
2.466667
30
0
0
VERTEX
8
PFV
62
0
70
32
10
5.104762
20
2.447619
30
0
0
VERTEX
8
PFV
62
0
70
32
10
5.095238
20
2.438095
30
0
0
SEQEND
0
POLYLINE
8
PFV
62
0
66
1
70
8
0
VERTEX
8
PFV
62
0
70
32
10
5.142857
20
2.438095
30
0
0
VERTEX
8
PFV
62
0
70
32
10
5.142857
20
2.428571
30
0
0
SEQEND
0
POLYLINE
8
PFV
62
0
66
1
70
8
0
VERTEX
8
PFV
62
0
70
32
10
4.609524
20
2.447619
30
0
0
VERTEX
8
PFV
62
0
70
32
10
4.590476
20
2.447619
30
0
0
VERTEX
8
PFV
62
0
70
32
10
4.580952
20
2.457143
30
0
0
VERTEX
8
PFV
62
0
70
32
10
4.590476
20
2.466667
30
0
0
VERTEX
8
PFV
62
0
70
32
10
4.590476
20
2.476190
30
0
0
SEQEND
0
POLYLINE
8
PFV
62
0
66
1
70
8
0
VERTEX
8
PFV
62
0
70
32
10
4.723810
20
2.447619
30
0
0
VERTEX
8
PFV
62
0
70
32
10
4.733333
20
2.457143
30
0
0
VERTEX
8
PFV
62
0
70
32
10
4.733333
20
2.466667
30
0
0
SEQEND
0
POLYLINE
8
PFV
62
0
66
1
70
8
0
VERTEX
8
PFV
62
0
70
32
10
4.857143
20
2.447619
30
0
0
VERTEX
8
PFV
62
0
70
32
10
4.857143
20
2.457143
30
0
0
VERTEX
8
PFV
62
0
70
32
10
4.828571
20
2.457143
30
0
0
SEQEND
0
POLYLINE
8
PFV
62
0
66
1
70
8
0
VERTEX
8
PFV
62
0
70
32
10
4.971429
20
2.447619
30
0
0
VERTEX
8
PFV
62
0
70
32
10
4.952381
20
2.447619
30
0
0
SEQEND
0
POLYLINE
8
PFV
62
0
66
1
70
8
0
VERTEX
8
PFV
62
0
70
32
10
5.123810
20
2.447619
30
0
0
VERTEX
8
PFV
62
0
70
32
10
5.123810
20
2.457143
30
0
0
SEQEND
0
POLYLINE
8
PFV
62
0
66
1
70
8
0
VERTEX
8
PFV
62
0
70
32
10
5.323810
20
2.447619
30
0
0
VERTEX
8
PFV
62
0
70
32
10
5.361905
20
2.447619
30
0
0
VERTEX
8
PFV
62
0
70
32
10
5.361905
20
2.438095
30
0
0
VERTEX
8
PFV
62
0
70
32
10
5.371429
20
2.428571
30
0
0
SEQEND
0
POLYLINE
8
PFV
62
0
66
1
70
8
0
VERTEX
8
PFV
62
0
70
32
10
5.352381
20
2.447619
30
0
0
VERTEX
8
PFV
62
0
70
32
10
5.352381
20
2.476190
30
0
0
SEQEND
0
POLYLINE
8
PFV
62
0
66
1
70
8
0
VERTEX
8
PFV
62
0
70
32
10
4.628571
20
2.457143
30
0
0
VERTEX
8
PFV
62
0
70
32
10
4.638095
20
2.485714
30
0
0
VERTEX
8
PFV
62
0
70
32
10
4.666667
20
2.466667
30
0
0
VERTEX
8
PFV
62
0
70
32
10
4.676190
20
2.485714
30
0
0
SEQEND
0
POLYLINE
8
PFV
62
0
66
1
70
8
0
VERTEX
8
PFV
62
0
70
32
10
4.771429
20
2.457143
30
0
0
VERTEX
8
PFV
62
0
70
32
10
4.790476
20
2.457143
30
0
0
SEQEND
0
POLYLINE
8
PFV
62
0
66
1
70
8
0
VERTEX
8
PFV
62
0
70
32
10
4.904762
20
2.457143
30
0
0
VERTEX
8
PFV
62
0
70
32
10
4.904762
20
2.485714
30
0
0
SEQEND
0
POLYLINE
8
PFV
62
0
66
1
70
8
0
VERTEX
8
PFV
62
0
70
32
10
4.990476
20
2.457143
30
0
0
VERTEX
8
PFV
62
0
70
32
10
4.990476
20
2.466667
30
0
0
VERTEX
8
PFV
62
0
70
32
10
4.980952
20
2.476190
30
0
0
SEQEND
0
POLYLINE
8
PFV
62
0
66
1
70
8
0
VERTEX
8
PFV
62
0
70
32
10
5.076190
20
2.457143
30
0
0
VERTEX
8
PFV
62
0
70
32
10
5.085714
20
2.457143
30
0
0
SEQEND
0
POLYLINE
8
PFV
62
0
66
1
70
8
0
VERTEX
8
PFV
62
0
70
32
10
5.076190
20
2.457143
30
0
0
VERTEX
8
PFV
62
0
70
32
10
5.066667
20
2.457143
30
0
0
VERTEX
8
PFV
62
0
70
32
10
5.066667
20
2.485714
30
0
0
SEQEND
0
POLYLINE
8
PFV
62
0
66
1
70
8
0
VERTEX
8
PFV
62
0
70
32
10
5.142857
20
2.457143
30
0
0
VERTEX
8
PFV
62
0
70
32
10
5.142857
20
2.476190
30
0
0
SEQEND
0
POLYLINE
8
PFV
62
0
66
1
70
8
0
VERTEX
8
PFV
62
0
70
32
10
4.752381
20
2.476190
30
0
0
VERTEX
8
PFV
62
0
70
32
10
4.752381
20
2.485714
30
0
0
VERTEX
8
PFV
62
0
70
32
10
4.742857
20
2.495238
30
0
0
SEQEND
0
POLYLINE
8
PFV
62
0
66
1
70
8
0
VERTEX
8
PFV
62
0
70
32
10
7.352381
20
2.714286
30
0
0
VERTEX
8
PFV
62
0
70
32
10
7.361905
20
2.771429
30
0
0
VERTEX
8
PFV
62
0
70
32
10
7.371429
20
2.771429
30
0
0
VERTEX
8
PFV
62
0
70
32
10
7.390476
20
2.742857
30
0
0
VERTEX
8
PFV
62
0
70
32
10
7.390476
20
2.685714
30
0
0
SEQEND
0
POLYLINE
8
PFV
62
0
66
1
70
8
0
VERTEX
8
PFV
62
0
70
32
10
7.352381
20
2.714286
30
0
0
VERTEX
8
PFV
62
0
70
32
10
7.380952
20
2.714286
30
0
0
VERTEX
8
PFV
62
0
70
32
10
7.371429
20
2.723810
30
0
0
VERTEX
8
PFV
62
0
70
32
10
7.380952
20
2.733333
30
0
0
VERTEX
8
PFV
62
0
70
32
10
7.390476
20
2.733333
30
0
0
SEQEND
0
POLYLINE
8
PFV
62
0
66
1
70
8
0
VERTEX
8
PFV
62
0
70
32
10
7.352381
20
2.714286
30
0
0
VERTEX
8
PFV
62
0
70
32
10
7.352381
20
2.647619
30
0
0
SEQEND
0
POLYLINE
8
PFV
62
0
66
1
70
8
0
VERTEX
8
PFV
62
0
70
32
10
7.371429
20
2.771429
30
0
0
VERTEX
8
PFV
62
0
70
32
10
7.371429
20
2.809524
30
0
0
VERTEX
8
PFV
62
0
70
32
10
7.371429
20
2.790476
30
0
0
SEQEND
0
POLYLINE
8
PFV
62
0
66
1
70
8
0
VERTEX
8
PFV
62
0
70
32
10
7.371429
20
2.771429
30
0
0
VERTEX
8
PFV
62
0
70
32
10
7.371429
20
2.761905
30
0
0
SEQEND
0
POLYLINE
8
PFV
62
0
66
1
70
8
0
VERTEX
8
PFV
62
0
70
32
10
7.371429
20
2.790476
30
0
0
VERTEX
8
PFV
62
0
70
32
10
7.380952
20
2.790476
30
0
0
SEQEND
0
POLYLINE
8
PFV
62
0
66
1
70
8
0
VERTEX
8
PFV
62
0
70
32
10
5.133333
20
5.009524
30
0
0
VERTEX
8
PFV
62
0
70
32
10
5.133333
20
4.990476
30
0
0
VERTEX
8
PFV
62
0
70
32
10
5.142857
20
4.980952
30
0
0
VERTEX
8
PFV
62
0
70
32
10
5.152381
20
4.971429
30
0
0
SEQEND
0
POLYLINE
8
PFV
62
0
66
1
70
8
0
VERTEX
8
PFV
62
0
70
32
10
5.133333
20
5.009524
30
0
0
VERTEX
8
PFV
62
0
70
32
10
5.142857
20
5.019048
30
0
0
VERTEX
8
PFV
62
0
70
32
10
5.161905
20
5.019048
30
0
0
VERTEX
8
PFV
62
0
70
32
10
5.171429
20
5.009524
30
0
0
VERTEX
8
PFV
62
0
70
32
10
5.171429
20
4.990476
30
0
0
VERTEX
8
PFV
62
0
70
32
10
5.180952
20
4.980952
30
0
0
VERTEX
8
PFV
62
0
70
32
10
5.190476
20
4.971429
30
0
0
SEQEND
0
POLYLINE
8
PFV
62
0
66
1
70
8
0
VERTEX
8
PFV
62
0
70
32
10
5.133333
20
5.009524
30
0
0
VERTEX
8
PFV
62
0
70
32
10
5.123810
20
5.019048
30
0
0
VERTEX
8
PFV
62
0
70
32
10
5.114286
20
5.028571
30
0
0
SEQEND
0
POLYLINE
8
PFV
62
0
66
1
70
8
0
VERTEX
8
PFV
62
0
70
32
10
5.171429
20
5.009524
30
0
0
VERTEX
8
PFV
62
0
70
32
10
5.238095
20
5.019048
30
0
0
VERTEX
8
PFV
62
0
70
32
10
5.238095
20
5.047619
30
0
0
VERTEX
8
PFV
62
0
70
32
10
5.219048
20
5.047619
30
0
0
SEQEND
0
POLYLINE
8
PFV
62
0
66
1
70
8
0
VERTEX
8
PFV
62
0
70
32
10
4.838095
20
0.028571
30
0
0
VERTEX
8
PFV
62
0
70
32
10
5.685714
20
0.047619
30
0
0
VERTEX
8
PFV
62
0
70
32
10
6.457143
20
0.123810
30
0
0
VERTEX
8
PFV
62
0
70
32
10
7.095238
20
0.238095
30
0
0
VERTEX
8
PFV
62
0
70
32
10
7.542857
20
0.361905
30
0
0
VERTEX
8
PFV
62
0
70
32
10
7.895238
20
0.504762
30
0
0
VERTEX
8
PFV
62
0
70
32
10
8.114286
20
0.657143
30
0
0
VERTEX
8
PFV
62
0
70
32
10
8.733333
20
1.247619
30
0
0
VERTEX
8
PFV
62
0
70
32
10
8.752381
20
1.733333
30
0
0
VERTEX
8
PFV
62
0
70
32
10
8.914286
20
2.190476
30
0
0
VERTEX
8
PFV
62
0
70
32
10
9.266667
20
2.780952
30
0
0
VERTEX
8
PFV
62
0
70
32
10
9.580952
20
3.400000
30
0
0
VERTEX
8
PFV
62
0
70
32
10
9.809524
20
3.980952
30
0
0
VERTEX
8
PFV
62
0
70
32
10
9.933333
20
4.428571
30
0
0
VERTEX
8
PFV
62
0
70
32
10
9.990476
20
4.876190
30
0
0
VERTEX
8
PFV
62
0
70
32
10
9.980952
20
5.209524
30
0
0
VERTEX
8
PFV
62
0
70
32
10
9.904762
20
5.619048
30
0
0
VERTEX
8
PFV
62
0
70
32
10
9.723810
20
6.180952
30
0
0
VERTEX
8
PFV
62
0
70
32
10
9.523810
20
6.628571
30
0
0
VERTEX
8
PFV
62
0
70
32
10
8.933333
20
6.752381
30
0
0
VERTEX
8
PFV
62
0
70
32
10
7.971429
20
6.885714
30
0
0
VERTEX
8
PFV
62
0
70
32
10
6.952381
20
6.980952
30
0
0
VERTEX
8
PFV
62
0
70
32
10
6.019048
20
7.028571
30
0
0
VERTEX
8
PFV
62
0
70
32
10
4.133333
20
7.028571
30
0
0
VERTEX
8
PFV
62
0
70
32
10
2.961905
20
6.961905
30
0
0
VERTEX
8
PFV
62
0
70
32
10
1.847619
20
6.847619
30
0
0
VERTEX
8
PFV
62
0
70
32
10
0.876190
20
6.695238
30
0
0
VERTEX
8
PFV
62
0
70
32
10
0.476190
20
6.609524
30
0
0
VERTEX
8
PFV
62
0
70
32
10
0.228571
20
6.009524
30
0
0
VERTEX
8
PFV
62
0
70
32
10
0.085714
20
5.514286
30
0
0
VERTEX
8
PFV
62
0
70
32
10
0.028571
20
5.190476
30
0
0
VERTEX
8
PFV
62
0
70
32
10
0.028571
20
4.704762
30
0
0
VERTEX
8
PFV
62
0
70
32
10
0.095238
20
4.285714
30
0
0
VERTEX
8
PFV
62
0
70
32
10
0.247619
20
3.790476
30
0
0
VERTEX
8
PFV
62
0
70
32
10
0.466667
20
3.257143
30
0
0
VERTEX
8
PFV
62
0
70
32
10
0.800000
20
2.619048
30
0
0
VERTEX
8
PFV
62
0
70
32
10
1.095238
20
2.133333
30
0
0
VERTEX
8
PFV
62
0
70
32
10
1.104762
20
2.133333
30
0
0
VERTEX
8
PFV
62
0
70
32
10
1.285714
20
1.619048
30
0
0
VERTEX
8
PFV
62
0
70
32
10
1.295238
20
1.285714
30
0
0
VERTEX
8
PFV
62
0
70
32
10
1.380952
20
1.200000
30
0
0
VERTEX
8
PFV
62
0
70
32
10
1.400000
20
1.200000
30
0
0
VERTEX
8
PFV
62
0
70
32
10
1.542857
20
1.057143
30
0
0
VERTEX
8
PFV
62
0
70
32
10
1.552381
20
1.057143
30
0
0
VERTEX
8
PFV
62
0
70
32
10
1.695238
20
0.914286
30
0
0
VERTEX
8
PFV
62
0
70
32
10
1.704762
20
0.914286
30
0
0
VERTEX
8
PFV
62
0
70
32
10
1.828571
20
0.780952
30
0
0
VERTEX
8
PFV
62
0
70
32
10
1.847619
20
0.780952
30
0
0
VERTEX
8
PFV
62
0
70
32
10
1.971429
20
0.647619
30
0
0
VERTEX
8
PFV
62
0
70
32
10
1.990476
20
0.647619
30
0
0
VERTEX
8
PFV
62
0
70
32
10
2.104762
20
0.552381
30
0
0
VERTEX
8
PFV
62
0
70
32
10
2.114286
20
0.552381
30
0
0
VERTEX
8
PFV
62
0
70
32
10
2.352381
20
0.428571
30
0
0
VERTEX
8
PFV
62
0
70
32
10
2.371429
20
0.428571
30
0
0
VERTEX
8
PFV
62
0
70
32
10
2.676190
20
0.314286
30
0
0
VERTEX
8
PFV
62
0
70
32
10
2.695238
20
0.314286
30
0
0
VERTEX
8
PFV
62
0
70
32
10
3.057143
20
0.219048
30
0
0
VERTEX
8
PFV
62
0
70
32
10
3.095238
20
0.219048
30
0
0
VERTEX
8
PFV
62
0
70
32
10
3.466667
20
0.142857
30
0
0
VERTEX
8
PFV
62
0
70
32
10
3.523810
20
0.142857
30
0
0
VERTEX
8
PFV
62
0
70
32
10
3.904762
20
0.085714
30
0
0
VERTEX
8
PFV
62
0
70
32
10
3.990476
20
0.085714
30
0
0
VERTEX
8
PFV
62
0
70
32
10
4.371429
20
0.047619
30
0
0
VERTEX
8
PFV
62
0
70
32
10
4.533333
20
0.047619
30
0
0
VERTEX
8
PFV
62
0
70
32
10
4.838095
20
0.028571
30
0
0
SEQEND
0
POLYLINE
8
PFV
62
0
66
1
70
8
0
VERTEX
8
PFV
62
0
70
32
10
5.380952
20
0.695238
30
0
0
VERTEX
8
PFV
62
0
70
32
10
5.419048
20
0.695238
30
0
0
SEQEND
0
POLYLINE
8
PFV
62
0
66
1
70
8
0
VERTEX
8
PFV
62
0
70
32
10
5.466667
20
0.704762
30
0
0
VERTEX
8
PFV
62
0
70
32
10
5.495238
20
0.704762
30
0
0
SEQEND
0
POLYLINE
8
PFV
62
0
66
1
70
8
0
VERTEX
8
PFV
62
0
70
32
10
4.333333
20
0.714286
30
0
0
VERTEX
8
PFV
62
0
70
32
10
4.352381
20
0.714286
30
0
0
SEQEND
0
POLYLINE
8
PFV
62
0
66
1
70
8
0
VERTEX
8
PFV
62
0
70
32
10
5.552381
20
0.714286
30
0
0
VERTEX
8
PFV
62
0
70
32
10
5.590476
20
0.714286
30
0
0
SEQEND
0
POLYLINE
8
PFV
62
0
66
1
70
8
0
VERTEX
8
PFV
62
0
70
32
10
4.257143
20
0.723810
30
0
0
VERTEX
8
PFV
62
0
70
32
10
4.304762
20
0.723810
30
0
0
SEQEND
0
POLYLINE
8
PFV
62
0
66
1
70
8
0
VERTEX
8
PFV
62
0
70
32
10
5.609524
20
0.723810
30
0
0
VERTEX
8
PFV
62
0
70
32
10
5.666667
20
0.723810
30
0
0
VERTEX
8
PFV
62
0
70
32
10
5.676190
20
0.733333
30
0
0
VERTEX
8
PFV
62
0
70
32
10
5.723810
20
0.733333
30
0
0
SEQEND
0
POLYLINE
8
PFV
62
0
66
1
70
8
0
VERTEX
8
PFV
62
0
70
32
10
4.200000
20
0.733333
30
0
0
VERTEX
8
PFV
62
0
70
32
10
4.238095
20
0.733333
30
0
0
SEQEND
0
POLYLINE
8
PFV
62
0
66
1
70
8
0
VERTEX
8
PFV
62
0
70
32
10
4.200000
20
0.733333
30
0
0
VERTEX
8
PFV
62
0
70
32
10
4.190476
20
0.742857
30
0
0
VERTEX
8
PFV
62
0
70
32
10
4.142857
20
0.742857
30
0
0
VERTEX
8
PFV
62
0
70
32
10
4.133333
20
0.752381
30
0
0
VERTEX
8
PFV
62
0
70
32
10
4.095238
20
0.752381
30
0
0
VERTEX
8
PFV
62
0
70
32
10
4.085714
20
0.761905
30
0
0
VERTEX
8
PFV
62
0
70
32
10
4.057143
20
0.761905
30
0
0
SEQEND
0
POLYLINE
8
PFV
62
0
66
1
70
8
0
VERTEX
8
PFV
62
0
70
32
10
4.057143
20
0.790476
30
0
0
VERTEX
8
PFV
62
0
70
32
10
4.066667
20
0.790476
30
0
0
SEQEND
0
POLYLINE
8
PFV
62
0
66
1
70
8
0
VERTEX
8
PFV
62
0
70
32
10
5.619048
20
0.809524
30
0
0
VERTEX
8
PFV
62
0
70
32
10
5.638095
20
0.809524
30
0
0
SEQEND
0
POLYLINE
8
PFV
62
0
66
1
70
8
0
VERTEX
8
PFV
62
0
70
32
10
5.104762
20
0.819048
30
0
0
VERTEX
8
PFV
62
0
70
32
10
5.114286
20
0.819048
30
0
0
SEQEND
0
POLYLINE
8
PFV
62
0
66
1
70
8
0
VERTEX
8
PFV
62
0
70
32
10
5.676190
20
0.819048
30
0
0
VERTEX
8
PFV
62
0
70
32
10
5.704762
20
0.819048
30
0
0
SEQEND
0
POLYLINE
8
PFV
62
0
66
1
70
8
0
VERTEX
8
PFV
62
0
70
32
10
5.733333
20
0.828571
30
0
0
VERTEX
8
PFV
62
0
70
32
10
5.761905
20
0.828571
30
0
0
SEQEND
0
POLYLINE
8
PFV
62
0
66
1
70
8
0
VERTEX
8
PFV
62
0
70
32
10
5.780952
20
0.838095
30
0
0
VERTEX
8
PFV
62
0
70
32
10
5.809524
20
0.838095
30
0
0
SEQEND
0
POLYLINE
8
PFV
62
0
66
1
70
8
0
VERTEX
8
PFV
62
0
70
32
10
4.066667
20
0.847619
30
0
0
VERTEX
8
PFV
62
0
70
32
10
4.171429
20
0.847619
30
0
0
SEQEND
0
POLYLINE
8
PFV
62
0
66
1
70
8
0
VERTEX
8
PFV
62
0
70
32
10
4.980952
20
0.847619
30
0
0
VERTEX
8
PFV
62
0
70
32
10
4.990476
20
0.847619
30
0
0
SEQEND
0
POLYLINE
8
PFV
62
0
66
1
70
8
0
VERTEX
8
PFV
62
0
70
32
10
5.828571
20
0.847619
30
0
0
VERTEX
8
PFV
62
0
70
32
10
5.847619
20
0.847619
30
0
0
SEQEND
0
POLYLINE
8
PFV
62
0
66
1
70
8
0
VERTEX
8
PFV
62
0
70
32
10
4.000000
20
0.857143
30
0
0
VERTEX
8
PFV
62
0
70
32
10
4.000000
20
0.866667
30
0
0
SEQEND
0
POLYLINE
8
PFV
62
0
66
1
70
8
0
VERTEX
8
PFV
62
0
70
32
10
4.019048
20
0.866667
30
0
0
VERTEX
8
PFV
62
0
70
32
10
4.038095
20
0.866667
30
0
0
SEQEND
0
POLYLINE
8
PFV
62
0
66
1
70
8
0
VERTEX
8
PFV
62
0
70
32
10
4.076190
20
0.876190
30
0
0
VERTEX
8
PFV
62
0
70
32
10
4.142857
20
0.876190
30
0
0
SEQEND
0
POLYLINE
8
PFV
62
0
66
1
70
8
0
VERTEX
8
PFV
62
0
70
32
10
5.828571
20
0.876190
30
0
0
VERTEX
8
PFV
62
0
70
32
10
5.838095
20
0.876190
30
0
0
SEQEND
0
POLYLINE
8
PFV
62
0
66
1
70
8
0
VERTEX
8
PFV
62
0
70
32
10
4.161905
20
0.885714
30
0
0
VERTEX
8
PFV
62
0
70
32
10
4.171429
20
0.885714
30
0
0
SEQEND
0
POLYLINE
8
PFV
62
0
66
1
70
8
0
VERTEX
8
PFV
62
0
70
32
10
5.857143
20
0.885714
30
0
0
VERTEX
8
PFV
62
0
70
32
10
5.857143
20
0.914286
30
0
0
SEQEND
0
POLYLINE
8
PFV
62
0
66
1
70
8
0
VERTEX
8
PFV
62
0
70
32
10
4.057143
20
0.895238
30
0
0
VERTEX
8
PFV
62
0
70
32
10
4.057143
20
0.904762
30
0
0
VERTEX
8
PFV
62
0
70
32
10
4.066667
20
0.914286
30
0
0
SEQEND
0
POLYLINE
8
PFV
62
0
66
1
70
8
0
VERTEX
8
PFV
62
0
70
32
10
4.190476
20
0.895238
30
0
0
VERTEX
8
PFV
62
0
70
32
10
4.200000
20
0.895238
30
0
0
SEQEND
0
POLYLINE
8
PFV
62
0
66
1
70
8
0
VERTEX
8
PFV
62
0
70
32
10
4.219048
20
0.904762
30
0
0
VERTEX
8
PFV
62
0
70
32
10
4.228571
20
0.914286
30
0
0
VERTEX
8
PFV
62
0
70
32
10
4.238095
20
0.923810
30
0
0
VERTEX
8
PFV
62
0
70
32
10
4.247619
20
0.933333
30
0
0
SEQEND
0
POLYLINE
8
PFV
62
0
66
1
70
8
0
VERTEX
8
PFV
62
0
70
32
10
5.180952
20
0.904762
30
0
0
VERTEX
8
PFV
62
0
70
32
10
5.190476
20
0.904762
30
0
0
SEQEND
0
POLYLINE
8
PFV
62
0
66
1
70
8
0
VERTEX
8
PFV
62
0
70
32
10
5.514286
20
0.904762
30
0
0
VERTEX
8
PFV
62
0
70
32
10
5.523810
20
0.904762
30
0
0
SEQEND
0
POLYLINE
8
PFV
62
0
66
1
70
8
0
VERTEX
8
PFV
62
0
70
32
10
4.019048
20
0.914286
30
0
0
VERTEX
8
PFV
62
0
70
32
10
4.038095
20
0.914286
30
0
0
SEQEND
0
POLYLINE
8
PFV
62
0
66
1
70
8
0
VERTEX
8
PFV
62
0
70
32
10
4.352381
20
0.923810
30
0
0
VERTEX
8
PFV
62
0
70
32
10
4.361905
20
0.933333
30
0
0
VERTEX
8
PFV
62
0
70
32
10
4.371429
20
0.942857
30
0
0
SEQEND
0
POLYLINE
8
PFV
62
0
66
1
70
8
0
VERTEX
8
PFV
62
0
70
32
10
5.447619
20
0.923810
30
0
0
VERTEX
8
PFV
62
0
70
32
10
5.457143
20
0.923810
30
0
0
SEQEND
0
POLYLINE
8
PFV
62
0
66
1
70
8
0
VERTEX
8
PFV
62
0
70
32
10
5.657143
20
0.923810
30
0
0
VERTEX
8
PFV
62
0
70
32
10
5.666667
20
0.923810
30
0
0
SEQEND
0
POLYLINE
8
PFV
62
0
66
1
70
8
0
VERTEX
8
PFV
62
0
70
32
10
5.723810
20
0.933333
30
0
0
VERTEX
8
PFV
62
0
70
32
10
5.742857
20
0.933333
30
0
0
SEQEND
0
POLYLINE
8
PFV
62
0
66
1
70
8
0
VERTEX
8
PFV
62
0
70
32
10
5.580952
20
0.942857
30
0
0
VERTEX
8
PFV
62
0
70
32
10
5.609524
20
0.942857
30
0
0
SEQEND
0
POLYLINE
8
PFV
62
0
66
1
70
8
0
VERTEX
8
PFV
62
0
70
32
10
5.771429
20
0.942857
30
0
0
VERTEX
8
PFV
62
0
70
32
10
5.800000
20
0.942857
30
0
0
SEQEND
0
POLYLINE
8
PFV
62
0
66
1
70
8
0
VERTEX
8
PFV
62
0
70
32
10
5.647619
20
0.952381
30
0
0
VERTEX
8
PFV
62
0
70
32
10
5.657143
20
0.952381
30
0
0
SEQEND
0
POLYLINE
8
PFV
62
0
66
1
70
8
0
VERTEX
8
PFV
62
0
70
32
10
5.819048
20
0.952381
30
0
0
VERTEX
8
PFV
62
0
70
32
10
5.838095
20
0.952381
30
0
0
SEQEND
0
POLYLINE
8
PFV
62
0
66
1
70
8
0
VERTEX
8
PFV
62
0
70
32
10
5.714286
20
0.961905
30
0
0
VERTEX
8
PFV
62
0
70
32
10
5.742857
20
0.961905
30
0
0
SEQEND
0
POLYLINE
8
PFV
62
0
66
1
70
8
0
VERTEX
8
PFV
62
0
70
32
10
5.590476
20
0.971429
30
0
0
VERTEX
8
PFV
62
0
70
32
10
5.590476
20
0.980952
30
0
0
VERTEX
8
PFV
62
0
70
32
10
5.600000
20
0.990476
30
0
0
VERTEX
8
PFV
62
0
70
32
10
5.609524
20
0.990476
30
0
0
SEQEND
0
POLYLINE
8
PFV
62
0
66
1
70
8
0
VERTEX
8
PFV
62
0
70
32
10
4.038095
20
0.980952
30
0
0
VERTEX
8
PFV
62
0
70
32
10
4.047619
20
0.980952
30
0
0
SEQEND
0
POLYLINE
8
PFV
62
0
66
1
70
8
0
VERTEX
8
PFV
62
0
70
32
10
5.457143
20
0.980952
30
0
0
VERTEX
8
PFV
62
0
70
32
10
5.466667
20
0.980952
30
0
0
SEQEND
0
POLYLINE
8
PFV
62
0
66
1
70
8
0
VERTEX
8
PFV
62
0
70
32
10
5.723810
20
1.000000
30
0
0
VERTEX
8
PFV
62
0
70
32
10
5.733333
20
1.009524
30
0
0
SEQEND
0
POLYLINE
8
PFV
62
0
66
1
70
8
0
VERTEX
8
PFV
62
0
70
32
10
5.752381
20
1.000000
30
0
0
VERTEX
8
PFV
62
0
70
32
10
5.752381
20
1.009524
30
0
0
SEQEND
0
POLYLINE
8
PFV
62
0
66
1
70
8
0
VERTEX
8
PFV
62
0
70
32
10
3.980952
20
1.009524
30
0
0
VERTEX
8
PFV
62
0
70
32
10
3.980952
20
1.019048
30
0
0
SEQEND
0
POLYLINE
8
PFV
62
0
66
1
70
8
0
VERTEX
8
PFV
62
0
70
32
10
4.085714
20
1.009524
30
0
0
VERTEX
8
PFV
62
0
70
32
10
4.085714
20
1.028571
30
0
0
SEQEND
0
POLYLINE
8
PFV
62
0
66
1
70
8
0
VERTEX
8
PFV
62
0
70
32
10
5.457143
20
1.009524
30
0
0
VERTEX
8
PFV
62
0
70
32
10
5.476190
20
1.009524
30
0
0
SEQEND
0
POLYLINE
8
PFV
62
0
66
1
70
8
0
VERTEX
8
PFV
62
0
70
32
10
5.600000
20
1.019048
30
0
0
VERTEX
8
PFV
62
0
70
32
10
5.609524
20
1.028571
30
0
0
SEQEND
0
POLYLINE
8
PFV
62
0
66
1
70
8
0
VERTEX
8
PFV
62
0
70
32
10
5.600000
20
1.019048
30
0
0
VERTEX
8
PFV
62
0
70
32
10
5.590476
20
1.028571
30
0
0
SEQEND
0
POLYLINE
8
PFV
62
0
66
1
70
8
0
VERTEX
8
PFV
62
0
70
32
10
4.295238
20
1.047619
30
0
0
VERTEX
8
PFV
62
0
70
32
10
4.304762
20
1.047619
30
0
0
SEQEND
0
POLYLINE
8
PFV
62
0
66
1
70
8
0
VERTEX
8
PFV
62
0
70
32
10
5.457143
20
1.047619
30
0
0
VERTEX
8
PFV
62
0
70
32
10
5.485714
20
1.047619
30
0
0
SEQEND
0
POLYLINE
8
PFV
62
0
66
1
70
8
0
VERTEX
8
PFV
62
0
70
32
10
5.780952
20
1.047619
30
0
0
VERTEX
8
PFV
62
0
70
32
10
5.780952
20
1.057143
30
0
0
SEQEND
0
POLYLINE
8
PFV
62
0
66
1
70
8
0
VERTEX
8
PFV
62
0
70
32
10
4.123810
20
1.057143
30
0
0
VERTEX
8
PFV
62
0
70
32
10
4.133333
20
1.066667
30
0
0
SEQEND
0
POLYLINE
8
PFV
62
0
66
1
70
8
0
VERTEX
8
PFV
62
0
70
32
10
4.247619
20
1.057143
30
0
0
VERTEX
8
PFV
62
0
70
32
10
4.276190
20
1.057143
30
0
0
SEQEND
0
POLYLINE
8
PFV
62
0
66
1
70
8
0
VERTEX
8
PFV
62
0
70
32
10
4.247619
20
1.057143
30
0
0
VERTEX
8
PFV
62
0
70
32
10
4.238095
20
1.066667
30
0
0
VERTEX
8
PFV
62
0
70
32
10
4.180952
20
1.066667
30
0
0
SEQEND
0
POLYLINE
8
PFV
62
0
66
1
70
8
0
VERTEX
8
PFV
62
0
70
32
10
5.542857
20
1.057143
30
0
0
VERTEX
8
PFV
62
0
70
32
10
5.552381
20
1.057143
30
0
0
SEQEND
0
POLYLINE
8
PFV
62
0
66
1
70
8
0
VERTEX
8
PFV
62
0
70
32
10
4.152381
20
1.066667
30
0
0
VERTEX
8
PFV
62
0
70
32
10
4.161905
20
1.066667
30
0
0
SEQEND
0
POLYLINE
8
PFV
62
0
66
1
70
8
0
VERTEX
8
PFV
62
0
70
32
10
5.600000
20
1.066667
30
0
0
VERTEX
8
PFV
62
0
70
32
10
5.638095
20
1.066667
30
0
0
SEQEND
0
POLYLINE
8
PFV
62
0
66
1
70
8
0
VERTEX
8
PFV
62
0
70
32
10
5.676190
20
1.076190
30
0
0
VERTEX
8
PFV
62
0
70
32
10
5.714286
20
1.076190
30
0
0
SEQEND
0
POLYLINE
8
PFV
62
0
66
1
70
8
0
VERTEX
8
PFV
62
0
70
32
10
5.733333
20
1.085714
30
0
0
VERTEX
8
PFV
62
0
70
32
10
5.761905
20
1.085714
30
0
0
SEQEND
0
POLYLINE
8
PFV
62
0
66
1
70
8
0
VERTEX
8
PFV
62
0
70
32
10
4.123810
20
1.095238
30
0
0
VERTEX
8
PFV
62
0
70
32
10
4.133333
20
1.095238
30
0
0
SEQEND
0
POLYLINE
8
PFV
62
0
66
1
70
8
0
VERTEX
8
PFV
62
0
70
32
10
5.790476
20
1.095238
30
0
0
VERTEX
8
PFV
62
0
70
32
10
5.809524
20
1.095238
30
0
0
SEQEND
0
POLYLINE
8
PFV
62
0
66
1
70
8
0
VERTEX
8
PFV
62
0
70
32
10
5.838095
20
1.104762
30
0
0
VERTEX
8
PFV
62
0
70
32
10
5.857143
20
1.104762
30
0
0
SEQEND
0
POLYLINE
8
PFV
62
0
66
1
70
8
0
VERTEX
8
PFV
62
0
70
32
10
4.371429
20
1.114286
30
0
0
VERTEX
8
PFV
62
0
70
32
10
4.380952
20
1.114286
30
0
0
SEQEND
0
POLYLINE
8
PFV
62
0
66
1
70
8
0
VERTEX
8
PFV
62
0
70
32
10
5.723810
20
1.114286
30
0
0
VERTEX
8
PFV
62
0
70
32
10
5.733333
20
1.114286
30
0
0
SEQEND
0
POLYLINE
8
PFV
62
0
66
1
70
8
0
VERTEX
8
PFV
62
0
70
32
10
4.285714
20
1.123810
30
0
0
VERTEX
8
PFV
62
0
70
32
10
4.304762
20
1.123810
30
0
0
SEQEND
0
POLYLINE
8
PFV
62
0
66
1
70
8
0
VERTEX
8
PFV
62
0
70
32
10
5.780952
20
1.123810
30
0
0
VERTEX
8
PFV
62
0
70
32
10
5.790476
20
1.123810
30
0
0
SEQEND
0
POLYLINE
8
PFV
62
0
66
1
70
8
0
VERTEX
8
PFV
62
0
70
32
10
3.971429
20
1.133333
30
0
0
VERTEX
8
PFV
62
0
70
32
10
3.971429
20
1.161905
30
0
0
SEQEND
0
POLYLINE
8
PFV
62
0
66
1
70
8
0
VERTEX
8
PFV
62
0
70
32
10
5.838095
20
1.133333
30
0
0
VERTEX
8
PFV
62
0
70
32
10
5.847619
20
1.133333
30
0
0
SEQEND
0
POLYLINE
8
PFV
62
0
66
1
70
8
0
VERTEX
8
PFV
62
0
70
32
10
4.000000
20
1.171429
30
0
0
VERTEX
8
PFV
62
0
70
32
10
4.028571
20
1.171429
30
0
0
SEQEND
0
POLYLINE
8
PFV
62
0
66
1
70
8
0
VERTEX
8
PFV
62
0
70
32
10
4.000000
20
1.171429
30
0
0
VERTEX
8
PFV
62
0
70
32
10
3.990476
20
1.180952
30
0
0
SEQEND
0
POLYLINE
8
PFV
62
0
66
1
70
8
0
VERTEX
8
PFV
62
0
70
32
10
4.285714
20
1.885714
30
0
0
VERTEX
8
PFV
62
0
70
32
10
4.400000
20
1.980952
30
0
0
SEQEND
0
POLYLINE
8
PFV
62
0
66
1
70
8
0
VERTEX
8
PFV
62
0
70
32
10
5.771429
20
1.952381
30
0
0
VERTEX
8
PFV
62
0
70
32
10
5.780952
20
1.952381
30
0
0
SEQEND
0
POLYLINE
8
PFV
62
0
66
1
70
8
0
VERTEX
8
PFV
62
0
70
32
10
5.771429
20
1.952381
30
0
0
VERTEX
8
PFV
62
0
70
32
10
5.647619
20
2.047619
30
0
0
VERTEX
8
PFV
62
0
70
32
10
5.609524
20
2.057143
30
0
0
VERTEX
8
PFV
62
0
70
32
10
5.552381
20
2.104762
30
0
0
VERTEX
8
PFV
62
0
70
32
10
4.895238
20
2.057143
30
0
0
VERTEX
8
PFV
62
0
70
32
10
4.495238
20
2.047619
30
0
0
VERTEX
8
PFV
62
0
70
32
10
4.428571
20
2.000000
30
0
0
SEQEND
0
POLYLINE
8
PFV
62
0
66
1
70
8
0
VERTEX
8
PFV
62
0
70
32
10
5.723810
20
2.019048
30
0
0
VERTEX
8
PFV
62
0
70
32
10
5.733333
20
2.019048
30
0
0
SEQEND
0
POLYLINE
8
PFV
62
0
66
1
70
8
0
VERTEX
8
PFV
62
0
70
32
10
4.961905
20
2.190476
30
0
0
VERTEX
8
PFV
62
0
70
32
10
4.961905
20
2.200000
30
0
0
SEQEND
0
POLYLINE
8
PFV
62
0
66
1
70
8
0
VERTEX
8
PFV
62
0
70
32
10
5.019048
20
2.190476
30
0
0
VERTEX
8
PFV
62
0
70
32
10
5.009524
20
2.200000
30
0
0
SEQEND
0
POLYLINE
8
PFV
62
0
66
1
70
8
0
VERTEX
8
PFV
62
0
70
32
10
4.580952
20
2.342857
30
0
0
VERTEX
8
PFV
62
0
70
32
10
4.580952
20
2.352381
30
0
0
SEQEND
0
POLYLINE
8
PFV
62
0
66
1
70
8
0
VERTEX
8
PFV
62
0
70
32
10
4.952381
20
2.361905
30
0
0
VERTEX
8
PFV
62
0
70
32
10
4.952381
20
2.371429
30
0
0
SEQEND
0
POLYLINE
8
PFV
62
0
66
1
70
8
0
VERTEX
8
PFV
62
0
70
32
10
4.990476
20
2.361905
30
0
0
VERTEX
8
PFV
62
0
70
32
10
4.990476
20
2.371429
30
0
0
SEQEND
0
POLYLINE
8
PFV
62
0
66
1
70
8
0
VERTEX
8
PFV
62
0
70
32
10
4.552381
20
2.380952
30
0
0
VERTEX
8
PFV
62
0
70
32
10
4.552381
20
2.390476
30
0
0
SEQEND
0
POLYLINE
8
PFV
62
0
66
1
70
8
0
VERTEX
8
PFV
62
0
70
32
10
5.180952
20
2.390476
30
0
0
VERTEX
8
PFV
62
0
70
32
10
5.190476
20
2.390476
30
0
0
SEQEND
0
POLYLINE
8
PFV
62
0
66
1
70
8
0
VERTEX
8
PFV
62
0
70
32
10
4.561905
20
2.409524
30
0
0
VERTEX
8
PFV
62
0
70
32
10
4.561905
20
2.419048
30
0
0
VERTEX
8
PFV
62
0
70
32
10
4.552381
20
2.419048
30
0
0
VERTEX
8
PFV
62
0
70
32
10
4.542857
20
2.428571
30
0
0
SEQEND
0
POLYLINE
8
PFV
62
0
66
1
70
8
0
VERTEX
8
PFV
62
0
70
32
10
4.561905
20
2.409524
30
0
0
VERTEX
8
PFV
62
0
70
32
10
4.571429
20
2.409524
30
0
0
VERTEX
8
PFV
62
0
70
32
10
4.580952
20
2.419048
30
0
0
SEQEND
0
POLYLINE
8
PFV
62
0
66
1
70
8
0
VERTEX
8
PFV
62
0
70
32
10
5.419048
20
2.438095
30
0
0
VERTEX
8
PFV
62
0
70
32
10
5.409524
20
2.447619
30
0
0
SEQEND
0
POLYLINE
8
PFV
62
0
66
1
70
8
0
VERTEX
8
PFV
62
0
70
32
10
5.209524
20
2.447619
30
0
0
VERTEX
8
PFV
62
0
70
32
10
5.219048
20
2.447619
30
0
0
SEQEND
0
POLYLINE
8
PFV
62
0
66
1
70
8
0
VERTEX
8
PFV
62
0
70
32
10
5.485714
20
2.447619
30
0
0
VERTEX
8
PFV
62
0
70
32
10
5.485714
20
2.457143
30
0
0
SEQEND
0
POLYLINE
8
PFV
62
0
66
1
70
8
0
VERTEX
8
PFV
62
0
70
32
10
5.504762
20
2.457143
30
0
0
VERTEX
8
PFV
62
0
70
32
10
5.514286
20
2.457143
30
0
0
SEQEND
0
POLYLINE
8
PFV
62
0
66
1
70
8
0
VERTEX
8
PFV
62
0
70
32
10
4.533333
20
2.466667
30
0
0
VERTEX
8
PFV
62
0
70
32
10
4.533333
20
2.476190
30
0
0
SEQEND
0
POLYLINE
8
PFV
62
0
66
1
70
8
0
VERTEX
8
PFV
62
0
70
32
10
5.438095
20
2.466667
30
0
0
VERTEX
8
PFV
62
0
70
32
10
5.438095
20
2.476190
30
0
0
VERTEX
8
PFV
62
0
70
32
10
5.428571
20
2.485714
30
0
0
VERTEX
8
PFV
62
0
70
32
10
5.428571
20
2.495238
30
0
0
SEQEND
0
POLYLINE
8
PFV
62
0
66
1
70
8
0
VERTEX
8
PFV
62
0
70
32
10
5.438095
20
2.466667
30
0
0
VERTEX
8
PFV
62
0
70
32
10
5.457143
20
2.466667
30
0
0
VERTEX
8
PFV
62
0
70
32
10
5.466667
20
2.476190
30
0
0
VERTEX
8
PFV
62
0
70
32
10
5.466667
20
2.495238
30
0
0
SEQEND
0
POLYLINE
8
PFV
62
0
66
1
70
8
0
VERTEX
8
PFV
62
0
70
32
10
5.438095
20
2.466667
30
0
0
VERTEX
8
PFV
62
0
70
32
10
5.428571
20
2.476190
30
0
0
SEQEND
0
POLYLINE
8
PFV
62
0
66
1
70
8
0
VERTEX
8
PFV
62
0
70
32
10
4.485714
20
2.476190
30
0
0
VERTEX
8
PFV
62
0
70
32
10
4.485714
20
2.485714
30
0
0
SEQEND
0
POLYLINE
8
PFV
62
0
66
1
70
8
0
VERTEX
8
PFV
62
0
70
32
10
4.447619
20
2.485714
30
0
0
VERTEX
8
PFV
62
0
70
32
10
4.457143
20
2.485714
30
0
0
SEQEND
0
POLYLINE
8
PFV
62
0
66
1
70
8
0
VERTEX
8
PFV
62
0
70
32
10
5.533333
20
2.485714
30
0
0
VERTEX
8
PFV
62
0
70
32
10
5.542857
20
2.485714
30
0
0
SEQEND
0
POLYLINE
8
PFV
62
0
66
1
70
8
0
VERTEX
8
PFV
62
0
70
32
10
2.676190
20
2.657143
30
0
0
VERTEX
8
PFV
62
0
70
32
10
2.685714
20
2.657143
30
0
0
SEQEND
0
POLYLINE
8
PFV
62
0
66
1
70
8
0
VERTEX
8
PFV
62
0
70
32
10
2.666667
20
2.676190
30
0
0
VERTEX
8
PFV
62
0
70
32
10
2.666667
20
2.714286
30
0
0
SEQEND
0
POLYLINE
8
PFV
62
0
66
1
70
8
0
VERTEX
8
PFV
62
0
70
32
10
2.723810
20
2.685714
30
0
0
VERTEX
8
PFV
62
0
70
32
10
2.723810
20
2.704762
30
0
0
VERTEX
8
PFV
62
0
70
32
10
2.714286
20
2.714286
30
0
0
VERTEX
8
PFV
62
0
70
32
10
2.714286
20
2.742857
30
0
0
VERTEX
8
PFV
62
0
70
32
10
2.704762
20
2.742857
30
0
0
VERTEX
8
PFV
62
0
70
32
10
2.695238
20
2.752381
30
0
0
SEQEND
0
POLYLINE
8
PFV
62
0
66
1
70
8
0
VERTEX
8
PFV
62
0
70
32
10
3.333333
20
3.123810
30
0
0
VERTEX
8
PFV
62
0
70
32
10
3.342857
20
3.123810
30
0
0
SEQEND
0
POLYLINE
8
PFV
62
0
66
1
70
8
0
VERTEX
8
PFV
62
0
70
32
10
3.266667
20
3.133333
30
0
0
VERTEX
8
PFV
62
0
70
32
10
3.276190
20
3.133333
30
0
0
SEQEND
0
POLYLINE
8
PFV
62
0
66
1
70
8
0
VERTEX
8
PFV
62
0
70
32
10
6.647619
20
3.133333
30
0
0
VERTEX
8
PFV
62
0
70
32
10
6.666667
20
3.133333
30
0
0
SEQEND
0
POLYLINE
8
PFV
62
0
66
1
70
8
0
VERTEX
8
PFV
62
0
70
32
10
3.180952
20
3.142857
30
0
0
VERTEX
8
PFV
62
0
70
32
10
3.219048
20
3.142857
30
0
0
SEQEND
0
POLYLINE
8
PFV
62
0
66
1
70
8
0
VERTEX
8
PFV
62
0
70
32
10
6.714286
20
3.142857
30
0
0
VERTEX
8
PFV
62
0
70
32
10
7.285714
20
3.238095
30
0
0
VERTEX
8
PFV
62
0
70
32
10
7.323810
20
3.247619
30
0
0
SEQEND
0
POLYLINE
8
PFV
62
0
66
1
70
8
0
VERTEX
8
PFV
62
0
70
32
10
3.114286
20
3.152381
30
0
0
VERTEX
8
PFV
62
0
70
32
10
3.152381
20
3.152381
30
0
0
SEQEND
0
POLYLINE
8
PFV
62
0
66
1
70
8
0
VERTEX
8
PFV
62
0
70
32
10
3.114286
20
3.152381
30
0
0
VERTEX
8
PFV
62
0
70
32
10
2.904762
20
3.190476
30
0
0
SEQEND
0
POLYLINE
8
PFV
62
0
66
1
70
8
0
VERTEX
8
PFV
62
0
70
32
10
2.857143
20
3.200000
30
0
0
VERTEX
8
PFV
62
0
70
32
10
2.885714
20
3.200000
30
0
0
SEQEND
0
POLYLINE
8
PFV
62
0
66
1
70
8
0
VERTEX
8
PFV
62
0
70
32
10
2.809524
20
3.209524
30
0
0
VERTEX
8
PFV
62
0
70
32
10
2.828571
20
3.209524
30
0
0
SEQEND
0
POLYLINE
8
PFV
62
0
66
1
70
8
0
VERTEX
8
PFV
62
0
70
32
10
2.752381
20
3.219048
30
0
0
VERTEX
8
PFV
62
0
70
32
10
2.771429
20
3.219048
30
0
0
SEQEND
0
POLYLINE
8
PFV
62
0
66
1
70
8
0
VERTEX
8
PFV
62
0
70
32
10
2.714286
20
3.228571
30
0
0
VERTEX
8
PFV
62
0
70
32
10
2.723810
20
3.228571
30
0
0
SEQEND
0
POLYLINE
8
PFV
62
0
66
1
70
8
0
VERTEX
8
PFV
62
0
70
32
10
2.666667
20
3.238095
30
0
0
VERTEX
8
PFV
62
0
70
32
10
2.676190
20
3.238095
30
0
0
SEQEND
0
POLYLINE
8
PFV
62
0
66
1
70
8
0
VERTEX
8
PFV
62
0
70
32
10
7.352381
20
3.257143
30
0
0
VERTEX
8
PFV
62
0
70
32
10
7.361905
20
3.257143
30
0
0
SEQEND
0
POLYLINE
8
PFV
62
0
66
1
70
8
0
VERTEX
8
PFV
62
0
70
32
10
1.895238
20
3.523810
30
0
0
VERTEX
8
PFV
62
0
70
32
10
1.885714
20
3.533333
30
0
0
VERTEX
8
PFV
62
0
70
32
10
1.876190
20
3.533333
30
0
0
SEQEND
0
POLYLINE
8
PFV
62
0
66
1
70
8
0
VERTEX
8
PFV
62
0
70
32
10
8.123810
20
3.542857
30
0
0
VERTEX
8
PFV
62
0
70
32
10
8.133333
20
3.552381
30
0
0
VERTEX
8
PFV
62
0
70
32
10
8.142857
20
3.552381
30
0
0
SEQEND
0
POLYLINE
8
PFV
62
0
66
1
70
8
0
VERTEX
8
PFV
62
0
70
32
10
5.000000
20
4.723810
30
0
0
VERTEX
8
PFV
62
0
70
32
10
5.000000
20
4.733333
30
0
0
SEQEND
0
POLYLINE
8
PFV
62
0
66
1
70
8
0
VERTEX
8
PFV
62
0
70
32
10
5.028571
20
4.723810
30
0
0
VERTEX
8
PFV
62
0
70
32
10
5.038095
20
4.723810
30
0
0
SEQEND
0
POLYLINE
8
PFV
62
0
66
1
70
8
0
VERTEX
8
PFV
62
0
70
32
10
5.104762
20
4.742857
30
0
0
VERTEX
8
PFV
62
0
70
32
10
5.114286
20
4.752381
30
0
0
VERTEX
8
PFV
62
0
70
32
10
5.133333
20
4.752381
30
0
0
VERTEX
8
PFV
62
0
70
32
10
5.142857
20
4.742857
30
0
0
VERTEX
8
PFV
62
0
70
32
10
5.152381
20
4.742857
30
0
0
SEQEND
0
POLYLINE
8
PFV
62
0
66
1
70
8
0
VERTEX
8
PFV
62
0
70
32
10
5.104762
20
4.742857
30
0
0
VERTEX
8
PFV
62
0
70
32
10
5.095238
20
4.752381
30
0
0
VERTEX
8
PFV
62
0
70
32
10
5.085714
20
4.761905
30
0
0
VERTEX
8
PFV
62
0
70
32
10
5.085714
20
4.780952
30
0
0
SEQEND
0
POLYLINE
8
PFV
62
0
66
1
70
8
0
VERTEX
8
PFV
62
0
70
32
10
5.361905
20
4.742857
30
0
0
VERTEX
8
PFV
62
0
70
32
10
5.371429
20
4.742857
30
0
0
SEQEND
0
POLYLINE
8
PFV
62
0
66
1
70
8
0
VERTEX
8
PFV
62
0
70
32
10
5.057143
20
4.752381
30
0
0
VERTEX
8
PFV
62
0
70
32
10
5.066667
20
4.752381
30
0
0
SEQEND
0
POLYLINE
8
PFV
62
0
66
1
70
8
0
VERTEX
8
PFV
62
0
70
32
10
5.047619
20
4.780952
30
0
0
VERTEX
8
PFV
62
0
70
32
10
5.047619
20
4.790476
30
0
0
SEQEND
0
POLYLINE
8
PFV
62
0
66
1
70
8
0
VERTEX
8
PFV
62
0
70
32
10
5.304762
20
4.780952
30
0
0
VERTEX
8
PFV
62
0
70
32
10
5.314286
20
4.780952
30
0
0
SEQEND
0
POLYLINE
8
PFV
62
0
66
1
70
8
0
VERTEX
8
PFV
62
0
70
32
10
4.923810
20
4.790476
30
0
0
VERTEX
8
PFV
62
0
70
32
10
4.923810
20
4.800000
30
0
0
VERTEX
8
PFV
62
0
70
32
10
4.914286
20
4.809524
30
0
0
SEQEND
0
POLYLINE
8
PFV
62
0
66
1
70
8
0
VERTEX
8
PFV
62
0
70
32
10
5.152381
20
4.809524
30
0
0
VERTEX
8
PFV
62
0
70
32
10
5.142857
20
4.819048
30
0
0
VERTEX
8
PFV
62
0
70
32
10
5.066667
20
4.819048
30
0
0
SEQEND
0
POLYLINE
8
PFV
62
0
66
1
70
8
0
VERTEX
8
PFV
62
0
70
32
10
5.371429
20
4.809524
30
0
0
VERTEX
8
PFV
62
0
70
32
10
5.380952
20
4.809524
30
0
0
SEQEND
0
POLYLINE
8
PFV
62
0
66
1
70
8
0
VERTEX
8
PFV
62
0
70
32
10
4.990476
20
4.819048
30
0
0
VERTEX
8
PFV
62
0
70
32
10
4.980952
20
4.828571
30
0
0
SEQEND
0
POLYLINE
8
PFV
62
0
66
1
70
8
0
VERTEX
8
PFV
62
0
70
32
10
5.028571
20
4.819048
30
0
0
VERTEX
8
PFV
62
0
70
32
10
5.019048
20
4.828571
30
0
0
SEQEND
0
POLYLINE
8
PFV
62
0
66
1
70
8
0
VERTEX
8
PFV
62
0
70
32
10
4.942857
20
4.828571
30
0
0
VERTEX
8
PFV
62
0
70
32
10
4.942857
20
4.838095
30
0
0
SEQEND
0
POLYLINE
8
PFV
62
0
66
1
70
8
0
VERTEX
8
PFV
62
0
70
32
10
4.904762
20
4.838095
30
0
0
VERTEX
8
PFV
62
0
70
32
10
4.904762
20
4.847619
30
0
0
SEQEND
0
POLYLINE
8
PFV
62
0
66
1
70
8
0
VERTEX
8
PFV
62
0
70
32
10
5.095238
20
4.838095
30
0
0
VERTEX
8
PFV
62
0
70
32
10
5.095238
20
4.847619
30
0
0
SEQEND
0
POLYLINE
8
PFV
62
0
66
1
70
8
0
VERTEX
8
PFV
62
0
70
32
10
5.219048
20
4.838095
30
0
0
VERTEX
8
PFV
62
0
70
32
10
5.228571
20
4.838095
30
0
0
VERTEX
8
PFV
62
0
70
32
10
5.238095
20
4.847619
30
0
0
VERTEX
8
PFV
62
0
70
32
10
5.247619
20
4.847619
30
0
0
SEQEND
0
POLYLINE
8
PFV
62
0
66
1
70
8
0
VERTEX
8
PFV
62
0
70
32
10
5.266667
20
4.838095
30
0
0
VERTEX
8
PFV
62
0
70
32
10
5.276190
20
4.847619
30
0
0
SEQEND
0
POLYLINE
8
PFV
62
0
66
1
70
8
0
VERTEX
8
PFV
62
0
70
32
10
5.057143
20
4.847619
30
0
0
VERTEX
8
PFV
62
0
70
32
10
5.066667
20
4.857143
30
0
0
VERTEX
8
PFV
62
0
70
32
10
5.076190
20
4.857143
30
0
0
VERTEX
8
PFV
62
0
70
32
10
5.076190
20
4.885714
30
0
0
SEQEND
0
POLYLINE
8
PFV
62
0
66
1
70
8
0
VERTEX
8
PFV
62
0
70
32
10
5.057143
20
4.847619
30
0
0
VERTEX
8
PFV
62
0
70
32
10
5.047619
20
4.857143
30
0
0
SEQEND
0
POLYLINE
8
PFV
62
0
66
1
70
8
0
VERTEX
8
PFV
62
0
70
32
10
5.142857
20
4.847619
30
0
0
VERTEX
8
PFV
62
0
70
32
10
5.152381
20
4.847619
30
0
0
SEQEND
0
POLYLINE
8
PFV
62
0
66
1
70
8
0
VERTEX
8
PFV
62
0
70
32
10
5.390476
20
4.847619
30
0
0
VERTEX
8
PFV
62
0
70
32
10
5.400000
20
4.847619
30
0
0
SEQEND
0
POLYLINE
8
PFV
62
0
66
1
70
8
0
VERTEX
8
PFV
62
0
70
32
10
5.009524
20
4.857143
30
0
0
VERTEX
8
PFV
62
0
70
32
10
5.019048
20
4.857143
30
0
0
SEQEND
0
POLYLINE
8
PFV
62
0
66
1
70
8
0
VERTEX
8
PFV
62
0
70
32
10
5.009524
20
4.857143
30
0
0
VERTEX
8
PFV
62
0
70
32
10
5.000000
20
4.866667
30
0
0
VERTEX
8
PFV
62
0
70
32
10
4.990476
20
4.866667
30
0
0
SEQEND
0
POLYLINE
8
PFV
62
0
66
1
70
8
0
VERTEX
8
PFV
62
0
70
32
10
5.200000
20
4.857143
30
0
0
VERTEX
8
PFV
62
0
70
32
10
5.200000
20
4.876190
30
0
0
VERTEX
8
PFV
62
0
70
32
10
5.228571
20
4.876190
30
0
0
SEQEND
0
POLYLINE
8
PFV
62
0
66
1
70
8
0
VERTEX
8
PFV
62
0
70
32
10
4.885714
20
4.866667
30
0
0
VERTEX
8
PFV
62
0
70
32
10
4.885714
20
4.876190
30
0
0
SEQEND
0
POLYLINE
8
PFV
62
0
66
1
70
8
0
VERTEX
8
PFV
62
0
70
32
10
4.923810
20
4.866667
30
0
0
VERTEX
8
PFV
62
0
70
32
10
4.933333
20
4.866667
30
0
0
SEQEND
0
POLYLINE
8
PFV
62
0
66
1
70
8
0
VERTEX
8
PFV
62
0
70
32
10
4.923810
20
4.866667
30
0
0
VERTEX
8
PFV
62
0
70
32
10
4.914286
20
4.876190
30
0
0
SEQEND
0
POLYLINE
8
PFV
62
0
66
1
70
8
0
VERTEX
8
PFV
62
0
70
32
10
5.247619
20
4.866667
30
0
0
VERTEX
8
PFV
62
0
70
32
10
5.257143
20
4.876190
30
0
0
VERTEX
8
PFV
62
0
70
32
10
5.266667
20
4.885714
30
0
0
VERTEX
8
PFV
62
0
70
32
10
5.266667
20
4.904762
30
0
0
VERTEX
8
PFV
62
0
70
32
10
5.276190
20
4.904762
30
0
0
VERTEX
8
PFV
62
0
70
32
10
5.285714
20
4.914286
30
0
0
SEQEND
0
POLYLINE
8
PFV
62
0
66
1
70
8
0
VERTEX
8
PFV
62
0
70
32
10
5.038095
20
4.885714
30
0
0
VERTEX
8
PFV
62
0
70
32
10
5.028571
20
4.895238
30
0
0
SEQEND
0
POLYLINE
8
PFV
62
0
66
1
70
8
0
VERTEX
8
PFV
62
0
70
32
10
5.114286
20
4.885714
30
0
0
VERTEX
8
PFV
62
0
70
32
10
5.123810
20
4.885714
30
0
0
SEQEND
0
POLYLINE
8
PFV
62
0
66
1
70
8
0
VERTEX
8
PFV
62
0
70
32
10
4.952381
20
4.895238
30
0
0
VERTEX
8
PFV
62
0
70
32
10
4.942857
20
4.904762
30
0
0
SEQEND
0
POLYLINE
8
PFV
62
0
66
1
70
8
0
VERTEX
8
PFV
62
0
70
32
10
5.228571
20
4.895238
30
0
0
VERTEX
8
PFV
62
0
70
32
10
5.228571
20
4.904762
30
0
0
SEQEND
0
POLYLINE
8
PFV
62
0
66
1
70
8
0
VERTEX
8
PFV
62
0
70
32
10
4.904762
20
4.904762
30
0
0
VERTEX
8
PFV
62
0
70
32
10
4.914286
20
4.904762
30
0
0
SEQEND
0
POLYLINE
8
PFV
62
0
66
1
70
8
0
VERTEX
8
PFV
62
0
70
32
10
4.904762
20
4.904762
30
0
0
VERTEX
8
PFV
62
0
70
32
10
4.895238
20
4.914286
30
0
0
SEQEND
0
POLYLINE
8
PFV
62
0
66
1
70
8
0
VERTEX
8
PFV
62
0
70
32
10
5.057143
20
4.904762
30
0
0
VERTEX
8
PFV
62
0
70
32
10
5.038095
20
4.933333
30
0
0
VERTEX
8
PFV
62
0
70
32
10
5.000000
20
4.933333
30
0
0
SEQEND
0
POLYLINE
8
PFV
62
0
66
1
70
8
0
VERTEX
8
PFV
62
0
70
32
10
5.190476
20
4.914286
30
0
0
VERTEX
8
PFV
62
0
70
32
10
5.209524
20
4.914286
30
0
0
SEQEND
0
POLYLINE
8
PFV
62
0
66
1
70
8
0
VERTEX
8
PFV
62
0
70
32
10
5.333333
20
4.923810
30
0
0
VERTEX
8
PFV
62
0
70
32
10
5.333333
20
4.933333
30
0
0
SEQEND
0
POLYLINE
8
PFV
62
0
66
1
70
8
0
VERTEX
8
PFV
62
0
70
32
10
4.933333
20
4.933333
30
0
0
VERTEX
8
PFV
62
0
70
32
10
4.942857
20
4.933333
30
0
0
SEQEND
0
POLYLINE
8
PFV
62
0
66
1
70
8
0
VERTEX
8
PFV
62
0
70
32
10
4.933333
20
4.933333
30
0
0
VERTEX
8
PFV
62
0
70
32
10
4.923810
20
4.942857
30
0
0
SEQEND
0
POLYLINE
8
PFV
62
0
66
1
70
8
0
VERTEX
8
PFV
62
0
70
32
10
5.247619
20
4.933333
30
0
0
VERTEX
8
PFV
62
0
70
32
10
5.257143
20
4.942857
30
0
0
SEQEND
0
POLYLINE
8
PFV
62
0
66
1
70
8
0
VERTEX
8
PFV
62
0
70
32
10
5.085714
20
4.942857
30
0
0
VERTEX
8
PFV
62
0
70
32
10
5.085714
20
4.952381
30
0
0
SEQEND
0
POLYLINE
8
PFV
62
0
66
1
70
8
0
VERTEX
8
PFV
62
0
70
32
10
5.123810
20
4.942857
30
0
0
VERTEX
8
PFV
62
0
70
32
10
5.114286
20
4.952381
30
0
0
VERTEX
8
PFV
62
0
70
32
10
5.104762
20
4.961905
30
0
0
SEQEND
0
POLYLINE
8
PFV
62
0
66
1
70
8
0
VERTEX
8
PFV
62
0
70
32
10
5.209524
20
4.942857
30
0
0
VERTEX
8
PFV
62
0
70
32
10
5.219048
20
4.942857
30
0
0
SEQEND
0
POLYLINE
8
PFV
62
0
66
1
70
8
0
VERTEX
8
PFV
62
0
70
32
10
5.552381
20
4.942857
30
0
0
VERTEX
8
PFV
62
0
70
32
10
5.552381
20
4.952381
30
0
0
SEQEND
0
POLYLINE
8
PFV
62
0
66
1
70
8
0
VERTEX
8
PFV
62
0
70
32
10
5.676190
20
4.952381
30
0
0
VERTEX
8
PFV
62
0
70
32
10
5.685714
20
4.952381
30
0
0
SEQEND
0
POLYLINE
8
PFV
62
0
66
1
70
8
0
VERTEX
8
PFV
62
0
70
32
10
5.000000
20
4.961905
30
0
0
VERTEX
8
PFV
62
0
70
32
10
5.028571
20
4.961905
30
0
0
SEQEND
0
POLYLINE
8
PFV
62
0
66
1
70
8
0
VERTEX
8
PFV
62
0
70
32
10
5.066667
20
4.961905
30
0
0
VERTEX
8
PFV
62
0
70
32
10
5.066667
20
4.990476
30
0
0
SEQEND
0
POLYLINE
8
PFV
62
0
66
1
70
8
0
VERTEX
8
PFV
62
0
70
32
10
5.314286
20
4.961905
30
0
0
VERTEX
8
PFV
62
0
70
32
10
5.323810
20
4.971429
30
0
0
VERTEX
8
PFV
62
0
70
32
10
5.323810
20
4.980952
30
0
0
SEQEND
0
POLYLINE
8
PFV
62
0
66
1
70
8
0
VERTEX
8
PFV
62
0
70
32
10
5.228571
20
4.971429
30
0
0
VERTEX
8
PFV
62
0
70
32
10
5.238095
20
4.971429
30
0
0
SEQEND
0
POLYLINE
8
PFV
62
0
66
1
70
8
0
VERTEX
8
PFV
62
0
70
32
10
5.361905
20
4.971429
30
0
0
VERTEX
8
PFV
62
0
70
32
10
5.371429
20
4.971429
30
0
0
VERTEX
8
PFV
62
0
70
32
10
5.380952
20
4.980952
30
0
0
SEQEND
0
POLYLINE
8
PFV
62
0
66
1
70
8
0
VERTEX
8
PFV
62
0
70
32
10
5.104762
20
4.980952
30
0
0
VERTEX
8
PFV
62
0
70
32
10
5.114286
20
4.980952
30
0
0
SEQEND
0
POLYLINE
8
PFV
62
0
66
1
70
8
0
VERTEX
8
PFV
62
0
70
32
10
5.104762
20
4.980952
30
0
0
VERTEX
8
PFV
62
0
70
32
10
5.095238
20
4.990476
30
0
0
SEQEND
0
POLYLINE
8
PFV
62
0
66
1
70
8
0
VERTEX
8
PFV
62
0
70
32
10
5.533333
20
4.980952
30
0
0
VERTEX
8
PFV
62
0
70
32
10
5.542857
20
4.980952
30
0
0
SEQEND
0
POLYLINE
8
PFV
62
0
66
1
70
8
0
VERTEX
8
PFV
62
0
70
32
10
5.342857
20
5.000000
30
0
0
VERTEX
8
PFV
62
0
70
32
10
5.352381
20
5.009524
30
0
0
VERTEX
8
PFV
62
0
70
32
10
5.361905
20
5.009524
30
0
0
SEQEND
0
POLYLINE
8
PFV
62
0
66
1
70
8
0
VERTEX
8
PFV
62
0
70
32
10
5.066667
20
5.028571
30
0
0
VERTEX
8
PFV
62
0
70
32
10
5.076190
20
5.028571
30
0
0
SEQEND
0
POLYLINE
8
PFV
62
0
66
1
70
8
0
VERTEX
8
PFV
62
0
70
32
10
5.200000
20
5.038095
30
0
0
VERTEX
8
PFV
62
0
70
32
10
5.190476
20
5.047619
30
0
0
SEQEND
0
POLYLINE
8
PFV
62
0
66
1
70
8
0
VERTEX
8
PFV
62
0
70
32
10
5.314286
20
5.038095
30
0
0
VERTEX
8
PFV
62
0
70
32
10
5.333333
20
5.038095
30
0
0
VERTEX
8
PFV
62
0
70
32
10
5.342857
20
5.047619
30
0
0
SEQEND
0
POLYLINE
8
PFV
62
0
66
1
70
8
0
VERTEX
8
PFV
62
0
70
32
10
5.314286
20
5.038095
30
0
0
VERTEX
8
PFV
62
0
70
32
10
5.304762
20
5.047619
30
0
0
VERTEX
8
PFV
62
0
70
32
10
5.285714
20
5.047619
30
0
0
SEQEND
0
POLYLINE
8
PFV
62
0
66
1
70
8
0
VERTEX
8
PFV
62
0
70
32
10
5.371429
20
5.038095
30
0
0
VERTEX
8
PFV
62
0
70
32
10
5.380952
20
5.047619
30
0
0
SEQEND
0
POLYLINE
8
PFV
62
0
66
1
70
8
0
VERTEX
8
PFV
62
0
70
32
10
5.114286
20
5.047619
30
0
0
VERTEX
8
PFV
62
0
70
32
10
5.114286
20
5.057143
30
0
0
SEQEND
0
POLYLINE
8
PFV
62
0
66
1
70
8
0
VERTEX
8
PFV
62
0
70
32
10
5.152381
20
5.047619
30
0
0
VERTEX
8
PFV
62
0
70
32
10
5.142857
20
5.057143
30
0
0
SEQEND
0
POLYLINE
8
PFV
62
0
66
1
70
8
0
VERTEX
8
PFV
62
0
70
32
10
5.066667
20
5.057143
30
0
0
VERTEX
8
PFV
62
0
70
32
10
5.076190
20
5.057143
30
0
0
SEQEND
0
POLYLINE
8
PFV
62
0
66
1
70
8
0
VERTEX
8
PFV
62
0
70
32
10
5.266667
20
5.066667
30
0
0
VERTEX
8
PFV
62
0
70
32
10
5.266667
20
5.076190
30
0
0
SEQEND
0
POLYLINE
8
PFV
62
0
66
1
70
8
0
VERTEX
8
PFV
62
0
70
32
10
5.180952
20
5.076190
30
0
0
VERTEX
8
PFV
62
0
70
32
10
5.180952
20
5.085714
30
0
0
SEQEND
0
POLYLINE
8
PFV
62
0
66
1
70
8
0
VERTEX
8
PFV
62
0
70
32
10
5.219048
20
5.076190
30
0
0
VERTEX
8
PFV
62
0
70
32
10
5.228571
20
5.076190
30
0
0
SEQEND
0
POLYLINE
8
PFV
62
0
66
1
70
8
0
VERTEX
8
PFV
62
0
70
32
10
5.133333
20
5.085714
30
0
0
VERTEX
8
PFV
62
0
70
32
10
5.142857
20
5.085714
30
0
0
SEQEND
0
POLYLINE
8
PFV
62
0
66
1
70
8
0
VERTEX
8
PFV
62
0
70
32
10
4.923810
20
5.104762
30
0
0
VERTEX
8
PFV
62
0
70
32
10
4.933333
20
5.104762
30
0
0
SEQEND
0
POLYLINE
8
PFV
62
0
66
1
70
8
0
VERTEX
8
PFV
62
0
70
32
10
5.371429
20
5.104762
30
0
0
VERTEX
8
PFV
62
0
70
32
10
5.380952
20
5.104762
30
0
0
SEQEND
0
POLYLINE
8
PFV
62
0
66
1
70
8
0
VERTEX
8
PFV
62
0
70
32
10
5.123810
20
5.114286
30
0
0
VERTEX
8
PFV
62
0
70
32
10
5.123810
20
5.123810
30
0
0
SEQEND
0
POLYLINE
8
PFV
62
0
66
1
70
8
0
VERTEX
8
PFV
62
0
70
32
10
5.228571
20
5.142857
30
0
0
VERTEX
8
PFV
62
0
70
32
10
5.238095
20
5.142857
30
0
0
SEQEND
0
POLYLINE
8
PFV
62
0
66
1
70
8
0
VERTEX
8
PFV
62
0
70
32
10
5.104762
20
5.152381
30
0
0
VERTEX
8
PFV
62
0
70
32
10
5.114286
20
5.152381
30
0
0
SEQEND
0
POLYLINE
8
PFV
62
0
66
1
70
8
0
VERTEX
8
PFV
62
0
70
32
10
5.295238
20
5.161905
30
0
0
VERTEX
8
PFV
62
0
70
32
10
5.304762
20
5.171429
30
0
0
SEQEND
0
POLYLINE
8
PFV
62
0
66
1
70
8
0
VERTEX
8
PFV
62
0
70
32
10
5.390476
20
5.171429
30
0
0
VERTEX
8
PFV
62
0
70
32
10
5.400000
20
5.171429
30
0
0
SEQEND
0
POLYLINE
8
PFV
62
0
66
1
70
8
0
VERTEX
8
PFV
62
0
70
32
10
5.428571
20
5.171429
30
0
0
VERTEX
8
PFV
62
0
70
32
10
5.438095
20
5.171429
30
0
0
SEQEND
0
POLYLINE
8
PFV
62
0
66
1
70
8
0
VERTEX
8
PFV
62
0
70
32
10
5.400000
20
5.190476
30
0
0
VERTEX
8
PFV
62
0
70
32
10
5.409524
20
5.200000
30
0
0
SEQEND
0
POLYLINE
8
PFV
62
0
66
1
70
8
0
VERTEX
8
PFV
62
0
70
32
10
5.314286
20
5.200000
30
0
0
VERTEX
8
PFV
62
0
70
32
10
5.323810
20
5.200000
30
0
0
SEQEND
0
POLYLINE
8
PFV
62
0
66
1
70
8
0
VERTEX
8
PFV
62
0
70
32
10
5.361905
20
5.200000
30
0
0
VERTEX
8
PFV
62
0
70
32
10
5.371429
20
5.200000
30
0
0
SEQEND
0
POLYLINE
8
PFV
62
0
66
1
70
8
0
VERTEX
8
PFV
62
0
70
32
10
5.447619
20
5.200000
30
0
0
VERTEX
8
PFV
62
0
70
32
10
5.457143
20
5.200000
30
0
0
SEQEND
0
POLYLINE
8
PFV
62
0
66
1
70
8
0
VERTEX
8
PFV
62
0
70
32
10
5.228571
20
5.209524
30
0
0
VERTEX
8
PFV
62
0
70
32
10
5.238095
20
5.209524
30
0
0
SEQEND
0
POLYLINE
8
PFV
62
0
66
1
70
8
0
VERTEX
8
PFV
62
0
70
32
10
5.095238
20
5.247619
30
0
0
VERTEX
8
PFV
62
0
70
32
10
5.104762
20
5.247619
30
0
0
SEQEND
0
POLYLINE
8
PFV
62
0
66
1
70
8
0
VERTEX
8
PFV
62
0
70
32
10
5.133333
20
5.247619
30
0
0
VERTEX
8
PFV
62
0
70
32
10
5.142857
20
5.247619
30
0
0
SEQEND
0
POLYLINE
8
PFV
62
0
66
1
70
8
0
VERTEX
8
PFV
62
0
70
32
10
4.923810
20
5.266667
30
0
0
VERTEX
8
PFV
62
0
70
32
10
4.933333
20
5.266667
30
0
0
SEQEND
0
POLYLINE
8
PFV
62
0
66
1
70
8
0
VERTEX
8
PFV
62
0
70
32
10
5.323810
20
5.266667
30
0
0
VERTEX
8
PFV
62
0
70
32
10
5.333333
20
5.266667
30
0
0
SEQEND
0
POLYLINE
8
PFV
62
0
66
1
70
8
0
VERTEX
8
PFV
62
0
70
32
10
5.495238
20
5.266667
30
0
0
VERTEX
8
PFV
62
0
70
32
10
5.504762
20
5.266667
30
0
0
SEQEND
0
POLYLINE
8
PFV
62
0
66
1
70
8
0
VERTEX
8
PFV
62
0
70
32
10
5.228571
20
5.304762
30
0
0
VERTEX
8
PFV
62
0
70
32
10
5.238095
20
5.304762
30
0
0
SEQEND
0
POLYLINE
8
PFV
62
0
66
1
70
8
0
VERTEX
8
PFV
62
0
70
32
10
4.885714
20
5.333333
30
0
0
VERTEX
8
PFV
62
0
70
32
10
4.895238
20
5.333333
30
0
0
SEQEND
0
POLYLINE
8
PFV
62
0
66
1
70
8
0
VERTEX
8
PFV
62
0
70
32
10
5.628571
20
5.333333
30
0
0
VERTEX
8
PFV
62
0
70
32
10
5.638095
20
5.333333
30
0
0
SEQEND
0
POLYLINE
8
PFV
62
0
66
1
70
8
0
VERTEX
8
PFV
62
0
70
32
10
5.400000
20
5.361905
30
0
0
VERTEX
8
PFV
62
0
70
32
10
5.409524
20
5.361905
30
0
0
SEQEND
0
POLYLINE
8
PFV
62
0
66
1
70
8
0
VERTEX
8
PFV
62
0
70
32
10
5.609524
20
5.361905
30
0
0
VERTEX
8
PFV
62
0
70
32
10
5.619048
20
5.361905
30
0
0
SEQEND
0
POLYLINE
8
PFV
62
0
66
1
70
8
0
VERTEX
8
PFV
62
0
70
32
10
5.019048
20
5.380952
30
0
0
VERTEX
8
PFV
62
0
70
32
10
5.028571
20
5.380952
30
0
0
SEQEND
0
POLYLINE
8
PFV
62
0
66
1
70
8
0
VERTEX
8
PFV
62
0
70
32
10
5.638095
20
5.390476
30
0
0
VERTEX
8
PFV
62
0
70
32
10
5.638095
20
5.400000
30
0
0
SEQEND
0
POLYLINE
8
PFV
62
0
66
1
70
8
0
VERTEX
8
PFV
62
0
70
32
10
4.857143
20
5.400000
30
0
0
VERTEX
8
PFV
62
0
70
32
10
4.866667
20
5.400000
30
0
0
SEQEND
0
POLYLINE
8
PFV
62
0
66
1
70
8
0
VERTEX
8
PFV
62
0
70
32
10
5.495238
20
5.485714
30
0
0
VERTEX
8
PFV
62
0
70
32
10
5.504762
20
5.485714
30
0
0
SEQEND
0
POLYLINE
8
PFV
62
0
66
1
70
8
0
VERTEX
8
PFV
62
0
70
32
10
5.200000
20
5.495238
30
0
0
VERTEX
8
PFV
62
0
70
32
10
5.209524
20
5.495238
30
0
0
SEQEND
0
POLYLINE
8
PFV
62
0
66
1
70
8
0
VERTEX
8
PFV
62
0
70
32
10
5.228571
20
5.523810
30
0
0
VERTEX
8
PFV
62
0
70
32
10
5.238095
20
5.523810
30
0
0
SEQEND
0
POLYLINE
8
PFV
62
0
66
1
70
8
0
VERTEX
8
PFV
62
0
70
32
10
5.266667
20
5.523810
30
0
0
VERTEX
8
PFV
62
0
70
32
10
5.276190
20
5.523810
30
0
0
SEQEND
0
POLYLINE
8
PFV
62
0
66
1
70
8
0
VERTEX
8
PFV
62
0
70
32
10
4.828571
20
5.533333
30
0
0
VERTEX
8
PFV
62
0
70
32
10
4.838095
20
5.533333
30
0
0
SEQEND
0
POLYLINE
8
PFV
62
0
66
1
70
8
0
VERTEX
8
PFV
62
0
70
32
10
5.409524
20
5.580952
30
0
0
VERTEX
8
PFV
62
0
70
32
10
5.419048
20
5.580952
30
0
0
SEQEND
0
POLYLINE
8
PFV
62
0
66
1
70
8
0
VERTEX
8
PFV
62
0
70
32
10
5.276190
20
5.590476
30
0
0
VERTEX
8
PFV
62
0
70
32
10
5.285714
20
5.590476
30
0
0
SEQEND
0
POLYLINE
8
PFV
62
0
66
1
70
8
0
VERTEX
8
PFV
62
0
70
32
10
5.323810
20
5.647619
30
0
0
VERTEX
8
PFV
62
0
70
32
10
5.333333
20
5.647619
30
0
0
SEQEND
0
POLYLINE
8
PFV
62
0
66
1
70
8
0
VERTEX
8
PFV
62
0
70
32
10
5.180952
20
5.685714
30
0
0
VERTEX
8
PFV
62
0
70
32
10
5.190476
20
5.685714
30
0
0
SEQEND
0
POLYLINE
8
PFV
62
0
66
1
70
8
0
VERTEX
8
PFV
62
0
70
32
10
5.371429
20
5.704762
30
0
0
VERTEX
8
PFV
62
0
70
32
10
5.380952
20
5.704762
30
0
0
SEQEND
0
POLYLINE
8
PFV
62
0
66
1
70
8
0
VERTEX
8
PFV
62
0
70
32
10
0.628571
20
5.761905
30
0
0
VERTEX
8
PFV
62
0
70
32
10
0.638095
20
5.771429
30
0
0
VERTEX
8
PFV
62
0
70
32
10
0.657143
20
5.771429
30
0
0
VERTEX
8
PFV
62
0
70
32
10
0.666667
20
5.780952
30
0
0
VERTEX
8
PFV
62
0
70
32
10
0.695238
20
5.780952
30
0
0
SEQEND
0
POLYLINE
8
PFV
62
0
66
1
70
8
0
VERTEX
8
PFV
62
0
70
32
10
5.295238
20
5.771429
30
0
0
VERTEX
8
PFV
62
0
70
32
10
5.304762
20
5.771429
30
0
0
SEQEND
0
POLYLINE
8
PFV
62
0
66
1
70
8
0
VERTEX
8
PFV
62
0
70
32
10
9.409524
20
5.800000
30
0
0
VERTEX
8
PFV
62
0
70
32
10
9.400000
20
5.809524
30
0
0
VERTEX
8
PFV
62
0
70
32
10
9.371429
20
5.809524
30
0
0
VERTEX
8
PFV
62
0
70
32
10
9.361905
20
5.819048
30
0
0
SEQEND
0
POLYLINE
8
PFV
62
0
66
1
70
8
0
VERTEX
8
PFV
62
0
70
32
10
5.114286
20
5.876190
30
0
0
VERTEX
8
PFV
62
0
70
32
10
5.123810
20
5.876190
30
0
0
SEQEND
0
POLYLINE
8
PFV
62
0
66
1
70
8
0
VERTEX
8
PFV
62
0
70
32
10
5.542857
20
6.133333
30
0
0
VERTEX
8
PFV
62
0
70
32
10
5.552381
20
6.133333
30
0
0
SEQEND
0
POLYLINE
8
PFV
62
0
66
1
70
8
0
VERTEX
8
PFV
62
0
70
32
10
5.361905
20
6.219048
30
0
0
VERTEX
8
PFV
62
0
70
32
10
5.371429
20
6.219048
30
0
0
SEQEND
0
POLYLINE
8
PFV
62
0
66
1
70
8
0
VERTEX
8
PFV
62
0
70
32
10
5.400000
20
6.219048
30
0
0
VERTEX
8
PFV
62
0
70
32
10
5.409524
20
6.219048
30
0
0
SEQEND
0
POLYLINE
8
PFV
62
0
66
1
70
8
0
VERTEX
8
PFV
62
0
70
32
10
4.923810
20
6.228571
30
0
0
VERTEX
8
PFV
62
0
70
32
10
4.942857
20
6.228571
30
0
0
SEQEND
0
POLYLINE
8
PFV
62
0
66
1
70
8
0
VERTEX
8
PFV
62
0
70
32
10
5.238095
20
6.228571
30
0
0
VERTEX
8
PFV
62
0
70
32
10
5.257143
20
6.228571
30
0
0
SEQEND
0
ENDSEC
0
EOF
