  0
SECTION
  2
HEADER
  9
$ACADVER
  1
AC1015
  9
$ACADMAINTVER
 70
     6
  9
$DWGCODEPAGE
  3
ASCII
  9
$INSBASE
 10
0.0
 20
0.0
 30
0.0
  9
$EXTMIN
 10
1.000000000000000E+20
 20
1.000000000000000E+20
 30
1.000000000000000E+20
  9
$EXTMAX
 10
-1.000000000000000E+20
 20
-1.000000000000000E+20
 30
-1.000000000000000E+20
  9
$LIMMIN
 10
0.0
 20
0.0
  9
$LIMMAX
 10
12.0
 20
9.0
  9
$ORTHOMODE
 70
     0
  9
$REGENMODE
 70
     1
  9
$FILLMODE
 70
     1
  9
$QTEXTMODE
 70
     0
  9
$MIRRTEXT
 70
     1
  9
$LTSCALE
 40
1.0
  9
$ATTMODE
 70
     1
  9
$TEXTSIZE
 40
0.2
  9
$TRACEWID
 40
0.05
  9
$TEXTSTYLE
  7
Standard
  9
$CLAYER
  8
0
  9
$CELTYPE
  6
ByLayer
  9
$CECOLOR
 62
   256
  9
$CELTSCALE
 40
1.0
  9
$DISPSILH
 70
     0
  9
$DIMSCALE
 40
1.0
  9
$DIMASZ
 40
0.18
  9
$DIMEXO
 40
0.0625
  9
$DIMDLI
 40
0.38
  9
$DIMRND
 40
0.0
  9
$DIMDLE
 40
0.0
  9
$DIMEXE
 40
0.18
  9
$DIMTP
 40
0.0
  9
$DIMTM
 40
0.0
  9
$DIMTXT
 40
0.18
  9
$DIMCEN
 40
0.09
  9
$DIMTSZ
 40
0.0
  9
$DIMTOL
 70
     0
  9
$DIMLIM
 70
     0
  9
$DIMTIH
 70
     1
  9
$DIMTOH
 70
     1
  9
$DIMSE1
 70
     0
  9
$DIMSE2
 70
     0
  9
$DIMTAD
 70
     0
  9
$DIMZIN
 70
     0
  9
$DIMBLK
  1

  9
$DIMASO
 70
     1
  9
$DIMSHO
 70
     1
  9
$DIMPOST
  1

  9
$DIMAPOST
  1

  9
$DIMALT
 70
     0
  9
$DIMALTD
 70
     2
  9
$DIMALTF
 40
25.4
  9
$DIMLFAC
 40
1.0
  9
$DIMTOFL
 70
     0
  9
$DIMTVP
 40
0.0
  9
$DIMTIX
 70
     0
  9
$DIMSOXD
 70
     0
  9
$DIMSAH
 70
     0
  9
$DIMBLK1
  1

  9
$DIMBLK2
  1

  9
$DIMSTYLE
  2
Standard
  9
$DIMCLRD
 70
     0
  9
$DIMCLRE
 70
     0
  9
$DIMCLRT
 70
     0
  9
$DIMTFAC
 40
1.0
  9
$DIMGAP
 40
0.09
  9
$DIMJUST
 70
     0
  9
$DIMSD1
 70
     0
  9
$DIMSD2
 70
     0
  9
$DIMTOLJ
 70
     1
  9
$DIMTZIN
 70
     0
  9
$DIMALTZ
 70
     0
  9
$DIMALTTZ
 70
     0
  9
$DIMUPT
 70
     0
  9
$DIMDEC
 70
     4
  9
$DIMTDEC
 70
     4
  9
$DIMALTU
 70
     2
  9
$DIMALTTD
 70
     2
  9
$DIMTXSTY
  7
Standard
  9
$DIMAUNIT
 70
     0
  9
$DIMADEC
 70
     0
  9
$DIMALTRND
 40
0.0
  9
$DIMAZIN
 70
     0
  9
$DIMDSEP
 70
    46
  9
$DIMATFIT
 70
     3
  9
$DIMFRAC
 70
     0
  9
$DIMLDRBLK
  1

  9
$DIMLUNIT
 70
     2
  9
$DIMLWD
 70
    -2
  9
$DIMLWE
 70
    -2
  9
$DIMTMOVE
 70
     0
  9
$LUNITS
 70
     2
  9
$LUPREC
 70
     4
  9
$SKETCHINC
 40
0.1
  9
$FILLETRAD
 40
0.5
  9
$AUNITS
 70
     0
  9
$AUPREC
 70
     0
  9
$MENU
  1
.
  9
$ELEVATION
 40
0.0
  9
$PELEVATION
 40
0.0
  9
$THICKNESS
 40
0.0
  9
$LIMCHECK
 70
     0
  9
$CHAMFERA
 40
0.5
  9
$CHAMFERB
 40
0.5
  9
$CHAMFERC
 40
1.0
  9
$CHAMFERD
 40
0.0
  9
$SKPOLY
 70
     0
  9
$TDCREATE
 40
2455357.573927592
  9
$TDUCREATE
 40
2455357.782260926
  9
$TDUPDATE
 40
2455357.573927604
  9
$TDUUPDATE
 40
2455357.782260938
  9
$TDINDWG
 40
0.0000000116
  9
$TDUSRTIMER
 40
0.0000000116
  9
$USRTIMER
 70
     1
  9
$ANGBASE
 50
0.0
  9
$ANGDIR
 70
     0
  9
$PDMODE
 70
     0
  9
$PDSIZE
 40
0.0
  9
$PLINEWID
 40
0.0
  9
$SPLFRAME
 70
     0
  9
$SPLINETYPE
 70
     6
  9
$SPLINESEGS
 70
     8
  9
$HANDSEED
  5
1D1
  9
$SURFTAB1
 70
     6
  9
$SURFTAB2
 70
     6
  9
$SURFTYPE
 70
     6
  9
$SURFU
 70
     6
  9
$SURFV
 70
     6
  9
$UCSBASE
  2

  9
$UCSNAME
  2

  9
$UCSORG
 10
0.0
 20
0.0
 30
0.0
  9
$UCSXDIR
 10
1.0
 20
0.0
 30
0.0
  9
$UCSYDIR
 10
0.0
 20
1.0
 30
0.0
  9
$UCSORTHOREF
  2

  9
$UCSORTHOVIEW
 70
     0
  9
$UCSORGTOP
 10
0.0
 20
0.0
 30
0.0
  9
$UCSORGBOTTOM
 10
0.0
 20
0.0
 30
0.0
  9
$UCSORGLEFT
 10
0.0
 20
0.0
 30
0.0
  9
$UCSORGRIGHT
 10
0.0
 20
0.0
 30
0.0
  9
$UCSORGFRONT
 10
0.0
 20
0.0
 30
0.0
  9
$UCSORGBACK
 10
0.0
 20
0.0
 30
0.0
  9
$PUCSBASE
  2

  9
$PUCSNAME
  2

  9
$PUCSORG
 10
0.0
 20
0.0
 30
0.0
  9
$PUCSXDIR
 10
1.0
 20
0.0
 30
0.0
  9
$PUCSYDIR
 10
0.0
 20
1.0
 30
0.0
  9
$PUCSORTHOREF
  2

  9
$PUCSORTHOVIEW
 70
     0
  9
$PUCSORGTOP
 10
0.0
 20
0.0
 30
0.0
  9
$PUCSORGBOTTOM
 10
0.0
 20
0.0
 30
0.0
  9
$PUCSORGLEFT
 10
0.0
 20
0.0
 30
0.0
  9
$PUCSORGRIGHT
 10
0.0
 20
0.0
 30
0.0
  9
$PUCSORGFRONT
 10
0.0
 20
0.0
 30
0.0
  9
$PUCSORGBACK
 10
0.0
 20
0.0
 30
0.0
  9
$USERI1
 70
     0
  9
$USERI2
 70
     0
  9
$USERI3
 70
     0
  9
$USERI4
 70
     0
  9
$USERI5
 70
     0
  9
$USERR1
 40
0.0
  9
$USERR2
 40
0.0
  9
$USERR3
 40
0.0
  9
$USERR4
 40
0.0
  9
$USERR5
 40
0.0
  9
$WORLDVIEW
 70
     1
  9
$SHADEDGE
 70
     3
  9
$SHADEDIF
 70
    70
  9
$TILEMODE
 70
     1
  9
$MAXACTVP
 70
    64
  9
$PINSBASE
 10
0.0
 20
0.0
 30
0.0
  9
$PLIMCHECK
 70
     0
  9
$PEXTMIN
 10
1.000000000000000E+20
 20
1.000000000000000E+20
 30
1.000000000000000E+20
  9
$PEXTMAX
 10
-1.000000000000000E+20
 20
-1.000000000000000E+20
 30
-1.000000000000000E+20
  9
$PLIMMIN
 10
0.0
 20
0.0
  9
$PLIMMAX
 10
12.0
 20
9.0
  9
$UNITMODE
 70
     0
  9
$VISRETAIN
 70
     1
  9
$PLINEGEN
 70
     0
  9
$PSLTSCALE
 70
     1
  9
$TREEDEPTH
 70
  3020
  9
$CMLSTYLE
  2
Standard
  9
$CMLJUST
 70
     0
  9
$CMLSCALE
 40
1.0
  9
$PROXYGRAPHICS
 70
     1
  9
$MEASUREMENT
 70
     0
  9
$CELWEIGHT
370
    -1
  9
$ENDCAPS
280
     0
  9
$JOINSTYLE
280
     0
  9
$LWDISPLAY
290
     1
  9
$INSUNITS
 70
     1
  9
$HYPERLINKBASE
  1

  9
$STYLESHEET
  1

  9
$XEDIT
290
     1
  9
$CEPSNTYPE
380
     0
  9
$PSTYLEMODE
290
     1
  9
$FINGERPRINTGUID
  2
{1B561DA6-EBD2-432A-AD5B-379CA27CDD8C}
  9
$VERSIONGUID
  2
{FAEB1C32-E019-11D5-929B-00C0DF256EC4}
  9
$EXTNAMES
290
     1
  9
$PSVPSCALE
 40
0.0
  9
$OLESTARTUP
290
     0
  0
ENDSEC
  0
SECTION
  2
CLASSES
  0
CLASS
  1
ACDBDICTIONARYWDFLT
  2
AcDbDictionaryWithDefault
  3
ObjectDBX Classes
 90
        0
280
     0
281
     0
  0
CLASS
  1
VISUALSTYLE
  2
AcDbVisualStyle
  3
ObjectDBX Classes
 90
     4095
280
     0
281
     0
  0
CLASS
  1
ACDBPLACEHOLDER
  2
AcDbPlaceHolder
  3
ObjectDBX Classes
 90
        0
280
     0
281
     0
  0
CLASS
  1
LAYOUT
  2
AcDbLayout
  3
ObjectDBX Classes
 90
        0
280
     0
281
     0
  0
ENDSEC
  0
SECTION
  2
TABLES
  0
TABLE
  2
VPORT
  5
8
330
0
100
AcDbSymbolTable
 70
     1
  0
VPORT
  5
29
330
8
100
AcDbSymbolTableRecord
100
AcDbViewportTableRecord
  2
*Active
 70
     0
 10
0.0
 20
0.0
 11
1.0
 21
1.0
 12
0.0
 22
0.0
 13
0.0
 23
0.0
 14
0.5
 24
0.5
 15
0.5
 25
0.5
 16
0.0
 26
0.0
 36
1.0
 17
4.250002802640737
 27
5.500003626946837
 37
0.0
 40
11.00000725389367
 41
0.7727272727272726
 42
50.0
 43
0.0
 44
0.0
 50
0.0
 51
0.0
 71
     0
 72
   100
 73
     1
 74
     3
 75
     0
 76
     0
 77
     0
 78
     0
281
     0
 65
     1
110
0.0
120
0.0
130
0.0
111
1.0
121
0.0
131
0.0
112
0.0
122
1.0
132
0.0
 79
     0
146
0.0
  0
ENDTAB
  0
TABLE
  2
LTYPE
  5
5
330
0
100
AcDbSymbolTable
 70
     2
  0
LTYPE
  5
14
330
5
100
AcDbSymbolTableRecord
100
AcDbLinetypeTableRecord
  2
ByBlock
 70
     0
  3

 72
    65
 73
     0
 40
0.0
  0
LTYPE
  5
15
330
5
100
AcDbSymbolTableRecord
100
AcDbLinetypeTableRecord
  2
ByLayer
 70
     0
  3

 72
    65
 73
     0
 40
0.0
  0
LTYPE
  5
16
330
5
100
AcDbSymbolTableRecord
100
AcDbLinetypeTableRecord
  2
Continuous
 70
     0
  3
Solid line
 72
    65
 73
     0
 40
0.0
  0
LTYPE
  5
1AF
330
5
100
AcDbSymbolTableRecord
100
AcDbLinetypeTableRecord
  2
AI-Linetype-1
 70
     0
  3
Adobe Illustrator Linetype No. 1
 72
    65
 73
     4
 40
0.1666417724091744
 49
0.0555472574697248
 74
     0
 49
-0.0277736287348624
 74
     0
 49
0.0555472574697248
 74
     0
 49
-0.0277736287348624
 74
     0
  0
ENDTAB
  0
TABLE
  2
LAYER
  5
2
330
0
100
AcDbSymbolTable
 70
     2
  0
LAYER
  5
10
330
2
100
AcDbSymbolTableRecord
100
AcDbLayerTableRecord
  2
0
 70
     0
 62
     7
  6
Continuous
370
    -3
390
F
  0
LAYER
  5
3B
330
2
100
AcDbSymbolTableRecord
100
AcDbLayerTableRecord
  2
Layer 1
 70
     0
 62
     7
  6
Continuous
370
    -3
390
F
  0
ENDTAB
  0
TABLE
  2
STYLE
  5
3
330
0
100
AcDbSymbolTable
 70
     1
  0
STYLE
  5
11
330
3
100
AcDbSymbolTableRecord
100
AcDbTextStyleTableRecord
  2
Standard
 70
     0
 40
0.0
 41
1.0
 50
0.0
 71
     0
 42
0.2
  3
txt
  4

  0
ENDTAB
  0
TABLE
  2
VIEW
  5
6
330
0
100
AcDbSymbolTable
 70
     0
  0
ENDTAB
  0
TABLE
  2
UCS
  5
7
330
0
100
AcDbSymbolTable
 70
     0
  0
ENDTAB
  0
TABLE
  2
APPID
  5
9
330
0
100
AcDbSymbolTable
 70
     1
  0
APPID
  5
12
330
9
100
AcDbSymbolTableRecord
100
AcDbRegAppTableRecord
  2
ACAD
 70
     0
  0
ENDTAB
  0
TABLE
  2
DIMSTYLE
  5
A
330
0
100
AcDbSymbolTable
 70
     1
100
AcDbDimStyleTable
  0
DIMSTYLE
105
27
330
A
100
AcDbSymbolTableRecord
100
AcDbDimStyleTableRecord
  2
Standard
 70
     0
340
11
  0
ENDTAB
  0
TABLE
  2
BLOCK_RECORD
  5
1
330
0
100
AcDbSymbolTable
 70
     1
  0
BLOCK_RECORD
  5
1F
330
1
100
AcDbSymbolTableRecord
100
AcDbBlockTableRecord
  2
*Model_Space
340
22
  0
BLOCK_RECORD
  5
1B
330
1
100
AcDbSymbolTableRecord
100
AcDbBlockTableRecord
  2
*Paper_Space
340
1E
  0
BLOCK_RECORD
  5
23
330
1
100
AcDbSymbolTableRecord
100
AcDbBlockTableRecord
  2
*Paper_Space0
340
26
  0
ENDTAB
  0
ENDSEC
  0
SECTION
  2
BLOCKS
  0
BLOCK
  5
20
330
1F
100
AcDbEntity
  8
0
100
AcDbBlockBegin
  2
*Model_Space
 70
     0
 71
     0
 10
0.0
 20
0.0
 30
0.0
  3
*Model_Space
  1

  0
ENDBLK
  5
21
330
1F
100
AcDbEntity
  8
0
100
AcDbBlockEnd
  0
BLOCK
  5
1C
330
1B
100
AcDbEntity
 67
     1
  8
0
100
AcDbBlockBegin
  2
*Paper_Space
 70
     0
 71
     0
 10
0.0
 20
0.0
 30
0.0
  3
*Paper_Space
  1

  0
ENDBLK
  5
1D
330
1B
100
AcDbEntity
 67
     1
  8
0
100
AcDbBlockEnd
  0
BLOCK
  5
24
330
23
100
AcDbEntity
  8
0
100
AcDbBlockBegin
  2
*Paper_Space0
 70
     0
 71
     0
 10
0.0
 20
0.0
 30
0.0
  3
*Paper_Space0
  1

  0
ENDBLK
  5
25
330
23
100
AcDbEntity
  8
0
100
AcDbBlockEnd
  0
ENDSEC
  0
SECTION
  2
ENTITIES
  0
SPLINE
  5
3C
330
1F
100
AcDbEntity
  8
Layer 1
 62
     7
370
    18
100
AcDbSpline
210
0.0
220
0.0
230
1.0
 70
    11
 71
     3
 72
    92
 73
    88
 74
     0
 42
0.0000000001
 43
0.0000000001
 40
0.0
 40
0.0
 40
0.0
 40
0.0
 40
1.0
 40
1.0
 40
1.0
 40
2.0
 40
2.0
 40
2.0
 40
3.0
 40
3.0
 40
3.0
 40
4.0
 40
4.0
 40
4.0
 40
5.0
 40
5.0
 40
5.0
 40
6.0
 40
6.0
 40
6.0
 40
7.0
 40
7.0
 40
7.0
 40
8.0
 40
8.0
 40
8.0
 40
9.0
 40
9.0
 40
9.0
 40
10.0
 40
10.0
 40
10.0
 40
11.0
 40
11.0
 40
11.0
 40
12.0
 40
12.0
 40
12.0
 40
13.0
 40
13.0
 40
13.0
 40
14.0
 40
14.0
 40
14.0
 40
15.0
 40
15.0
 40
15.0
 40
16.0
 40
16.0
 40
16.0
 40
17.0
 40
17.0
 40
17.0
 40
18.0
 40
18.0
 40
18.0
 40
19.0
 40
19.0
 40
19.0
 40
20.0
 40
20.0
 40
20.0
 40
21.0
 40
21.0
 40
21.0
 40
22.0
 40
22.0
 40
22.0
 40
23.0
 40
23.0
 40
23.0
 40
24.0
 40
24.0
 40
24.0
 40
25.0
 40
25.0
 40
25.0
 40
26.0
 40
26.0
 40
26.0
 40
27.0
 40
27.0
 40
27.0
 40
28.0
 40
28.0
 40
28.0
 40
29.0
 40
29.0
 40
29.0
 40
29.0
 10
2.696487509520514
 20
5.961531437809204
 30
0.0
 10
2.696487509520514
 20
5.901377860814873
 30
0.0
 10
2.745268194900471
 20
5.852631083877415
 30
0.0
 10
2.805401426829302
 20
5.852631083877415
 30
0.0
 10
2.865568567200633
 20
5.852631083877415
 30
0.0
 10
2.914335689203591
 20
5.901377860814873
 30
0.0
 10
2.914335689203591
 20
5.961531437809204
 30
0.0
 10
2.914335689203591
 20
5.961531437809204
 30
0.0
 10
2.914335689203591
 20
6.52570010411793
 30
0.0
 10
2.914335689203591
 20
6.52570010411793
 30
0.0
 10
2.914335689203591
 20
6.54097924830826
 30
0.0
 10
2.926834341108952
 20
6.553464336836622
 30
0.0
 10
2.942113485299282
 20
6.553464336836622
 30
0.0
 10
2.942113485299282
 20
6.553464336836622
 30
0.0
 10
2.989503924536755
 20
6.553464336836622
 30
0.0
 10
2.989503924536755
 20
6.553464336836622
 30
0.0
 10
2.989503924536755
 20
6.553464336836622
 30
0.0
 10
2.989503924536755
 20
6.685673354142652
 30
0.0
 10
2.989503924536755
 20
6.685673354142652
 30
0.0
 10
2.989503924536755
 20
6.700932153267481
 30
0.0
 10
3.002002576442116
 20
6.713437586861343
 30
0.0
 10
3.017281720632446
 20
6.713437586861343
 30
0.0
 10
3.017281720632446
 20
6.713437586861343
 30
0.0
 10
3.141861338376061
 20
6.713437586861343
 30
0.0
 10
3.141861338376061
 20
6.713437586861343
 30
0.0
 10
3.157126919189391
 20
6.713437586861343
 30
0.0
 10
3.169639134471752
 20
6.700932153267481
 30
0.0
 10
3.169639134471752
 20
6.685673354142652
 30
0.0
 10
3.169639134471752
 20
6.685673354142652
 30
0.0
 10
3.169639134471752
 20
6.308408022891847
 30
0.0
 10
3.169639134471752
 20
6.308408022891847
 30
0.0
 10
3.169639134471752
 20
6.308408022891847
 30
0.0
 10
3.298986279230813
 20
6.308408022891847
 30
0.0
 10
3.298986279230813
 20
6.308408022891847
 30
0.0
 10
3.298986279230813
 20
6.308408022891847
 30
0.0
 10
3.298986279230813
 20
6.552921801756628
 30
0.0
 10
3.298986279230813
 20
6.552921801756628
 30
0.0
 10
3.298986279230813
 20
6.568200945946958
 30
0.0
 10
3.311484931136174
 20
6.580699597852319
 30
0.0
 10
3.326750511949505
 20
6.580699597852319
 30
0.0
 10
3.326750511949505
 20
6.580699597852319
 30
0.0
 10
3.387473750777829
 20
6.580699597852319
 30
0.0
 10
3.387473750777829
 20
6.580699597852319
 30
0.0
 10
3.387473750777829
 20
6.580699597852319
 30
0.0
 10
3.387473750777829
 20
6.944883051986769
 30
0.0
 10
3.387473750777829
 20
6.944883051986769
 30
0.0
 10
3.387473750777829
 20
6.944883051986769
 30
0.0
 10
2.223349447946275
 20
6.944883051986769
 30
0.0
 10
2.223349447946275
 20
6.944883051986769
 30
0.0
 10
2.223349447946275
 20
6.944883051986769
 30
0.0
 10
2.223349447946275
 20
6.580699597852319
 30
0.0
 10
2.223349447946275
 20
6.580699597852319
 30
0.0
 10
2.223349447946275
 20
6.580699597852319
 30
0.0
 10
2.290874720340024
 20
6.580699597852319
 30
0.0
 10
2.290874720340024
 20
6.580699597852319
 30
0.0
 10
2.306153864530354
 20
6.580699597852319
 30
0.0
 10
2.318652516435715
 20
6.568200945946958
 30
0.0
 10
2.318652516435715
 20
6.552921801756628
 30
0.0
 10
2.318652516435715
 20
6.552921801756628
 30
0.0
 10
2.318652516435715
 20
6.308408022891847
 30
0.0
 10
2.318652516435715
 20
6.308408022891847
 30
0.0
 10
2.318652516435715
 20
6.308408022891847
 30
0.0
 10
2.441197627629352
 20
6.308408022891847
 30
0.0
 10
2.441197627629352
 20
6.308408022891847
 30
0.0
 10
2.441197627629352
 20
6.308408022891847
 30
0.0
 10
2.441197627629352
 20
6.685673354142652
 30
0.0
 10
2.441197627629352
 20
6.685673354142652
 30
0.0
 10
2.441197627629352
 20
6.700932153267481
 30
0.0
 10
2.453709842911713
 20
6.713437586861343
 30
0.0
 10
2.468975423725043
 20
6.713437586861343
 30
0.0
 10
2.468975423725043
 20
6.713437586861343
 30
0.0
 10
2.593555041468658
 20
6.713437586861343
 30
0.0
 10
2.593555041468658
 20
6.713437586861343
 30
0.0
 10
2.608834185658988
 20
6.713437586861343
 30
0.0
 10
2.621332837564349
 20
6.700932153267481
 30
0.0
 10
2.621332837564349
 20
6.685673354142652
 30
0.0
 10
2.621332837564349
 20
6.685673354142652
 30
0.0
 10
2.621332837564349
 20
6.553464336836622
 30
0.0
 10
2.621332837564349
 20
6.553464336836622
 30
0.0
 10
2.621332837564349
 20
6.553464336836622
 30
0.0
 10
2.668709713424823
 20
6.553464336836622
 30
0.0
 10
2.668709713424823
 20
6.553464336836622
 30
0.0
 10
2.683988857615152
 20
6.553464336836622
 30
0.0
 10
2.696487509520514
 20
6.54097924830826
 30
0.0
 10
2.696487509520514
 20
6.52570010411793
 30
0.0
 10
2.696487509520514
 20
6.52570010411793
 30
0.0
 10
2.696487509520514
 20
5.961531437809204
 30
0.0
 10
2.696487509520514
 20
5.961531437809204
 30
0.0
  0
POLYLINE
  5
3D
330
1F
100
AcDbEntity
  8
Layer 1
 62
     7
370
    18
100
AcDb2dPolyline
 66
     1
 10
0.0
 20
0.0
 30
0.0
  0
VERTEX
  5
3E
330
3D
100
AcDbEntity
  8
Layer 1
 62
     7
370
    18
100
AcDbVertex
100
AcDb2dVertex
 10
2.318652516435715
 20
6.354713391969332
 30
0.0
  0
VERTEX
  5
3F
330
3D
100
AcDbEntity
  8
Layer 1
 62
     7
370
    18
100
AcDbVertex
100
AcDb2dVertex
 10
2.259211016733876
 20
6.354713391969332
 30
0.0
  0
VERTEX
  5
40
330
3D
100
AcDbEntity
  8
Layer 1
 62
     7
370
    18
100
AcDbVertex
100
AcDb2dVertex
 10
2.259211016733876
 20
6.580699597852319
 30
0.0
  0
SEQEND
  5
41
330
3D
100
AcDbEntity
  8
Layer 1
370
    18
  0
POLYLINE
  5
42
330
1F
100
AcDbEntity
  8
Layer 1
 62
     7
370
    18
100
AcDb2dPolyline
 66
     1
 10
0.0
 20
0.0
 30
0.0
  0
VERTEX
  5
43
330
42
100
AcDbEntity
  8
Layer 1
 62
     7
370
    18
100
AcDbVertex
100
AcDb2dVertex
 10
3.298986279230813
 20
6.354713391969332
 30
0.0
  0
VERTEX
  5
44
330
42
100
AcDbEntity
  8
Layer 1
 62
     7
370
    18
100
AcDbVertex
100
AcDb2dVertex
 10
3.358434560621152
 20
6.354713391969332
 30
0.0
  0
VERTEX
  5
45
330
42
100
AcDbEntity
  8
Layer 1
 62
     7
370
    18
100
AcDbVertex
100
AcDb2dVertex
 10
3.358434560621152
 20
6.580699597852319
 30
0.0
  0
SEQEND
  5
46
330
42
100
AcDbEntity
  8
Layer 1
370
    18
  0
POLYLINE
  5
47
330
1F
100
AcDbEntity
  8
Layer 1
 62
     7
370
    18
100
AcDb2dPolyline
 66
     1
 10
0.0
 20
0.0
 30
0.0
  0
VERTEX
  5
48
330
47
100
AcDbEntity
  8
Layer 1
 62
     7
370
    18
100
AcDbVertex
100
AcDb2dVertex
 10
2.06016845926109
 20
6.905535695310206
 30
0.0
  0
VERTEX
  5
49
330
47
100
AcDbEntity
  8
Layer 1
 62
     7
370
    18
100
AcDbVertex
100
AcDb2dVertex
 10
2.223363011323275
 20
6.905535695310206
 30
0.0
  0
VERTEX
  5
4A
330
47
100
AcDbEntity
  8
Layer 1
 62
     7
370
    18
100
AcDbVertex
100
AcDb2dVertex
 10
2.223363011323275
 20
6.944869488609769
 30
0.0
  0
VERTEX
  5
4B
330
47
100
AcDbEntity
  8
Layer 1
 62
     7
370
    18
100
AcDbVertex
100
AcDb2dVertex
 10
2.06016845926109
 20
6.944869488609769
 30
0.0
  0
VERTEX
  5
4C
330
47
100
AcDbEntity
  8
Layer 1
 62
     7
370
    18
100
AcDbVertex
100
AcDb2dVertex
 10
2.06016845926109
 20
6.905535695310206
 30
0.0
  0
SEQEND
  5
4D
330
47
100
AcDbEntity
  8
Layer 1
370
    18
  0
POLYLINE
  5
4E
330
1F
100
AcDbEntity
  8
Layer 1
 62
     7
370
    18
100
AcDb2dPolyline
 66
     1
 10
0.0
 20
0.0
 30
0.0
  0
VERTEX
  5
4F
330
4E
100
AcDbEntity
  8
Layer 1
 62
     7
370
    18
100
AcDbVertex
100
AcDb2dVertex
 10
2.259224580110876
 20
6.373240964951126
 30
0.0
  0
VERTEX
  5
50
330
4E
100
AcDbEntity
  8
Layer 1
 62
     7
370
    18
100
AcDbVertex
100
AcDb2dVertex
 10
2.062474233351064
 20
6.373240964951126
 30
0.0
  0
VERTEX
  5
51
330
4E
100
AcDbEntity
  8
Layer 1
 62
     7
370
    18
100
AcDbVertex
100
AcDb2dVertex
 10
2.062474233351064
 20
6.88009080005849
 30
0.0
  0
VERTEX
  5
52
330
4E
100
AcDbEntity
  8
Layer 1
 62
     7
370
    18
100
AcDbVertex
100
AcDb2dVertex
 10
2.223363011323275
 20
6.88009080005849
 30
0.0
  0
SEQEND
  5
53
330
4E
100
AcDbEntity
  8
Layer 1
370
    18
  0
POLYLINE
  5
54
330
1F
100
AcDbEntity
  8
Layer 1
 62
     7
370
    18
100
AcDb2dPolyline
 66
     1
 10
0.0
 20
0.0
 30
0.0
  0
VERTEX
  5
55
330
54
100
AcDbEntity
  8
Layer 1
 62
     7
370
    18
100
AcDbVertex
100
AcDb2dVertex
 10
2.097196478470678
 20
6.373240964951126
 30
0.0
  0
VERTEX
  5
56
330
54
100
AcDbEntity
  8
Layer 1
 62
     7
370
    18
100
AcDbVertex
100
AcDb2dVertex
 10
2.097196478470678
 20
6.303810038088898
 30
0.0
  0
VERTEX
  5
57
330
54
100
AcDbEntity
  8
Layer 1
 62
     7
370
    18
100
AcDbVertex
100
AcDb2dVertex
 10
2.268488366601773
 20
6.303810038088898
 30
0.0
  0
VERTEX
  5
58
330
54
100
AcDbEntity
  8
Layer 1
 62
     7
370
    18
100
AcDbVertex
100
AcDb2dVertex
 10
2.268488366601773
 20
6.354713391969332
 30
0.0
  0
SEQEND
  5
59
330
54
100
AcDbEntity
  8
Layer 1
370
    18
  0
POLYLINE
  5
5A
330
1F
100
AcDbEntity
  8
Layer 1
 62
     7
370
    18
100
AcDb2dPolyline
 66
     1
 10
0.0
 20
0.0
 30
0.0
  0
VERTEX
  5
5B
330
5A
100
AcDbEntity
  8
Layer 1
 62
     7
370
    18
100
AcDbVertex
100
AcDb2dVertex
 10
2.13655739852424
 20
6.88009080005849
 30
0.0
  0
VERTEX
  5
5C
330
5A
100
AcDbEntity
  8
Layer 1
 62
     7
370
    18
100
AcDbVertex
100
AcDb2dVertex
 10
2.13655739852424
 20
6.905549258687206
 30
0.0
  0
SEQEND
  5
5D
330
5A
100
AcDbEntity
  8
Layer 1
370
    18
  0
POLYLINE
  5
5E
330
1F
100
AcDbEntity
  8
Layer 1
 62
     7
370
    18
100
AcDb2dPolyline
 66
     1
 10
0.0
 20
0.0
 30
0.0
  0
VERTEX
  5
5F
330
5E
100
AcDbEntity
  8
Layer 1
 62
     7
370
    18
100
AcDbVertex
100
AcDb2dVertex
 10
2.074057357308935
 20
6.88009080005849
 30
0.0
  0
VERTEX
  5
60
330
5E
100
AcDbEntity
  8
Layer 1
 62
     7
370
    18
100
AcDbVertex
100
AcDb2dVertex
 10
2.074057357308935
 20
6.905549258687206
 30
0.0
  0
SEQEND
  5
61
330
5E
100
AcDbEntity
  8
Layer 1
370
    18
  0
POLYLINE
  5
62
330
1F
100
AcDbEntity
  8
Layer 1
 62
     7
370
    18
100
AcDb2dPolyline
 66
     1
 10
0.0
 20
0.0
 30
0.0
  0
VERTEX
  5
63
330
62
100
AcDbEntity
  8
Layer 1
 62
     7
370
    18
100
AcDbVertex
100
AcDb2dVertex
 10
3.562251426797886
 20
6.905549258687206
 30
0.0
  0
VERTEX
  5
64
330
62
100
AcDbEntity
  8
Layer 1
 62
     7
370
    18
100
AcDbVertex
100
AcDb2dVertex
 10
3.387473750777829
 20
6.905549258687206
 30
0.0
  0
VERTEX
  5
65
330
62
100
AcDbEntity
  8
Layer 1
 62
     7
370
    18
100
AcDbVertex
100
AcDb2dVertex
 10
3.387473750777829
 20
6.944883051986769
 30
0.0
  0
VERTEX
  5
66
330
62
100
AcDbEntity
  8
Layer 1
 62
     7
370
    18
100
AcDbVertex
100
AcDb2dVertex
 10
3.562251426797886
 20
6.944883051986769
 30
0.0
  0
VERTEX
  5
67
330
62
100
AcDbEntity
  8
Layer 1
 62
     7
370
    18
100
AcDbVertex
100
AcDb2dVertex
 10
3.562251426797886
 20
6.905549258687206
 30
0.0
  0
SEQEND
  5
68
330
62
100
AcDbEntity
  8
Layer 1
370
    18
  0
POLYLINE
  5
69
330
1F
100
AcDbEntity
  8
Layer 1
 62
     7
370
    18
100
AcDb2dPolyline
 66
     1
 10
0.0
 20
0.0
 30
0.0
  0
VERTEX
  5
6A
330
69
100
AcDbEntity
  8
Layer 1
 62
     7
370
    18
100
AcDbVertex
100
AcDb2dVertex
 10
3.474292926953864
 20
6.88009080005849
 30
0.0
  0
VERTEX
  5
6B
330
69
100
AcDbEntity
  8
Layer 1
 62
     7
370
    18
100
AcDbVertex
100
AcDb2dVertex
 10
3.474292926953864
 20
6.905549258687206
 30
0.0
  0
SEQEND
  5
6C
330
69
100
AcDbEntity
  8
Layer 1
370
    18
  0
POLYLINE
  5
6D
330
1F
100
AcDbEntity
  8
Layer 1
 62
     7
370
    18
100
AcDb2dPolyline
 66
     1
 10
0.0
 20
0.0
 30
0.0
  0
VERTEX
  5
6E
330
6D
100
AcDbEntity
  8
Layer 1
 62
     7
370
    18
100
AcDbVertex
100
AcDb2dVertex
 10
3.536792968169169
 20
6.88009080005849
 30
0.0
  0
VERTEX
  5
6F
330
6D
100
AcDbEntity
  8
Layer 1
 62
     7
370
    18
100
AcDbVertex
100
AcDb2dVertex
 10
3.536792968169169
 20
6.905549258687206
 30
0.0
  0
SEQEND
  5
70
330
6D
100
AcDbEntity
  8
Layer 1
370
    18
  0
POLYLINE
  5
71
330
1F
100
AcDbEntity
  8
Layer 1
 62
     7
370
    18
100
AcDb2dPolyline
 66
     1
 10
0.0
 20
0.0
 30
0.0
  0
VERTEX
  5
72
330
71
100
AcDbEntity
  8
Layer 1
 62
     7
370
    18
100
AcDbVertex
100
AcDb2dVertex
 10
2.118165459312445
 20
6.88009080005849
 30
0.0
  0
VERTEX
  5
73
330
71
100
AcDbEntity
  8
Layer 1
 62
     7
370
    18
100
AcDbVertex
100
AcDb2dVertex
 10
2.118165459312445
 20
6.373240964951126
 30
0.0
  0
SEQEND
  5
74
330
71
100
AcDbEntity
  8
Layer 1
370
    18
  0
POLYLINE
  5
75
330
1F
100
AcDbEntity
  8
Layer 1
 62
     7
370
    18
100
AcDb2dPolyline
 66
     1
 10
0.0
 20
0.0
 30
0.0
  0
VERTEX
  5
76
330
75
100
AcDbEntity
  8
Layer 1
 62
     7
370
    18
100
AcDbVertex
100
AcDb2dVertex
 10
3.358434560621152
 20
6.373240964951126
 30
0.0
  0
VERTEX
  5
77
330
75
100
AcDbEntity
  8
Layer 1
 62
     7
370
    18
100
AcDbVertex
100
AcDb2dVertex
 10
3.562264990174886
 20
6.373240964951126
 30
0.0
  0
VERTEX
  5
78
330
75
100
AcDbEntity
  8
Layer 1
 62
     7
370
    18
100
AcDbVertex
100
AcDb2dVertex
 10
3.562264990174886
 20
6.88009080005849
 30
0.0
  0
VERTEX
  5
79
330
75
100
AcDbEntity
  8
Layer 1
 62
     7
370
    18
100
AcDbVertex
100
AcDb2dVertex
 10
3.387487314154829
 20
6.88009080005849
 30
0.0
  0
SEQEND
  5
7A
330
75
100
AcDbEntity
  8
Layer 1
370
    18
  0
POLYLINE
  5
7B
330
1F
100
AcDbEntity
  8
Layer 1
 62
     7
370
    18
100
AcDb2dPolyline
 66
     1
 10
0.0
 20
0.0
 30
0.0
  0
VERTEX
  5
7C
330
7B
100
AcDbEntity
  8
Layer 1
 62
     7
370
    18
100
AcDbVertex
100
AcDb2dVertex
 10
3.506573764213505
 20
6.88009080005849
 30
0.0
  0
VERTEX
  5
7D
330
7B
100
AcDbEntity
  8
Layer 1
 62
     7
370
    18
100
AcDbVertex
100
AcDb2dVertex
 10
3.506573764213505
 20
6.373240964951126
 30
0.0
  0
SEQEND
  5
7E
330
7B
100
AcDbEntity
  8
Layer 1
370
    18
  0
POLYLINE
  5
7F
330
1F
100
AcDbEntity
  8
Layer 1
 62
     7
370
    18
100
AcDb2dPolyline
 66
     1
 10
0.0
 20
0.0
 30
0.0
  0
VERTEX
  5
80
330
7F
100
AcDbEntity
  8
Layer 1
 62
     7
370
    18
100
AcDbVertex
100
AcDb2dVertex
 10
2.127293612033343
 20
6.303810038088898
 30
0.0
  0
VERTEX
  5
81
330
7F
100
AcDbEntity
  8
Layer 1
 62
     7
370
    18
100
AcDbVertex
100
AcDb2dVertex
 10
2.127293612033343
 20
6.373240964951126
 30
0.0
  0
SEQEND
  5
82
330
7F
100
AcDbEntity
  8
Layer 1
370
    18
  0
POLYLINE
  5
83
330
1F
100
AcDbEntity
  8
Layer 1
 62
     7
370
    18
100
AcDb2dPolyline
 66
     1
 10
0.0
 20
0.0
 30
0.0
  0
VERTEX
  5
84
330
83
100
AcDbEntity
  8
Layer 1
 62
     7
370
    18
100
AcDbVertex
100
AcDb2dVertex
 10
2.150446296572086
 20
6.303810038088898
 30
0.0
  0
VERTEX
  5
85
330
83
100
AcDbEntity
  8
Layer 1
 62
     7
370
    18
100
AcDbVertex
100
AcDb2dVertex
 10
2.150446296572086
 20
6.373240964951126
 30
0.0
  0
SEQEND
  5
86
330
83
100
AcDbEntity
  8
Layer 1
370
    18
  0
POLYLINE
  5
87
330
1F
100
AcDbEntity
  8
Layer 1
 62
     7
370
    18
100
AcDb2dPolyline
 66
     1
 10
0.0
 20
0.0
 30
0.0
  0
VERTEX
  5
88
330
87
100
AcDbEntity
  8
Layer 1
 62
     7
370
    18
100
AcDbVertex
100
AcDb2dVertex
 10
3.49985311091008
 20
6.373240964951126
 30
0.0
  0
VERTEX
  5
89
330
87
100
AcDbEntity
  8
Layer 1
 62
     7
370
    18
100
AcDbVertex
100
AcDb2dVertex
 10
3.49985311091008
 20
6.303810038088898
 30
0.0
  0
VERTEX
  5
8A
330
87
100
AcDbEntity
  8
Layer 1
 62
     7
370
    18
100
AcDbVertex
100
AcDb2dVertex
 10
3.314672324731139
 20
6.303810038088898
 30
0.0
  0
VERTEX
  5
8B
330
87
100
AcDbEntity
  8
Layer 1
 62
     7
370
    18
100
AcDbVertex
100
AcDb2dVertex
 10
3.314672324731139
 20
6.354713391969332
 30
0.0
  0
SEQEND
  5
8C
330
87
100
AcDbEntity
  8
Layer 1
370
    18
  0
POLYLINE
  5
8D
330
1F
100
AcDbEntity
  8
Layer 1
 62
     7
370
    18
100
AcDb2dPolyline
 66
     1
 10
0.0
 20
0.0
 30
0.0
  0
VERTEX
  5
8E
330
8D
100
AcDbEntity
  8
Layer 1
 62
     7
370
    18
100
AcDbVertex
100
AcDb2dVertex
 10
3.469749195658914
 20
6.303810038088898
 30
0.0
  0
VERTEX
  5
8F
330
8D
100
AcDbEntity
  8
Layer 1
 62
     7
370
    18
100
AcDbVertex
100
AcDb2dVertex
 10
3.469749195658914
 20
6.373240964951126
 30
0.0
  0
SEQEND
  5
90
330
8D
100
AcDbEntity
  8
Layer 1
370
    18
  0
POLYLINE
  5
91
330
1F
100
AcDbEntity
  8
Layer 1
 62
     7
370
    18
100
AcDb2dPolyline
 66
     1
 10
0.0
 20
0.0
 30
0.0
  0
VERTEX
  5
92
330
91
100
AcDbEntity
  8
Layer 1
 62
     7
370
    18
100
AcDbVertex
100
AcDb2dVertex
 10
3.446596511120172
 20
6.303810038088898
 30
0.0
  0
VERTEX
  5
93
330
91
100
AcDbEntity
  8
Layer 1
 62
     7
370
    18
100
AcDbVertex
100
AcDb2dVertex
 10
3.446596511120172
 20
6.373240964951126
 30
0.0
  0
SEQEND
  5
94
330
91
100
AcDbEntity
  8
Layer 1
370
    18
  0
POLYLINE
  5
95
330
1F
100
AcDbEntity
  8
Layer 1
 62
     7
370
    18
100
AcDb2dPolyline
 66
     1
 10
0.0
 20
0.0
 30
0.0
  0
VERTEX
  5
96
330
95
100
AcDbEntity
  8
Layer 1
 62
     7
370
    18
100
AcDbVertex
100
AcDb2dVertex
 10
2.441211191006352
 20
6.352407617879358
 30
0.0
  0
VERTEX
  5
97
330
95
100
AcDbEntity
  8
Layer 1
 62
     7
370
    18
100
AcDbVertex
100
AcDb2dVertex
 10
2.696501072897513
 20
6.352407617879358
 30
0.0
  0
SEQEND
  5
98
330
95
100
AcDbEntity
  8
Layer 1
370
    18
  0
POLYLINE
  5
99
330
1F
100
AcDbEntity
  8
Layer 1
 62
     7
370
    18
100
AcDb2dPolyline
 66
     1
 10
0.0
 20
0.0
 30
0.0
  0
VERTEX
  5
9A
330
99
100
AcDbEntity
  8
Layer 1
 62
     7
370
    18
100
AcDbVertex
100
AcDb2dVertex
 10
2.914349252580591
 20
6.352407617879358
 30
0.0
  0
VERTEX
  5
9B
330
99
100
AcDbEntity
  8
Layer 1
 62
     7
370
    18
100
AcDbVertex
100
AcDb2dVertex
 10
3.169639134471752
 20
6.352407617879358
 30
0.0
  0
SEQEND
  5
9C
330
99
100
AcDbEntity
  8
Layer 1
370
    18
  0
POLYLINE
  5
9D
330
1F
100
AcDbEntity
  8
Layer 1
 62
     7
370
    18
100
AcDb2dPolyline
 66
     1
 10
0.0
 20
0.0
 30
0.0
  0
VERTEX
  5
9E
330
9D
100
AcDbEntity
  8
Layer 1
 62
     7
370
    18
100
AcDbVertex
100
AcDb2dVertex
 10
2.621332837564349
 20
6.579214408070835
 30
0.0
  0
VERTEX
  5
9F
330
9D
100
AcDbEntity
  8
Layer 1
 62
     7
370
    18
100
AcDbVertex
100
AcDb2dVertex
 10
2.441211191006352
 20
6.579214408070835
 30
0.0
  0
SEQEND
  5
A0
330
9D
100
AcDbEntity
  8
Layer 1
370
    18
  0
POLYLINE
  5
A1
330
1F
100
AcDbEntity
  8
Layer 1
 62
     7
370
    18
100
AcDb2dPolyline
 66
     1
 10
0.0
 20
0.0
 30
0.0
  0
VERTEX
  5
A2
330
A1
100
AcDbEntity
  8
Layer 1
 62
     7
370
    18
100
AcDbVertex
100
AcDb2dVertex
 10
2.441211191006352
 20
6.625492650394321
 30
0.0
  0
VERTEX
  5
A3
330
A1
100
AcDbEntity
  8
Layer 1
 62
     7
370
    18
100
AcDbVertex
100
AcDb2dVertex
 10
2.621332837564349
 20
6.625492650394321
 30
0.0
  0
SEQEND
  5
A4
330
A1
100
AcDbEntity
  8
Layer 1
370
    18
  0
POLYLINE
  5
A5
330
1F
100
AcDbEntity
  8
Layer 1
 62
     7
370
    18
100
AcDb2dPolyline
 66
     1
 10
0.0
 20
0.0
 30
0.0
  0
VERTEX
  5
A6
330
A5
100
AcDbEntity
  8
Layer 1
 62
     7
370
    18
100
AcDbVertex
100
AcDb2dVertex
 10
3.169639134471752
 20
6.579214408070835
 30
0.0
  0
VERTEX
  5
A7
330
A5
100
AcDbEntity
  8
Layer 1
 62
     7
370
    18
100
AcDbVertex
100
AcDb2dVertex
 10
2.989503924536755
 20
6.579214408070835
 30
0.0
  0
SEQEND
  5
A8
330
A5
100
AcDbEntity
  8
Layer 1
370
    18
  0
POLYLINE
  5
A9
330
1F
100
AcDbEntity
  8
Layer 1
 62
     7
370
    18
100
AcDb2dPolyline
 66
     1
 10
0.0
 20
0.0
 30
0.0
  0
VERTEX
  5
AA
330
A9
100
AcDbEntity
  8
Layer 1
 62
     7
370
    18
100
AcDbVertex
100
AcDb2dVertex
 10
2.989503924536755
 20
6.625492650394321
 30
0.0
  0
VERTEX
  5
AB
330
A9
100
AcDbEntity
  8
Layer 1
 62
     7
370
    18
100
AcDbVertex
100
AcDb2dVertex
 10
3.169639134471752
 20
6.625492650394321
 30
0.0
  0
SEQEND
  5
AC
330
A9
100
AcDbEntity
  8
Layer 1
370
    18
  0
SPLINE
  5
AD
330
1F
100
AcDbEntity
  8
Layer 1
 62
     7
370
    18
100
AcDbSpline
210
0.0
220
0.0
230
1.0
 70
    11
 71
     3
 72
    38
 73
    34
 74
     0
 42
0.0000000001
 43
0.0000000001
 40
0.0
 40
0.0
 40
0.0
 40
0.0
 40
1.0
 40
1.0
 40
1.0
 40
2.0
 40
2.0
 40
2.0
 40
3.0
 40
3.0
 40
3.0
 40
4.0
 40
4.0
 40
4.0
 40
5.0
 40
5.0
 40
5.0
 40
6.0
 40
6.0
 40
6.0
 40
7.0
 40
7.0
 40
7.0
 40
8.0
 40
8.0
 40
8.0
 40
9.0
 40
9.0
 40
9.0
 40
10.0
 40
10.0
 40
10.0
 40
11.0
 40
11.0
 40
11.0
 40
11.0
 10
3.64275006929199
 20
5.876238141545652
 30
0.0
 10
3.642722942537991
 20
5.876238141545652
 30
0.0
 10
3.642722942537991
 20
6.558381060999067
 30
0.0
 10
3.64275006929199
 20
6.596575530630642
 30
0.0
 10
3.64275006929199
 20
6.616364497673422
 30
0.0
 10
3.628515305130649
 20
6.62190513717786
 30
0.0
 10
3.619075194738754
 20
6.625228164542824
 30
0.0
 10
3.617434026121772
 20
6.625696101049319
 30
0.0
 10
3.616294702453785
 20
6.625947023523816
 30
0.0
 10
3.615630096980792
 20
6.626075875605314
 30
0.0
 10
3.615630096980792
 20
6.626075875605314
 30
0.0
 10
3.562264990174886
 20
6.626075875605314
 30
0.0
 10
3.562264990174886
 20
6.626075875605314
 30
0.0
 10
3.562264990174886
 20
6.626075875605314
 30
0.0
 10
3.562264990174886
 20
6.653867235078005
 30
0.0
 10
3.562264990174886
 20
6.653867235078005
 30
0.0
 10
3.562264990174886
 20
6.653867235078005
 30
0.0
 10
3.61669482207528
 20
6.653867235078005
 30
0.0
 10
3.61669482207528
 20
6.653867235078005
 30
0.0
 10
3.61669482207528
 20
6.653867235078005
 30
0.0
 10
3.61849196952776
 20
6.653738382996506
 30
0.0
 10
3.61849196952776
 20
6.653738382996506
 30
0.0
 10
3.619556694622248
 20
6.653534932341509
 30
0.0
 10
3.63108556507212
 20
6.652131122822024
 30
0.0
 10
3.643875829582978
 20
6.64446103312861
 30
0.0
 10
3.656598277208837
 20
6.637130027860191
 30
0.0
 10
3.670792351239179
 20
6.620881102214372
 30
0.0
 10
3.670500738633682
 20
6.596575530630642
 30
0.0
 10
3.670500738633682
 20
6.558408187753066
 30
0.0
 10
3.670500738633682
 20
5.876238141545652
 30
0.0
 10
3.670541428764682
 20
5.876238141545652
 30
0.0
 10
3.670541428764682
 20
5.876238141545652
 30
0.0
 10
3.64275006929199
 20
5.876238141545652
 30
0.0
 10
3.64275006929199
 20
5.876238141545652
 30
0.0
  0
POLYLINE
  5
AE
330
1F
100
AcDbEntity
  8
Layer 1
 62
     7
370
    18
100
AcDb2dPolyline
 66
     1
 10
0.0
 20
0.0
 30
0.0
  0
VERTEX
  5
AF
330
AE
100
AcDbEntity
  8
Layer 1
 62
     7
370
    18
100
AcDbVertex
100
AcDb2dVertex
 10
3.670500738633682
 20
6.596575530630642
 30
0.0
  0
VERTEX
  5
B0
330
AE
100
AcDbEntity
  8
Layer 1
 62
     7
370
    18
100
AcDbVertex
100
AcDb2dVertex
 10
3.64275006929199
 20
6.596575530630642
 30
0.0
  0
SEQEND
  5
B1
330
AE
100
AcDbEntity
  8
Layer 1
370
    18
  0
POLYLINE
  5
B2
330
1F
100
AcDbEntity
  8
Layer 1
 62
     7
370
    18
100
AcDb2dPolyline
 66
     1
 10
0.0
 20
0.0
 30
0.0
  0
VERTEX
  5
B3
330
B2
100
AcDbEntity
  8
Layer 1
 62
     7
370
    18
100
AcDbVertex
100
AcDb2dVertex
 10
3.619075194738754
 20
6.653738382996506
 30
0.0
  0
VERTEX
  5
B4
330
B2
100
AcDbEntity
  8
Layer 1
 62
     7
370
    18
100
AcDbVertex
100
AcDb2dVertex
 10
3.619075194738754
 20
6.577478295814855
 30
0.0
  0
VERTEX
  5
B5
330
B2
100
AcDbEntity
  8
Layer 1
 62
     7
370
    18
100
AcDbVertex
100
AcDb2dVertex
 10
3.562237863420886
 20
6.577478295814855
 30
0.0
  0
SEQEND
  5
B6
330
B2
100
AcDbEntity
  8
Layer 1
370
    18
  0
SPLINE
  5
B7
330
1F
100
AcDbEntity
  8
Layer 1
 62
     7
370
    18
100
AcDbSpline
210
0.0
220
0.0
230
1.0
 70
    11
 71
     3
 72
    44
 73
    40
 74
     0
 42
0.0000000001
 43
0.0000000001
 40
0.0
 40
0.0
 40
0.0
 40
0.0
 40
1.0
 40
1.0
 40
1.0
 40
2.0
 40
2.0
 40
2.0
 40
3.0
 40
3.0
 40
3.0
 40
4.0
 40
4.0
 40
4.0
 40
5.0
 40
5.0
 40
5.0
 40
6.0
 40
6.0
 40
6.0
 40
7.0
 40
7.0
 40
7.0
 40
8.0
 40
8.0
 40
8.0
 40
9.0
 40
9.0
 40
9.0
 40
10.0
 40
10.0
 40
10.0
 40
11.0
 40
11.0
 40
11.0
 40
12.0
 40
12.0
 40
12.0
 40
13.0
 40
13.0
 40
13.0
 40
13.0
 10
2.006416796210687
 20
5.89182246171848
 30
0.0
 10
2.006416796210687
 20
5.891849588472479
 30
0.0
 10
2.006416796210687
 20
6.363583840527233
 30
0.0
 10
2.006416796210687
 20
6.39085300998543
 30
0.0
 10
2.006125183605191
 20
6.405298006490269
 30
0.0
 10
2.01247284404112
 20
6.417240559938636
 30
0.0
 10
2.021099151813024
 20
6.422937178278573
 30
0.0
 10
2.029515227241431
 20
6.428715176880509
 30
0.0
 10
2.03765325344134
 20
6.429183113387004
 30
0.0
 10
2.041959625638792
 20
6.429237366895003
 30
0.0
 10
2.042942970471281
 20
6.429237366895003
 30
0.0
 10
2.043736428025773
 20
6.429196676764003
 30
0.0
 10
2.044360343367766
 20
6.429155986633004
 30
0.0
 10
2.044360343367766
 20
6.429155986633004
 30
0.0
 10
2.062460669974064
 20
6.429155986633004
 30
0.0
 10
2.062460669974064
 20
6.429155986633004
 30
0.0
 10
2.062460669974064
 20
6.429155986633004
 30
0.0
 10
2.062460669974064
 20
6.401391753914313
 30
0.0
 10
2.062460669974064
 20
6.401391753914313
 30
0.0
 10
2.062460669974064
 20
6.401391753914313
 30
0.0
 10
2.042875153586282
 20
6.401391753914313
 30
0.0
 10
2.042875153586282
 20
6.401391753914313
 30
0.0
 10
2.042875153586282
 20
6.401391753914313
 30
0.0
 10
2.042027442523791
 20
6.401520605995811
 30
0.0
 10
2.042027442523791
 20
6.401520605995811
 30
0.0
 10
2.042027442523791
 20
6.401520605995811
 30
0.0
 10
2.041959625638792
 20
6.401473134176312
 30
0.0
 10
2.041959625638792
 20
6.401473134176312
 30
0.0
 10
2.040698231577806
 20
6.401547732749811
 30
0.0
 10
2.038026246308836
 20
6.401032324423817
 30
0.0
 10
2.037015774722347
 20
6.400225303492325
 30
0.0
 10
2.036195190413856
 20
6.399323338921835
 30
0.0
 10
2.034486204911875
 20
6.39899103618534
 30
0.0
 10
2.034194592306378
 20
6.39085300998543
 30
0.0
 10
2.034194592306378
 20
6.363583840527233
 30
0.0
 10
2.034194592306378
 20
5.892324306667474
 30
0.0
 10
2.034221719060378
 20
5.89182246171848
 30
0.0
 10
2.034221719060378
 20
5.89182246171848
 30
0.0
 10
2.006416796210687
 20
5.89182246171848
 30
0.0
 10
2.006416796210687
 20
5.89182246171848
 30
0.0
  0
POLYLINE
  5
B8
330
1F
100
AcDbEntity
  8
Layer 1
 62
     7
370
    18
100
AcDb2dPolyline
 66
     1
 10
0.0
 20
0.0
 30
0.0
  0
VERTEX
  5
B9
330
B8
100
AcDbEntity
  8
Layer 1
 62
     7
370
    18
100
AcDbVertex
100
AcDb2dVertex
 10
2.006416796210687
 20
6.28744582373858
 30
0.0
  0
VERTEX
  5
BA
330
B8
100
AcDbEntity
  8
Layer 1
 62
     7
370
    18
100
AcDbVertex
100
AcDb2dVertex
 10
1.994860799006816
 20
6.275889826534709
 30
0.0
  0
VERTEX
  5
BB
330
B8
100
AcDbEntity
  8
Layer 1
 62
     7
370
    18
100
AcDbVertex
100
AcDb2dVertex
 10
1.994860799006816
 20
5.978268645027018
 30
0.0
  0
VERTEX
  5
BC
330
B8
100
AcDbEntity
  8
Layer 1
 62
     7
370
    18
100
AcDbVertex
100
AcDb2dVertex
 10
2.010044999558147
 20
5.963111571229686
 30
0.0
  0
SEQEND
  5
BD
330
B8
100
AcDbEntity
  8
Layer 1
370
    18
  0
POLYLINE
  5
BE
330
1F
100
AcDbEntity
  8
Layer 1
 62
     7
370
    18
100
AcDb2dPolyline
 66
     1
 10
0.0
 20
0.0
 30
0.0
  0
VERTEX
  5
BF
330
BE
100
AcDbEntity
  8
Layer 1
 62
     7
370
    18
100
AcDbVertex
100
AcDb2dVertex
 10
2.914349252580591
 20
6.188073742149185
 30
0.0
  0
VERTEX
  5
C0
330
BE
100
AcDbEntity
  8
Layer 1
 62
     7
370
    18
100
AcDbVertex
100
AcDb2dVertex
 10
2.696501072897513
 20
6.188073742149185
 30
0.0
  0
SEQEND
  5
C1
330
BE
100
AcDbEntity
  8
Layer 1
370
    18
  0
POLYLINE
  5
C2
330
1F
100
AcDbEntity
  8
Layer 1
 62
     7
370
    18
100
AcDb2dPolyline
 66
     1
 10
0.0
 20
0.0
 30
0.0
  0
VERTEX
  5
C3
330
C2
100
AcDbEntity
  8
Layer 1
 62
     7
370
    18
100
AcDbVertex
100
AcDb2dVertex
 10
2.914349252580591
 20
6.162615283520468
 30
0.0
  0
VERTEX
  5
C4
330
C2
100
AcDbEntity
  8
Layer 1
 62
     7
370
    18
100
AcDbVertex
100
AcDb2dVertex
 10
2.696501072897513
 20
6.162615283520468
 30
0.0
  0
SEQEND
  5
C5
330
C2
100
AcDbEntity
  8
Layer 1
370
    18
  0
POLYLINE
  5
C6
330
1F
100
AcDbEntity
  8
Layer 1
 62
     7
370
    18
100
AcDb2dPolyline
 66
     1
 10
0.0
 20
0.0
 30
0.0
  0
VERTEX
  5
C7
330
C6
100
AcDbEntity
  8
Layer 1
 62
     7
370
    18
100
AcDbVertex
100
AcDb2dVertex
 10
2.914349252580591
 20
6.100128805682163
 30
0.0
  0
VERTEX
  5
C8
330
C6
100
AcDbEntity
  8
Layer 1
 62
     7
370
    18
100
AcDbVertex
100
AcDb2dVertex
 10
2.696501072897513
 20
6.100128805682163
 30
0.0
  0
SEQEND
  5
C9
330
C6
100
AcDbEntity
  8
Layer 1
370
    18
  0
POLYLINE
  5
CA
330
1F
100
AcDbEntity
  8
Layer 1
 62
     7
370
    18
100
AcDb2dPolyline
 66
     1
 10
0.0
 20
0.0
 30
0.0
  0
VERTEX
  5
CB
330
CA
100
AcDbEntity
  8
Layer 1
 62
     7
370
    18
100
AcDbVertex
100
AcDb2dVertex
 10
2.914349252580591
 20
6.016808980772089
 30
0.0
  0
VERTEX
  5
CC
330
CA
100
AcDbEntity
  8
Layer 1
 62
     7
370
    18
100
AcDbVertex
100
AcDb2dVertex
 10
2.696501072897513
 20
6.016808980772089
 30
0.0
  0
SEQEND
  5
CD
330
CA
100
AcDbEntity
  8
Layer 1
370
    18
  0
POLYLINE
  5
CE
330
1F
100
AcDbEntity
  8
Layer 1
 62
     7
370
    18
100
AcDb2dPolyline
 66
     1
 10
0.0
 20
0.0
 30
0.0
  0
VERTEX
  5
CF
330
CE
100
AcDbEntity
  8
Layer 1
 62
     7
370
    18
100
AcDbVertex
100
AcDb2dVertex
 10
3.387487314154829
 20
6.866188338633644
 30
0.0
  0
VERTEX
  5
D0
330
CE
100
AcDbEntity
  8
Layer 1
 62
     7
370
    18
100
AcDbVertex
100
AcDb2dVertex
 10
2.223363011323275
 20
6.866188338633644
 30
0.0
  0
SEQEND
  5
D1
330
CE
100
AcDbEntity
  8
Layer 1
370
    18
  0
POLYLINE
  5
D2
330
1F
100
AcDbEntity
  8
Layer 1
 62
     7
370
    18
100
AcDb2dPolyline
 66
     1
 10
0.0
 20
0.0
 30
0.0
  0
VERTEX
  5
D3
330
D2
100
AcDbEntity
  8
Layer 1
 62
     7
370
    18
100
AcDbVertex
100
AcDb2dVertex
 10
3.32624188531201
 20
7.023570983651394
 30
0.0
  0
VERTEX
  5
D4
330
D2
100
AcDbEntity
  8
Layer 1
 62
     7
370
    18
100
AcDbVertex
100
AcDb2dVertex
 10
3.441978181251723
 20
7.023570983651394
 30
0.0
  0
VERTEX
  5
D5
330
D2
100
AcDbEntity
  8
Layer 1
 62
     7
370
    18
100
AcDbVertex
100
AcDb2dVertex
 10
3.441978181251723
 20
6.944869488609769
 30
0.0
  0
VERTEX
  5
D6
330
D2
100
AcDbEntity
  8
Layer 1
 62
     7
370
    18
100
AcDbVertex
100
AcDb2dVertex
 10
3.32624188531201
 20
6.944869488609769
 30
0.0
  0
VERTEX
  5
D7
330
D2
100
AcDbEntity
  8
Layer 1
 62
     7
370
    18
100
AcDbVertex
100
AcDb2dVertex
 10
3.32624188531201
 20
7.023570983651394
 30
0.0
  0
SEQEND
  5
D8
330
D2
100
AcDbEntity
  8
Layer 1
370
    18
  0
POLYLINE
  5
D9
330
1F
100
AcDbEntity
  8
Layer 1
 62
     7
370
    18
100
AcDb2dPolyline
 66
     1
 10
0.0
 20
0.0
 30
0.0
  0
VERTEX
  5
DA
330
D9
100
AcDbEntity
  8
Layer 1
 62
     7
370
    18
100
AcDbVertex
100
AcDb2dVertex
 10
3.347305809792776
 20
7.046744013255636
 30
0.0
  0
VERTEX
  5
DB
330
D9
100
AcDbEntity
  8
Layer 1
 62
     7
370
    18
100
AcDbVertex
100
AcDb2dVertex
 10
3.420880348328458
 20
7.046744013255636
 30
0.0
  0
VERTEX
  5
DC
330
D9
100
AcDbEntity
  8
Layer 1
 62
     7
370
    18
100
AcDbVertex
100
AcDb2dVertex
 10
3.441957836186223
 20
7.023570983651394
 30
0.0
  0
VERTEX
  5
DD
330
D9
100
AcDbEntity
  8
Layer 1
 62
     7
370
    18
100
AcDbVertex
100
AcDb2dVertex
 10
3.326221540246511
 20
7.023570983651394
 30
0.0
  0
VERTEX
  5
DE
330
D9
100
AcDbEntity
  8
Layer 1
 62
     7
370
    18
100
AcDbVertex
100
AcDb2dVertex
 10
3.347305809792776
 20
7.046744013255636
 30
0.0
  0
SEQEND
  5
DF
330
D9
100
AcDbEntity
  8
Layer 1
370
    18
  0
POLYLINE
  5
E0
330
1F
100
AcDbEntity
  8
Layer 1
 62
     7
370
    18
100
AcDb2dPolyline
 66
     1
 10
0.0
 20
0.0
 30
0.0
  0
VERTEX
  5
E1
330
E0
100
AcDbEntity
  8
Layer 1
 62
     7
370
    18
100
AcDbVertex
100
AcDb2dVertex
 10
2.167461553018397
 20
7.023591328716893
 30
0.0
  0
VERTEX
  5
E2
330
E0
100
AcDbEntity
  8
Layer 1
 62
     7
370
    18
100
AcDbVertex
100
AcDb2dVertex
 10
2.28319784895811
 20
7.023591328716893
 30
0.0
  0
VERTEX
  5
E3
330
E0
100
AcDbEntity
  8
Layer 1
 62
     7
370
    18
100
AcDbVertex
100
AcDb2dVertex
 10
2.28319784895811
 20
6.944883051986769
 30
0.0
  0
VERTEX
  5
E4
330
E0
100
AcDbEntity
  8
Layer 1
 62
     7
370
    18
100
AcDbVertex
100
AcDb2dVertex
 10
2.167461553018397
 20
6.944883051986769
 30
0.0
  0
VERTEX
  5
E5
330
E0
100
AcDbEntity
  8
Layer 1
 62
     7
370
    18
100
AcDbVertex
100
AcDb2dVertex
 10
2.167461553018397
 20
7.023591328716893
 30
0.0
  0
SEQEND
  5
E6
330
E0
100
AcDbEntity
  8
Layer 1
370
    18
  0
POLYLINE
  5
E7
330
1F
100
AcDbEntity
  8
Layer 1
 62
     7
370
    18
100
AcDb2dPolyline
 66
     1
 10
0.0
 20
0.0
 30
0.0
  0
VERTEX
  5
E8
330
E7
100
AcDbEntity
  8
Layer 1
 62
     7
370
    18
100
AcDbVertex
100
AcDb2dVertex
 10
2.188532259187662
 20
7.046744013255636
 30
0.0
  0
VERTEX
  5
E9
330
E7
100
AcDbEntity
  8
Layer 1
 62
     7
370
    18
100
AcDbVertex
100
AcDb2dVertex
 10
2.262113579411844
 20
7.046744013255636
 30
0.0
  0
VERTEX
  5
EA
330
E7
100
AcDbEntity
  8
Layer 1
 62
     7
370
    18
100
AcDbVertex
100
AcDb2dVertex
 10
2.28319784895811
 20
7.023570983651394
 30
0.0
  0
VERTEX
  5
EB
330
E7
100
AcDbEntity
  8
Layer 1
 62
     7
370
    18
100
AcDbVertex
100
AcDb2dVertex
 10
2.167461553018397
 20
7.023570983651394
 30
0.0
  0
VERTEX
  5
EC
330
E7
100
AcDbEntity
  8
Layer 1
 62
     7
370
    18
100
AcDbVertex
100
AcDb2dVertex
 10
2.188532259187662
 20
7.046744013255636
 30
0.0
  0
SEQEND
  5
ED
330
E7
100
AcDbEntity
  8
Layer 1
370
    18
  0
POLYLINE
  5
EE
330
1F
100
AcDbEntity
  8
Layer 1
 62
     7
370
    18
100
AcDb2dPolyline
 66
     1
 10
0.0
 20
0.0
 30
0.0
  0
VERTEX
  5
EF
330
EE
100
AcDbEntity
  8
Layer 1
 62
     7
370
    18
100
AcDbVertex
100
AcDb2dVertex
 10
3.201838591469394
 20
6.944862706921269
 30
0.0
  0
VERTEX
  5
F0
330
EE
100
AcDbEntity
  8
Layer 1
 62
     7
370
    18
100
AcDbVertex
100
AcDb2dVertex
 10
2.410252783004196
 20
6.944862706921269
 30
0.0
  0
VERTEX
  5
F1
330
EE
100
AcDbEntity
  8
Layer 1
 62
     7
370
    18
100
AcDbVertex
100
AcDb2dVertex
 10
2.410252783004196
 20
7.332531148330958
 30
0.0
  0
VERTEX
  5
F2
330
EE
100
AcDbEntity
  8
Layer 1
 62
     7
370
    18
100
AcDbVertex
100
AcDb2dVertex
 10
3.201838591469394
 20
7.332531148330958
 30
0.0
  0
VERTEX
  5
F3
330
EE
100
AcDbEntity
  8
Layer 1
 62
     7
370
    18
100
AcDbVertex
100
AcDb2dVertex
 10
3.201838591469394
 20
6.944862706921269
 30
0.0
  0
SEQEND
  5
F4
330
EE
100
AcDbEntity
  8
Layer 1
370
    18
  0
POLYLINE
  5
F5
330
1F
100
AcDbEntity
  8
Layer 1
 62
     7
370
    18
100
AcDb2dPolyline
 66
     1
 10
0.0
 20
0.0
 30
0.0
  0
VERTEX
  5
F6
330
F5
100
AcDbEntity
  8
Layer 1
 62
     7
370
    18
100
AcDbVertex
100
AcDb2dVertex
 10
3.19315803018949
 20
7.400225962937205
 30
0.0
  0
VERTEX
  5
F7
330
F5
100
AcDbEntity
  8
Layer 1
 62
     7
370
    18
100
AcDbVertex
100
AcDb2dVertex
 10
2.4189333442841
 20
7.400225962937205
 30
0.0
  0
VERTEX
  5
F8
330
F5
100
AcDbEntity
  8
Layer 1
 62
     7
370
    18
100
AcDbVertex
100
AcDb2dVertex
 10
2.4189333442841
 20
7.513052914510451
 30
0.0
  0
VERTEX
  5
F9
330
F5
100
AcDbEntity
  8
Layer 1
 62
     7
370
    18
100
AcDbVertex
100
AcDb2dVertex
 10
3.19315803018949
 20
7.513052914510451
 30
0.0
  0
VERTEX
  5
FA
330
F5
100
AcDbEntity
  8
Layer 1
 62
     7
370
    18
100
AcDbVertex
100
AcDb2dVertex
 10
3.201838591469394
 20
7.332531148330958
 30
0.0
  0
VERTEX
  5
FB
330
F5
100
AcDbEntity
  8
Layer 1
 62
     7
370
    18
100
AcDbVertex
100
AcDb2dVertex
 10
3.19315803018949
 20
7.400225962937205
 30
0.0
  0
SEQEND
  5
FC
330
F5
100
AcDbEntity
  8
Layer 1
370
    18
  0
POLYLINE
  5
FD
330
1F
100
AcDbEntity
  8
Layer 1
 62
     7
370
    18
100
AcDb2dPolyline
 66
     1
 10
0.0
 20
0.0
 30
0.0
  0
VERTEX
  5
FE
330
FD
100
AcDbEntity
  8
Layer 1
 62
     7
370
    18
100
AcDbVertex
100
AcDb2dVertex
 10
2.410252783004196
 20
7.332531148330958
 30
0.0
  0
VERTEX
  5
FF
330
FD
100
AcDbEntity
  8
Layer 1
 62
     7
370
    18
100
AcDbVertex
100
AcDb2dVertex
 10
2.4189333442841
 20
7.400225962937205
 30
0.0
  0
SEQEND
  5
100
330
FD
100
AcDbEntity
  8
Layer 1
370
    18
  0
POLYLINE
  5
101
330
1F
100
AcDbEntity
  8
Layer 1
 62
     7
370
    18
100
AcDb2dPolyline
 66
     1
 10
0.0
 20
0.0
 30
0.0
  0
VERTEX
  5
102
330
101
100
AcDbEntity
  8
Layer 1
 62
     7
370
    18
100
AcDbVertex
100
AcDb2dVertex
 10
2.453655589403714
 20
7.618935417059773
 30
0.0
  0
VERTEX
  5
103
330
101
100
AcDbEntity
  8
Layer 1
 62
     7
370
    18
100
AcDbVertex
100
AcDb2dVertex
 10
3.146296562655011
 20
7.618935417059773
 30
0.0
  0
VERTEX
  5
104
330
101
100
AcDbEntity
  8
Layer 1
 62
     7
370
    18
100
AcDbVertex
100
AcDb2dVertex
 10
3.146296562655011
 20
7.513052914510451
 30
0.0
  0
VERTEX
  5
105
330
101
100
AcDbEntity
  8
Layer 1
 62
     7
370
    18
100
AcDbVertex
100
AcDb2dVertex
 10
2.453655589403714
 20
7.513052914510451
 30
0.0
  0
VERTEX
  5
106
330
101
100
AcDbEntity
  8
Layer 1
 62
     7
370
    18
100
AcDbVertex
100
AcDb2dVertex
 10
2.453655589403714
 20
7.618935417059773
 30
0.0
  0
SEQEND
  5
107
330
101
100
AcDbEntity
  8
Layer 1
370
    18
  0
POLYLINE
  5
108
330
1F
100
AcDbEntity
  8
Layer 1
 62
     7
370
    18
100
AcDb2dPolyline
 66
     1
 10
0.0
 20
0.0
 30
0.0
  0
VERTEX
  5
109
330
108
100
AcDbEntity
  8
Layer 1
 62
     7
370
    18
100
AcDbVertex
100
AcDb2dVertex
 10
2.634197700648706
 20
8.167431601245173
 30
0.0
  0
VERTEX
  5
10A
330
108
100
AcDbEntity
  8
Layer 1
 62
     7
370
    18
100
AcDbVertex
100
AcDb2dVertex
 10
2.634197700648706
 20
7.674477445874155
 30
0.0
  0
VERTEX
  5
10B
330
108
100
AcDbEntity
  8
Layer 1
 62
     7
370
    18
100
AcDbVertex
100
AcDb2dVertex
 10
2.465808375195579
 20
7.674477445874155
 30
0.0
  0
VERTEX
  5
10C
330
108
100
AcDbEntity
  8
Layer 1
 62
     7
370
    18
100
AcDbVertex
100
AcDb2dVertex
 10
2.465808375195579
 20
7.618935417059773
 30
0.0
  0
VERTEX
  5
10D
330
108
100
AcDbEntity
  8
Layer 1
 62
     7
370
    18
100
AcDbVertex
100
AcDb2dVertex
 10
3.146296562655011
 20
7.618935417059773
 30
0.0
  0
VERTEX
  5
10E
330
108
100
AcDbEntity
  8
Layer 1
 62
     7
370
    18
100
AcDbVertex
100
AcDb2dVertex
 10
3.146296562655011
 20
8.167431601245173
 30
0.0
  0
VERTEX
  5
10F
330
108
100
AcDbEntity
  8
Layer 1
 62
     7
370
    18
100
AcDbVertex
100
AcDb2dVertex
 10
2.634197700648706
 20
8.167431601245173
 30
0.0
  0
SEQEND
  5
110
330
108
100
AcDbEntity
  8
Layer 1
370
    18
  0
POLYLINE
  5
111
330
1F
100
AcDbEntity
  8
Layer 1
 62
     7
370
    18
100
AcDb2dPolyline
 66
     1
 10
0.0
 20
0.0
 30
0.0
  0
VERTEX
  5
112
330
111
100
AcDbEntity
  8
Layer 1
 62
     7
370
    18
100
AcDbVertex
100
AcDb2dVertex
 10
2.710573076534857
 20
8.245543089387304
 30
0.0
  0
VERTEX
  5
113
330
111
100
AcDbEntity
  8
Layer 1
 62
     7
370
    18
100
AcDbVertex
100
AcDb2dVertex
 10
3.069907623391861
 20
8.245543089387304
 30
0.0
  0
VERTEX
  5
114
330
111
100
AcDbEntity
  8
Layer 1
 62
     7
370
    18
100
AcDbVertex
100
AcDb2dVertex
 10
3.146296562655011
 20
8.167431601245173
 30
0.0
  0
VERTEX
  5
115
330
111
100
AcDbEntity
  8
Layer 1
 62
     7
370
    18
100
AcDbVertex
100
AcDb2dVertex
 10
2.634197700648706
 20
8.167431601245173
 30
0.0
  0
VERTEX
  5
116
330
111
100
AcDbEntity
  8
Layer 1
 62
     7
370
    18
100
AcDbVertex
100
AcDb2dVertex
 10
2.710573076534857
 20
8.245543089387304
 30
0.0
  0
SEQEND
  5
117
330
111
100
AcDbEntity
  8
Layer 1
370
    18
  0
POLYLINE
  5
118
330
1F
100
AcDbEntity
  8
Layer 1
370
     0
100
AcDb2dPolyline
 66
     1
 10
0.0
 20
0.0
 30
0.0
  0
VERTEX
  5
119
330
118
100
AcDbEntity
  8
Layer 1
370
     0
100
AcDbVertex
100
AcDb2dVertex
 10
3.06094901288346
 20
8.301464892757682
 30
0.0
  0
VERTEX
  5
11A
330
118
100
AcDbEntity
  8
Layer 1
370
     0
100
AcDbVertex
100
AcDb2dVertex
 10
3.076221375385291
 20
8.337448531938282
 30
0.0
  0
VERTEX
  5
11B
330
118
100
AcDbEntity
  8
Layer 1
370
     0
100
AcDbVertex
100
AcDb2dVertex
 10
3.06094901288346
 20
8.373452516184383
 30
0.0
  0
VERTEX
  5
11C
330
118
100
AcDbEntity
  8
Layer 1
370
     0
100
AcDbVertex
100
AcDb2dVertex
 10
3.146282999278011
 20
8.337448531938282
 30
0.0
  0
VERTEX
  5
11D
330
118
100
AcDbEntity
  8
Layer 1
370
     0
100
AcDbVertex
100
AcDb2dVertex
 10
3.06094901288346
 20
8.301464892757682
 30
0.0
  0
SEQEND
  5
11E
330
118
100
AcDbEntity
  8
Layer 1
370
     0
  0
HATCH
  5
11F
330
1F
100
AcDbEntity
  8
Layer 1
 62
     7
100
AcDbHatch
 10
0.0
 20
0.0
 30
0.0
210
0.0
220
0.0
230
1.0
  2
SOLID
 70
     1
 71
     0
 91
        1
 92
        1
 93
        4
 72
     1
 10
3.06094901288346
 20
8.301464892757682
 11
3.076221375385291
 21
8.337448531938282
 72
     1
 10
3.076221375385291
 20
8.337448531938282
 11
3.06094901288346
 21
8.373452516184383
 72
     1
 10
3.06094901288346
 20
8.373452516184383
 11
3.146282999278011
 21
8.337448531938282
 72
     1
 10
3.146282999278011
 20
8.337448531938282
 11
3.06094901288346
 21
8.301464892757682
 97
        0
 75
     2
 76
     1
 98
        0
  0
POLYLINE
  5
120
330
1F
100
AcDbEntity
  8
Layer 1
 62
     7
370
    18
100
AcDb2dPolyline
 66
     1
 10
0.0
 20
0.0
 30
0.0
  0
VERTEX
  5
121
330
120
100
AcDbEntity
  8
Layer 1
 62
     7
370
    18
100
AcDbVertex
100
AcDb2dVertex
 10
3.282432177602498
 20
8.189641631082427
 30
0.0
  0
VERTEX
  5
122
330
120
100
AcDbEntity
  8
Layer 1
 62
     7
370
    18
100
AcDbVertex
100
AcDb2dVertex
 10
3.202374344860888
 20
8.189641631082427
 30
0.0
  0
SEQEND
  5
123
330
120
100
AcDbEntity
  8
Layer 1
370
    18
  0
POLYLINE
  5
124
330
1F
100
AcDbEntity
  8
Layer 1
370
     0
100
AcDb2dPolyline
 66
     1
 10
0.0
 20
0.0
 30
0.0
  0
VERTEX
  5
125
330
124
100
AcDbEntity
  8
Layer 1
370
     0
100
AcDbVertex
100
AcDb2dVertex
 10
3.229643514319084
 20
8.225632051951527
 30
0.0
  0
VERTEX
  5
126
330
124
100
AcDbEntity
  8
Layer 1
370
     0
100
AcDbVertex
100
AcDb2dVertex
 10
3.214377933505754
 20
8.189641631082427
 30
0.0
  0
VERTEX
  5
127
330
124
100
AcDbEntity
  8
Layer 1
370
     0
100
AcDbVertex
100
AcDb2dVertex
 10
3.229643514319084
 20
8.153644428524826
 30
0.0
  0
VERTEX
  5
128
330
124
100
AcDbEntity
  8
Layer 1
370
     0
100
AcDbVertex
100
AcDb2dVertex
 10
3.144323091301533
 20
8.189641631082427
 30
0.0
  0
VERTEX
  5
129
330
124
100
AcDbEntity
  8
Layer 1
370
     0
100
AcDbVertex
100
AcDb2dVertex
 10
3.229643514319084
 20
8.225632051951527
 30
0.0
  0
SEQEND
  5
12A
330
124
100
AcDbEntity
  8
Layer 1
370
     0
  0
HATCH
  5
12B
330
1F
100
AcDbEntity
  8
Layer 1
 62
     7
100
AcDbHatch
 10
0.0
 20
0.0
 30
0.0
210
0.0
220
0.0
230
1.0
  2
SOLID
 70
     1
 71
     0
 91
        1
 92
        1
 93
        4
 72
     1
 10
3.229643514319084
 20
8.225632051951527
 11
3.214377933505754
 21
8.189641631082427
 72
     1
 10
3.214377933505754
 20
8.189641631082427
 11
3.229643514319084
 21
8.153644428524826
 72
     1
 10
3.229643514319084
 20
8.153644428524826
 11
3.144323091301533
 21
8.189641631082427
 72
     1
 10
3.144323091301533
 20
8.189641631082427
 11
3.229643514319084
 21
8.225632051951527
 97
        0
 75
     2
 76
     1
 98
        0
  0
POLYLINE
  5
12C
330
1F
100
AcDbEntity
  8
Layer 1
370
     0
100
AcDb2dPolyline
 66
     1
 10
0.0
 20
0.0
 30
0.0
  0
VERTEX
  5
12D
330
12C
100
AcDbEntity
  8
Layer 1
370
     0
100
AcDbVertex
100
AcDb2dVertex
 10
2.717212349576283
 20
8.373452516184383
 30
0.0
  0
VERTEX
  5
12E
330
12C
100
AcDbEntity
  8
Layer 1
370
     0
100
AcDbVertex
100
AcDb2dVertex
 10
2.701933205385953
 20
8.337462095315283
 30
0.0
  0
VERTEX
  5
12F
330
12C
100
AcDbEntity
  8
Layer 1
370
     0
100
AcDbVertex
100
AcDb2dVertex
 10
2.717212349576283
 20
8.301464892757682
 30
0.0
  0
VERTEX
  5
130
330
12C
100
AcDbEntity
  8
Layer 1
370
     0
100
AcDbVertex
100
AcDb2dVertex
 10
2.631878363181732
 20
8.337462095315283
 30
0.0
  0
VERTEX
  5
131
330
12C
100
AcDbEntity
  8
Layer 1
370
     0
100
AcDbVertex
100
AcDb2dVertex
 10
2.717212349576283
 20
8.373452516184383
 30
0.0
  0
SEQEND
  5
132
330
12C
100
AcDbEntity
  8
Layer 1
370
     0
  0
HATCH
  5
133
330
1F
100
AcDbEntity
  8
Layer 1
 62
     7
100
AcDbHatch
 10
0.0
 20
0.0
 30
0.0
210
0.0
220
0.0
230
1.0
  2
SOLID
 70
     1
 71
     0
 91
        1
 92
        1
 93
        4
 72
     1
 10
2.717212349576283
 20
8.373452516184383
 11
2.701933205385953
 21
8.337462095315283
 72
     1
 10
2.701933205385953
 20
8.337462095315283
 11
2.717212349576283
 21
8.301464892757682
 72
     1
 10
2.717212349576283
 20
8.301464892757682
 11
2.631878363181732
 21
8.337462095315283
 72
     1
 10
2.631878363181732
 20
8.337462095315283
 11
2.717212349576283
 21
8.373452516184383
 97
        0
 75
     2
 76
     1
 98
        0
  0
POLYLINE
  5
134
330
1F
100
AcDbEntity
  8
Layer 1
370
     0
100
AcDb2dPolyline
 66
     1
 10
0.0
 20
0.0
 30
0.0
  0
VERTEX
  5
135
330
134
100
AcDbEntity
  8
Layer 1
370
     0
100
AcDbVertex
100
AcDb2dVertex
 10
2.830141026477027
 20
5.703922218451069
 30
0.0
  0
VERTEX
  5
136
330
134
100
AcDbEntity
  8
Layer 1
370
     0
100
AcDbVertex
100
AcDb2dVertex
 10
2.845420170667357
 20
5.739905857631669
 30
0.0
  0
VERTEX
  5
137
330
134
100
AcDbEntity
  8
Layer 1
370
     0
100
AcDbVertex
100
AcDb2dVertex
 10
2.830141026477027
 20
5.775909841877769
 30
0.0
  0
VERTEX
  5
138
330
134
100
AcDbEntity
  8
Layer 1
370
     0
100
AcDbVertex
100
AcDb2dVertex
 10
2.915475012871578
 20
5.739905857631669
 30
0.0
  0
VERTEX
  5
139
330
134
100
AcDbEntity
  8
Layer 1
370
     0
100
AcDbVertex
100
AcDb2dVertex
 10
2.830141026477027
 20
5.703922218451069
 30
0.0
  0
SEQEND
  5
13A
330
134
100
AcDbEntity
  8
Layer 1
370
     0
  0
HATCH
  5
13B
330
1F
100
AcDbEntity
  8
Layer 1
 62
     7
100
AcDbHatch
 10
0.0
 20
0.0
 30
0.0
210
0.0
220
0.0
230
1.0
  2
SOLID
 70
     1
 71
     0
 91
        1
 92
        1
 93
        4
 72
     1
 10
2.830141026477027
 20
5.703922218451069
 11
2.845420170667357
 21
5.739905857631669
 72
     1
 10
2.845420170667357
 20
5.739905857631669
 11
2.830141026477027
 21
5.775909841877769
 72
     1
 10
2.830141026477027
 20
5.775909841877769
 11
2.915475012871578
 21
5.739905857631669
 72
     1
 10
2.915475012871578
 20
5.739905857631669
 11
2.830141026477027
 21
5.703922218451069
 97
        0
 75
     2
 76
     1
 98
        0
  0
POLYLINE
  5
13C
330
1F
100
AcDbEntity
  8
Layer 1
370
     0
100
AcDb2dPolyline
 66
     1
 10
0.0
 20
0.0
 30
0.0
  0
VERTEX
  5
13D
330
13C
100
AcDbEntity
  8
Layer 1
370
     0
100
AcDbVertex
100
AcDb2dVertex
 10
2.781835059292064
 20
5.775909841877769
 30
0.0
  0
VERTEX
  5
13E
330
13C
100
AcDbEntity
  8
Layer 1
370
     0
100
AcDbVertex
100
AcDb2dVertex
 10
2.766555915101734
 20
5.739919421008668
 30
0.0
  0
VERTEX
  5
13F
330
13C
100
AcDbEntity
  8
Layer 1
370
     0
100
AcDbVertex
100
AcDb2dVertex
 10
2.781835059292064
 20
5.703922218451069
 30
0.0
  0
VERTEX
  5
140
330
13C
100
AcDbEntity
  8
Layer 1
370
     0
100
AcDbVertex
100
AcDb2dVertex
 10
2.696501072897513
 20
5.739919421008668
 30
0.0
  0
VERTEX
  5
141
330
13C
100
AcDbEntity
  8
Layer 1
370
     0
100
AcDbVertex
100
AcDb2dVertex
 10
2.781835059292064
 20
5.775909841877769
 30
0.0
  0
SEQEND
  5
142
330
13C
100
AcDbEntity
  8
Layer 1
370
     0
  0
HATCH
  5
143
330
1F
100
AcDbEntity
  8
Layer 1
 62
     7
100
AcDbHatch
 10
0.0
 20
0.0
 30
0.0
210
0.0
220
0.0
230
1.0
  2
SOLID
 70
     1
 71
     0
 91
        1
 92
        1
 93
        4
 72
     1
 10
2.781835059292064
 20
5.775909841877769
 11
2.766555915101734
 21
5.739919421008668
 72
     1
 10
2.766555915101734
 20
5.739919421008668
 11
2.781835059292064
 21
5.703922218451069
 72
     1
 10
2.781835059292064
 20
5.703922218451069
 11
2.696501072897513
 21
5.739919421008668
 72
     1
 10
2.696501072897513
 20
5.739919421008668
 11
2.781835059292064
 21
5.775909841877769
 97
        0
 75
     2
 76
     1
 98
        0
  0
POLYLINE
  5
144
330
1F
100
AcDbEntity
  8
Layer 1
 62
     7
370
    18
100
AcDb2dPolyline
 66
     1
 10
0.0
 20
0.0
 30
0.0
  0
VERTEX
  5
145
330
144
100
AcDbEntity
  8
Layer 1
 62
     7
370
    18
100
AcDbVertex
100
AcDb2dVertex
 10
2.022903080954004
 20
7.813949651563604
 30
0.0
  0
VERTEX
  5
146
330
144
100
AcDbEntity
  8
Layer 1
 62
     7
370
    18
100
AcDbVertex
100
AcDb2dVertex
 10
2.022903080954004
 20
7.733878255444995
 30
0.0
  0
SEQEND
  5
147
330
144
100
AcDbEntity
  8
Layer 1
370
    18
  0
POLYLINE
  5
148
330
1F
100
AcDbEntity
  8
Layer 1
370
     0
100
AcDb2dPolyline
 66
     1
 10
0.0
 20
0.0
 30
0.0
  0
VERTEX
  5
149
330
148
100
AcDbEntity
  8
Layer 1
370
     0
100
AcDbVertex
100
AcDb2dVertex
 10
1.986905878396404
 20
7.761174551657192
 30
0.0
  0
VERTEX
  5
14A
330
148
100
AcDbEntity
  8
Layer 1
370
     0
100
AcDbVertex
100
AcDb2dVertex
 10
2.022903080954004
 20
7.745908970843861
 30
0.0
  0
VERTEX
  5
14B
330
148
100
AcDbEntity
  8
Layer 1
370
     0
100
AcDbVertex
100
AcDb2dVertex
 10
2.058893501823104
 20
7.761174551657192
 30
0.0
  0
VERTEX
  5
14C
330
148
100
AcDbEntity
  8
Layer 1
370
     0
100
AcDbVertex
100
AcDb2dVertex
 10
2.022903080954004
 20
7.67585412863964
 30
0.0
  0
VERTEX
  5
14D
330
148
100
AcDbEntity
  8
Layer 1
370
     0
100
AcDbVertex
100
AcDb2dVertex
 10
1.986905878396404
 20
7.761174551657192
 30
0.0
  0
SEQEND
  5
14E
330
148
100
AcDbEntity
  8
Layer 1
370
     0
  0
HATCH
  5
14F
330
1F
100
AcDbEntity
  8
Layer 1
 62
     7
100
AcDbHatch
 10
0.0
 20
0.0
 30
0.0
210
0.0
220
0.0
230
1.0
  2
SOLID
 70
     1
 71
     0
 91
        1
 92
        1
 93
        4
 72
     1
 10
1.986905878396404
 20
7.761174551657192
 11
2.022903080954004
 21
7.745908970843861
 72
     1
 10
2.022903080954004
 20
7.745908970843861
 11
2.058893501823104
 21
7.761174551657192
 72
     1
 10
2.058893501823104
 20
7.761174551657192
 11
2.022903080954004
 21
7.67585412863964
 72
     1
 10
2.022903080954004
 20
7.67585412863964
 11
1.986905878396404
 21
7.761174551657192
 97
        0
 75
     2
 76
     1
 98
        0
  0
POLYLINE
  5
150
330
1F
100
AcDbEntity
  8
Layer 1
 62
     7
370
    18
100
AcDb2dPolyline
 66
     1
 10
0.0
 20
0.0
 30
0.0
  0
VERTEX
  5
151
330
150
100
AcDbEntity
  8
Layer 1
 62
     7
370
    18
100
AcDbVertex
100
AcDb2dVertex
 10
2.022903080954004
 20
8.10746112984034
 30
0.0
  0
VERTEX
  5
152
330
150
100
AcDbEntity
  8
Layer 1
 62
     7
370
    18
100
AcDbVertex
100
AcDb2dVertex
 10
2.022903080954004
 20
8.18750539920495
 30
0.0
  0
SEQEND
  5
153
330
150
100
AcDbEntity
  8
Layer 1
370
    18
  0
POLYLINE
  5
154
330
1F
100
AcDbEntity
  8
Layer 1
370
     0
100
AcDb2dPolyline
 66
     1
 10
0.0
 20
0.0
 30
0.0
  0
VERTEX
  5
155
330
154
100
AcDbEntity
  8
Layer 1
370
     0
100
AcDbVertex
100
AcDb2dVertex
 10
2.058893501823104
 20
8.160229448058253
 30
0.0
  0
VERTEX
  5
156
330
154
100
AcDbEntity
  8
Layer 1
370
     0
100
AcDbVertex
100
AcDb2dVertex
 10
2.022889517577004
 20
8.175488247183084
 30
0.0
  0
VERTEX
  5
157
330
154
100
AcDbEntity
  8
Layer 1
370
     0
100
AcDbVertex
100
AcDb2dVertex
 10
1.986905878396404
 20
8.160229448058253
 30
0.0
  0
VERTEX
  5
158
330
154
100
AcDbEntity
  8
Layer 1
370
     0
100
AcDbVertex
100
AcDb2dVertex
 10
2.022889517577004
 20
8.245543089387304
 30
0.0
  0
VERTEX
  5
159
330
154
100
AcDbEntity
  8
Layer 1
370
     0
100
AcDbVertex
100
AcDb2dVertex
 10
2.058893501823104
 20
8.160229448058253
 30
0.0
  0
SEQEND
  5
15A
330
154
100
AcDbEntity
  8
Layer 1
370
     0
  0
HATCH
  5
15B
330
1F
100
AcDbEntity
  8
Layer 1
 62
     7
100
AcDbHatch
 10
0.0
 20
0.0
 30
0.0
210
0.0
220
0.0
230
1.0
  2
SOLID
 70
     1
 71
     0
 91
        1
 92
        1
 93
        4
 72
     1
 10
2.058893501823104
 20
8.160229448058253
 11
2.022889517577004
 21
8.175488247183084
 72
     1
 10
2.022889517577004
 20
8.175488247183084
 11
1.986905878396404
 21
8.160229448058253
 72
     1
 10
1.986905878396404
 20
8.160229448058253
 11
2.022889517577004
 21
8.245543089387304
 72
     1
 10
2.022889517577004
 20
8.245543089387304
 11
2.058893501823104
 21
8.160229448058253
 97
        0
 75
     2
 76
     1
 98
        0
  0
POLYLINE
  5
15C
330
1F
100
AcDbEntity
  8
Layer 1
370
     0
100
AcDb2dPolyline
 66
     1
 10
0.0
 20
0.0
 30
0.0
  0
VERTEX
  5
15D
330
15C
100
AcDbEntity
  8
Layer 1
370
     0
100
AcDbVertex
100
AcDb2dVertex
 10
2.339485863507484
 20
8.099696096507927
 30
0.0
  0
VERTEX
  5
15E
330
15C
100
AcDbEntity
  8
Layer 1
370
     0
100
AcDbVertex
100
AcDb2dVertex
 10
2.303488660949884
 20
8.114961677321256
 30
0.0
  0
VERTEX
  5
15F
330
15C
100
AcDbEntity
  8
Layer 1
370
     0
100
AcDbVertex
100
AcDb2dVertex
 10
2.267498240080784
 20
8.099696096507927
 30
0.0
  0
VERTEX
  5
160
330
15C
100
AcDbEntity
  8
Layer 1
370
     0
100
AcDbVertex
100
AcDb2dVertex
 10
2.303488660949884
 20
8.185016519525478
 30
0.0
  0
VERTEX
  5
161
330
15C
100
AcDbEntity
  8
Layer 1
370
     0
100
AcDbVertex
100
AcDb2dVertex
 10
2.339485863507484
 20
8.099696096507927
 30
0.0
  0
SEQEND
  5
162
330
15C
100
AcDbEntity
  8
Layer 1
370
     0
  0
HATCH
  5
163
330
1F
100
AcDbEntity
  8
Layer 1
 62
     7
100
AcDbHatch
 10
0.0
 20
0.0
 30
0.0
210
0.0
220
0.0
230
1.0
  2
SOLID
 70
     1
 71
     0
 91
        1
 92
        1
 93
        4
 72
     1
 10
2.339485863507484
 20
8.099696096507927
 11
2.303488660949884
 21
8.114961677321256
 72
     1
 10
2.303488660949884
 20
8.114961677321256
 11
2.267498240080784
 21
8.099696096507927
 72
     1
 10
2.267498240080784
 20
8.099696096507927
 11
2.303488660949884
 21
8.185016519525478
 72
     1
 10
2.303488660949884
 20
8.185016519525478
 11
2.339485863507484
 21
8.099696096507927
 97
        0
 75
     2
 76
     1
 98
        0
  0
POLYLINE
  5
164
330
1F
100
AcDbEntity
  8
Layer 1
370
     0
100
AcDb2dPolyline
 66
     1
 10
0.0
 20
0.0
 30
0.0
  0
VERTEX
  5
165
330
164
100
AcDbEntity
  8
Layer 1
370
     0
100
AcDbVertex
100
AcDb2dVertex
 10
2.267498240080784
 20
8.330870294093355
 30
0.0
  0
VERTEX
  5
166
330
164
100
AcDbEntity
  8
Layer 1
370
     0
100
AcDbVertex
100
AcDb2dVertex
 10
2.303502224326884
 20
8.315604713280026
 30
0.0
  0
VERTEX
  5
167
330
164
100
AcDbEntity
  8
Layer 1
370
     0
100
AcDbVertex
100
AcDb2dVertex
 10
2.339485863507484
 20
8.330870294093355
 30
0.0
  0
VERTEX
  5
168
330
164
100
AcDbEntity
  8
Layer 1
370
     0
100
AcDbVertex
100
AcDb2dVertex
 10
2.303502224326884
 20
8.245549871075804
 30
0.0
  0
VERTEX
  5
169
330
164
100
AcDbEntity
  8
Layer 1
370
     0
100
AcDbVertex
100
AcDb2dVertex
 10
2.267498240080784
 20
8.330870294093355
 30
0.0
  0
SEQEND
  5
16A
330
164
100
AcDbEntity
  8
Layer 1
370
     0
  0
HATCH
  5
16B
330
1F
100
AcDbEntity
  8
Layer 1
 62
     7
100
AcDbHatch
 10
0.0
 20
0.0
 30
0.0
210
0.0
220
0.0
230
1.0
  2
SOLID
 70
     1
 71
     0
 91
        1
 92
        1
 93
        4
 72
     1
 10
2.267498240080784
 20
8.330870294093355
 11
2.303502224326884
 21
8.315604713280026
 72
     1
 10
2.303502224326884
 20
8.315604713280026
 11
2.339485863507484
 21
8.330870294093355
 72
     1
 10
2.339485863507484
 20
8.330870294093355
 11
2.303502224326884
 21
8.245549871075804
 72
     1
 10
2.303502224326884
 20
8.245549871075804
 11
2.267498240080784
 21
8.330870294093355
 97
        0
 75
     2
 76
     1
 98
        0
  0
POLYLINE
  5
16C
330
1F
100
AcDbEntity
  8
Layer 1
 62
     7
370
    18
100
AcDb2dPolyline
 66
     1
 10
0.0
 20
0.0
 30
0.0
  0
VERTEX
  5
16D
330
16C
100
AcDbEntity
  8
Layer 1
 62
     7
370
    18
100
AcDbVertex
100
AcDb2dVertex
 10
3.06372272347993
 20
7.072202471884353
 30
0.0
  0
VERTEX
  5
16E
330
16C
100
AcDbEntity
  8
Layer 1
 62
     7
370
    18
100
AcDbVertex
100
AcDb2dVertex
 10
3.143780556221539
 20
7.072202471884353
 30
0.0
  0
SEQEND
  5
16F
330
16C
100
AcDbEntity
  8
Layer 1
370
    18
  0
POLYLINE
  5
170
330
1F
100
AcDbEntity
  8
Layer 1
370
     0
100
AcDb2dPolyline
 66
     1
 10
0.0
 20
0.0
 30
0.0
  0
VERTEX
  5
171
330
170
100
AcDbEntity
  8
Layer 1
370
     0
100
AcDbVertex
100
AcDb2dVertex
 10
3.116491041697843
 20
7.036198487638253
 30
0.0
  0
VERTEX
  5
172
330
170
100
AcDbEntity
  8
Layer 1
370
     0
100
AcDbVertex
100
AcDb2dVertex
 10
3.131763404199673
 20
7.072182126818853
 30
0.0
  0
VERTEX
  5
173
330
170
100
AcDbEntity
  8
Layer 1
370
     0
100
AcDbVertex
100
AcDb2dVertex
 10
3.116491041697843
 20
7.108186111064953
 30
0.0
  0
VERTEX
  5
174
330
170
100
AcDbEntity
  8
Layer 1
370
     0
100
AcDbVertex
100
AcDb2dVertex
 10
3.201818246403894
 20
7.072182126818853
 30
0.0
  0
VERTEX
  5
175
330
170
100
AcDbEntity
  8
Layer 1
370
     0
100
AcDbVertex
100
AcDb2dVertex
 10
3.116491041697843
 20
7.036198487638253
 30
0.0
  0
SEQEND
  5
176
330
170
100
AcDbEntity
  8
Layer 1
370
     0
  0
HATCH
  5
177
330
1F
100
AcDbEntity
  8
Layer 1
 62
     7
100
AcDbHatch
 10
0.0
 20
0.0
 30
0.0
210
0.0
220
0.0
230
1.0
  2
SOLID
 70
     1
 71
     0
 91
        1
 92
        1
 93
        4
 72
     1
 10
3.116491041697843
 20
7.036198487638253
 11
3.131763404199673
 21
7.072182126818853
 72
     1
 10
3.131763404199673
 20
7.072182126818853
 11
3.116491041697843
 21
7.108186111064953
 72
     1
 10
3.116491041697843
 20
7.108186111064953
 11
3.201818246403894
 21
7.072182126818853
 72
     1
 10
3.201818246403894
 20
7.072182126818853
 11
3.116491041697843
 21
7.036198487638253
 97
        0
 75
     2
 76
     1
 98
        0
  0
POLYLINE
  5
178
330
1F
100
AcDbEntity
  8
Layer 1
 62
     7
370
    18
100
AcDb2dPolyline
 66
     1
 10
0.0
 20
0.0
 30
0.0
  0
VERTEX
  5
179
330
178
100
AcDbEntity
  8
Layer 1
 62
     7
370
    18
100
AcDbVertex
100
AcDb2dVertex
 10
2.548334742551161
 20
7.072202471884353
 30
0.0
  0
VERTEX
  5
17A
330
178
100
AcDbEntity
  8
Layer 1
 62
     7
370
    18
100
AcDbVertex
100
AcDb2dVertex
 10
2.468290473186551
 20
7.072202471884353
 30
0.0
  0
SEQEND
  5
17B
330
178
100
AcDbEntity
  8
Layer 1
370
    18
  0
POLYLINE
  5
17C
330
1F
100
AcDbEntity
  8
Layer 1
370
     0
100
AcDb2dPolyline
 66
     1
 10
0.0
 20
0.0
 30
0.0
  0
VERTEX
  5
17D
330
17C
100
AcDbEntity
  8
Layer 1
370
     0
100
AcDbVertex
100
AcDb2dVertex
 10
2.495586769398748
 20
7.108186111064953
 30
0.0
  0
VERTEX
  5
17E
330
17C
100
AcDbEntity
  8
Layer 1
370
     0
100
AcDbVertex
100
AcDb2dVertex
 10
2.480307625208417
 20
7.072202471884353
 30
0.0
  0
VERTEX
  5
17F
330
17C
100
AcDbEntity
  8
Layer 1
370
     0
100
AcDbVertex
100
AcDb2dVertex
 10
2.495586769398748
 20
7.036198487638253
 30
0.0
  0
VERTEX
  5
180
330
17C
100
AcDbEntity
  8
Layer 1
370
     0
100
AcDbVertex
100
AcDb2dVertex
 10
2.410252783004196
 20
7.072202471884353
 30
0.0
  0
VERTEX
  5
181
330
17C
100
AcDbEntity
  8
Layer 1
370
     0
100
AcDbVertex
100
AcDb2dVertex
 10
2.495586769398748
 20
7.108186111064953
 30
0.0
  0
SEQEND
  5
182
330
17C
100
AcDbEntity
  8
Layer 1
370
     0
  0
HATCH
  5
183
330
1F
100
AcDbEntity
  8
Layer 1
 62
     7
100
AcDbHatch
 10
0.0
 20
0.0
 30
0.0
210
0.0
220
0.0
230
1.0
  2
SOLID
 70
     1
 71
     0
 91
        1
 92
        1
 93
        4
 72
     1
 10
2.495586769398748
 20
7.108186111064953
 11
2.480307625208417
 21
7.072202471884353
 72
     1
 10
2.480307625208417
 20
7.072202471884353
 11
2.495586769398748
 21
7.036198487638253
 72
     1
 10
2.495586769398748
 20
7.036198487638253
 11
2.410252783004196
 21
7.072202471884353
 72
     1
 10
2.410252783004196
 20
7.072202471884353
 11
2.495586769398748
 21
7.108186111064953
 97
        0
 75
     2
 76
     1
 98
        0
  0
MTEXT
  5
184
330
1F
100
AcDbEntity
  8
Layer 1
 62
     7
100
AcDbMText
 10
1.948216345504335
 20
7.984658314483706
 30
0.0
 40
0.0755404962551394
 41
0.0
 71
     7
 72
     1
  1
\fHelvetica|b0|i0|c0|p34;\W1.0001;5
 73
     1
 44
1.0
  0
MTEXT
  5
185
330
1F
100
AcDbEntity
  8
Layer 1
 62
     7
100
AcDbMText
 10
1.864889738905761
 20
7.887456373214286
 30
0.0
 40
0.0755404962551394
 41
0.0
 71
     7
 72
     1
  1
\fHelvetica|b0|i0|c0|p34;\W1.0001;(.20)
 73
     1
 44
1.0
  0
MTEXT
  5
186
330
1F
100
AcDbEntity
  8
Layer 1
 62
     7
100
AcDbMText
 10
3.183616194470096
 20
8.289386705539316
 30
0.0
 40
0.0755404962551394
 41
0.0
 71
     7
 72
     1
  1
\fHelvetica|b0|i0|c0|p34;\W1.0001;(.177\U+00B1.004)
 73
     1
 44
1.0
  0
MTEXT
  5
187
330
1F
100
AcDbEntity
  8
Layer 1
 62
     7
100
AcDbMText
 10
3.311790107118671
 20
8.143593966167938
 30
0.0
 40
0.0755404962551394
 41
0.0
 71
     7
 72
     1
  1
\fHelvetica|b0|i0|c0|p34;\W1.0001;C0.7
 73
     1
 44
1.0
  0
MTEXT
  5
188
330
1F
100
AcDbEntity
  8
Layer 1
 62
     7
100
AcDbMText
 10
1.81106347728186
 20
7.199569363601436
 30
0.0
 40
0.0755404962551394
 41
0.0
 71
     7
 72
     1
  1
\fHelvetica|b0|i0|c0|p34;\W1.0001;(.20)
 73
     1
 44
1.0
  0
MTEXT
  5
189
330
1F
100
AcDbEntity
  8
Layer 1
 62
     7
100
AcDbMText
 10
1.752388308380512
 20
6.625336671558823
 30
0.0
 40
0.0755404962551394
 41
0.0
 71
     7
 72
     1
  1
\fHelvetica|b0|i0|c0|p34;\W1.0001;(.035)
 73
     1
 44
1.0
  0
MTEXT
  5
18A
330
1F
100
AcDbEntity
  8
Layer 1
 62
     7
100
AcDbMText
 10
2.416959872930622
 20
5.741574153002651
 30
0.0
 40
0.0755404962551394
 41
0.0
 71
     7
 72
     1
  1
\fHelvetica|b0|i0|c0|p34;\W1.0001;2
 73
     1
 44
1.0
  0
MTEXT
  5
18B
330
1F
100
AcDbEntity
  8
Layer 1
 62
     7
100
AcDbMText
 10
2.583097677801774
 20
7.236929685547521
 30
0.0
 40
0.0755404962551394
 41
0.0
 71
     7
 72
     1
  1
\fHelvetica|b0|i0|c0|p34;\W1.0001;\U+00F86.8\U+00B1.20
 73
     1
 44
1.0
  0
MTEXT
  5
18C
330
1F
100
AcDbEntity
  8
Layer 1
 62
     7
100
AcDbMText
 10
2.484315603111873
 20
7.139727744278102
 30
0.0
 40
0.0755404962551394
 41
0.0
 71
     7
 72
     1
  1
\fHelvetica|b0|i0|c0|p34;\W1.0001;(\U+00F8.267\U+00B1.008)
 73
     1
 44
1.0
  0
MTEXT
  5
18D
330
1F
100
AcDbEntity
  8
Layer 1
 62
     7
100
AcDbMText
 10
3.782391817193937
 20
6.076548874767925
 30
0.0
 40
0.0755404962551394
 41
0.0
 71
     7
 72
     1
  1
\fHelvetica|b0|i0|c0|p34;\W1.0001;3.5\U+00B1.50
 73
     1
 44
1.0
  0
MTEXT
  5
18E
330
1F
100
AcDbEntity
  8
Layer 1
 62
     7
100
AcDbMText
 10
3.714507115309693
 20
5.979346933498507
 30
0.0
 40
0.0755404962551394
 41
0.0
 71
     7
 72
     1
  1
\fHelvetica|b0|i0|c0|p34;\W1.0001;(.137\U+00B1.02)
 73
     1
 44
1.0
  0
POLYLINE
  5
18F
330
1F
100
AcDbEntity
  8
Layer 1
 62
     7
370
    18
100
AcDb2dPolyline
 66
     1
 10
0.0
 20
0.0
 30
0.0
  0
VERTEX
  5
190
330
18F
100
AcDbEntity
  8
Layer 1
 62
     7
370
    18
100
AcDbVertex
100
AcDb2dVertex
 10
3.146282999278011
 20
8.222905813174556
 30
0.0
  0
VERTEX
  5
191
330
18F
100
AcDbEntity
  8
Layer 1
 62
     7
370
    18
100
AcDbVertex
100
AcDb2dVertex
 10
3.146282999278011
 20
8.482257926477173
 30
0.0
  0
SEQEND
  5
192
330
18F
100
AcDbEntity
  8
Layer 1
370
    18
  0
POLYLINE
  5
193
330
1F
100
AcDbEntity
  8
Layer 1
 62
     7
370
    18
100
AcDb2dPolyline
 66
     1
 10
0.0
 20
0.0
 30
0.0
  0
VERTEX
  5
194
330
193
100
AcDbEntity
  8
Layer 1
 62
     7
370
    18
100
AcDbVertex
100
AcDb2dVertex
 10
2.474197323869985
 20
7.705781719989807
 30
0.0
  0
VERTEX
  5
195
330
193
100
AcDbEntity
  8
Layer 1
 62
     7
370
    18
100
AcDbVertex
100
AcDb2dVertex
 10
2.474197323869985
 20
8.482271489854172
 30
0.0
  0
SEQEND
  5
196
330
193
100
AcDbEntity
  8
Layer 1
370
    18
  0
POLYLINE
  5
197
330
1F
100
AcDbEntity
  8
Layer 1
 62
     7
370
    18
100
AcDb2dPolyline
 66
     1
 10
0.0
 20
0.0
 30
0.0
  0
VERTEX
  5
198
330
197
100
AcDbEntity
  8
Layer 1
 62
     7
370
    18
100
AcDbVertex
100
AcDb2dVertex
 10
2.631878363181732
 20
8.222905813174556
 30
0.0
  0
VERTEX
  5
199
330
197
100
AcDbEntity
  8
Layer 1
 62
     7
370
    18
100
AcDbVertex
100
AcDb2dVertex
 10
2.631878363181732
 20
8.377087501220341
 30
0.0
  0
SEQEND
  5
19A
330
197
100
AcDbEntity
  8
Layer 1
370
    18
  0
POLYLINE
  5
19B
330
1F
100
AcDbEntity
  8
Layer 1
 62
     7
370
    18
100
AcDb2dPolyline
 66
     1
 10
0.0
 20
0.0
 30
0.0
  0
VERTEX
  5
19C
330
19B
100
AcDbEntity
  8
Layer 1
 62
     7
370
    18
100
AcDbVertex
100
AcDb2dVertex
 10
2.676779922739732
 20
8.245549871075804
 30
0.0
  0
VERTEX
  5
19D
330
19B
100
AcDbEntity
  8
Layer 1
 62
     7
370
    18
100
AcDbVertex
100
AcDb2dVertex
 10
1.167664344228515
 20
8.245549871075804
 30
0.0
  0
SEQEND
  5
19E
330
19B
100
AcDbEntity
  8
Layer 1
370
    18
  0
POLYLINE
  5
19F
330
1F
100
AcDbEntity
  8
Layer 1
 62
     7
370
    18
100
AcDb2dPolyline
 66
     1
 10
0.0
 20
0.0
 30
0.0
  0
VERTEX
  5
1A0
330
19F
100
AcDbEntity
  8
Layer 1
 62
     7
370
    18
100
AcDbVertex
100
AcDb2dVertex
 10
2.399029088536822
 20
7.67585412863964
 30
0.0
  0
VERTEX
  5
1A1
330
19F
100
AcDbEntity
  8
Layer 1
 62
     7
370
    18
100
AcDbVertex
100
AcDb2dVertex
 10
1.975058268587036
 20
7.67585412863964
 30
0.0
  0
SEQEND
  5
1A2
330
19F
100
AcDbEntity
  8
Layer 1
370
    18
  0
POLYLINE
  5
1A3
330
1F
100
AcDbEntity
  8
Layer 1
 62
     7
370
    18
100
AcDb2dPolyline
 66
     1
 10
0.0
 20
0.0
 30
0.0
  0
VERTEX
  5
1A4
330
1A3
100
AcDbEntity
  8
Layer 1
 62
     7
370
    18
100
AcDbVertex
100
AcDb2dVertex
 10
2.399029088536822
 20
7.51849182868739
 30
0.0
  0
VERTEX
  5
1A5
330
1A3
100
AcDbEntity
  8
Layer 1
 62
     7
370
    18
100
AcDbVertex
100
AcDb2dVertex
 10
1.866680104669741
 20
7.51849182868739
 30
0.0
  0
SEQEND
  5
1A6
330
1A3
100
AcDbEntity
  8
Layer 1
370
    18
  0
POLYLINE
  5
1A7
330
1F
100
AcDbEntity
  8
Layer 1
 62
     7
370
    18
100
AcDb2dPolyline
 66
     1
 10
0.0
 20
0.0
 30
0.0
  0
VERTEX
  5
1A8
330
1A7
100
AcDbEntity
  8
Layer 1
 62
     7
370
    18
100
AcDbVertex
100
AcDb2dVertex
 10
2.02869464293294
 20
6.944530404184773
 30
0.0
  0
VERTEX
  5
1A9
330
1A7
100
AcDbEntity
  8
Layer 1
 62
     7
370
    18
100
AcDbVertex
100
AcDb2dVertex
 10
1.528748566718499
 20
6.944530404184773
 30
0.0
  0
SEQEND
  5
1AA
330
1A7
100
AcDbEntity
  8
Layer 1
370
    18
  0
POLYLINE
  5
1AB
330
1F
100
AcDbEntity
  8
Layer 1
  6
AI-Linetype-1
 62
     7
370
    18
100
AcDb2dPolyline
 66
     1
 10
0.0
 20
0.0
 30
0.0
  0
VERTEX
  5
1AC
330
1AB
100
AcDbEntity
  8
Layer 1
  6
AI-Linetype-1
 62
     7
370
    18
100
AcDbVertex
100
AcDb2dVertex
 10
2.676766359362733
 20
8.185036864590977
 30
0.0
  0
VERTEX
  5
1AD
330
1AB
100
AcDbEntity
  8
Layer 1
  6
AI-Linetype-1
 62
     7
370
    18
100
AcDbVertex
100
AcDb2dVertex
 10
2.250876321567469
 20
8.185036864590977
 30
0.0
  0
SEQEND
  5
1AE
330
1AB
100
AcDbEntity
  8
Layer 1
  6
AI-Linetype-1
370
    18
  0
POLYLINE
  5
1B0
330
1F
100
AcDbEntity
  8
Layer 1
 62
     7
370
    18
100
AcDb2dPolyline
 66
     1
 10
0.0
 20
0.0
 30
0.0
  0
VERTEX
  5
1B1
330
1B0
100
AcDbEntity
  8
Layer 1
 62
     7
370
    18
100
AcDbVertex
100
AcDb2dVertex
 10
2.130528477447807
 20
7.046744013255636
 30
0.0
  0
VERTEX
  5
1B2
330
1B0
100
AcDbEntity
  8
Layer 1
 62
     7
370
    18
100
AcDbVertex
100
AcDb2dVertex
 10
1.875916764406639
 20
7.046744013255636
 30
0.0
  0
SEQEND
  5
1B3
330
1B0
100
AcDbEntity
  8
Layer 1
370
    18
  0
POLYLINE
  5
1B4
330
1F
100
AcDbEntity
  8
Layer 1
 62
     7
370
    18
100
AcDb2dPolyline
 66
     1
 10
0.0
 20
0.0
 30
0.0
  0
VERTEX
  5
1B5
330
1B4
100
AcDbEntity
  8
Layer 1
 62
     7
370
    18
100
AcDbVertex
100
AcDb2dVertex
 10
2.016738526107573
 20
5.856544118141872
 30
0.0
  0
VERTEX
  5
1B6
330
1B4
100
AcDbEntity
  8
Layer 1
 62
     7
370
    18
100
AcDbVertex
100
AcDb2dVertex
 10
2.016738526107573
 20
5.43228168558659
 30
0.0
  0
SEQEND
  5
1B7
330
1B4
100
AcDbEntity
  8
Layer 1
370
    18
  0
POLYLINE
  5
1B8
330
1F
100
AcDbEntity
  8
Layer 1
 62
     7
370
    18
100
AcDb2dPolyline
 66
     1
 10
0.0
 20
0.0
 30
0.0
  0
VERTEX
  5
1B9
330
1B8
100
AcDbEntity
  8
Layer 1
 62
     7
370
    18
100
AcDbVertex
100
AcDb2dVertex
 10
3.653458355433371
 20
5.856544118141872
 30
0.0
  0
VERTEX
  5
1BA
330
1B8
100
AcDbEntity
  8
Layer 1
 62
     7
370
    18
100
AcDbVertex
100
AcDb2dVertex
 10
3.653458355433371
 20
5.43228168558659
 30
0.0
  0
SEQEND
  5
1BB
330
1B8
100
AcDbEntity
  8
Layer 1
370
    18
  0
POLYLINE
  5
1BC
330
1F
100
AcDbEntity
  8
Layer 1
 62
     7
370
    18
100
AcDb2dPolyline
 66
     1
 10
0.0
 20
0.0
 30
0.0
  0
VERTEX
  5
1BD
330
1BC
100
AcDbEntity
  8
Layer 1
 62
     7
370
    18
100
AcDbVertex
100
AcDb2dVertex
 10
2.696487509520514
 20
5.874312142011674
 30
0.0
  0
VERTEX
  5
1BE
330
1BC
100
AcDbEntity
  8
Layer 1
 62
     7
370
    18
100
AcDbVertex
100
AcDb2dVertex
 10
2.696487509520514
 20
5.705793964477048
 30
0.0
  0
SEQEND
  5
1BF
330
1BC
100
AcDbEntity
  8
Layer 1
370
    18
  0
POLYLINE
  5
1C0
330
1F
100
AcDbEntity
  8
Layer 1
 62
     7
370
    18
100
AcDb2dPolyline
 66
     1
 10
0.0
 20
0.0
 30
0.0
  0
VERTEX
  5
1C1
330
1C0
100
AcDbEntity
  8
Layer 1
 62
     7
370
    18
100
AcDbVertex
100
AcDb2dVertex
 10
2.915475012871578
 20
5.874312142011674
 30
0.0
  0
VERTEX
  5
1C2
330
1C0
100
AcDbEntity
  8
Layer 1
 62
     7
370
    18
100
AcDbVertex
100
AcDb2dVertex
 10
2.915475012871578
 20
5.705793964477048
 30
0.0
  0
SEQEND
  5
1C3
330
1C0
100
AcDbEntity
  8
Layer 1
370
    18
  0
POLYLINE
  5
1C4
330
1F
100
AcDbEntity
  8
Layer 1
 62
     7
370
    18
100
AcDb2dPolyline
 66
     1
 10
0.0
 20
0.0
 30
0.0
  0
VERTEX
  5
1C5
330
1C4
100
AcDbEntity
  8
Layer 1
 62
     7
370
    18
100
AcDbVertex
100
AcDb2dVertex
 10
3.703805610856811
 20
6.303810038088898
 30
0.0
  0
VERTEX
  5
1C6
330
1C4
100
AcDbEntity
  8
Layer 1
 62
     7
370
    18
100
AcDbVertex
100
AcDb2dVertex
 10
3.920738262592399
 20
6.303810038088898
 30
0.0
  0
SEQEND
  5
1C7
330
1C4
100
AcDbEntity
  8
Layer 1
370
    18
  0
POLYLINE
  5
1C8
330
1F
100
AcDbEntity
  8
Layer 1
 62
     7
370
    18
100
AcDb2dPolyline
 66
     1
 10
0.0
 20
0.0
 30
0.0
  0
VERTEX
  5
1C9
330
1C8
100
AcDbEntity
  8
Layer 1
 62
     7
370
    18
100
AcDbVertex
100
AcDb2dVertex
 10
2.882421063122946
 20
5.85493685796739
 30
0.0
  0
VERTEX
  5
1CA
330
1C8
100
AcDbEntity
  8
Layer 1
 62
     7
370
    18
100
AcDbVertex
100
AcDb2dVertex
 10
3.920751825969399
 20
5.85493685796739
 30
0.0
  0
SEQEND
  5
1CB
330
1C8
100
AcDbEntity
  8
Layer 1
370
    18
  0
POLYLINE
  5
1CC
330
1F
100
AcDbEntity
  8
Layer 1
 62
     7
370
    18
100
AcDb2dPolyline
 66
     1
 10
0.0
 20
0.0
 30
0.0
  0
VERTEX
  5
1CD
330
1CC
100
AcDbEntity
  8
Layer 1
 62
     7
370
    18
100
AcDbVertex
100
AcDb2dVertex
 10
2.805401426829302
 20
5.873918804078679
 30
0.0
  0
VERTEX
  5
1CE
330
1CC
100
AcDbEntity
  8
Layer 1
 62
     7
370
    18
100
AcDbVertex
100
AcDb2dVertex
 10
2.805401426829302
 20
5.587209359367367
 30
0.0
  0
SEQEND
  5
1CF
330
1CC
100
AcDbEntity
  8
Layer 1
370
    18
  0
ENDSEC
  0
SECTION
  2
OBJECTS
  0
DICTIONARY
  5
C
330
0
100
AcDbDictionary
281
     1
  3
ACAD_GROUP
350
D
  3
ACAD_LAYOUT
350
1A
  3
ACAD_MLINESTYLE
350
17
  3
ACAD_PLOTSETTINGS
350
19
  3
ACAD_PLOTSTYLENAME
350
E
  3
ACAD_TABLESTYLE
350
1D0
  3
ACAD_VISUALSTYLE
350
2A
  0
DICTIONARY
  5
D
102
{ACAD_REACTORS
330
C
102
}
330
C
100
AcDbDictionary
281
     1
  0
DICTIONARY
  5
1A
102
{ACAD_REACTORS
330
C
102
}
330
C
100
AcDbDictionary
281
     1
  3
Layout1
350
1E
  3
Layout2
350
26
  3
Model
350
22
  0
DICTIONARY
  5
17
102
{ACAD_REACTORS
330
C
102
}
330
C
100
AcDbDictionary
281
     1
  3
Standard
350
18
  0
DICTIONARY
  5
19
102
{ACAD_REACTORS
330
C
102
}
330
C
100
AcDbDictionary
281
     1
  0
ACDBDICTIONARYWDFLT
  5
E
102
{ACAD_REACTORS
330
C
102
}
330
C
100
AcDbDictionary
281
     1
  3
Normal
350
F
100
AcDbDictionaryWithDefault
340
F
  0
DICTIONARY
  5
1D0
102
{ACAD_REACTORS
330
C
102
}
330
C
100
AcDbDictionary
281
     1
  0
DICTIONARY
  5
2A
102
{ACAD_REACTORS
330
C
102
}
330
C
100
AcDbDictionary
281
     1
  3
2dWireframe
350
2F
  3
3D Hidden
350
31
  3
3dWireframe
350
30
  3
Basic
350
32
  3
Brighten
350
36
  3
ColorChange
350
3A
  3
Conceptual
350
34
  3
Dim
350
35
  3
Facepattern
350
39
  3
Flat
350
2B
  3
FlatWithEdges
350
2C
  3
Gouraud
350
2D
  3
GouraudWithEdges
350
2E
  3
Linepattern
350
38
  3
Realistic
350
33
  3
Thicken
350
37
  0
LAYOUT
  5
1E
102
{ACAD_REACTORS
330
1A
102
}
330
1A
100
AcDbPlotSettings
  1

  2
none_device
  4

  6

 40
0.0
 41
0.0
 42
0.0
 43
0.0
 44
0.0
 45
0.0
 46
0.0
 47
0.0
 48
0.0
 49
0.0
140
0.0
141
0.0
142
1.0
143
1.0
 70
   688
 72
     0
 73
     0
 74
     5
  7

 75
    16
147
1.0
148
0.0
149
0.0
100
AcDbLayout
  1
Layout1
 70
     1
 71
     1
 10
0.0
 20
0.0
 11
12.0
 21
9.0
 12
0.0
 22
0.0
 32
0.0
 14
1.000000000000000E+20
 24
1.000000000000000E+20
 34
1.000000000000000E+20
 15
-1.000000000000000E+20
 25
-1.000000000000000E+20
 35
-1.000000000000000E+20
146
0.0
 13
0.0
 23
0.0
 33
0.0
 16
1.0
 26
0.0
 36
0.0
 17
0.0
 27
1.0
 37
0.0
 76
     0
330
1B
  0
LAYOUT
  5
26
102
{ACAD_REACTORS
330
1A
102
}
330
1A
100
AcDbPlotSettings
  1

  2
none_device
  4

  6

 40
0.0
 41
0.0
 42
0.0
 43
0.0
 44
0.0
 45
0.0
 46
0.0
 47
0.0
 48
0.0
 49
0.0
140
0.0
141
0.0
142
1.0
143
1.0
 70
   688
 72
     0
 73
     0
 74
     5
  7

 75
    16
147
1.0
148
0.0
149
0.0
100
AcDbLayout
  1
Layout2
 70
     1
 71
     2
 10
0.0
 20
0.0
 11
0.0
 21
0.0
 12
0.0
 22
0.0
 32
0.0
 14
0.0
 24
0.0
 34
0.0
 15
0.0
 25
0.0
 35
0.0
146
0.0
 13
0.0
 23
0.0
 33
0.0
 16
1.0
 26
0.0
 36
0.0
 17
0.0
 27
1.0
 37
0.0
 76
     0
330
23
  0
LAYOUT
  5
22
102
{ACAD_REACTORS
330
1A
102
}
330
1A
100
AcDbPlotSettings
  1

  2
none_device
  4

  6

 40
0.0
 41
0.0
 42
0.0
 43
0.0
 44
0.0
 45
0.0
 46
0.0
 47
0.0
 48
0.0
 49
0.0
140
0.0
141
0.0
142
1.0
143
1.0
 70
  1712
 72
     0
 73
     0
 74
     0
  7

 75
     0
147
1.0
148
0.0
149
0.0
100
AcDbLayout
  1
Model
 70
     1
 71
     0
 10
0.0
 20
0.0
 11
12.0
 21
9.0
 12
0.0
 22
0.0
 32
0.0
 14
1.000000000000000E+20
 24
1.000000000000000E+20
 34
1.000000000000000E+20
 15
-1.000000000000000E+20
 25
-1.000000000000000E+20
 35
-1.000000000000000E+20
146
0.0
 13
0.0
 23
0.0
 33
0.0
 16
1.0
 26
0.0
 36
0.0
 17
0.0
 27
1.0
 37
0.0
 76
     0
330
1F
331
29
  0
MLINESTYLE
  5
18
102
{ACAD_REACTORS
330
17
102
}
330
17
100
AcDbMlineStyle
  2
Standard
 70
     0
  3

 62
   256
 51
90.0
 52
90.0
 71
     2
 49
0.5
 62
   256
  6
BYLAYER
 49
-0.5
 62
   256
  6
BYLAYER
  0
ACDBPLACEHOLDER
  5
F
102
{ACAD_REACTORS
330
E
102
}
330
E
  0
VISUALSTYLE
  5
2F
102
{ACAD_REACTORS
330
2A
102
}
330
2A
100
AcDbVisualStyle
  2
2dWireframe
 70
     4
 71
     0
 72
     2
 73
     0
 90
        0
 40
-0.6
 41
-30.0
 62
     5
 63
     7
 74
     1
 91
        4
 64
     7
 65
   257
 75
     1
175
     1
 42
1.0
 92
        0
 66
   257
 43
1.0
 76
     1
 77
     6
 78
     2
 67
     7
 79
     5
170
     0
171
     0
290
     0
174
     0
 93
        1
 44
0.0
173
     0
291
     0
 45
0.0
1001
ACAD
1000
AcDbSavedByObjectVersion
1070
     0
  0
VISUALSTYLE
  5
31
102
{ACAD_REACTORS
330
2A
102
}
330
2A
100
AcDbVisualStyle
  2
3D Hidden
 70
     6
 71
     1
 72
     2
 73
     2
 90
        0
 40
-0.6
 41
-30.0
 62
     5
 63
     7
 74
     2
 91
        2
 64
     7
 65
   257
 75
     2
175
     1
 42
40.0
 92
        0
 66
   257
 43
1.0
 76
     1
 77
     6
 78
     2
 67
     7
 79
     3
170
     0
171
     0
290
     0
174
     0
 93
        1
 44
0.0
173
     0
291
     0
 45
0.0
1001
ACAD
1000
AcDbSavedByObjectVersion
1070
     0
  0
VISUALSTYLE
  5
30
102
{ACAD_REACTORS
330
2A
102
}
330
2A
100
AcDbVisualStyle
  2
3dWireframe
 70
     5
 71
     0
 72
     2
 73
     0
 90
        0
 40
-0.6
 41
-30.0
 62
     5
 63
     7
 74
     1
 91
        4
 64
     7
 65
   257
 75
     1
175
     1
 42
1.0
 92
        0
 66
   257
 43
1.0
 76
     1
 77
     6
 78
     2
 67
     7
 79
     5
170
     0
171
     0
290
     0
174
     0
 93
        1
 44
0.0
173
     0
291
     0
 45
0.0
1001
ACAD
1000
AcDbSavedByObjectVersion
1070
     0
  0
VISUALSTYLE
  5
32
102
{ACAD_REACTORS
330
2A
102
}
330
2A
100
AcDbVisualStyle
  2
Basic
 70
     7
 71
     1
 72
     0
 73
     1
 90
        0
 40
-0.6
 41
-30.0
 62
     5
 63
     7
 74
     0
 91
        4
 64
     7
 65
   257
 75
     1
175
     1
 42
1.0
 92
        8
 66
     7
 43
1.0
 76
     1
 77
     6
 78
     2
 67
     7
 79
     5
170
     0
171
     0
290
     0
174
     0
 93
        1
 44
0.0
173
     0
291
     1
 45
0.0
1001
ACAD
1000
AcDbSavedByObjectVersion
1070
     0
  0
VISUALSTYLE
  5
36
102
{ACAD_REACTORS
330
2A
102
}
330
2A
100
AcDbVisualStyle
  2
Brighten
 70
    12
 71
     2
 72
     2
 73
     0
 90
        0
 40
-0.6
 41
-30.0
 62
     5
 63
     7
 74
     1
 91
        4
 64
     7
 65
   257
 75
     1
175
     1
 42
1.0
 92
        8
 66
     7
 43
1.0
 76
     1
 77
     6
 78
     2
 67
     7
 79
     5
170
     0
171
     0
290
     0
174
     0
 93
        1
 44
50.0
173
     0
291
     1
 45
0.0
1001
ACAD
1000
AcDbSavedByObjectVersion
1070
     0
  0
VISUALSTYLE
  5
3A
102
{ACAD_REACTORS
330
2A
102
}
330
2A
100
AcDbVisualStyle
  2
ColorChange
 70
    16
 71
     2
 72
     2
 73
     3
 90
        0
 40
-0.6
 41
-30.0
 62
     5
 63
     8
 74
     1
 91
        4
 64
     7
 65
   257
 75
     1
175
     1
 42
1.0
 92
        8
 66
     8
 43
1.0
 76
     1
 77
     6
 78
     2
 67
     7
 79
     5
170
     0
171
     0
290
     0
174
     0
 93
        1
 44
0.0
173
     0
291
     1
 45
0.0
1001
ACAD
1000
AcDbSavedByObjectVersion
1070
     0
  0
VISUALSTYLE
  5
34
102
{ACAD_REACTORS
330
2A
102
}
330
2A
100
AcDbVisualStyle
  2
Conceptual
 70
     9
 71
     3
 72
     2
 73
     0
 90
        0
 40
-0.6
 41
-30.0
 62
     5
 63
     7
 74
     2
 91
        2
 64
     7
 65
   257
 75
     1
175
     1
 42
40.0
 92
        8
 66
     7
 43
1.0
 76
     1
 77
     6
 78
     2
 67
     7
 79
     3
170
     0
171
     0
290
     0
174
     0
 93
        1
 44
0.0
173
     0
291
     0
 45
0.0
1001
ACAD
1000
AcDbSavedByObjectVersion
1070
     0
  0
VISUALSTYLE
  5
35
102
{ACAD_REACTORS
330
2A
102
}
330
2A
100
AcDbVisualStyle
  2
Dim
 70
    11
 71
     2
 72
     2
 73
     0
 90
        0
 40
-0.6
 41
-30.0
 62
     5
 63
     7
 74
     1
 91
        4
 64
     7
 65
   257
 75
     1
175
     1
 42
1.0
 92
        8
 66
     7
 43
1.0
 76
     1
 77
     6
 78
     2
 67
     7
 79
     5
170
     0
171
     0
290
     0
174
     0
 93
        1
 44
-50.0
173
     0
291
     1
 45
0.0
1001
ACAD
1000
AcDbSavedByObjectVersion
1070
     0
  0
VISUALSTYLE
  5
39
102
{ACAD_REACTORS
330
2A
102
}
330
2A
100
AcDbVisualStyle
  2
Facepattern
 70
    15
 71
     2
 72
     2
 73
     0
 90
        0
 40
-0.6
 41
-30.0
 62
     5
 63
     7
 74
     1
 91
        4
 64
     7
 65
   257
 75
     1
175
     1
 42
1.0
 92
        8
 66
     7
 43
1.0
 76
     1
 77
     6
 78
     2
 67
     7
 79
     5
170
     0
171
     0
290
     0
174
     0
 93
        1
 44
0.0
173
     0
291
     1
 45
0.0
1001
ACAD
1000
AcDbSavedByObjectVersion
1070
     0
  0
VISUALSTYLE
  5
2B
102
{ACAD_REACTORS
330
2A
102
}
330
2A
100
AcDbVisualStyle
  2
Flat
 70
     0
 71
     2
 72
     1
 73
     1
 90
        2
 40
-0.6
 41
30.0
 62
     5
 63
     7
 74
     0
 91
        4
 64
     7
 65
   257
 75
     1
175
     1
 42
1.0
 92
        8
 66
     7
 43
1.0
 76
     1
 77
     6
 78
     2
 67
     7
 79
     5
170
     0
171
     0
290
     0
174
     0
 93
       13
 44
0.0
173
     0
291
     1
 45
0.0
1001
ACAD
1000
AcDbSavedByObjectVersion
1070
     0
  0
VISUALSTYLE
  5
2C
102
{ACAD_REACTORS
330
2A
102
}
330
2A
100
AcDbVisualStyle
  2
FlatWithEdges
 70
     1
 71
     2
 72
     1
 73
     1
 90
        2
 40
-0.6
 41
30.0
 62
     5
 63
     7
 74
     1
 91
        4
 64
     7
 65
   257
 75
     1
175
     1
 42
1.0
 92
        0
 66
   257
 43
1.0
 76
     1
 77
     6
 78
     2
 67
     7
 79
     5
170
     0
171
     0
290
     0
174
     0
 93
       13
 44
0.0
173
     0
291
     1
 45
0.0
1001
ACAD
1000
AcDbSavedByObjectVersion
1070
     0
  0
VISUALSTYLE
  5
2D
102
{ACAD_REACTORS
330
2A
102
}
330
2A
100
AcDbVisualStyle
  2
Gouraud
 70
     2
 71
     2
 72
     2
 73
     1
 90
        2
 40
-0.6
 41
30.0
 62
     5
 63
     7
 74
     0
 91
        4
 64
     7
 65
   257
 75
     1
175
     1
 42
1.0
 92
        0
 66
     7
 43
1.0
 76
     1
 77
     6
 78
     2
 67
     7
 79
     5
170
     0
171
     0
290
     0
174
     0
 93
       13
 44
0.0
173
     0
291
     1
 45
0.0
1001
ACAD
1000
AcDbSavedByObjectVersion
1070
     0
  0
VISUALSTYLE
  5
2E
102
{ACAD_REACTORS
330
2A
102
}
330
2A
100
AcDbVisualStyle
  2
GouraudWithEdges
 70
     3
 71
     2
 72
     2
 73
     1
 90
        2
 40
-0.6
 41
30.0
 62
     5
 63
     7
 74
     1
 91
        4
 64
     7
 65
   257
 75
     1
175
     1
 42
1.0
 92
        0
 66
   257
 43
1.0
 76
     1
 77
     6
 78
     2
 67
     7
 79
     5
170
     0
171
     0
290
     0
174
     0
 93
       13
 44
0.0
173
     0
291
     1
 45
0.0
1001
ACAD
1000
AcDbSavedByObjectVersion
1070
     0
  0
VISUALSTYLE
  5
38
102
{ACAD_REACTORS
330
2A
102
}
330
2A
100
AcDbVisualStyle
  2
Linepattern
 70
    14
 71
     2
 72
     2
 73
     0
 90
        0
 40
-0.6
 41
-30.0
 62
     5
 63
     7
 74
     1
 91
        4
 64
     7
 65
   257
 75
     7
175
     7
 42
1.0
 92
        8
 66
     7
 43
1.0
 76
     1
 77
     6
 78
     2
 67
     7
 79
     5
170
     0
171
     0
290
     0
174
     0
 93
        1
 44
0.0
173
     0
291
     1
 45
0.0
1001
ACAD
1000
AcDbSavedByObjectVersion
1070
     0
  0
VISUALSTYLE
  5
33
102
{ACAD_REACTORS
330
2A
102
}
330
2A
100
AcDbVisualStyle
  2
Realistic
 70
     8
 71
     2
 72
     2
 73
     0
 90
        0
 40
-0.6
 41
-30.0
 62
     5
 63
     7
 74
     1
 91
        0
 64
     7
 65
   257
 75
     1
175
     1
 42
1.0
 92
        8
 66
     8
 43
1.0
 76
     1
 77
     6
 78
     2
 67
     7
 79
     5
170
     0
171
     0
290
     0
174
     0
 93
       13
 44
0.0
173
     0
291
     0
 45
0.0
1001
ACAD
1000
AcDbSavedByObjectVersion
1070
     0
  0
VISUALSTYLE
  5
37
102
{ACAD_REACTORS
330
2A
102
}
330
2A
100
AcDbVisualStyle
  2
Thicken
 70
    13
 71
     2
 72
     2
 73
     0
 90
        0
 40
-0.6
 41
-30.0
 62
     5
 63
     7
 74
     1
 91
        4
 64
     7
 65
   257
 75
     1
175
     1
 42
1.0
 92
       12
 66
     7
 43
1.0
 76
     1
 77
     6
 78
     2
 67
     7
 79
     5
170
     0
171
     0
290
     0
174
     0
 93
        1
 44
0.0
173
     0
291
     1
 45
0.0
1001
ACAD
1000
AcDbSavedByObjectVersion
1070
     0
  0
ENDSEC
  0
EOF
