  0
SECTION
  2
HEADER
  9
$ACADVER
  1
AC1015
  9
$ACADMAINTVER
 70
     6
  9
$DWGCODEPAGE
  3
ASCII
  9
$INSBASE
 10
0.0
 20
0.0
 30
0.0
  9
$EXTMIN
 10
1.000000000000000E+20
 20
1.000000000000000E+20
 30
1.000000000000000E+20
  9
$EXTMAX
 10
-1.000000000000000E+20
 20
-1.000000000000000E+20
 30
-1.000000000000000E+20
  9
$LIMMIN
 10
0.0
 20
0.0
  9
$LIMMAX
 10
12.0
 20
9.0
  9
$ORTHOMODE
 70
     0
  9
$REGENMODE
 70
     1
  9
$FILLMODE
 70
     1
  9
$QTEXTMODE
 70
     0
  9
$MIRRTEXT
 70
     1
  9
$LTSCALE
 40
1.0
  9
$ATTMODE
 70
     1
  9
$TEXTSIZE
 40
0.2
  9
$TRACEWID
 40
0.05
  9
$TEXTSTYLE
  7
Standard
  9
$CLAYER
  8
0
  9
$CELTYPE
  6
ByLayer
  9
$CECOLOR
 62
   256
  9
$CELTSCALE
 40
1.0
  9
$DISPSILH
 70
     0
  9
$DIMSCALE
 40
1.0
  9
$DIMASZ
 40
0.18
  9
$DIMEXO
 40
0.0625
  9
$DIMDLI
 40
0.38
  9
$DIMRND
 40
0.0
  9
$DIMDLE
 40
0.0
  9
$DIMEXE
 40
0.18
  9
$DIMTP
 40
0.0
  9
$DIMTM
 40
0.0
  9
$DIMTXT
 40
0.18
  9
$DIMCEN
 40
0.09
  9
$DIMTSZ
 40
0.0
  9
$DIMTOL
 70
     0
  9
$DIMLIM
 70
     0
  9
$DIMTIH
 70
     1
  9
$DIMTOH
 70
     1
  9
$DIMSE1
 70
     0
  9
$DIMSE2
 70
     0
  9
$DIMTAD
 70
     0
  9
$DIMZIN
 70
     0
  9
$DIMBLK
  1

  9
$DIMASO
 70
     1
  9
$DIMSHO
 70
     1
  9
$DIMPOST
  1

  9
$DIMAPOST
  1

  9
$DIMALT
 70
     0
  9
$DIMALTD
 70
     2
  9
$DIMALTF
 40
25.4
  9
$DIMLFAC
 40
1.0
  9
$DIMTOFL
 70
     0
  9
$DIMTVP
 40
0.0
  9
$DIMTIX
 70
     0
  9
$DIMSOXD
 70
     0
  9
$DIMSAH
 70
     0
  9
$DIMBLK1
  1

  9
$DIMBLK2
  1

  9
$DIMSTYLE
  2
Standard
  9
$DIMCLRD
 70
     0
  9
$DIMCLRE
 70
     0
  9
$DIMCLRT
 70
     0
  9
$DIMTFAC
 40
1.0
  9
$DIMGAP
 40
0.09
  9
$DIMJUST
 70
     0
  9
$DIMSD1
 70
     0
  9
$DIMSD2
 70
     0
  9
$DIMTOLJ
 70
     1
  9
$DIMTZIN
 70
     0
  9
$DIMALTZ
 70
     0
  9
$DIMALTTZ
 70
     0
  9
$DIMUPT
 70
     0
  9
$DIMDEC
 70
     4
  9
$DIMTDEC
 70
     4
  9
$DIMALTU
 70
     2
  9
$DIMALTTD
 70
     2
  9
$DIMTXSTY
  7
Standard
  9
$DIMAUNIT
 70
     0
  9
$DIMADEC
 70
     0
  9
$DIMALTRND
 40
0.0
  9
$DIMAZIN
 70
     0
  9
$DIMDSEP
 70
    46
  9
$DIMATFIT
 70
     3
  9
$DIMFRAC
 70
     0
  9
$DIMLDRBLK
  1

  9
$DIMLUNIT
 70
     2
  9
$DIMLWD
 70
    -2
  9
$DIMLWE
 70
    -2
  9
$DIMTMOVE
 70
     0
  9
$LUNITS
 70
     2
  9
$LUPREC
 70
     4
  9
$SKETCHINC
 40
0.1
  9
$FILLETRAD
 40
0.5
  9
$AUNITS
 70
     0
  9
$AUPREC
 70
     0
  9
$MENU
  1
.
  9
$ELEVATION
 40
0.0
  9
$PELEVATION
 40
0.0
  9
$THICKNESS
 40
0.0
  9
$LIMCHECK
 70
     0
  9
$CHAMFERA
 40
0.5
  9
$CHAMFERB
 40
0.5
  9
$CHAMFERC
 40
1.0
  9
$CHAMFERD
 40
0.0
  9
$SKPOLY
 70
     0
  9
$TDCREATE
 40
2455357.564374988
  9
$TDUCREATE
 40
2455357.772708322
  9
$TDUPDATE
 40
2455357.564375
  9
$TDUUPDATE
 40
2455357.772708334
  9
$TDINDWG
 40
0.0000000116
  9
$TDUSRTIMER
 40
0.0000000116
  9
$USRTIMER
 70
     1
  9
$ANGBASE
 50
0.0
  9
$ANGDIR
 70
     0
  9
$PDMODE
 70
     0
  9
$PDSIZE
 40
0.0
  9
$PLINEWID
 40
0.0
  9
$SPLFRAME
 70
     0
  9
$SPLINETYPE
 70
     6
  9
$SPLINESEGS
 70
     8
  9
$HANDSEED
  5
151
  9
$SURFTAB1
 70
     6
  9
$SURFTAB2
 70
     6
  9
$SURFTYPE
 70
     6
  9
$SURFU
 70
     6
  9
$SURFV
 70
     6
  9
$UCSBASE
  2

  9
$UCSNAME
  2

  9
$UCSORG
 10
0.0
 20
0.0
 30
0.0
  9
$UCSXDIR
 10
1.0
 20
0.0
 30
0.0
  9
$UCSYDIR
 10
0.0
 20
1.0
 30
0.0
  9
$UCSORTHOREF
  2

  9
$UCSORTHOVIEW
 70
     0
  9
$UCSORGTOP
 10
0.0
 20
0.0
 30
0.0
  9
$UCSORGBOTTOM
 10
0.0
 20
0.0
 30
0.0
  9
$UCSORGLEFT
 10
0.0
 20
0.0
 30
0.0
  9
$UCSORGRIGHT
 10
0.0
 20
0.0
 30
0.0
  9
$UCSORGFRONT
 10
0.0
 20
0.0
 30
0.0
  9
$UCSORGBACK
 10
0.0
 20
0.0
 30
0.0
  9
$PUCSBASE
  2

  9
$PUCSNAME
  2

  9
$PUCSORG
 10
0.0
 20
0.0
 30
0.0
  9
$PUCSXDIR
 10
1.0
 20
0.0
 30
0.0
  9
$PUCSYDIR
 10
0.0
 20
1.0
 30
0.0
  9
$PUCSORTHOREF
  2

  9
$PUCSORTHOVIEW
 70
     0
  9
$PUCSORGTOP
 10
0.0
 20
0.0
 30
0.0
  9
$PUCSORGBOTTOM
 10
0.0
 20
0.0
 30
0.0
  9
$PUCSORGLEFT
 10
0.0
 20
0.0
 30
0.0
  9
$PUCSORGRIGHT
 10
0.0
 20
0.0
 30
0.0
  9
$PUCSORGFRONT
 10
0.0
 20
0.0
 30
0.0
  9
$PUCSORGBACK
 10
0.0
 20
0.0
 30
0.0
  9
$USERI1
 70
     0
  9
$USERI2
 70
     0
  9
$USERI3
 70
     0
  9
$USERI4
 70
     0
  9
$USERI5
 70
     0
  9
$USERR1
 40
0.0
  9
$USERR2
 40
0.0
  9
$USERR3
 40
0.0
  9
$USERR4
 40
0.0
  9
$USERR5
 40
0.0
  9
$WORLDVIEW
 70
     1
  9
$SHADEDGE
 70
     3
  9
$SHADEDIF
 70
    70
  9
$TILEMODE
 70
     1
  9
$MAXACTVP
 70
    64
  9
$PINSBASE
 10
0.0
 20
0.0
 30
0.0
  9
$PLIMCHECK
 70
     0
  9
$PEXTMIN
 10
1.000000000000000E+20
 20
1.000000000000000E+20
 30
1.000000000000000E+20
  9
$PEXTMAX
 10
-1.000000000000000E+20
 20
-1.000000000000000E+20
 30
-1.000000000000000E+20
  9
$PLIMMIN
 10
0.0
 20
0.0
  9
$PLIMMAX
 10
12.0
 20
9.0
  9
$UNITMODE
 70
     0
  9
$VISRETAIN
 70
     1
  9
$PLINEGEN
 70
     0
  9
$PSLTSCALE
 70
     1
  9
$TREEDEPTH
 70
  3020
  9
$CMLSTYLE
  2
Standard
  9
$CMLJUST
 70
     0
  9
$CMLSCALE
 40
1.0
  9
$PROXYGRAPHICS
 70
     1
  9
$MEASUREMENT
 70
     0
  9
$CELWEIGHT
370
    -1
  9
$ENDCAPS
280
     0
  9
$JOINSTYLE
280
     0
  9
$LWDISPLAY
290
     1
  9
$INSUNITS
 70
     1
  9
$HYPERLINKBASE
  1

  9
$STYLESHEET
  1

  9
$XEDIT
290
     1
  9
$CEPSNTYPE
380
     0
  9
$PSTYLEMODE
290
     1
  9
$FINGERPRINTGUID
  2
{C41D4BD8-5D91-44EC-B2C8-F11F54E01A54}
  9
$VERSIONGUID
  2
{FAEB1C32-E019-11D5-929B-00C0DF256EC4}
  9
$EXTNAMES
290
     1
  9
$PSVPSCALE
 40
0.0
  9
$OLESTARTUP
290
     0
  0
ENDSEC
  0
SECTION
  2
CLASSES
  0
CLASS
  1
ACDBDICTIONARYWDFLT
  2
AcDbDictionaryWithDefault
  3
ObjectDBX Classes
 90
        0
280
     0
281
     0
  0
CLASS
  1
VISUALSTYLE
  2
AcDbVisualStyle
  3
ObjectDBX Classes
 90
     4095
280
     0
281
     0
  0
CLASS
  1
ACDBPLACEHOLDER
  2
AcDbPlaceHolder
  3
ObjectDBX Classes
 90
        0
280
     0
281
     0
  0
CLASS
  1
LAYOUT
  2
AcDbLayout
  3
ObjectDBX Classes
 90
        0
280
     0
281
     0
  0
ENDSEC
  0
SECTION
  2
TABLES
  0
TABLE
  2
VPORT
  5
8
330
0
100
AcDbSymbolTable
 70
     1
  0
VPORT
  5
29
330
8
100
AcDbSymbolTableRecord
100
AcDbViewportTableRecord
  2
*Active
 70
     0
 10
0.0
 20
0.0
 11
1.0
 21
1.0
 12
0.0
 22
0.0
 13
0.0
 23
0.0
 14
0.5
 24
0.5
 15
0.5
 25
0.5
 16
0.0
 26
0.0
 36
1.0
 17
4.250002802640737
 27
5.500003626946837
 37
0.0
 40
11.00000725389367
 41
0.7727272727272726
 42
50.0
 43
0.0
 44
0.0
 50
0.0
 51
0.0
 71
     0
 72
   100
 73
     1
 74
     3
 75
     0
 76
     0
 77
     0
 78
     0
281
     0
 65
     1
110
0.0
120
0.0
130
0.0
111
1.0
121
0.0
131
0.0
112
0.0
122
1.0
132
0.0
 79
     0
146
0.0
  0
ENDTAB
  0
TABLE
  2
LTYPE
  5
5
330
0
100
AcDbSymbolTable
 70
    52
  0
LTYPE
  5
14
330
5
100
AcDbSymbolTableRecord
100
AcDbLinetypeTableRecord
  2
ByBlock
 70
     0
  3

 72
    65
 73
     0
 40
0.0
  0
LTYPE
  5
15
330
5
100
AcDbSymbolTableRecord
100
AcDbLinetypeTableRecord
  2
ByLayer
 70
     0
  3

 72
    65
 73
     0
 40
0.0
  0
LTYPE
  5
16
330
5
100
AcDbSymbolTableRecord
100
AcDbLinetypeTableRecord
  2
Continuous
 70
     0
  3
Solid line
 72
    65
 73
     0
 40
0.0
  0
LTYPE
  5
44
330
5
100
AcDbSymbolTableRecord
100
AcDbLinetypeTableRecord
  2
AI-Linetype-1
 70
     0
  3
Adobe Illustrator Linetype No. 1
 72
    65
 73
     2
 40
0.0550000351436021
 49
0.0330000207550241
 74
     0
 49
-0.022000014388578
 74
     0
  0
LTYPE
  5
49
330
5
100
AcDbSymbolTableRecord
100
AcDbLinetypeTableRecord
  2
AI-Linetype-2
 70
     0
  3
Adobe Illustrator Linetype No. 2
 72
    65
 73
     2
 40
0.0550000351436021
 49
0.0330000207550241
 74
     0
 49
-0.022000014388578
 74
     0
  0
LTYPE
  5
4E
330
5
100
AcDbSymbolTableRecord
100
AcDbLinetypeTableRecord
  2
AI-Linetype-3
 70
     0
  3
Adobe Illustrator Linetype No. 3
 72
    65
 73
     2
 40
0.0550000351436021
 49
0.0330000207550241
 74
     0
 49
-0.022000014388578
 74
     0
  0
LTYPE
  5
53
330
5
100
AcDbSymbolTableRecord
100
AcDbLinetypeTableRecord
  2
AI-Linetype-4
 70
     0
  3
Adobe Illustrator Linetype No. 4
 72
    65
 73
     2
 40
0.0550000351436021
 49
0.0330000207550241
 74
     0
 49
-0.022000014388578
 74
     0
  0
LTYPE
  5
58
330
5
100
AcDbSymbolTableRecord
100
AcDbLinetypeTableRecord
  2
AI-Linetype-5
 70
     0
  3
Adobe Illustrator Linetype No. 5
 72
    65
 73
     2
 40
0.0550000351436021
 49
0.0330000207550241
 74
     0
 49
-0.022000014388578
 74
     0
  0
LTYPE
  5
5D
330
5
100
AcDbSymbolTableRecord
100
AcDbLinetypeTableRecord
  2
AI-Linetype-6
 70
     0
  3
Adobe Illustrator Linetype No. 6
 72
    65
 73
     2
 40
0.0550000351436021
 49
0.0330000207550241
 74
     0
 49
-0.022000014388578
 74
     0
  0
LTYPE
  5
6A
330
5
100
AcDbSymbolTableRecord
100
AcDbLinetypeTableRecord
  2
AI-Linetype-7
 70
     0
  3
Adobe Illustrator Linetype No. 7
 72
    65
 73
     2
 40
0.0550000351436021
 49
0.0330000207550241
 74
     0
 49
-0.022000014388578
 74
     0
  0
LTYPE
  5
73
330
5
100
AcDbSymbolTableRecord
100
AcDbLinetypeTableRecord
  2
AI-Linetype-8
 70
     0
  3
Adobe Illustrator Linetype No. 8
 72
    65
 73
     2
 40
0.0550000351436021
 49
0.0330000207550241
 74
     0
 49
-0.022000014388578
 74
     0
  0
LTYPE
  5
78
330
5
100
AcDbSymbolTableRecord
100
AcDbLinetypeTableRecord
  2
AI-Linetype-9
 70
     0
  3
Adobe Illustrator Linetype No. 9
 72
    65
 73
     2
 40
0.0550000351436021
 49
0.0330000207550241
 74
     0
 49
-0.022000014388578
 74
     0
  0
LTYPE
  5
7D
330
5
100
AcDbSymbolTableRecord
100
AcDbLinetypeTableRecord
  2
AI-Linetype-10
 70
     0
  3
Adobe Illustrator Linetype No. 10
 72
    65
 73
     2
 40
0.0550000351436021
 49
0.0330000207550241
 74
     0
 49
-0.022000014388578
 74
     0
  0
LTYPE
  5
82
330
5
100
AcDbSymbolTableRecord
100
AcDbLinetypeTableRecord
  2
AI-Linetype-11
 70
     0
  3
Adobe Illustrator Linetype No. 11
 72
    65
 73
     2
 40
0.0550000351436021
 49
0.0330000207550241
 74
     0
 49
-0.022000014388578
 74
     0
  0
LTYPE
  5
87
330
5
100
AcDbSymbolTableRecord
100
AcDbLinetypeTableRecord
  2
AI-Linetype-12
 70
     0
  3
Adobe Illustrator Linetype No. 12
 72
    65
 73
     2
 40
0.0550000351436021
 49
0.0330000207550241
 74
     0
 49
-0.022000014388578
 74
     0
  0
LTYPE
  5
8C
330
5
100
AcDbSymbolTableRecord
100
AcDbLinetypeTableRecord
  2
AI-Linetype-13
 70
     0
  3
Adobe Illustrator Linetype No. 13
 72
    65
 73
     2
 40
0.0550000351436021
 49
0.0330000207550241
 74
     0
 49
-0.022000014388578
 74
     0
  0
LTYPE
  5
91
330
5
100
AcDbSymbolTableRecord
100
AcDbLinetypeTableRecord
  2
AI-Linetype-14
 70
     0
  3
Adobe Illustrator Linetype No. 14
 72
    65
 73
     2
 40
0.0550000351436021
 49
0.0330000207550241
 74
     0
 49
-0.022000014388578
 74
     0
  0
LTYPE
  5
A2
330
5
100
AcDbSymbolTableRecord
100
AcDbLinetypeTableRecord
  2
AI-Linetype-15
 70
     0
  3
Adobe Illustrator Linetype No. 15
 72
    65
 73
     2
 40
0.0550000351436021
 49
0.0330000207550241
 74
     0
 49
-0.022000014388578
 74
     0
  0
LTYPE
  5
AB
330
5
100
AcDbSymbolTableRecord
100
AcDbLinetypeTableRecord
  2
AI-Linetype-16
 70
     0
  3
Adobe Illustrator Linetype No. 16
 72
    65
 73
     2
 40
0.0550000351436021
 49
0.0330000207550241
 74
     0
 49
-0.022000014388578
 74
     0
  0
LTYPE
  5
B4
330
5
100
AcDbSymbolTableRecord
100
AcDbLinetypeTableRecord
  2
AI-Linetype-17
 70
     0
  3
Adobe Illustrator Linetype No. 17
 72
    65
 73
     2
 40
0.0550000351436021
 49
0.0330000207550241
 74
     0
 49
-0.022000014388578
 74
     0
  0
LTYPE
  5
B9
330
5
100
AcDbSymbolTableRecord
100
AcDbLinetypeTableRecord
  2
AI-Linetype-18
 70
     0
  3
Adobe Illustrator Linetype No. 18
 72
    65
 73
     2
 40
0.0550000351436021
 49
0.0330000207550241
 74
     0
 49
-0.022000014388578
 74
     0
  0
LTYPE
  5
BE
330
5
100
AcDbSymbolTableRecord
100
AcDbLinetypeTableRecord
  2
AI-Linetype-19
 70
     0
  3
Adobe Illustrator Linetype No. 19
 72
    65
 73
     2
 40
0.0550000351436021
 49
0.0330000207550241
 74
     0
 49
-0.022000014388578
 74
     0
  0
LTYPE
  5
C3
330
5
100
AcDbSymbolTableRecord
100
AcDbLinetypeTableRecord
  2
AI-Linetype-20
 70
     0
  3
Adobe Illustrator Linetype No. 20
 72
    65
 73
     2
 40
0.0550000351436021
 49
0.0330000207550241
 74
     0
 49
-0.022000014388578
 74
     0
  0
LTYPE
  5
C8
330
5
100
AcDbSymbolTableRecord
100
AcDbLinetypeTableRecord
  2
AI-Linetype-21
 70
     0
  3
Adobe Illustrator Linetype No. 21
 72
    65
 73
     2
 40
0.0550000351436021
 49
0.0330000207550241
 74
     0
 49
-0.022000014388578
 74
     0
  0
LTYPE
  5
CD
330
5
100
AcDbSymbolTableRecord
100
AcDbLinetypeTableRecord
  2
AI-Linetype-22
 70
     0
  3
Adobe Illustrator Linetype No. 22
 72
    65
 73
     2
 40
0.0550000351436021
 49
0.0330000207550241
 74
     0
 49
-0.022000014388578
 74
     0
  0
LTYPE
  5
D2
330
5
100
AcDbSymbolTableRecord
100
AcDbLinetypeTableRecord
  2
AI-Linetype-23
 70
     0
  3
Adobe Illustrator Linetype No. 23
 72
    65
 73
     2
 40
0.0550000351436021
 49
0.0330000207550241
 74
     0
 49
-0.022000014388578
 74
     0
  0
LTYPE
  5
D7
330
5
100
AcDbSymbolTableRecord
100
AcDbLinetypeTableRecord
  2
AI-Linetype-24
 70
     0
  3
Adobe Illustrator Linetype No. 24
 72
    65
 73
     2
 40
0.0550000351436021
 49
0.0330000207550241
 74
     0
 49
-0.022000014388578
 74
     0
  0
LTYPE
  5
E8
330
5
100
AcDbSymbolTableRecord
100
AcDbLinetypeTableRecord
  2
AI-Linetype-25
 70
     0
  3
Adobe Illustrator Linetype No. 25
 72
    65
 73
     2
 40
0.0550000351436021
 49
0.0330000207550241
 74
     0
 49
-0.022000014388578
 74
     0
  0
LTYPE
  5
ED
330
5
100
AcDbSymbolTableRecord
100
AcDbLinetypeTableRecord
  2
AI-Linetype-26
 70
     0
  3
Adobe Illustrator Linetype No. 26
 72
    65
 73
     2
 40
0.0550000351436021
 49
0.0330000207550241
 74
     0
 49
-0.022000014388578
 74
     0
  0
LTYPE
  5
F3
330
5
100
AcDbSymbolTableRecord
100
AcDbLinetypeTableRecord
  2
AI-Linetype-27
 70
     0
  3
Adobe Illustrator Linetype No. 27
 72
    65
 73
     2
 40
0.0550000351436021
 49
0.0330000207550241
 74
     0
 49
-0.022000014388578
 74
     0
  0
LTYPE
  5
F6
330
5
100
AcDbSymbolTableRecord
100
AcDbLinetypeTableRecord
  2
AI-Linetype-28
 70
     0
  3
Adobe Illustrator Linetype No. 28
 72
    65
 73
     2
 40
0.0550000351436021
 49
0.0330000207550241
 74
     0
 49
-0.022000014388578
 74
     0
  0
LTYPE
  5
100
330
5
100
AcDbSymbolTableRecord
100
AcDbLinetypeTableRecord
  2
AI-Linetype-29
 70
     0
  3
Adobe Illustrator Linetype No. 29
 72
    65
 73
     2
 40
0.0550000351436021
 49
0.0330000207550241
 74
     0
 49
-0.022000014388578
 74
     0
  0
LTYPE
  5
102
330
5
100
AcDbSymbolTableRecord
100
AcDbLinetypeTableRecord
  2
AI-Linetype-30
 70
     0
  3
Adobe Illustrator Linetype No. 30
 72
    65
 73
     2
 40
0.0550000351436021
 49
0.0330000207550241
 74
     0
 49
-0.022000014388578
 74
     0
  0
LTYPE
  5
104
330
5
100
AcDbSymbolTableRecord
100
AcDbLinetypeTableRecord
  2
AI-Linetype-31
 70
     0
  3
Adobe Illustrator Linetype No. 31
 72
    65
 73
     2
 40
0.0550000351436021
 49
0.0330000207550241
 74
     0
 49
-0.022000014388578
 74
     0
  0
LTYPE
  5
106
330
5
100
AcDbSymbolTableRecord
100
AcDbLinetypeTableRecord
  2
AI-Linetype-32
 70
     0
  3
Adobe Illustrator Linetype No. 32
 72
    65
 73
     2
 40
0.0550000351436021
 49
0.0330000207550241
 74
     0
 49
-0.022000014388578
 74
     0
  0
LTYPE
  5
108
330
5
100
AcDbSymbolTableRecord
100
AcDbLinetypeTableRecord
  2
AI-Linetype-33
 70
     0
  3
Adobe Illustrator Linetype No. 33
 72
    65
 73
     2
 40
0.0550000351436021
 49
0.0330000207550241
 74
     0
 49
-0.022000014388578
 74
     0
  0
LTYPE
  5
10A
330
5
100
AcDbSymbolTableRecord
100
AcDbLinetypeTableRecord
  2
AI-Linetype-34
 70
     0
  3
Adobe Illustrator Linetype No. 34
 72
    65
 73
     2
 40
0.0550000351436021
 49
0.0330000207550241
 74
     0
 49
-0.022000014388578
 74
     0
  0
LTYPE
  5
110
330
5
100
AcDbSymbolTableRecord
100
AcDbLinetypeTableRecord
  2
AI-Linetype-35
 70
     0
  3
Adobe Illustrator Linetype No. 35
 72
    65
 73
     2
 40
0.0550000351436021
 49
0.0330000207550241
 74
     0
 49
-0.022000014388578
 74
     0
  0
LTYPE
  5
113
330
5
100
AcDbSymbolTableRecord
100
AcDbLinetypeTableRecord
  2
AI-Linetype-36
 70
     0
  3
Adobe Illustrator Linetype No. 36
 72
    65
 73
     2
 40
0.0550000351436021
 49
0.0330000207550241
 74
     0
 49
-0.022000014388578
 74
     0
  0
LTYPE
  5
11C
330
5
100
AcDbSymbolTableRecord
100
AcDbLinetypeTableRecord
  2
AI-Linetype-37
 70
     0
  3
Adobe Illustrator Linetype No. 37
 72
    65
 73
     2
 40
0.0550000351436021
 49
0.0330000207550241
 74
     0
 49
-0.022000014388578
 74
     0
  0
LTYPE
  5
11E
330
5
100
AcDbSymbolTableRecord
100
AcDbLinetypeTableRecord
  2
AI-Linetype-38
 70
     0
  3
Adobe Illustrator Linetype No. 38
 72
    65
 73
     2
 40
0.0550000351436021
 49
0.0330000207550241
 74
     0
 49
-0.022000014388578
 74
     0
  0
LTYPE
  5
120
330
5
100
AcDbSymbolTableRecord
100
AcDbLinetypeTableRecord
  2
AI-Linetype-39
 70
     0
  3
Adobe Illustrator Linetype No. 39
 72
    65
 73
     2
 40
0.0550000351436021
 49
0.0330000207550241
 74
     0
 49
-0.022000014388578
 74
     0
  0
LTYPE
  5
123
330
5
100
AcDbSymbolTableRecord
100
AcDbLinetypeTableRecord
  2
AI-Linetype-40
 70
     0
  3
Adobe Illustrator Linetype No. 40
 72
    65
 73
     2
 40
0.0550000351436021
 49
0.0330000207550241
 74
     0
 49
-0.022000014388578
 74
     0
  0
LTYPE
  5
12D
330
5
100
AcDbSymbolTableRecord
100
AcDbLinetypeTableRecord
  2
AI-Linetype-41
 70
     0
  3
Adobe Illustrator Linetype No. 41
 72
    65
 73
     2
 40
0.0550000351436021
 49
0.0330000207550241
 74
     0
 49
-0.022000014388578
 74
     0
  0
LTYPE
  5
12F
330
5
100
AcDbSymbolTableRecord
100
AcDbLinetypeTableRecord
  2
AI-Linetype-42
 70
     0
  3
Adobe Illustrator Linetype No. 42
 72
    65
 73
     2
 40
0.0550000351436021
 49
0.0330000207550241
 74
     0
 49
-0.022000014388578
 74
     0
  0
LTYPE
  5
131
330
5
100
AcDbSymbolTableRecord
100
AcDbLinetypeTableRecord
  2
AI-Linetype-43
 70
     0
  3
Adobe Illustrator Linetype No. 43
 72
    65
 73
     2
 40
0.0550000351436021
 49
0.0330000207550241
 74
     0
 49
-0.022000014388578
 74
     0
  0
LTYPE
  5
133
330
5
100
AcDbSymbolTableRecord
100
AcDbLinetypeTableRecord
  2
AI-Linetype-44
 70
     0
  3
Adobe Illustrator Linetype No. 44
 72
    65
 73
     2
 40
0.0550000351436021
 49
0.0330000207550241
 74
     0
 49
-0.022000014388578
 74
     0
  0
LTYPE
  5
135
330
5
100
AcDbSymbolTableRecord
100
AcDbLinetypeTableRecord
  2
AI-Linetype-45
 70
     0
  3
Adobe Illustrator Linetype No. 45
 72
    65
 73
     2
 40
0.0550000351436021
 49
0.0330000207550241
 74
     0
 49
-0.022000014388578
 74
     0
  0
LTYPE
  5
137
330
5
100
AcDbSymbolTableRecord
100
AcDbLinetypeTableRecord
  2
AI-Linetype-46
 70
     0
  3
Adobe Illustrator Linetype No. 46
 72
    65
 73
     2
 40
0.0550000351436021
 49
0.0330000207550241
 74
     0
 49
-0.022000014388578
 74
     0
  0
LTYPE
  5
139
330
5
100
AcDbSymbolTableRecord
100
AcDbLinetypeTableRecord
  2
AI-Linetype-47
 70
     0
  3
Adobe Illustrator Linetype No. 47
 72
    65
 73
     2
 40
0.0550000351436021
 49
0.0330000207550241
 74
     0
 49
-0.022000014388578
 74
     0
  0
LTYPE
  5
13F
330
5
100
AcDbSymbolTableRecord
100
AcDbLinetypeTableRecord
  2
AI-Linetype-48
 70
     0
  3
Adobe Illustrator Linetype No. 48
 72
    65
 73
     2
 40
0.0550000351436021
 49
0.0330000207550241
 74
     0
 49
-0.022000014388578
 74
     0
  0
LTYPE
  5
142
330
5
100
AcDbSymbolTableRecord
100
AcDbLinetypeTableRecord
  2
AI-Linetype-49
 70
     0
  3
Adobe Illustrator Linetype No. 49
 72
    65
 73
     2
 40
0.0550000351436021
 49
0.0330000207550241
 74
     0
 49
-0.022000014388578
 74
     0
  0
LTYPE
  5
14C
330
5
100
AcDbSymbolTableRecord
100
AcDbLinetypeTableRecord
  2
AI-Linetype-50
 70
     0
  3
Adobe Illustrator Linetype No. 50
 72
    65
 73
     2
 40
0.0550000351436021
 49
0.0330000207550241
 74
     0
 49
-0.022000014388578
 74
     0
  0
LTYPE
  5
14E
330
5
100
AcDbSymbolTableRecord
100
AcDbLinetypeTableRecord
  2
AI-Linetype-51
 70
     0
  3
Adobe Illustrator Linetype No. 51
 72
    65
 73
     2
 40
0.0550000351436021
 49
0.0330000207550241
 74
     0
 49
-0.022000014388578
 74
     0
  0
ENDTAB
  0
TABLE
  2
LAYER
  5
2
330
0
100
AcDbSymbolTable
 70
     2
  0
LAYER
  5
10
330
2
100
AcDbSymbolTableRecord
100
AcDbLayerTableRecord
  2
0
 70
     0
 62
     7
  6
Continuous
370
    -3
390
F
  0
LAYER
  5
3B
330
2
100
AcDbSymbolTableRecord
100
AcDbLayerTableRecord
  2
Layer 1
 70
     0
 62
     7
  6
Continuous
370
    -3
390
F
  0
ENDTAB
  0
TABLE
  2
STYLE
  5
3
330
0
100
AcDbSymbolTable
 70
     1
  0
STYLE
  5
11
330
3
100
AcDbSymbolTableRecord
100
AcDbTextStyleTableRecord
  2
Standard
 70
     0
 40
0.0
 41
1.0
 50
0.0
 71
     0
 42
0.2
  3
txt
  4

  0
ENDTAB
  0
TABLE
  2
VIEW
  5
6
330
0
100
AcDbSymbolTable
 70
     0
  0
ENDTAB
  0
TABLE
  2
UCS
  5
7
330
0
100
AcDbSymbolTable
 70
     0
  0
ENDTAB
  0
TABLE
  2
APPID
  5
9
330
0
100
AcDbSymbolTable
 70
     1
  0
APPID
  5
12
330
9
100
AcDbSymbolTableRecord
100
AcDbRegAppTableRecord
  2
ACAD
 70
     0
  0
ENDTAB
  0
TABLE
  2
DIMSTYLE
  5
A
330
0
100
AcDbSymbolTable
 70
     1
100
AcDbDimStyleTable
  0
DIMSTYLE
105
27
330
A
100
AcDbSymbolTableRecord
100
AcDbDimStyleTableRecord
  2
Standard
 70
     0
340
11
  0
ENDTAB
  0
TABLE
  2
BLOCK_RECORD
  5
1
330
0
100
AcDbSymbolTable
 70
     2
  0
BLOCK_RECORD
  5
1F
330
1
100
AcDbSymbolTableRecord
100
AcDbBlockTableRecord
  2
*Model_Space
340
22
  0
BLOCK_RECORD
  5
1B
330
1
100
AcDbSymbolTableRecord
100
AcDbBlockTableRecord
  2
*Paper_Space
340
1E
  0
BLOCK_RECORD
  5
23
330
1
100
AcDbSymbolTableRecord
100
AcDbBlockTableRecord
  2
*Paper_Space0
340
26
  0
BLOCK_RECORD
  5
3C
330
1
100
AcDbSymbolTableRecord
100
AcDbBlockTableRecord
  2
block 2
340
0
102
{BLKREFS
331
3D
102
}
  0
ENDTAB
  0
ENDSEC
  0
SECTION
  2
BLOCKS
  0
BLOCK
  5
20
330
1F
100
AcDbEntity
  8
0
100
AcDbBlockBegin
  2
*Model_Space
 70
     0
 71
     0
 10
0.0
 20
0.0
 30
0.0
  3
*Model_Space
  1

  0
ENDBLK
  5
21
330
1F
100
AcDbEntity
  8
0
100
AcDbBlockEnd
  0
BLOCK
  5
1C
330
1B
100
AcDbEntity
 67
     1
  8
0
100
AcDbBlockBegin
  2
*Paper_Space
 70
     0
 71
     0
 10
0.0
 20
0.0
 30
0.0
  3
*Paper_Space
  1

  0
ENDBLK
  5
1D
330
1B
100
AcDbEntity
 67
     1
  8
0
100
AcDbBlockEnd
  0
BLOCK
  5
24
330
23
100
AcDbEntity
  8
0
100
AcDbBlockBegin
  2
*Paper_Space0
 70
     0
 71
     0
 10
0.0
 20
0.0
 30
0.0
  3
*Paper_Space0
  1

  0
ENDBLK
  5
25
330
23
100
AcDbEntity
  8
0
100
AcDbBlockEnd
  0
BLOCK
  5
3E
330
3C
100
AcDbEntity
  8
0
100
AcDbBlockBegin
  2
block 2
 70
     0
 71
     0
 10
0.0
 20
0.0
 30
0.0
  3
block 2
  1

  0
POLYLINE
  5
40
330
3C
100
AcDbEntity
  8
Layer 1
  6
AI-Linetype-1
 62
     3
370
    25
100
AcDb2dPolyline
 66
     1
 10
0.0
 20
0.0
 30
0.0
  0
VERTEX
  5
41
330
40
100
AcDbEntity
  8
Layer 1
  6
AI-Linetype-1
 62
     3
370
    25
100
AcDbVertex
100
AcDb2dVertex
 10
0.5062530465193702
 20
10.80625441345083
 30
0.0
  0
VERTEX
  5
42
330
40
100
AcDbEntity
  8
Layer 1
  6
AI-Linetype-1
 62
     3
370
    25
100
AcDbVertex
100
AcDb2dVertex
 10
0.2495797001742245
 20
10.54959463048268
 30
0.0
  0
SEQEND
  5
43
330
40
100
AcDbEntity
  8
Layer 1
  6
AI-Linetype-1
370
    25
  0
POLYLINE
  5
45
330
3C
100
AcDbEntity
  8
Layer 1
  6
AI-Linetype-2
 62
     3
370
    25
100
AcDb2dPolyline
 66
     1
 10
0.0
 20
0.0
 30
0.0
  0
VERTEX
  5
46
330
45
100
AcDbEntity
  8
Layer 1
  6
AI-Linetype-2
 62
     3
370
    25
100
AcDbVertex
100
AcDb2dVertex
 10
1.206245370104586
 20
10.80625441345083
 30
0.0
  0
VERTEX
  5
47
330
45
100
AcDbEntity
  8
Layer 1
  6
AI-Linetype-2
 62
     3
370
    25
100
AcDbVertex
100
AcDb2dVertex
 10
0.893745164028061
 20
10.4937542073743
 30
0.0
  0
SEQEND
  5
48
330
45
100
AcDbEntity
  8
Layer 1
  6
AI-Linetype-2
370
    25
  0
POLYLINE
  5
4A
330
3C
100
AcDbEntity
  8
Layer 1
  6
AI-Linetype-3
 62
     3
370
    25
100
AcDb2dPolyline
 66
     1
 10
0.0
 20
0.0
 30
0.0
  0
VERTEX
  5
4B
330
4A
100
AcDbEntity
  8
Layer 1
  6
AI-Linetype-3
 62
     3
370
    25
100
AcDbVertex
100
AcDb2dVertex
 10
1.850431179023922
 20
10.75042077203095
 30
0.0
  0
VERTEX
  5
4C
330
4A
100
AcDbEntity
  8
Layer 1
  6
AI-Linetype-3
 62
     3
370
    25
100
AcDbVertex
100
AcDb2dVertex
 10
1.593751050990277
 20
10.4937542073743
 30
0.0
  0
SEQEND
  5
4D
330
4A
100
AcDbEntity
  8
Layer 1
  6
AI-Linetype-3
370
    25
  0
POLYLINE
  5
4F
330
3C
100
AcDbEntity
  8
Layer 1
  6
AI-Linetype-4
 62
     3
370
    25
100
AcDb2dPolyline
 66
     1
 10
0.0
 20
0.0
 30
0.0
  0
VERTEX
  5
50
330
4F
100
AcDbEntity
  8
Layer 1
  6
AI-Linetype-4
 62
     3
370
    25
100
AcDbVertex
100
AcDb2dVertex
 10
0.5062530465193702
 20
10.4937542073743
 30
0.0
  0
VERTEX
  5
51
330
4F
100
AcDbEntity
  8
Layer 1
  6
AI-Linetype-4
 62
     3
370
    25
100
AcDbVertex
100
AcDb2dVertex
 10
0.2495797001742245
 20
10.75042077203095
 30
0.0
  0
SEQEND
  5
52
330
4F
100
AcDbEntity
  8
Layer 1
  6
AI-Linetype-4
370
    25
  0
POLYLINE
  5
54
330
3C
100
AcDbEntity
  8
Layer 1
  6
AI-Linetype-5
 62
     3
370
    25
100
AcDb2dPolyline
 66
     1
 10
0.0
 20
0.0
 30
0.0
  0
VERTEX
  5
55
330
54
100
AcDbEntity
  8
Layer 1
  6
AI-Linetype-5
 62
     3
370
    25
100
AcDbVertex
100
AcDb2dVertex
 10
1.206245370104586
 20
10.4937542073743
 30
0.0
  0
VERTEX
  5
56
330
54
100
AcDbEntity
  8
Layer 1
  6
AI-Linetype-5
 62
     3
370
    25
100
AcDbVertex
100
AcDb2dVertex
 10
0.893745164028061
 20
10.80625441345083
 30
0.0
  0
SEQEND
  5
57
330
54
100
AcDbEntity
  8
Layer 1
  6
AI-Linetype-5
370
    25
  0
POLYLINE
  5
59
330
3C
100
AcDbEntity
  8
Layer 1
  6
AI-Linetype-6
 62
     3
370
    25
100
AcDb2dPolyline
 66
     1
 10
0.0
 20
0.0
 30
0.0
  0
VERTEX
  5
5A
330
59
100
AcDbEntity
  8
Layer 1
  6
AI-Linetype-6
 62
     3
370
    25
100
AcDbVertex
100
AcDb2dVertex
 10
1.850431179023922
 20
10.54959463048268
 30
0.0
  0
VERTEX
  5
5B
330
59
100
AcDbEntity
  8
Layer 1
  6
AI-Linetype-6
 62
     3
370
    25
100
AcDbVertex
100
AcDb2dVertex
 10
1.593751050990277
 20
10.80625441345083
 30
0.0
  0
SEQEND
  5
5C
330
59
100
AcDbEntity
  8
Layer 1
  6
AI-Linetype-6
370
    25
  0
POLYLINE
  5
5E
330
3C
100
AcDbEntity
  8
Layer 1
 62
     7
370
    25
100
AcDb2dPolyline
 66
     1
 10
0.0
 20
0.0
 30
0.0
  0
VERTEX
  5
5F
330
5E
100
AcDbEntity
  8
Layer 1
 62
     7
370
    25
100
AcDbVertex
100
AcDb2dVertex
 10
0.0
 20
10.3499959745529
 30
0.0
  0
VERTEX
  5
60
330
5E
100
AcDbEntity
  8
Layer 1
 62
     7
370
    25
100
AcDbVertex
100
AcDb2dVertex
 10
0.0
 20
10.95000586458373
 30
0.0
  0
SEQEND
  5
61
330
5E
100
AcDbEntity
  8
Layer 1
370
    25
  0
POLYLINE
  5
62
330
3C
100
AcDbEntity
  8
Layer 1
 62
     7
370
    25
100
AcDb2dPolyline
 66
     1
 10
0.0
 20
0.0
 30
0.0
  0
VERTEX
  5
63
330
62
100
AcDbEntity
  8
Layer 1
 62
     7
370
    25
100
AcDbVertex
100
AcDb2dVertex
 10
0.3250056396703858
 20
10.45470524499174
 30
0.0
  0
VERTEX
  5
64
330
62
100
AcDbEntity
  8
Layer 1
 62
     7
370
    25
100
AcDbVertex
100
AcDb2dVertex
 10
0.3250056396703858
 20
10.84529659414489
 30
0.0
  0
SEQEND
  5
65
330
62
100
AcDbEntity
  8
Layer 1
370
    25
  0
POLYLINE
  5
66
330
3C
100
AcDbEntity
  8
Layer 1
  6
AI-Linetype-7
 62
     7
370
    25
100
AcDb2dPolyline
 66
     1
 10
0.0
 20
0.0
 30
0.0
  0
VERTEX
  5
67
330
66
100
AcDbEntity
  8
Layer 1
  6
AI-Linetype-7
 62
     7
370
    25
100
AcDbVertex
100
AcDb2dVertex
 10
0.3500029434811078
 20
10.40806079148926
 30
0.0
  0
VERTEX
  5
68
330
66
100
AcDbEntity
  8
Layer 1
  6
AI-Linetype-7
 62
     7
370
    25
100
AcDbVertex
100
AcDb2dVertex
 10
0.3500029434811078
 20
10.89193426595888
 30
0.0
  0
SEQEND
  5
69
330
66
100
AcDbEntity
  8
Layer 1
  6
AI-Linetype-7
370
    25
  0
POLYLINE
  5
6B
330
3C
100
AcDbEntity
  8
Layer 1
 62
     7
370
    25
100
AcDb2dPolyline
 66
     1
 10
0.0
 20
0.0
 30
0.0
  0
VERTEX
  5
6C
330
6B
100
AcDbEntity
  8
Layer 1
 62
     7
370
    25
100
AcDbVertex
100
AcDb2dVertex
 10
0.3750002472918298
 20
10.84529659414489
 30
0.0
  0
VERTEX
  5
6D
330
6B
100
AcDbEntity
  8
Layer 1
 62
     7
370
    25
100
AcDbVertex
100
AcDb2dVertex
 10
0.3750002472918298
 20
10.45470524499174
 30
0.0
  0
SEQEND
  5
6E
330
6B
100
AcDbEntity
  8
Layer 1
370
    25
  0
POLYLINE
  5
6F
330
3C
100
AcDbEntity
  8
Layer 1
  6
AI-Linetype-8
 62
     7
370
    25
100
AcDb2dPolyline
 66
     1
 10
0.0
 20
0.0
 30
0.0
  0
VERTEX
  5
70
330
6F
100
AcDbEntity
  8
Layer 1
  6
AI-Linetype-8
 62
     7
370
    25
100
AcDbVertex
100
AcDb2dVertex
 10
0.4402672174151039
 20
10.92119725183605
 30
0.0
  0
VERTEX
  5
71
330
6F
100
AcDbEntity
  8
Layer 1
  6
AI-Linetype-8
 62
     7
370
    25
100
AcDbVertex
100
AcDb2dVertex
 10
0.4276397134282444
 20
10.88325370467897
 30
0.0
  0
SEQEND
  5
72
330
6F
100
AcDbEntity
  8
Layer 1
  6
AI-Linetype-8
370
    25
  0
POLYLINE
  5
74
330
3C
100
AcDbEntity
  8
Layer 1
  6
AI-Linetype-9
 62
     7
370
    25
100
AcDb2dPolyline
 66
     1
 10
0.0
 20
0.0
 30
0.0
  0
VERTEX
  5
75
330
74
100
AcDbEntity
  8
Layer 1
  6
AI-Linetype-9
 62
     7
370
    25
100
AcDbVertex
100
AcDb2dVertex
 10
0.2597386695471116
 20
10.37880458730058
 30
0.0
  0
VERTEX
  5
76
330
74
100
AcDbEntity
  8
Layer 1
  6
AI-Linetype-9
 62
     7
370
    25
100
AcDbVertex
100
AcDb2dVertex
 10
0.2723797369109709
 20
10.41674135276916
 30
0.0
  0
SEQEND
  5
77
330
74
100
AcDbEntity
  8
Layer 1
  6
AI-Linetype-9
370
    25
  0
POLYLINE
  5
79
330
3C
100
AcDbEntity
  8
Layer 1
  6
AI-Linetype-10
 62
     7
370
    25
100
AcDb2dPolyline
 66
     1
 10
0.0
 20
0.0
 30
0.0
  0
VERTEX
  5
7A
330
79
100
AcDbEntity
  8
Layer 1
  6
AI-Linetype-10
 62
     7
370
    25
100
AcDbVertex
100
AcDb2dVertex
 10
0.2597386695471116
 20
10.92119725183605
 30
0.0
  0
VERTEX
  5
7B
330
79
100
AcDbEntity
  8
Layer 1
  6
AI-Linetype-10
 62
     7
370
    25
100
AcDbVertex
100
AcDb2dVertex
 10
0.2723797369109709
 20
10.88325370467897
 30
0.0
  0
SEQEND
  5
7C
330
79
100
AcDbEntity
  8
Layer 1
  6
AI-Linetype-10
370
    25
  0
POLYLINE
  5
7E
330
3C
100
AcDbEntity
  8
Layer 1
  6
AI-Linetype-11
 62
     7
370
    25
100
AcDb2dPolyline
 66
     1
 10
0.0
 20
0.0
 30
0.0
  0
VERTEX
  5
7F
330
7E
100
AcDbEntity
  8
Layer 1
  6
AI-Linetype-11
 62
     7
370
    25
100
AcDbVertex
100
AcDb2dVertex
 10
0.4402672174151039
 20
10.37880458730058
 30
0.0
  0
VERTEX
  5
80
330
7E
100
AcDbEntity
  8
Layer 1
  6
AI-Linetype-11
 62
     7
370
    25
100
AcDbVertex
100
AcDb2dVertex
 10
0.4276397134282444
 20
10.41674135276916
 30
0.0
  0
SEQEND
  5
81
330
7E
100
AcDbEntity
  8
Layer 1
  6
AI-Linetype-11
370
    25
  0
POLYLINE
  5
83
330
3C
100
AcDbEntity
  8
Layer 1
  6
AI-Linetype-12
 62
     7
370
    25
100
AcDb2dPolyline
 66
     1
 10
0.0
 20
0.0
 30
0.0
  0
VERTEX
  5
84
330
83
100
AcDbEntity
  8
Layer 1
  6
AI-Linetype-12
 62
     7
370
    25
100
AcDbVertex
100
AcDb2dVertex
 10
0.689087368477337
 20
10.31881377083025
 30
0.0
  0
VERTEX
  5
85
330
83
100
AcDbEntity
  8
Layer 1
  6
AI-Linetype-12
 62
     7
370
    25
100
AcDbVertex
100
AcDb2dVertex
 10
0.689087368477337
 20
10.98118806830638
 30
0.0
  0
SEQEND
  5
86
330
83
100
AcDbEntity
  8
Layer 1
  6
AI-Linetype-12
370
    25
  0
POLYLINE
  5
88
330
3C
100
AcDbEntity
  8
Layer 1
  6
AI-Linetype-13
 62
     7
370
    25
100
AcDb2dPolyline
 66
     1
 10
0.0
 20
0.0
 30
0.0
  0
VERTEX
  5
89
330
88
100
AcDbEntity
  8
Layer 1
  6
AI-Linetype-13
 62
     7
370
    25
100
AcDbVertex
100
AcDb2dVertex
 10
0.7000058869622156
 20
10.3499959745529
 30
0.0
  0
VERTEX
  5
8A
330
88
100
AcDbEntity
  8
Layer 1
  6
AI-Linetype-13
 62
     7
370
    25
100
AcDbVertex
100
AcDb2dVertex
 10
0.7000058869622156
 20
10.95000586458373
 30
0.0
  0
SEQEND
  5
8B
330
88
100
AcDbEntity
  8
Layer 1
  6
AI-Linetype-13
370
    25
  0
POLYLINE
  5
8D
330
3C
100
AcDbEntity
  8
Layer 1
  6
AI-Linetype-14
 62
     7
370
    25
100
AcDb2dPolyline
 66
     1
 10
0.0
 20
0.0
 30
0.0
  0
VERTEX
  5
8E
330
8D
100
AcDbEntity
  8
Layer 1
  6
AI-Linetype-14
 62
     7
370
    25
100
AcDbVertex
100
AcDb2dVertex
 10
0.7109244054470941
 20
10.31881377083025
 30
0.0
  0
VERTEX
  5
8F
330
8D
100
AcDbEntity
  8
Layer 1
  6
AI-Linetype-14
 62
     7
370
    25
100
AcDbVertex
100
AcDb2dVertex
 10
0.7109244054470941
 20
10.98118806830638
 30
0.0
  0
SEQEND
  5
90
330
8D
100
AcDbEntity
  8
Layer 1
  6
AI-Linetype-14
370
    25
  0
POLYLINE
  5
92
330
3C
100
AcDbEntity
  8
Layer 1
 62
     7
370
    25
100
AcDb2dPolyline
 66
     1
 10
0.0
 20
0.0
 30
0.0
  0
VERTEX
  5
93
330
92
100
AcDbEntity
  8
Layer 1
 62
     7
370
    25
100
AcDbVertex
100
AcDb2dVertex
 10
2.050002708199703
 20
10.30000136693146
 30
0.0
  0
VERTEX
  5
94
330
92
100
AcDbEntity
  8
Layer 1
 62
     7
370
    25
100
AcDbVertex
100
AcDb2dVertex
 10
1.450006381545875
 20
10.30000136693146
 30
0.0
  0
SEQEND
  5
95
330
92
100
AcDbEntity
  8
Layer 1
370
    25
  0
POLYLINE
  5
96
330
3C
100
AcDbEntity
  8
Layer 1
 62
     7
370
    25
100
AcDb2dPolyline
 66
     1
 10
0.0
 20
0.0
 30
0.0
  0
VERTEX
  5
97
330
96
100
AcDbEntity
  8
Layer 1
 62
     7
370
    25
100
AcDbVertex
100
AcDb2dVertex
 10
1.350003602925987
 20
10.30000136693146
 30
0.0
  0
VERTEX
  5
98
330
96
100
AcDbEntity
  8
Layer 1
 62
     7
370
    25
100
AcDbVertex
100
AcDb2dVertex
 10
0.7500004945836596
 20
10.30000136693146
 30
0.0
  0
SEQEND
  5
99
330
96
100
AcDbEntity
  8
Layer 1
370
    25
  0
POLYLINE
  5
9A
330
3C
100
AcDbEntity
  8
Layer 1
 62
     7
370
    25
100
AcDb2dPolyline
 66
     1
 10
0.0
 20
0.0
 30
0.0
  0
VERTEX
  5
9B
330
9A
100
AcDbEntity
  8
Layer 1
 62
     7
370
    25
100
AcDbVertex
100
AcDb2dVertex
 10
0.6499977159637716
 20
10.30000136693146
 30
0.0
  0
VERTEX
  5
9C
330
9A
100
AcDbEntity
  8
Layer 1
 62
     7
370
    25
100
AcDbVertex
100
AcDb2dVertex
 10
0.049994607621444
 20
10.30000136693146
 30
0.0
  0
SEQEND
  5
9D
330
9A
100
AcDbEntity
  8
Layer 1
370
    25
  0
POLYLINE
  5
9E
330
3C
100
AcDbEntity
  8
Layer 1
  6
AI-Linetype-15
 62
     7
370
    25
100
AcDb2dPolyline
 66
     1
 10
0.0
 20
0.0
 30
0.0
  0
VERTEX
  5
9F
330
9E
100
AcDbEntity
  8
Layer 1
  6
AI-Linetype-15
 62
     7
370
    25
100
AcDbVertex
100
AcDb2dVertex
 10
0.3250056396703858
 20
10.45470524499174
 30
0.0
  0
VERTEX
  5
A0
330
9E
100
AcDbEntity
  8
Layer 1
  6
AI-Linetype-15
 62
     7
370
    25
100
AcDbVertex
100
AcDb2dVertex
 10
0.3750002472918298
 20
10.45470524499174
 30
0.0
  0
SEQEND
  5
A1
330
9E
100
AcDbEntity
  8
Layer 1
  6
AI-Linetype-15
370
    25
  0
POLYLINE
  5
A3
330
3C
100
AcDbEntity
  8
Layer 1
 62
     7
370
    25
100
AcDb2dPolyline
 66
     1
 10
0.0
 20
0.0
 30
0.0
  0
VERTEX
  5
A4
330
A3
100
AcDbEntity
  8
Layer 1
 62
     7
370
    25
100
AcDbVertex
100
AcDb2dVertex
 10
1.945320564514867
 20
10.62500700660184
 30
0.0
  0
VERTEX
  5
A5
330
A3
100
AcDbEntity
  8
Layer 1
 62
     7
370
    25
100
AcDbVertex
100
AcDb2dVertex
 10
1.554715651984711
 20
10.62500700660184
 30
0.0
  0
SEQEND
  5
A6
330
A3
100
AcDbEntity
  8
Layer 1
370
    25
  0
POLYLINE
  5
A7
330
3C
100
AcDbEntity
  8
Layer 1
  6
AI-Linetype-16
 62
     7
370
    25
100
AcDb2dPolyline
 66
     1
 10
0.0
 20
0.0
 30
0.0
  0
VERTEX
  5
A8
330
A7
100
AcDbEntity
  8
Layer 1
  6
AI-Linetype-16
 62
     7
370
    25
100
AcDbVertex
100
AcDb2dVertex
 10
1.508057635105229
 20
10.65000431041257
 30
0.0
  0
VERTEX
  5
A9
330
A7
100
AcDbEntity
  8
Layer 1
  6
AI-Linetype-16
 62
     7
370
    25
100
AcDbVertex
100
AcDb2dVertex
 10
1.991951454640348
 20
10.64999074703557
 30
0.0
  0
SEQEND
  5
AA
330
A7
100
AcDbEntity
  8
Layer 1
  6
AI-Linetype-16
370
    25
  0
POLYLINE
  5
AC
330
3C
100
AcDbEntity
  8
Layer 1
 62
     7
370
    25
100
AcDb2dPolyline
 66
     1
 10
0.0
 20
0.0
 30
0.0
  0
VERTEX
  5
AD
330
AC
100
AcDbEntity
  8
Layer 1
 62
     7
370
    25
100
AcDbVertex
100
AcDb2dVertex
 10
1.554715651984711
 20
10.67500839591179
 30
0.0
  0
VERTEX
  5
AE
330
AC
100
AcDbEntity
  8
Layer 1
 62
     7
370
    25
100
AcDbVertex
100
AcDb2dVertex
 10
1.945320564514867
 20
10.67500839591179
 30
0.0
  0
SEQEND
  5
AF
330
AC
100
AcDbEntity
  8
Layer 1
370
    25
  0
POLYLINE
  5
B0
330
3C
100
AcDbEntity
  8
Layer 1
  6
AI-Linetype-17
 62
     7
370
    25
100
AcDb2dPolyline
 66
     1
 10
0.0
 20
0.0
 30
0.0
  0
VERTEX
  5
B1
330
B0
100
AcDbEntity
  8
Layer 1
  6
AI-Linetype-17
 62
     7
370
    25
100
AcDbVertex
100
AcDb2dVertex
 10
2.021221222206023
 20
10.74025502096956
 30
0.0
  0
VERTEX
  5
B2
330
B0
100
AcDbEntity
  8
Layer 1
  6
AI-Linetype-17
 62
     7
370
    25
100
AcDbVertex
100
AcDb2dVertex
 10
1.983243766606445
 20
10.7276275169827
 30
0.0
  0
SEQEND
  5
B3
330
B0
100
AcDbEntity
  8
Layer 1
  6
AI-Linetype-17
370
    25
  0
POLYLINE
  5
B5
330
3C
100
AcDbEntity
  8
Layer 1
  6
AI-Linetype-18
 62
     7
370
    25
100
AcDb2dPolyline
 66
     1
 10
0.0
 20
0.0
 30
0.0
  0
VERTEX
  5
B6
330
B5
100
AcDbEntity
  8
Layer 1
  6
AI-Linetype-18
 62
     7
370
    25
100
AcDbVertex
100
AcDb2dVertex
 10
1.478787867539555
 20
10.55974003647857
 30
0.0
  0
VERTEX
  5
B7
330
B5
100
AcDbEntity
  8
Layer 1
  6
AI-Linetype-18
 62
     7
370
    25
100
AcDbVertex
100
AcDb2dVertex
 10
1.516751759762133
 20
10.57236754046543
 30
0.0
  0
SEQEND
  5
B8
330
B5
100
AcDbEntity
  8
Layer 1
  6
AI-Linetype-18
370
    25
  0
POLYLINE
  5
BA
330
3C
100
AcDbEntity
  8
Layer 1
  6
AI-Linetype-19
 62
     7
370
    25
100
AcDb2dPolyline
 66
     1
 10
0.0
 20
0.0
 30
0.0
  0
VERTEX
  5
BB
330
BA
100
AcDbEntity
  8
Layer 1
  6
AI-Linetype-19
 62
     7
370
    25
100
AcDbVertex
100
AcDb2dVertex
 10
0.3250056396703858
 20
10.84529659414489
 30
0.0
  0
VERTEX
  5
BC
330
BA
100
AcDbEntity
  8
Layer 1
  6
AI-Linetype-19
 62
     7
370
    25
100
AcDbVertex
100
AcDb2dVertex
 10
0.3750002472918298
 20
10.84529659414489
 30
0.0
  0
SEQEND
  5
BD
330
BA
100
AcDbEntity
  8
Layer 1
  6
AI-Linetype-19
370
    25
  0
POLYLINE
  5
BF
330
3C
100
AcDbEntity
  8
Layer 1
  6
AI-Linetype-20
 62
     7
370
    25
100
AcDb2dPolyline
 66
     1
 10
0.0
 20
0.0
 30
0.0
  0
VERTEX
  5
C0
330
BF
100
AcDbEntity
  8
Layer 1
  6
AI-Linetype-20
 62
     7
370
    25
100
AcDbVertex
100
AcDb2dVertex
 10
2.021221222206023
 20
10.55974003647857
 30
0.0
  0
VERTEX
  5
C1
330
BF
100
AcDbEntity
  8
Layer 1
  6
AI-Linetype-20
 62
     7
370
    25
100
AcDbVertex
100
AcDb2dVertex
 10
1.983243766606445
 20
10.57236754046543
 30
0.0
  0
SEQEND
  5
C2
330
BF
100
AcDbEntity
  8
Layer 1
  6
AI-Linetype-20
370
    25
  0
POLYLINE
  5
C4
330
3C
100
AcDbEntity
  8
Layer 1
  6
AI-Linetype-21
 62
     7
370
    25
100
AcDb2dPolyline
 66
     1
 10
0.0
 20
0.0
 30
0.0
  0
VERTEX
  5
C5
330
C4
100
AcDbEntity
  8
Layer 1
  6
AI-Linetype-21
 62
     7
370
    25
100
AcDbVertex
100
AcDb2dVertex
 10
1.478787867539555
 20
10.74025502096956
 30
0.0
  0
VERTEX
  5
C6
330
C4
100
AcDbEntity
  8
Layer 1
  6
AI-Linetype-21
 62
     7
370
    25
100
AcDbVertex
100
AcDb2dVertex
 10
1.516751759762133
 20
10.7276275169827
 30
0.0
  0
SEQEND
  5
C7
330
C4
100
AcDbEntity
  8
Layer 1
  6
AI-Linetype-21
370
    25
  0
POLYLINE
  5
C9
330
3C
100
AcDbEntity
  8
Layer 1
  6
AI-Linetype-22
 62
     7
370
    25
100
AcDb2dPolyline
 66
     1
 10
0.0
 20
0.0
 30
0.0
  0
VERTEX
  5
CA
330
C9
100
AcDbEntity
  8
Layer 1
  6
AI-Linetype-22
 62
     7
370
    25
100
AcDbVertex
100
AcDb2dVertex
 10
1.389079692062553
 20
10.31881377083025
 30
0.0
  0
VERTEX
  5
CB
330
C9
100
AcDbEntity
  8
Layer 1
  6
AI-Linetype-22
 62
     7
370
    25
100
AcDbVertex
100
AcDb2dVertex
 10
1.389079692062553
 20
10.98118806830638
 30
0.0
  0
SEQEND
  5
CC
330
C9
100
AcDbEntity
  8
Layer 1
  6
AI-Linetype-22
370
    25
  0
POLYLINE
  5
CE
330
3C
100
AcDbEntity
  8
Layer 1
  6
AI-Linetype-23
 62
     7
370
    25
100
AcDb2dPolyline
 66
     1
 10
0.0
 20
0.0
 30
0.0
  0
VERTEX
  5
CF
330
CE
100
AcDbEntity
  8
Layer 1
  6
AI-Linetype-23
 62
     7
370
    25
100
AcDbVertex
100
AcDb2dVertex
 10
1.399998210547431
 20
10.3499959745529
 30
0.0
  0
VERTEX
  5
D0
330
CE
100
AcDbEntity
  8
Layer 1
  6
AI-Linetype-23
 62
     7
370
    25
100
AcDbVertex
100
AcDb2dVertex
 10
1.399998210547431
 20
10.95000586458373
 30
0.0
  0
SEQEND
  5
D1
330
CE
100
AcDbEntity
  8
Layer 1
  6
AI-Linetype-23
370
    25
  0
POLYLINE
  5
D3
330
3C
100
AcDbEntity
  8
Layer 1
  6
AI-Linetype-24
 62
     7
370
    25
100
AcDb2dPolyline
 66
     1
 10
0.0
 20
0.0
 30
0.0
  0
VERTEX
  5
D4
330
D3
100
AcDbEntity
  8
Layer 1
  6
AI-Linetype-24
 62
     7
370
    25
100
AcDbVertex
100
AcDb2dVertex
 10
1.41091672903231
 20
10.31881377083025
 30
0.0
  0
VERTEX
  5
D5
330
D3
100
AcDbEntity
  8
Layer 1
  6
AI-Linetype-24
 62
     7
370
    25
100
AcDbVertex
100
AcDb2dVertex
 10
1.41091672903231
 20
10.98118806830638
 30
0.0
  0
SEQEND
  5
D6
330
D3
100
AcDbEntity
  8
Layer 1
  6
AI-Linetype-24
370
    25
  0
POLYLINE
  5
D8
330
3C
100
AcDbEntity
  8
Layer 1
 62
     7
370
    25
100
AcDb2dPolyline
 66
     1
 10
0.0
 20
0.0
 30
0.0
  0
VERTEX
  5
D9
330
D8
100
AcDbEntity
  8
Layer 1
 62
     7
370
    25
100
AcDbVertex
100
AcDb2dVertex
 10
0.049994607621444
 20
11.00000725389367
 30
0.0
  0
VERTEX
  5
DA
330
D8
100
AcDbEntity
  8
Layer 1
 62
     7
370
    25
100
AcDbVertex
100
AcDb2dVertex
 10
0.6499977159637716
 20
11.00000725389367
 30
0.0
  0
SEQEND
  5
DB
330
D8
100
AcDbEntity
  8
Layer 1
370
    25
  0
POLYLINE
  5
DC
330
3C
100
AcDbEntity
  8
Layer 1
 62
     7
370
    25
100
AcDb2dPolyline
 66
     1
 10
0.0
 20
0.0
 30
0.0
  0
VERTEX
  5
DD
330
DC
100
AcDbEntity
  8
Layer 1
 62
     7
370
    25
100
AcDbVertex
100
AcDb2dVertex
 10
0.7500004945836596
 20
11.00000725389367
 30
0.0
  0
VERTEX
  5
DE
330
DC
100
AcDbEntity
  8
Layer 1
 62
     7
370
    25
100
AcDbVertex
100
AcDb2dVertex
 10
1.350003602925987
 20
11.00000725389367
 30
0.0
  0
SEQEND
  5
DF
330
DC
100
AcDbEntity
  8
Layer 1
370
    25
  0
POLYLINE
  5
E0
330
3C
100
AcDbEntity
  8
Layer 1
 62
     7
370
    25
100
AcDb2dPolyline
 66
     1
 10
0.0
 20
0.0
 30
0.0
  0
VERTEX
  5
E1
330
E0
100
AcDbEntity
  8
Layer 1
 62
     7
370
    25
100
AcDbVertex
100
AcDb2dVertex
 10
1.450006381545875
 20
11.00000725389367
 30
0.0
  0
VERTEX
  5
E2
330
E0
100
AcDbEntity
  8
Layer 1
 62
     7
370
    25
100
AcDbVertex
100
AcDb2dVertex
 10
2.050002708199703
 20
11.00000725389367
 30
0.0
  0
SEQEND
  5
E3
330
E0
100
AcDbEntity
  8
Layer 1
370
    25
  0
POLYLINE
  5
E4
330
3C
100
AcDbEntity
  8
Layer 1
  6
AI-Linetype-25
 62
     7
370
    25
100
AcDb2dPolyline
 66
     1
 10
0.0
 20
0.0
 30
0.0
  0
VERTEX
  5
E5
330
E4
100
AcDbEntity
  8
Layer 1
  6
AI-Linetype-25
 62
     7
370
    25
100
AcDbVertex
100
AcDb2dVertex
 10
1.554715651984711
 20
10.62500700660184
 30
0.0
  0
VERTEX
  5
E6
330
E4
100
AcDbEntity
  8
Layer 1
  6
AI-Linetype-25
 62
     7
370
    25
100
AcDbVertex
100
AcDb2dVertex
 10
1.554715651984711
 20
10.67500839591179
 30
0.0
  0
SEQEND
  5
E7
330
E4
100
AcDbEntity
  8
Layer 1
  6
AI-Linetype-25
370
    25
  0
POLYLINE
  5
E9
330
3C
100
AcDbEntity
  8
Layer 1
  6
AI-Linetype-26
 62
     7
370
    25
100
AcDb2dPolyline
 66
     1
 10
0.0
 20
0.0
 30
0.0
  0
VERTEX
  5
EA
330
E9
100
AcDbEntity
  8
Layer 1
  6
AI-Linetype-26
 62
     7
370
    25
100
AcDbVertex
100
AcDb2dVertex
 10
1.945320564514867
 20
10.62500700660184
 30
0.0
  0
VERTEX
  5
EB
330
E9
100
AcDbEntity
  8
Layer 1
  6
AI-Linetype-26
 62
     7
370
    25
100
AcDbVertex
100
AcDb2dVertex
 10
1.945320564514867
 20
10.67500839591179
 30
0.0
  0
SEQEND
  5
EC
330
E9
100
AcDbEntity
  8
Layer 1
  6
AI-Linetype-26
370
    25
  0
POLYLINE
  5
EE
330
3C
100
AcDbEntity
  8
Layer 1
 62
     7
370
    25
100
AcDb2dPolyline
 66
     1
 10
0.0
 20
0.0
 30
0.0
  0
VERTEX
  5
EF
330
EE
100
AcDbEntity
  8
Layer 1
 62
     7
370
    25
100
AcDbVertex
100
AcDb2dVertex
 10
2.099997315821147
 20
10.95000586458373
 30
0.0
  0
VERTEX
  5
F0
330
EE
100
AcDbEntity
  8
Layer 1
 62
     7
370
    25
100
AcDbVertex
100
AcDb2dVertex
 10
2.099997315821147
 20
10.3499959745529
 30
0.0
  0
SEQEND
  5
F1
330
EE
100
AcDbEntity
  8
Layer 1
370
    25
  0
SPLINE
  5
F2
330
3C
100
AcDbEntity
  8
Layer 1
  6
AI-Linetype-27
 62
     7
370
    25
100
AcDbSpline
210
0.0
220
0.0
230
1.0
 70
     8
 71
     3
 72
     8
 73
     4
 74
     0
 42
0.0000000001
 43
0.0000000001
 40
0.0
 40
0.0
 40
0.0
 40
0.0
 40
1.0
 40
1.0
 40
1.0
 40
1.0
 10
0.3500029434811078
 20
10.40806079148926
 30
0.0
 10
0.3704293892428806
 20
10.37959126316657
 30
0.0
 10
0.4070098170114738
 20
10.3677368716687
 30
0.0
 10
0.4402672174151039
 20
10.37877746054658
 30
0.0
  0
SPLINE
  5
F4
330
3C
100
AcDbEntity
  8
Layer 1
 62
     7
370
    25
100
AcDbSpline
210
0.0
220
0.0
230
1.0
 70
    11
 71
     3
 72
    17
 73
    13
 74
     0
 42
0.0000000001
 43
0.0000000001
 40
0.0
 40
0.0
 40
0.0
 40
0.0
 40
1.0
 40
1.0
 40
1.0
 40
2.0
 40
2.0
 40
2.0
 40
3.0
 40
3.0
 40
3.0
 40
4.0
 40
4.0
 40
4.0
 40
4.0
 10
0.1733399580580724
 20
10.39334452744442
 30
0.0
 10
0.1733399580580724
 20
10.43752044633293
 30
0.0
 10
0.1375190794014707
 20
10.47334132498953
 30
0.0
 10
0.0933295971359621
 20
10.47334132498953
 30
0.0
 10
0.0491536782474534
 20
10.47334132498953
 30
0.0
 10
0.0133327995908517
 20
10.43752044633293
 30
0.0
 10
0.0133327995908517
 20
10.39334452744442
 30
0.0
 10
0.0133327995908517
 20
10.34914148180191
 30
0.0
 10
0.0491536782474534
 20
10.31334772989931
 30
0.0
 10
0.0933295971359621
 20
10.31334772989931
 30
0.0
 10
0.1375190794014707
 20
10.31334772989931
 30
0.0
 10
0.1733399580580724
 20
10.34914148180191
 30
0.0
 10
0.1733399580580724
 20
10.39334452744442
 30
0.0
  0
SPLINE
  5
F5
330
3C
100
AcDbEntity
  8
Layer 1
  6
AI-Linetype-28
 62
     7
370
    25
100
AcDbSpline
210
0.0
220
0.0
230
1.0
 70
     8
 71
     3
 72
     8
 73
     4
 74
     0
 42
0.0000000001
 43
0.0000000001
 40
0.0
 40
0.0
 40
0.0
 40
0.0
 40
1.0
 40
1.0
 40
1.0
 40
1.0
 10
0.2597386695471116
 20
10.37880458730058
 30
0.0
 10
0.2929825065737419
 20
10.3677368716687
 30
0.0
 10
0.3295764977193349
 20
10.37959126316657
 30
0.0
 10
0.3500029434811078
 20
10.40806079148926
 30
0.0
  0
SPLINE
  5
F7
330
3C
100
AcDbEntity
  8
Layer 1
 62
     7
370
    25
100
AcDbSpline
210
0.0
220
0.0
230
1.0
 70
     8
 71
     3
 72
     8
 73
     4
 74
     0
 42
0.0000000001
 43
0.0000000001
 40
0.0
 40
0.0
 40
0.0
 40
0.0
 40
1.0
 40
1.0
 40
1.0
 40
1.0
 10
0.7000058869622156
 20
10.3499959745529
 30
0.0
 10
0.7000058869622156
 20
10.32238093898121
 30
0.0
 10
0.7223854590119666
 20
10.30000136693146
 30
0.0
 10
0.7500004945836596
 20
10.30000136693146
 30
0.0
  0
SPLINE
  5
F8
330
3C
100
AcDbEntity
  8
Layer 1
 62
     7
370
    25
100
AcDbSpline
210
0.0
220
0.0
230
1.0
 70
     8
 71
     3
 72
     8
 73
     4
 74
     0
 42
0.0000000001
 43
0.0000000001
 40
0.0
 40
0.0
 40
0.0
 40
0.0
 40
1.0
 40
1.0
 40
1.0
 40
1.0
 10
0.6499977159637716
 20
10.30000136693146
 30
0.0
 10
0.6776127515354645
 20
10.30000136693146
 30
0.0
 10
0.7000058869622156
 20
10.32238093898121
 30
0.0
 10
0.7000058869622156
 20
10.3499959745529
 30
0.0
  0
SPLINE
  5
F9
330
3C
100
AcDbEntity
  8
Layer 1
 62
     7
370
    25
100
AcDbSpline
210
0.0
220
0.0
230
1.0
 70
     8
 71
     3
 72
     8
 73
     4
 74
     0
 42
0.0000000001
 43
0.0000000001
 40
0.0
 40
0.0
 40
0.0
 40
0.0
 40
1.0
 40
1.0
 40
1.0
 40
1.0
 10
0.0
 20
10.3499959745529
 30
0.0
 10
0.0
 20
10.32238093898121
 30
0.0
 10
0.022393135426751
 20
10.30000136693146
 30
0.0
 10
0.049994607621444
 20
10.30000136693146
 30
0.0
  0
SPLINE
  5
FA
330
3C
100
AcDbEntity
  8
Layer 1
 62
     7
370
    25
100
AcDbSpline
210
0.0
220
0.0
230
1.0
 70
    11
 71
     3
 72
    17
 73
    13
 74
     0
 42
0.0000000001
 43
0.0000000001
 40
0.0
 40
0.0
 40
0.0
 40
0.0
 40
1.0
 40
1.0
 40
1.0
 40
2.0
 40
2.0
 40
2.0
 40
3.0
 40
3.0
 40
3.0
 40
4.0
 40
4.0
 40
4.0
 40
4.0
 10
0.1358372206534894
 20
10.39334452744442
 30
0.0
 10
0.1358372206534894
 20
10.41680916965416
 30
0.0
 10
0.116807802722701
 20
10.43583858758495
 30
0.0
 10
0.0933295971359621
 20
10.43583858758495
 30
0.0
 10
0.0698649549262231
 20
10.43583858758495
 30
0.0
 10
0.0508355369954347
 20
10.41680916965416
 30
0.0
 10
0.0508355369954347
 20
10.39334452744442
 30
0.0
 10
0.0508355369954347
 20
10.36986632185768
 30
0.0
 10
0.0698649549262231
 20
10.35083690392689
 30
0.0
 10
0.0933295971359621
 20
10.35083690392689
 30
0.0
 10
0.116807802722701
 20
10.35083690392689
 30
0.0
 10
0.1358372206534894
 20
10.36986632185768
 30
0.0
 10
0.1358372206534894
 20
10.39334452744442
 30
0.0
  0
SPLINE
  5
FB
330
3C
100
AcDbEntity
  8
Layer 1
 62
     7
370
    25
100
AcDbSpline
210
0.0
220
0.0
230
1.0
 70
     8
 71
     3
 72
     8
 73
     4
 74
     0
 42
0.0000000001
 43
0.0000000001
 40
0.0
 40
0.0
 40
0.0
 40
0.0
 40
1.0
 40
1.0
 40
1.0
 40
1.0
 10
0.3084040662225704
 20
10.4222616472081
 30
0.0
 10
0.3188207397584545
 20
10.42977575806601
 30
0.0
 10
0.3250056396703858
 20
10.44184716359588
 30
0.0
 10
0.3250056396703858
 20
10.45470524499174
 30
0.0
  0
SPLINE
  5
FC
330
3C
100
AcDbEntity
  8
Layer 1
 62
     7
370
    25
100
AcDbSpline
210
0.0
220
0.0
230
1.0
 70
     8
 71
     3
 72
     8
 73
     4
 74
     0
 42
0.0000000001
 43
0.0000000001
 40
0.0
 40
0.0
 40
0.0
 40
0.0
 40
1.0
 40
1.0
 40
1.0
 40
1.0
 10
0.2723797369109709
 20
10.41674135276916
 30
0.0
 10
0.2845732128338354
 20
10.4126859030462
 30
0.0
 10
0.2979738293096864
 20
10.41474753635018
 30
0.0
 10
0.3084040662225704
 20
10.4222616472081
 30
0.0
  0
SPLINE
  5
FD
330
3C
100
AcDbEntity
  8
Layer 1
 62
     7
370
    25
100
AcDbSpline
210
0.0
220
0.0
230
1.0
 70
     8
 71
     3
 72
     8
 73
     4
 74
     0
 42
0.0000000001
 43
0.0000000001
 40
0.0
 40
0.0
 40
0.0
 40
0.0
 40
1.0
 40
1.0
 40
1.0
 40
1.0
 10
0.391615384116645
 20
10.4222616472081
 30
0.0
 10
0.4020320576525291
 20
10.41474753635018
 30
0.0
 10
0.4154326741283801
 20
10.4126859030462
 30
0.0
 10
0.4276397134282444
 20
10.41674135276916
 30
0.0
  0
SPLINE
  5
FE
330
3C
100
AcDbEntity
  8
Layer 1
 62
     7
370
    25
100
AcDbSpline
210
0.0
220
0.0
230
1.0
 70
     8
 71
     3
 72
     8
 73
     4
 74
     0
 42
0.0000000001
 43
0.0000000001
 40
0.0
 40
0.0
 40
0.0
 40
0.0
 40
1.0
 40
1.0
 40
1.0
 40
1.0
 10
0.3750002472918298
 20
10.45470524499174
 30
0.0
 10
0.3750002472918298
 20
10.44184716359588
 30
0.0
 10
0.381185147203761
 20
10.42977575806601
 30
0.0
 10
0.391615384116645
 20
10.4222616472081
 30
0.0
  0
SPLINE
  5
FF
330
3C
100
AcDbEntity
  8
Layer 1
  6
AI-Linetype-29
 62
     7
370
    25
100
AcDbSpline
210
0.0
220
0.0
230
1.0
 70
    11
 71
     3
 72
    17
 73
    13
 74
     0
 42
0.0000000001
 43
0.0000000001
 40
0.0
 40
0.0
 40
0.0
 40
0.0
 40
1.0
 40
1.0
 40
1.0
 40
2.0
 40
2.0
 40
2.0
 40
3.0
 40
3.0
 40
3.0
 40
4.0
 40
4.0
 40
4.0
 40
4.0
 10
0.8516715685745289
 20
10.39334452744442
 30
0.0
 10
0.8516715685745289
 20
10.4126587762922
 30
0.0
 10
0.8360058681397031
 20
10.42832447672703
 30
0.0
 10
0.8166644925379182
 20
10.42832447672703
 30
0.0
 10
0.7973366803131331
 20
10.42832447672703
 30
0.0
 10
0.7816709798783074
 20
10.4126587762922
 30
0.0
 10
0.7816709798783074
 20
10.39334452744442
 30
0.0
 10
0.7816709798783074
 20
10.37400315184263
 30
0.0
 10
0.7973366803131331
 20
10.35833745140781
 30
0.0
 10
0.8166644925379182
 20
10.35833745140781
 30
0.0
 10
0.8360058681397031
 20
10.35833745140781
 30
0.0
 10
0.8516715685745289
 20
10.37400315184263
 30
0.0
 10
0.8516715685745289
 20
10.39334452744442
 30
0.0
  0
SPLINE
  5
101
330
3C
100
AcDbEntity
  8
Layer 1
  6
AI-Linetype-30
 62
     7
370
    25
100
AcDbSpline
210
0.0
220
0.0
230
1.0
 70
    11
 71
     3
 72
    17
 73
    13
 74
     0
 42
0.0000000001
 43
0.0000000001
 40
0.0
 40
0.0
 40
0.0
 40
0.0
 40
1.0
 40
1.0
 40
1.0
 40
2.0
 40
2.0
 40
2.0
 40
3.0
 40
3.0
 40
3.0
 40
4.0
 40
4.0
 40
4.0
 40
4.0
 10
0.6183407940461236
 20
10.39334452744442
 30
0.0
 10
0.6183407940461236
 20
10.4126587762922
 30
0.0
 10
0.6026750936112979
 20
10.42832447672703
 30
0.0
 10
0.583333718009513
 20
10.42832447672703
 30
0.0
 10
0.5640059057847279
 20
10.42832447672703
 30
0.0
 10
0.5483402053499021
 20
10.4126587762922
 30
0.0
 10
0.5483402053499021
 20
10.39334452744442
 30
0.0
 10
0.5483402053499021
 20
10.37400315184263
 30
0.0
 10
0.5640059057847279
 20
10.35833745140781
 30
0.0
 10
0.583333718009513
 20
10.35833745140781
 30
0.0
 10
0.6026750936112979
 20
10.35833745140781
 30
0.0
 10
0.6183407940461236
 20
10.37400315184263
 30
0.0
 10
0.6183407940461236
 20
10.39334452744442
 30
0.0
  0
SPLINE
  5
103
330
3C
100
AcDbEntity
  8
Layer 1
  6
AI-Linetype-31
 62
     7
370
    25
100
AcDbSpline
210
0.0
220
0.0
230
1.0
 70
     8
 71
     3
 72
     8
 73
     4
 74
     0
 42
0.0000000001
 43
0.0000000001
 40
0.0
 40
0.0
 40
0.0
 40
0.0
 40
1.0
 40
1.0
 40
1.0
 40
1.0
 10
0.4402672174151039
 20
10.92119725183605
 30
0.0
 10
0.5570478933838053
 20
10.88233817673148
 30
0.0
 10
0.6358375503759292
 20
10.7730783933092
 30
0.0
 10
0.6358375503759292
 20
10.65000431041257
 30
0.0
  0
SPLINE
  5
105
330
3C
100
AcDbEntity
  8
Layer 1
  6
AI-Linetype-32
 62
     7
370
    25
100
AcDbSpline
210
0.0
220
0.0
230
1.0
 70
     8
 71
     3
 72
     8
 73
     4
 74
     0
 42
0.0000000001
 43
0.0000000001
 40
0.0
 40
0.0
 40
0.0
 40
0.0
 40
1.0
 40
1.0
 40
1.0
 40
1.0
 10
0.6358375503759292
 20
10.65000431041257
 30
0.0
 10
0.6358375503759292
 20
10.52691666413893
 30
0.0
 10
0.5570478933838053
 20
10.41765009902815
 30
0.0
 10
0.4402672174151039
 20
10.37880458730058
 30
0.0
  0
SPLINE
  5
107
330
3C
100
AcDbEntity
  8
Layer 1
  6
AI-Linetype-33
 62
     7
370
    25
100
AcDbSpline
210
0.0
220
0.0
230
1.0
 70
     8
 71
     3
 72
     8
 73
     4
 74
     0
 42
0.0000000001
 43
0.0000000001
 40
0.0
 40
0.0
 40
0.0
 40
0.0
 40
1.0
 40
1.0
 40
1.0
 40
1.0
 10
0.0641683365862864
 20
10.65000431041257
 30
0.0
 10
0.0641683365862864
 20
10.52691666413893
 30
0.0
 10
0.1429579935784102
 20
10.41765009902815
 30
0.0
 10
0.2597386695471116
 20
10.37880458730058
 30
0.0
  0
SPLINE
  5
109
330
3C
100
AcDbEntity
  8
Layer 1
  6
AI-Linetype-34
 62
     7
370
    25
100
AcDbSpline
210
0.0
220
0.0
230
1.0
 70
     8
 71
     3
 72
     8
 73
     4
 74
     0
 42
0.0000000001
 43
0.0000000001
 40
0.0
 40
0.0
 40
0.0
 40
0.0
 40
1.0
 40
1.0
 40
1.0
 40
1.0
 10
0.2597386695471116
 20
10.92119725183605
 30
0.0
 10
0.1429579935784102
 20
10.88233817673148
 30
0.0
 10
0.0641683365862864
 20
10.7730783933092
 30
0.0
 10
0.0641683365862864
 20
10.65000431041257
 30
0.0
  0
SPLINE
  5
10B
330
3C
100
AcDbEntity
  8
Layer 1
 62
     7
370
    25
100
AcDbSpline
210
0.0
220
0.0
230
1.0
 70
     8
 71
     3
 72
     8
 73
     4
 74
     0
 42
0.0000000001
 43
0.0000000001
 40
0.0
 40
0.0
 40
0.0
 40
0.0
 40
1.0
 40
1.0
 40
1.0
 40
1.0
 10
0.4276397134282444
 20
10.88325370467897
 30
0.0
 10
0.5280765201121275
 20
10.84982676206284
 30
0.0
 10
0.5958391516033739
 20
10.75585290451939
 30
0.0
 10
0.5958391516033739
 20
10.65000431041257
 30
0.0
  0
SPLINE
  5
10C
330
3C
100
AcDbEntity
  8
Layer 1
 62
     7
370
    25
100
AcDbSpline
210
0.0
220
0.0
230
1.0
 70
     8
 71
     3
 72
     8
 73
     4
 74
     0
 42
0.0000000001
 43
0.0000000001
 40
0.0
 40
0.0
 40
0.0
 40
0.0
 40
1.0
 40
1.0
 40
1.0
 40
1.0
 10
0.5958391516033739
 20
10.65000431041257
 30
0.0
 10
0.5958391516033739
 20
10.54414215292874
 30
0.0
 10
0.5280765201121275
 20
10.45017507707379
 30
0.0
 10
0.4276397134282444
 20
10.41674135276916
 30
0.0
  0
SPLINE
  5
10D
330
3C
100
AcDbEntity
  8
Layer 1
 62
     7
370
    25
100
AcDbSpline
210
0.0
220
0.0
230
1.0
 70
     8
 71
     3
 72
     8
 73
     4
 74
     0
 42
0.0000000001
 43
0.0000000001
 40
0.0
 40
0.0
 40
0.0
 40
0.0
 40
1.0
 40
1.0
 40
1.0
 40
1.0
 10
0.1041667353588416
 20
10.65000431041257
 30
0.0
 10
0.1041667353588416
 20
10.54414215292874
 30
0.0
 10
0.1719293668500881
 20
10.45017507707379
 30
0.0
 10
0.2723797369109709
 20
10.41674135276916
 30
0.0
  0
SPLINE
  5
10E
330
3C
100
AcDbEntity
  8
Layer 1
 62
     7
370
    25
100
AcDbSpline
210
0.0
220
0.0
230
1.0
 70
     8
 71
     3
 72
     8
 73
     4
 74
     0
 42
0.0000000001
 43
0.0000000001
 40
0.0
 40
0.0
 40
0.0
 40
0.0
 40
1.0
 40
1.0
 40
1.0
 40
1.0
 10
0.2723797369109709
 20
10.88325370467897
 30
0.0
 10
0.1719293668500881
 20
10.84982676206284
 30
0.0
 10
0.1041667353588416
 20
10.75585290451939
 30
0.0
 10
0.1041667353588416
 20
10.65000431041257
 30
0.0
  0
SPLINE
  5
10F
330
3C
100
AcDbEntity
  8
Layer 1
  6
AI-Linetype-35
 62
     7
370
    25
100
AcDbSpline
210
0.0
220
0.0
230
1.0
 70
     8
 71
     3
 72
     8
 73
     4
 74
     0
 42
0.0000000001
 43
0.0000000001
 40
0.0
 40
0.0
 40
0.0
 40
0.0
 40
1.0
 40
1.0
 40
1.0
 40
1.0
 10
0.3500029434811078
 20
10.89193426595888
 30
0.0
 10
0.3295764977193349
 20
10.92041057597006
 30
0.0
 10
0.2929825065737419
 20
10.93228531253343
 30
0.0
 10
0.2597386695471116
 20
10.92121081521305
 30
0.0
  0
SPLINE
  5
111
330
3C
100
AcDbEntity
  8
Layer 1
 62
     7
370
    25
100
AcDbSpline
210
0.0
220
0.0
230
1.0
 70
    11
 71
     3
 72
    17
 73
    13
 74
     0
 42
0.0000000001
 43
0.0000000001
 40
0.0
 40
0.0
 40
0.0
 40
0.0
 40
1.0
 40
1.0
 40
1.0
 40
2.0
 40
2.0
 40
2.0
 40
3.0
 40
3.0
 40
3.0
 40
4.0
 40
4.0
 40
4.0
 40
4.0
 10
0.1733399580580724
 20
10.90667087506921
 30
0.0
 10
0.1733399580580724
 20
10.95085357564622
 30
0.0
 10
0.1375190794014707
 20
10.98667445430282
 30
0.0
 10
0.0933295971359621
 20
10.98667445430282
 30
0.0
 10
0.0491536782474534
 20
10.98667445430282
 30
0.0
 10
0.0133327995908517
 20
10.95085357564622
 30
0.0
 10
0.0133327995908517
 20
10.90667087506921
 30
0.0
 10
0.0133327995908517
 20
10.8624746111152
 30
0.0
 10
0.0491536782474534
 20
10.8266740775241
 30
0.0
 10
0.0933295971359621
 20
10.8266740775241
 30
0.0
 10
0.1375190794014707
 20
10.8266740775241
 30
0.0
 10
0.1733399580580724
 20
10.8624746111152
 30
0.0
 10
0.1733399580580724
 20
10.90667087506921
 30
0.0
  0
SPLINE
  5
112
330
3C
100
AcDbEntity
  8
Layer 1
  6
AI-Linetype-36
 62
     7
370
    25
100
AcDbSpline
210
0.0
220
0.0
230
1.0
 70
     8
 71
     3
 72
     8
 73
     4
 74
     0
 42
0.0000000001
 43
0.0000000001
 40
0.0
 40
0.0
 40
0.0
 40
0.0
 40
1.0
 40
1.0
 40
1.0
 40
1.0
 10
0.4402672174151039
 20
10.92119725183605
 30
0.0
 10
0.4070098170114738
 20
10.93227174915643
 30
0.0
 10
0.3704293892428806
 20
10.92041057597006
 30
0.0
 10
0.3500029434811078
 20
10.89193426595888
 30
0.0
  0
SPLINE
  5
114
330
3C
100
AcDbEntity
  8
Layer 1
 62
     7
370
    25
100
AcDbSpline
210
0.0
220
0.0
230
1.0
 70
     8
 71
     3
 72
     8
 73
     4
 74
     0
 42
0.0000000001
 43
0.0000000001
 40
0.0
 40
0.0
 40
0.0
 40
0.0
 40
1.0
 40
1.0
 40
1.0
 40
1.0
 10
0.7500004945836596
 20
11.00000725389367
 30
0.0
 10
0.7223854590119666
 20
11.00000725389367
 30
0.0
 10
0.7000058869622156
 20
10.97761411846692
 30
0.0
 10
0.7000058869622156
 20
10.95000586458373
 30
0.0
  0
SPLINE
  5
115
330
3C
100
AcDbEntity
  8
Layer 1
 62
     7
370
    25
100
AcDbSpline
210
0.0
220
0.0
230
1.0
 70
     8
 71
     3
 72
     8
 73
     4
 74
     0
 42
0.0000000001
 43
0.0000000001
 40
0.0
 40
0.0
 40
0.0
 40
0.0
 40
1.0
 40
1.0
 40
1.0
 40
1.0
 10
0.049994607621444
 20
11.00000725389367
 30
0.0
 10
0.022393135426751
 20
11.00000725389367
 30
0.0
 10
0.0
 20
10.97761411846692
 30
0.0
 10
0.0
 20
10.95000586458373
 30
0.0
  0
SPLINE
  5
116
330
3C
100
AcDbEntity
  8
Layer 1
 62
     7
370
    25
100
AcDbSpline
210
0.0
220
0.0
230
1.0
 70
     8
 71
     3
 72
     8
 73
     4
 74
     0
 42
0.0000000001
 43
0.0000000001
 40
0.0
 40
0.0
 40
0.0
 40
0.0
 40
1.0
 40
1.0
 40
1.0
 40
1.0
 10
0.7000058869622156
 20
10.95000586458373
 30
0.0
 10
0.7000058869622156
 20
10.97761411846692
 30
0.0
 10
0.6776127515354645
 20
11.00000725389367
 30
0.0
 10
0.6499977159637716
 20
11.00000725389367
 30
0.0
  0
SPLINE
  5
117
330
3C
100
AcDbEntity
  8
Layer 1
 62
     7
370
    25
100
AcDbSpline
210
0.0
220
0.0
230
1.0
 70
     8
 71
     3
 72
     8
 73
     4
 74
     0
 42
0.0000000001
 43
0.0000000001
 40
0.0
 40
0.0
 40
0.0
 40
0.0
 40
1.0
 40
1.0
 40
1.0
 40
1.0
 10
0.391615384116645
 20
10.87774019192853
 30
0.0
 10
0.381185147203761
 20
10.87022608107062
 30
0.0
 10
0.3750002472918298
 20
10.85816145722925
 30
0.0
 10
0.3750002472918298
 20
10.84529659414489
 30
0.0
  0
SPLINE
  5
118
330
3C
100
AcDbEntity
  8
Layer 1
 62
     7
370
    25
100
AcDbSpline
210
0.0
220
0.0
230
1.0
 70
     8
 71
     3
 72
     8
 73
     4
 74
     0
 42
0.0000000001
 43
0.0000000001
 40
0.0
 40
0.0
 40
0.0
 40
0.0
 40
1.0
 40
1.0
 40
1.0
 40
1.0
 10
0.4276397134282444
 20
10.88325370467897
 30
0.0
 10
0.4154326741283801
 20
10.88730915440193
 30
0.0
 10
0.4020320576525291
 20
10.88526786616345
 30
0.0
 10
0.391615384116645
 20
10.87774019192853
 30
0.0
  0
SPLINE
  5
119
330
3C
100
AcDbEntity
  8
Layer 1
 62
     7
370
    25
100
AcDbSpline
210
0.0
220
0.0
230
1.0
 70
     8
 71
     3
 72
     8
 73
     4
 74
     0
 42
0.0000000001
 43
0.0000000001
 40
0.0
 40
0.0
 40
0.0
 40
0.0
 40
1.0
 40
1.0
 40
1.0
 40
1.0
 10
0.3084040662225704
 20
10.87774019192853
 30
0.0
 10
0.2979738293096864
 20
10.88526786616345
 30
0.0
 10
0.2845732128338354
 20
10.88730915440193
 30
0.0
 10
0.2723797369109709
 20
10.88325370467897
 30
0.0
  0
SPLINE
  5
11A
330
3C
100
AcDbEntity
  8
Layer 1
 62
     7
370
    25
100
AcDbSpline
210
0.0
220
0.0
230
1.0
 70
     8
 71
     3
 72
     8
 73
     4
 74
     0
 42
0.0000000001
 43
0.0000000001
 40
0.0
 40
0.0
 40
0.0
 40
0.0
 40
1.0
 40
1.0
 40
1.0
 40
1.0
 10
0.3250056396703858
 20
10.84529659414489
 30
0.0
 10
0.3250056396703858
 20
10.85816145722925
 30
0.0
 10
0.3188207397584545
 20
10.87022608107062
 30
0.0
 10
0.3084040662225704
 20
10.87774019192853
 30
0.0
  0
SPLINE
  5
11B
330
3C
100
AcDbEntity
  8
Layer 1
  6
AI-Linetype-37
 62
     7
370
    25
100
AcDbSpline
210
0.0
220
0.0
230
1.0
 70
    11
 71
     3
 72
    17
 73
    13
 74
     0
 42
0.0000000001
 43
0.0000000001
 40
0.0
 40
0.0
 40
0.0
 40
0.0
 40
1.0
 40
1.0
 40
1.0
 40
2.0
 40
2.0
 40
2.0
 40
3.0
 40
3.0
 40
3.0
 40
4.0
 40
4.0
 40
4.0
 40
4.0
 10
0.6183407940461236
 20
10.90667087506921
 30
0.0
 10
0.6183407940461236
 20
10.9259919056055
 30
0.0
 10
0.6026750936112979
 20
10.94165760604032
 30
0.0
 10
0.583333718009513
 20
10.94165760604032
 30
0.0
 10
0.5640059057847279
 20
10.94165760604032
 30
0.0
 10
0.5483402053499021
 20
10.9259919056055
 30
0.0
 10
0.5483402053499021
 20
10.90667087506921
 30
0.0
 10
0.5483402053499021
 20
10.88733628115593
 30
0.0
 10
0.5640059057847279
 20
10.8716705807211
 30
0.0
 10
0.583333718009513
 20
10.8716705807211
 30
0.0
 10
0.6026750936112979
 20
10.8716705807211
 30
0.0
 10
0.6183407940461236
 20
10.88733628115593
 30
0.0
 10
0.6183407940461236
 20
10.90667087506921
 30
0.0
  0
SPLINE
  5
11D
330
3C
100
AcDbEntity
  8
Layer 1
  6
AI-Linetype-38
 62
     7
370
    25
100
AcDbSpline
210
0.0
220
0.0
230
1.0
 70
    11
 71
     3
 72
    17
 73
    13
 74
     0
 42
0.0000000001
 43
0.0000000001
 40
0.0
 40
0.0
 40
0.0
 40
0.0
 40
1.0
 40
1.0
 40
1.0
 40
2.0
 40
2.0
 40
2.0
 40
3.0
 40
3.0
 40
3.0
 40
4.0
 40
4.0
 40
4.0
 40
4.0
 10
0.8516715685745289
 20
10.90667087506921
 30
0.0
 10
0.8516715685745289
 20
10.9259919056055
 30
0.0
 10
0.8360058681397031
 20
10.94165760604032
 30
0.0
 10
0.8166644925379182
 20
10.94165760604032
 30
0.0
 10
0.7973366803131331
 20
10.94165760604032
 30
0.0
 10
0.7816709798783074
 20
10.9259919056055
 30
0.0
 10
0.7816709798783074
 20
10.90667087506921
 30
0.0
 10
0.7816709798783074
 20
10.88733628115593
 30
0.0
 10
0.7973366803131331
 20
10.8716705807211
 30
0.0
 10
0.8166644925379182
 20
10.8716705807211
 30
0.0
 10
0.8360058681397031
 20
10.8716705807211
 30
0.0
 10
0.8516715685745289
 20
10.88733628115593
 30
0.0
 10
0.8516715685745289
 20
10.90667087506921
 30
0.0
  0
SPLINE
  5
11F
330
3C
100
AcDbEntity
  8
Layer 1
  6
AI-Linetype-39
 62
     7
370
    25
100
AcDbSpline
210
0.0
220
0.0
230
1.0
 70
     8
 71
     3
 72
     8
 73
     4
 74
     0
 42
0.0000000001
 43
0.0000000001
 40
0.0
 40
0.0
 40
0.0
 40
0.0
 40
1.0
 40
1.0
 40
1.0
 40
1.0
 10
1.508057635105229
 20
10.65000431041257
 30
0.0
 10
1.479588106782546
 20
10.62957786465079
 30
0.0
 10
1.467720151907678
 20
10.5929974368822
 30
0.0
 10
1.478787867539555
 20
10.55972647310157
 30
0.0
  0
SPLINE
  5
121
330
3C
100
AcDbEntity
  8
Layer 1
 62
     7
370
    25
100
AcDbSpline
210
0.0
220
0.0
230
1.0
 70
    11
 71
     3
 72
    17
 73
    13
 74
     0
 42
0.0000000001
 43
0.0000000001
 40
0.0
 40
0.0
 40
0.0
 40
0.0
 40
1.0
 40
1.0
 40
1.0
 40
2.0
 40
2.0
 40
2.0
 40
3.0
 40
3.0
 40
3.0
 40
4.0
 40
4.0
 40
4.0
 40
4.0
 10
2.086678079607295
 20
10.39334452744442
 30
0.0
 10
2.086678079607295
 20
10.43752044633293
 30
0.0
 10
2.050843637573693
 20
10.47334132498953
 30
0.0
 10
2.006681282062185
 20
10.47334132498953
 30
0.0
 10
1.962491799796676
 20
10.47334132498953
 30
0.0
 10
1.926657357763074
 20
10.43752044633293
 30
0.0
 10
1.926657357763074
 20
10.39334452744442
 30
0.0
 10
1.926657357763074
 20
10.34914148180191
 30
0.0
 10
1.962491799796676
 20
10.31334772989931
 30
0.0
 10
2.006681282062185
 20
10.31334772989931
 30
0.0
 10
2.050843637573693
 20
10.31334772989931
 30
0.0
 10
2.086678079607295
 20
10.34914148180191
 30
0.0
 10
2.086678079607295
 20
10.39334452744442
 30
0.0
  0
SPLINE
  5
122
330
3C
100
AcDbEntity
  8
Layer 1
  6
AI-Linetype-40
 62
     7
370
    25
100
AcDbSpline
210
0.0
220
0.0
230
1.0
 70
     8
 71
     3
 72
     8
 73
     4
 74
     0
 42
0.0000000001
 43
0.0000000001
 40
0.0
 40
0.0
 40
0.0
 40
0.0
 40
1.0
 40
1.0
 40
1.0
 40
1.0
 10
1.991951454640348
 20
10.64999074703557
 30
0.0
 10
2.020407419586032
 20
10.62956430127379
 30
0.0
 10
2.0322889378379
 20
10.5929974368822
 30
0.0
 10
2.021221222206023
 20
10.55974003647857
 30
0.0
  0
SPLINE
  5
124
330
3C
100
AcDbEntity
  8
Layer 1
 62
     7
370
    25
100
AcDbSpline
210
0.0
220
0.0
230
1.0
 70
     8
 71
     3
 72
     8
 73
     4
 74
     0
 42
0.0000000001
 43
0.0000000001
 40
0.0
 40
0.0
 40
0.0
 40
0.0
 40
1.0
 40
1.0
 40
1.0
 40
1.0
 10
2.050002708199703
 20
10.30000136693146
 30
0.0
 10
2.077617743771396
 20
10.30000136693146
 30
0.0
 10
2.099997315821147
 20
10.32238093898121
 30
0.0
 10
2.099997315821147
 20
10.3499959745529
 30
0.0
  0
SPLINE
  5
125
330
3C
100
AcDbEntity
  8
Layer 1
 62
     7
370
    25
100
AcDbSpline
210
0.0
220
0.0
230
1.0
 70
     8
 71
     3
 72
     8
 73
     4
 74
     0
 42
0.0000000001
 43
0.0000000001
 40
0.0
 40
0.0
 40
0.0
 40
0.0
 40
1.0
 40
1.0
 40
1.0
 40
1.0
 10
1.399998210547431
 20
10.3499959745529
 30
0.0
 10
1.399998210547431
 20
10.32238093898121
 30
0.0
 10
1.422391345974182
 20
10.30000136693146
 30
0.0
 10
1.450006381545875
 20
10.30000136693146
 30
0.0
  0
SPLINE
  5
126
330
3C
100
AcDbEntity
  8
Layer 1
 62
     7
370
    25
100
AcDbSpline
210
0.0
220
0.0
230
1.0
 70
     8
 71
     3
 72
     8
 73
     4
 74
     0
 42
0.0000000001
 43
0.0000000001
 40
0.0
 40
0.0
 40
0.0
 40
0.0
 40
1.0
 40
1.0
 40
1.0
 40
1.0
 10
1.350003602925987
 20
10.30000136693146
 30
0.0
 10
1.37761863849768
 20
10.30000136693146
 30
0.0
 10
1.399998210547431
 20
10.32238093898121
 30
0.0
 10
1.399998210547431
 20
10.3499959745529
 30
0.0
  0
SPLINE
  5
127
330
3C
100
AcDbEntity
  8
Layer 1
 62
     7
370
    25
100
AcDbSpline
210
0.0
220
0.0
230
1.0
 70
    11
 71
     3
 72
    17
 73
    13
 74
     0
 42
0.0000000001
 43
0.0000000001
 40
0.0
 40
0.0
 40
0.0
 40
0.0
 40
1.0
 40
1.0
 40
1.0
 40
2.0
 40
2.0
 40
2.0
 40
3.0
 40
3.0
 40
3.0
 40
4.0
 40
4.0
 40
4.0
 40
4.0
 10
2.049161778825712
 20
10.39334452744442
 30
0.0
 10
2.049161778825712
 20
10.41680916965416
 30
0.0
 10
2.030145924271924
 20
10.43583858758495
 30
0.0
 10
2.006681282062185
 20
10.43583858758495
 30
0.0
 10
1.983189513098446
 20
10.43583858758495
 30
0.0
 10
1.964173658544657
 20
10.41680916965416
 30
0.0
 10
1.964173658544657
 20
10.39334452744442
 30
0.0
 10
1.964173658544657
 20
10.36986632185768
 30
0.0
 10
1.983189513098446
 20
10.35083690392689
 30
0.0
 10
2.006681282062185
 20
10.35083690392689
 30
0.0
 10
2.030145924271924
 20
10.35083690392689
 30
0.0
 10
2.049161778825712
 20
10.36986632185768
 30
0.0
 10
2.049161778825712
 20
10.39334452744442
 30
0.0
  0
SPLINE
  5
128
330
3C
100
AcDbEntity
  8
Layer 1
 62
     7
370
    25
100
AcDbSpline
210
0.0
220
0.0
230
1.0
 70
     8
 71
     3
 72
     8
 73
     4
 74
     0
 42
0.0000000001
 43
0.0000000001
 40
0.0
 40
0.0
 40
0.0
 40
0.0
 40
1.0
 40
1.0
 40
1.0
 40
1.0
 10
1.945320564514867
 20
10.62500700660184
 30
0.0
 10
1.958151519156724
 20
10.62500700660184
 30
0.0
 10
1.97022292468659
 20
10.61882210668991
 30
0.0
 10
1.977764162298506
 20
10.60839186977703
 30
0.0
  0
SPLINE
  5
129
330
3C
100
AcDbEntity
  8
Layer 1
 62
     7
370
    25
100
AcDbSpline
210
0.0
220
0.0
230
1.0
 70
     8
 71
     3
 72
     8
 73
     4
 74
     0
 42
0.0000000001
 43
0.0000000001
 40
0.0
 40
0.0
 40
0.0
 40
0.0
 40
1.0
 40
1.0
 40
1.0
 40
1.0
 10
1.977764162298506
 20
10.60839186977703
 30
0.0
 10
1.985278273156422
 20
10.59796163286414
 30
0.0
 10
1.9873127797064
 20
10.58456101638829
 30
0.0
 10
1.983243766606445
 20
10.57236754046543
 30
0.0
  0
SPLINE
  5
12A
330
3C
100
AcDbEntity
  8
Layer 1
 62
     7
370
    25
100
AcDbSpline
210
0.0
220
0.0
230
1.0
 70
     8
 71
     3
 72
     8
 73
     4
 74
     0
 42
0.0000000001
 43
0.0000000001
 40
0.0
 40
0.0
 40
0.0
 40
0.0
 40
1.0
 40
1.0
 40
1.0
 40
1.0
 10
1.522272054201071
 20
10.60839186977703
 30
0.0
 10
1.514744379966155
 20
10.59796163286414
 30
0.0
 10
1.512696310039178
 20
10.58456101638829
 30
0.0
 10
1.516751759762133
 20
10.57236754046543
 30
0.0
  0
SPLINE
  5
12B
330
3C
100
AcDbEntity
  8
Layer 1
 62
     7
370
    25
100
AcDbSpline
210
0.0
220
0.0
230
1.0
 70
     8
 71
     3
 72
     8
 73
     4
 74
     0
 42
0.0000000001
 43
0.0000000001
 40
0.0
 40
0.0
 40
0.0
 40
0.0
 40
1.0
 40
1.0
 40
1.0
 40
1.0
 10
1.554715651984711
 20
10.62500700660184
 30
0.0
 10
1.541844007211854
 20
10.62500700660184
 30
0.0
 10
1.529786165058988
 20
10.61882210668991
 30
0.0
 10
1.522272054201071
 20
10.60839186977703
 30
0.0
  0
SPLINE
  5
12C
330
3C
100
AcDbEntity
  8
Layer 1
  6
AI-Linetype-41
 62
     7
370
    25
100
AcDbSpline
210
0.0
220
0.0
230
1.0
 70
    11
 71
     3
 72
    17
 73
    13
 74
     0
 42
0.0000000001
 43
0.0000000001
 40
0.0
 40
0.0
 40
0.0
 40
0.0
 40
1.0
 40
1.0
 40
1.0
 40
2.0
 40
2.0
 40
2.0
 40
3.0
 40
3.0
 40
3.0
 40
4.0
 40
4.0
 40
4.0
 40
4.0
 10
1.318333117631339
 20
10.39334452744442
 30
0.0
 10
1.318333117631339
 20
10.4126587762922
 30
0.0
 10
1.302667417196514
 20
10.42832447672703
 30
0.0
 10
1.283339604971728
 20
10.42832447672703
 30
0.0
 10
1.263998229369944
 20
10.42832447672703
 30
0.0
 10
1.248332528935118
 20
10.4126587762922
 30
0.0
 10
1.248332528935118
 20
10.39334452744442
 30
0.0
 10
1.248332528935118
 20
10.37400315184263
 30
0.0
 10
1.263998229369944
 20
10.35833745140781
 30
0.0
 10
1.283339604971728
 20
10.35833745140781
 30
0.0
 10
1.302667417196514
 20
10.35833745140781
 30
0.0
 10
1.318333117631339
 20
10.37400315184263
 30
0.0
 10
1.318333117631339
 20
10.39334452744442
 30
0.0
  0
SPLINE
  5
12E
330
3C
100
AcDbEntity
  8
Layer 1
  6
AI-Linetype-42
 62
     7
370
    25
100
AcDbSpline
210
0.0
220
0.0
230
1.0
 70
    11
 71
     3
 72
    17
 73
    13
 74
     0
 42
0.0000000001
 43
0.0000000001
 40
0.0
 40
0.0
 40
0.0
 40
0.0
 40
1.0
 40
1.0
 40
1.0
 40
2.0
 40
2.0
 40
2.0
 40
3.0
 40
3.0
 40
3.0
 40
4.0
 40
4.0
 40
4.0
 40
4.0
 10
1.551663892159745
 20
10.39334452744442
 30
0.0
 10
1.551663892159745
 20
10.4126587762922
 30
0.0
 10
1.535998191724919
 20
10.42832447672703
 30
0.0
 10
1.516670379500134
 20
10.42832447672703
 30
0.0
 10
1.497342567275349
 20
10.42832447672703
 30
0.0
 10
1.481663303463523
 20
10.4126587762922
 30
0.0
 10
1.481663303463523
 20
10.39334452744442
 30
0.0
 10
1.481663303463523
 20
10.37400315184263
 30
0.0
 10
1.497342567275349
 20
10.35833745140781
 30
0.0
 10
1.516670379500134
 20
10.35833745140781
 30
0.0
 10
1.535998191724919
 20
10.35833745140781
 30
0.0
 10
1.551663892159745
 20
10.37400315184263
 30
0.0
 10
1.551663892159745
 20
10.39334452744442
 30
0.0
  0
SPLINE
  5
130
330
3C
100
AcDbEntity
  8
Layer 1
  6
AI-Linetype-43
 62
     7
370
    25
100
AcDbSpline
210
0.0
220
0.0
230
1.0
 70
    11
 71
     3
 72
    17
 73
    13
 74
     0
 42
0.0000000001
 43
0.0000000001
 40
0.0
 40
0.0
 40
0.0
 40
0.0
 40
1.0
 40
1.0
 40
1.0
 40
2.0
 40
2.0
 40
2.0
 40
3.0
 40
3.0
 40
3.0
 40
4.0
 40
4.0
 40
4.0
 40
4.0
 10
1.335829873961145
 20
10.65000431041257
 30
0.0
 10
1.335829873961145
 20
10.80786845531381
 30
0.0
 10
1.207859411967568
 20
10.93583891730739
 30
0.0
 10
1.049995267066324
 20
10.93583891730739
 30
0.0
 10
0.8921446855420788
 20
10.93583891730739
 30
0.0
 10
0.764174223548502
 20
10.80786845531381
 30
0.0
 10
0.764174223548502
 20
10.65000431041257
 30
0.0
 10
0.764174223548502
 20
10.49214016551132
 30
0.0
 10
0.8921446855420788
 20
10.36416970351774
 30
0.0
 10
1.049995267066324
 20
10.36416970351774
 30
0.0
 10
1.207859411967568
 20
10.36416970351774
 30
0.0
 10
1.335829873961145
 20
10.49214016551132
 30
0.0
 10
1.335829873961145
 20
10.65000431041257
 30
0.0
  0
SPLINE
  5
132
330
3C
100
AcDbEntity
  8
Layer 1
  6
AI-Linetype-44
 62
     7
370
    25
100
AcDbSpline
210
0.0
220
0.0
230
1.0
 70
     8
 71
     3
 72
     8
 73
     4
 74
     0
 42
0.0000000001
 43
0.0000000001
 40
0.0
 40
0.0
 40
0.0
 40
0.0
 40
1.0
 40
1.0
 40
1.0
 40
1.0
 10
1.750007935717039
 20
10.36416970351774
 30
0.0
 10
1.87308201861367
 20
10.36416970351774
 30
0.0
 10
1.982348583724455
 20
10.44295936050987
 30
0.0
 10
2.021221222206023
 20
10.55974003647857
 30
0.0
  0
SPLINE
  5
134
330
3C
100
AcDbEntity
  8
Layer 1
  6
AI-Linetype-45
 62
     7
370
    25
100
AcDbSpline
210
0.0
220
0.0
230
1.0
 70
     8
 71
     3
 72
     8
 73
     4
 74
     0
 42
0.0000000001
 43
0.0000000001
 40
0.0
 40
0.0
 40
0.0
 40
0.0
 40
1.0
 40
1.0
 40
1.0
 40
1.0
 10
1.478787867539555
 20
10.55974003647857
 30
0.0
 10
1.517674069398123
 20
10.44295936050987
 30
0.0
 10
1.626913507754908
 20
10.36416970351774
 30
0.0
 10
1.750007935717039
 20
10.36416970351774
 30
0.0
  0
SPLINE
  5
136
330
3C
100
AcDbEntity
  8
Layer 1
  6
AI-Linetype-46
 62
     7
370
    25
100
AcDbSpline
210
0.0
220
0.0
230
1.0
 70
     8
 71
     3
 72
     8
 73
     4
 74
     0
 42
0.0000000001
 43
0.0000000001
 40
0.0
 40
0.0
 40
0.0
 40
0.0
 40
1.0
 40
1.0
 40
1.0
 40
1.0
 10
1.750007935717039
 20
10.93582535393039
 30
0.0
 10
1.626913507754908
 20
10.93582535393039
 30
0.0
 10
1.517674069398123
 20
10.85704926031526
 30
0.0
 10
1.478787867539555
 20
10.74025502096956
 30
0.0
  0
SPLINE
  5
138
330
3C
100
AcDbEntity
  8
Layer 1
  6
AI-Linetype-47
 62
     7
370
    25
100
AcDbSpline
210
0.0
220
0.0
230
1.0
 70
     8
 71
     3
 72
     8
 73
     4
 74
     0
 42
0.0000000001
 43
0.0000000001
 40
0.0
 40
0.0
 40
0.0
 40
0.0
 40
1.0
 40
1.0
 40
1.0
 40
1.0
 10
2.021221222206023
 20
10.74025502096956
 30
0.0
 10
1.982348583724455
 20
10.85704926031526
 30
0.0
 10
1.87308201861367
 20
10.93582535393039
 30
0.0
 10
1.750007935717039
 20
10.93582535393039
 30
0.0
  0
SPLINE
  5
13A
330
3C
100
AcDbEntity
  8
Layer 1
 62
     7
370
    25
100
AcDbSpline
210
0.0
220
0.0
230
1.0
 70
     8
 71
     3
 72
     8
 73
     4
 74
     0
 42
0.0000000001
 43
0.0000000001
 40
0.0
 40
0.0
 40
0.0
 40
0.0
 40
1.0
 40
1.0
 40
1.0
 40
1.0
 10
1.750007935717039
 20
10.4041681022903
 30
0.0
 10
1.855856529823862
 20
10.4041681022903
 30
0.0
 10
1.949823605678817
 20
10.47193073378155
 30
0.0
 10
1.983243766606445
 20
10.57236754046543
 30
0.0
  0
SPLINE
  5
13B
330
3C
100
AcDbEntity
  8
Layer 1
 62
     7
370
    25
100
AcDbSpline
210
0.0
220
0.0
230
1.0
 70
     8
 71
     3
 72
     8
 73
     4
 74
     0
 42
0.0000000001
 43
0.0000000001
 40
0.0
 40
0.0
 40
0.0
 40
0.0
 40
1.0
 40
1.0
 40
1.0
 40
1.0
 10
1.516751759762133
 20
10.57236754046543
 30
0.0
 10
1.550185484066761
 20
10.47193073378155
 30
0.0
 10
1.644152559921716
 20
10.4041681022903
 30
0.0
 10
1.750007935717039
 20
10.4041681022903
 30
0.0
  0
SPLINE
  5
13C
330
3C
100
AcDbEntity
  8
Layer 1
 62
     7
370
    25
100
AcDbSpline
210
0.0
220
0.0
230
1.0
 70
     8
 71
     3
 72
     8
 73
     4
 74
     0
 42
0.0000000001
 43
0.0000000001
 40
0.0
 40
0.0
 40
0.0
 40
0.0
 40
1.0
 40
1.0
 40
1.0
 40
1.0
 10
1.750007935717039
 20
10.89584051853483
 30
0.0
 10
1.644152559921716
 20
10.89584051853483
 30
0.0
 10
1.550185484066761
 20
10.82807788704359
 30
0.0
 10
1.516751759762133
 20
10.7276275169827
 30
0.0
  0
SPLINE
  5
13D
330
3C
100
AcDbEntity
  8
Layer 1
 62
     7
370
    25
100
AcDbSpline
210
0.0
220
0.0
230
1.0
 70
     8
 71
     3
 72
     8
 73
     4
 74
     0
 42
0.0000000001
 43
0.0000000001
 40
0.0
 40
0.0
 40
0.0
 40
0.0
 40
1.0
 40
1.0
 40
1.0
 40
1.0
 10
1.983243766606445
 20
10.7276275169827
 30
0.0
 10
1.949823605678817
 20
10.82807788704359
 30
0.0
 10
1.855856529823862
 20
10.89584051853483
 30
0.0
 10
1.750007935717039
 20
10.89584051853483
 30
0.0
  0
SPLINE
  5
13E
330
3C
100
AcDbEntity
  8
Layer 1
  6
AI-Linetype-48
 62
     7
370
    25
100
AcDbSpline
210
0.0
220
0.0
230
1.0
 70
     8
 71
     3
 72
     8
 73
     4
 74
     0
 42
0.0000000001
 43
0.0000000001
 40
0.0
 40
0.0
 40
0.0
 40
0.0
 40
1.0
 40
1.0
 40
1.0
 40
1.0
 10
2.021221222206023
 20
10.74026858434656
 30
0.0
 10
2.0322889378379
 20
10.70700440225443
 30
0.0
 10
2.020407419586032
 20
10.67042397448584
 30
0.0
 10
1.991951454640348
 20
10.64999074703557
 30
0.0
  0
SPLINE
  5
140
330
3C
100
AcDbEntity
  8
Layer 1
 62
     7
370
    25
100
AcDbSpline
210
0.0
220
0.0
230
1.0
 70
    11
 71
     3
 72
    17
 73
    13
 74
     0
 42
0.0000000001
 43
0.0000000001
 40
0.0
 40
0.0
 40
0.0
 40
0.0
 40
1.0
 40
1.0
 40
1.0
 40
2.0
 40
2.0
 40
2.0
 40
3.0
 40
3.0
 40
3.0
 40
4.0
 40
4.0
 40
4.0
 40
4.0
 10
2.086678079607295
 20
10.90667087506921
 30
0.0
 10
2.086678079607295
 20
10.95085357564622
 30
0.0
 10
2.050843637573693
 20
10.98667445430282
 30
0.0
 10
2.006681282062185
 20
10.98667445430282
 30
0.0
 10
1.962491799796676
 20
10.98667445430282
 30
0.0
 10
1.926657357763074
 20
10.95085357564622
 30
0.0
 10
1.926657357763074
 20
10.90667087506921
 30
0.0
 10
1.926657357763074
 20
10.8624746111152
 30
0.0
 10
1.962491799796676
 20
10.8266740775241
 30
0.0
 10
2.006681282062185
 20
10.8266740775241
 30
0.0
 10
2.050843637573693
 20
10.8266740775241
 30
0.0
 10
2.086678079607295
 20
10.8624746111152
 30
0.0
 10
2.086678079607295
 20
10.90667087506921
 30
0.0
  0
SPLINE
  5
141
330
3C
100
AcDbEntity
  8
Layer 1
  6
AI-Linetype-49
 62
     7
370
    25
100
AcDbSpline
210
0.0
220
0.0
230
1.0
 70
     8
 71
     3
 72
     8
 73
     4
 74
     0
 42
0.0000000001
 43
0.0000000001
 40
0.0
 40
0.0
 40
0.0
 40
0.0
 40
1.0
 40
1.0
 40
1.0
 40
1.0
 10
1.478787867539555
 20
10.74025502096956
 30
0.0
 10
1.467733715284678
 20
10.70700440225443
 30
0.0
 10
1.479601670159546
 20
10.67043753786284
 30
0.0
 10
1.508071198482229
 20
10.65000431041257
 30
0.0
  0
SPLINE
  5
143
330
3C
100
AcDbEntity
  8
Layer 1
 62
     7
370
    25
100
AcDbSpline
210
0.0
220
0.0
230
1.0
 70
     8
 71
     3
 72
     8
 73
     4
 74
     0
 42
0.0000000001
 43
0.0000000001
 40
0.0
 40
0.0
 40
0.0
 40
0.0
 40
1.0
 40
1.0
 40
1.0
 40
1.0
 10
1.399998210547431
 20
10.95000586458373
 30
0.0
 10
1.399998210547431
 20
10.97761411846692
 30
0.0
 10
1.37761863849768
 20
11.00000725389367
 30
0.0
 10
1.350003602925987
 20
11.00000725389367
 30
0.0
  0
SPLINE
  5
144
330
3C
100
AcDbEntity
  8
Layer 1
 62
     7
370
    25
100
AcDbSpline
210
0.0
220
0.0
230
1.0
 70
     8
 71
     3
 72
     8
 73
     4
 74
     0
 42
0.0000000001
 43
0.0000000001
 40
0.0
 40
0.0
 40
0.0
 40
0.0
 40
1.0
 40
1.0
 40
1.0
 40
1.0
 10
1.450006381545875
 20
11.00000725389367
 30
0.0
 10
1.422391345974182
 20
11.00000725389367
 30
0.0
 10
1.399998210547431
 20
10.97761411846692
 30
0.0
 10
1.399998210547431
 20
10.95000586458373
 30
0.0
  0
SPLINE
  5
145
330
3C
100
AcDbEntity
  8
Layer 1
 62
     7
370
    25
100
AcDbSpline
210
0.0
220
0.0
230
1.0
 70
     8
 71
     3
 72
     8
 73
     4
 74
     0
 42
0.0000000001
 43
0.0000000001
 40
0.0
 40
0.0
 40
0.0
 40
0.0
 40
1.0
 40
1.0
 40
1.0
 40
1.0
 10
2.099997315821147
 20
10.95000586458373
 30
0.0
 10
2.099997315821147
 20
10.97761411846692
 30
0.0
 10
2.077617743771396
 20
11.00000725389367
 30
0.0
 10
2.050002708199703
 20
11.00000725389367
 30
0.0
  0
SPLINE
  5
146
330
3C
100
AcDbEntity
  8
Layer 1
 62
     7
370
    25
100
AcDbSpline
210
0.0
220
0.0
230
1.0
 70
    11
 71
     3
 72
    17
 73
    13
 74
     0
 42
0.0000000001
 43
0.0000000001
 40
0.0
 40
0.0
 40
0.0
 40
0.0
 40
1.0
 40
1.0
 40
1.0
 40
2.0
 40
2.0
 40
2.0
 40
3.0
 40
3.0
 40
3.0
 40
4.0
 40
4.0
 40
4.0
 40
4.0
 10
2.049161778825712
 20
10.90667087506921
 30
0.0
 10
2.049161778825712
 20
10.93014229896745
 30
0.0
 10
2.030145924271924
 20
10.94917171689824
 30
0.0
 10
2.006681282062185
 20
10.94917171689824
 30
0.0
 10
1.983189513098446
 20
10.94917171689824
 30
0.0
 10
1.964173658544657
 20
10.93014229896745
 30
0.0
 10
1.964173658544657
 20
10.90667087506921
 30
0.0
 10
1.964173658544657
 20
10.88319945117097
 30
0.0
 10
1.983189513098446
 20
10.86417003324018
 30
0.0
 10
2.006681282062185
 20
10.86417003324018
 30
0.0
 10
2.030145924271924
 20
10.86417003324018
 30
0.0
 10
2.049161778825712
 20
10.88319945117097
 30
0.0
 10
2.049161778825712
 20
10.90667087506921
 30
0.0
  0
SPLINE
  5
147
330
3C
100
AcDbEntity
  8
Layer 1
 62
     7
370
    25
100
AcDbSpline
210
0.0
220
0.0
230
1.0
 70
     8
 71
     3
 72
     8
 73
     4
 74
     0
 42
0.0000000001
 43
0.0000000001
 40
0.0
 40
0.0
 40
0.0
 40
0.0
 40
1.0
 40
1.0
 40
1.0
 40
1.0
 10
1.983243766606445
 20
10.7276275169827
 30
0.0
 10
1.9873127797064
 20
10.71543404105984
 30
0.0
 10
1.985278273156422
 20
10.70203342458399
 30
0.0
 10
1.977764162298506
 20
10.6916031876711
 30
0.0
  0
SPLINE
  5
148
330
3C
100
AcDbEntity
  8
Layer 1
 62
     7
370
    25
100
AcDbSpline
210
0.0
220
0.0
230
1.0
 70
     8
 71
     3
 72
     8
 73
     4
 74
     0
 42
0.0000000001
 43
0.0000000001
 40
0.0
 40
0.0
 40
0.0
 40
0.0
 40
1.0
 40
1.0
 40
1.0
 40
1.0
 10
1.977764162298506
 20
10.6916031876711
 30
0.0
 10
1.97022292468659
 20
10.68117295075822
 30
0.0
 10
1.958151519156724
 20
10.67500839591179
 30
0.0
 10
1.945320564514867
 20
10.67500839591179
 30
0.0
  0
SPLINE
  5
149
330
3C
100
AcDbEntity
  8
Layer 1
 62
     7
370
    25
100
AcDbSpline
210
0.0
220
0.0
230
1.0
 70
     8
 71
     3
 72
     8
 73
     4
 74
     0
 42
0.0000000001
 43
0.0000000001
 40
0.0
 40
0.0
 40
0.0
 40
0.0
 40
1.0
 40
1.0
 40
1.0
 40
1.0
 10
1.522272054201071
 20
10.6916031876711
 30
0.0
 10
1.529786165058988
 20
10.68117295075822
 30
0.0
 10
1.541844007211854
 20
10.67500839591179
 30
0.0
 10
1.554715651984711
 20
10.67500839591179
 30
0.0
  0
SPLINE
  5
14A
330
3C
100
AcDbEntity
  8
Layer 1
 62
     7
370
    25
100
AcDbSpline
210
0.0
220
0.0
230
1.0
 70
     8
 71
     3
 72
     8
 73
     4
 74
     0
 42
0.0000000001
 43
0.0000000001
 40
0.0
 40
0.0
 40
0.0
 40
0.0
 40
1.0
 40
1.0
 40
1.0
 40
1.0
 10
1.516751759762133
 20
10.7276275169827
 30
0.0
 10
1.512696310039178
 20
10.71543404105984
 30
0.0
 10
1.514744379966155
 20
10.70203342458399
 30
0.0
 10
1.522272054201071
 20
10.6916031876711
 30
0.0
  0
SPLINE
  5
14B
330
3C
100
AcDbEntity
  8
Layer 1
  6
AI-Linetype-50
 62
     7
370
    25
100
AcDbSpline
210
0.0
220
0.0
230
1.0
 70
    11
 71
     3
 72
    17
 73
    13
 74
     0
 42
0.0000000001
 43
0.0000000001
 40
0.0
 40
0.0
 40
0.0
 40
0.0
 40
1.0
 40
1.0
 40
1.0
 40
2.0
 40
2.0
 40
2.0
 40
3.0
 40
3.0
 40
3.0
 40
4.0
 40
4.0
 40
4.0
 40
4.0
 10
1.551663892159745
 20
10.90667087506921
 30
0.0
 10
1.551663892159745
 20
10.9259919056055
 30
0.0
 10
1.535998191724919
 20
10.94165760604032
 30
0.0
 10
1.516670379500134
 20
10.94165760604032
 30
0.0
 10
1.497342567275349
 20
10.94165760604032
 30
0.0
 10
1.481663303463523
 20
10.9259919056055
 30
0.0
 10
1.481663303463523
 20
10.90667087506921
 30
0.0
 10
1.481663303463523
 20
10.88733628115593
 30
0.0
 10
1.497342567275349
 20
10.8716705807211
 30
0.0
 10
1.516670379500134
 20
10.8716705807211
 30
0.0
 10
1.535998191724919
 20
10.8716705807211
 30
0.0
 10
1.551663892159745
 20
10.88733628115593
 30
0.0
 10
1.551663892159745
 20
10.90667087506921
 30
0.0
  0
SPLINE
  5
14D
330
3C
100
AcDbEntity
  8
Layer 1
  6
AI-Linetype-51
 62
     7
370
    25
100
AcDbSpline
210
0.0
220
0.0
230
1.0
 70
    11
 71
     3
 72
    17
 73
    13
 74
     0
 42
0.0000000001
 43
0.0000000001
 40
0.0
 40
0.0
 40
0.0
 40
0.0
 40
1.0
 40
1.0
 40
1.0
 40
2.0
 40
2.0
 40
2.0
 40
3.0
 40
3.0
 40
3.0
 40
4.0
 40
4.0
 40
4.0
 40
4.0
 10
1.318333117631339
 20
10.90667087506921
 30
0.0
 10
1.318333117631339
 20
10.9259919056055
 30
0.0
 10
1.302667417196514
 20
10.94165760604032
 30
0.0
 10
1.283339604971728
 20
10.94165760604032
 30
0.0
 10
1.263998229369944
 20
10.94165760604032
 30
0.0
 10
1.248332528935118
 20
10.9259919056055
 30
0.0
 10
1.248332528935118
 20
10.90667087506921
 30
0.0
 10
1.248332528935118
 20
10.88733628115593
 30
0.0
 10
1.263998229369944
 20
10.8716705807211
 30
0.0
 10
1.283339604971728
 20
10.8716705807211
 30
0.0
 10
1.302667417196514
 20
10.8716705807211
 30
0.0
 10
1.318333117631339
 20
10.88733628115593
 30
0.0
 10
1.318333117631339
 20
10.90667087506921
 30
0.0
  0
SPLINE
  5
14F
330
3C
100
AcDbEntity
  8
Layer 1
 62
     7
370
    25
100
AcDbSpline
210
0.0
220
0.0
230
1.0
 70
    11
 71
     3
 72
    17
 73
    13
 74
     0
 42
0.0000000001
 43
0.0000000001
 40
0.0
 40
0.0
 40
0.0
 40
0.0
 40
1.0
 40
1.0
 40
1.0
 40
2.0
 40
2.0
 40
2.0
 40
3.0
 40
3.0
 40
3.0
 40
4.0
 40
4.0
 40
4.0
 40
4.0
 10
1.29583147518859
 20
10.65000431041257
 30
0.0
 10
1.29583147518859
 20
10.78576693249256
 30
0.0
 10
1.185778234211813
 20
10.89584051853483
 30
0.0
 10
1.049995267066324
 20
10.89584051853483
 30
0.0
 10
0.9142394266748332
 20
10.89584051853483
 30
0.0
 10
0.8041726223210571
 20
10.78576693249256
 30
0.0
 10
0.8041726223210571
 20
10.65000431041257
 30
0.0
 10
0.8041726223210571
 20
10.51422134326708
 30
0.0
 10
0.9142394266748332
 20
10.4041681022903
 30
0.0
 10
1.049995267066324
 20
10.4041681022903
 30
0.0
 10
1.185778234211813
 20
10.4041681022903
 30
0.0
 10
1.29583147518859
 20
10.51422134326708
 30
0.0
 10
1.29583147518859
 20
10.65000431041257
 30
0.0
  0
ENDBLK
  5
3F
330
3C
100
AcDbEntity
  8
0
100
AcDbBlockEnd
  0
ENDSEC
  0
SECTION
  2
ENTITIES
  0
INSERT
  5
3D
330
1F
100
AcDbEntity
  8
Layer 1
100
AcDbBlockReference
  2
block 2
 10
0.0
 20
0.0
 30
0.0
  0
ENDSEC
  0
SECTION
  2
OBJECTS
  0
DICTIONARY
  5
C
330
0
100
AcDbDictionary
281
     1
  3
ACAD_GROUP
350
D
  3
ACAD_LAYOUT
350
1A
  3
ACAD_MLINESTYLE
350
17
  3
ACAD_PLOTSETTINGS
350
19
  3
ACAD_PLOTSTYLENAME
350
E
  3
ACAD_TABLESTYLE
350
150
  3
ACAD_VISUALSTYLE
350
2A
  0
DICTIONARY
  5
D
102
{ACAD_REACTORS
330
C
102
}
330
C
100
AcDbDictionary
281
     1
  0
DICTIONARY
  5
1A
102
{ACAD_REACTORS
330
C
102
}
330
C
100
AcDbDictionary
281
     1
  3
Layout1
350
1E
  3
Layout2
350
26
  3
Model
350
22
  0
DICTIONARY
  5
17
102
{ACAD_REACTORS
330
C
102
}
330
C
100
AcDbDictionary
281
     1
  3
Standard
350
18
  0
DICTIONARY
  5
19
102
{ACAD_REACTORS
330
C
102
}
330
C
100
AcDbDictionary
281
     1
  0
ACDBDICTIONARYWDFLT
  5
E
102
{ACAD_REACTORS
330
C
102
}
330
C
100
AcDbDictionary
281
     1
  3
Normal
350
F
100
AcDbDictionaryWithDefault
340
F
  0
DICTIONARY
  5
150
102
{ACAD_REACTORS
330
C
102
}
330
C
100
AcDbDictionary
281
     1
  0
DICTIONARY
  5
2A
102
{ACAD_REACTORS
330
C
102
}
330
C
100
AcDbDictionary
281
     1
  3
2dWireframe
350
2F
  3
3D Hidden
350
31
  3
3dWireframe
350
30
  3
Basic
350
32
  3
Brighten
350
36
  3
ColorChange
350
3A
  3
Conceptual
350
34
  3
Dim
350
35
  3
Facepattern
350
39
  3
Flat
350
2B
  3
FlatWithEdges
350
2C
  3
Gouraud
350
2D
  3
GouraudWithEdges
350
2E
  3
Linepattern
350
38
  3
Realistic
350
33
  3
Thicken
350
37
  0
LAYOUT
  5
1E
102
{ACAD_REACTORS
330
1A
102
}
330
1A
100
AcDbPlotSettings
  1

  2
none_device
  4

  6

 40
0.0
 41
0.0
 42
0.0
 43
0.0
 44
0.0
 45
0.0
 46
0.0
 47
0.0
 48
0.0
 49
0.0
140
0.0
141
0.0
142
1.0
143
1.0
 70
   688
 72
     0
 73
     0
 74
     5
  7

 75
    16
147
1.0
148
0.0
149
0.0
100
AcDbLayout
  1
Layout1
 70
     1
 71
     1
 10
0.0
 20
0.0
 11
12.0
 21
9.0
 12
0.0
 22
0.0
 32
0.0
 14
1.000000000000000E+20
 24
1.000000000000000E+20
 34
1.000000000000000E+20
 15
-1.000000000000000E+20
 25
-1.000000000000000E+20
 35
-1.000000000000000E+20
146
0.0
 13
0.0
 23
0.0
 33
0.0
 16
1.0
 26
0.0
 36
0.0
 17
0.0
 27
1.0
 37
0.0
 76
     0
330
1B
  0
LAYOUT
  5
26
102
{ACAD_REACTORS
330
1A
102
}
330
1A
100
AcDbPlotSettings
  1

  2
none_device
  4

  6

 40
0.0
 41
0.0
 42
0.0
 43
0.0
 44
0.0
 45
0.0
 46
0.0
 47
0.0
 48
0.0
 49
0.0
140
0.0
141
0.0
142
1.0
143
1.0
 70
   688
 72
     0
 73
     0
 74
     5
  7

 75
    16
147
1.0
148
0.0
149
0.0
100
AcDbLayout
  1
Layout2
 70
     1
 71
     2
 10
0.0
 20
0.0
 11
0.0
 21
0.0
 12
0.0
 22
0.0
 32
0.0
 14
0.0
 24
0.0
 34
0.0
 15
0.0
 25
0.0
 35
0.0
146
0.0
 13
0.0
 23
0.0
 33
0.0
 16
1.0
 26
0.0
 36
0.0
 17
0.0
 27
1.0
 37
0.0
 76
     0
330
23
  0
LAYOUT
  5
22
102
{ACAD_REACTORS
330
1A
102
}
330
1A
100
AcDbPlotSettings
  1

  2
none_device
  4

  6

 40
0.0
 41
0.0
 42
0.0
 43
0.0
 44
0.0
 45
0.0
 46
0.0
 47
0.0
 48
0.0
 49
0.0
140
0.0
141
0.0
142
1.0
143
1.0
 70
  1712
 72
     0
 73
     0
 74
     0
  7

 75
     0
147
1.0
148
0.0
149
0.0
100
AcDbLayout
  1
Model
 70
     1
 71
     0
 10
0.0
 20
0.0
 11
12.0
 21
9.0
 12
0.0
 22
0.0
 32
0.0
 14
1.000000000000000E+20
 24
1.000000000000000E+20
 34
1.000000000000000E+20
 15
-1.000000000000000E+20
 25
-1.000000000000000E+20
 35
-1.000000000000000E+20
146
0.0
 13
0.0
 23
0.0
 33
0.0
 16
1.0
 26
0.0
 36
0.0
 17
0.0
 27
1.0
 37
0.0
 76
     0
330
1F
331
29
  0
MLINESTYLE
  5
18
102
{ACAD_REACTORS
330
17
102
}
330
17
100
AcDbMlineStyle
  2
Standard
 70
     0
  3

 62
   256
 51
90.0
 52
90.0
 71
     2
 49
0.5
 62
   256
  6
BYLAYER
 49
-0.5
 62
   256
  6
BYLAYER
  0
ACDBPLACEHOLDER
  5
F
102
{ACAD_REACTORS
330
E
102
}
330
E
  0
VISUALSTYLE
  5
2F
102
{ACAD_REACTORS
330
2A
102
}
330
2A
100
AcDbVisualStyle
  2
2dWireframe
 70
     4
 71
     0
 72
     2
 73
     0
 90
        0
 40
-0.6
 41
-30.0
 62
     5
 63
     7
 74
     1
 91
        4
 64
     7
 65
   257
 75
     1
175
     1
 42
1.0
 92
        0
 66
   257
 43
1.0
 76
     1
 77
     6
 78
     2
 67
     7
 79
     5
170
     0
171
     0
290
     0
174
     0
 93
        1
 44
0.0
173
     0
291
     0
 45
0.0
1001
ACAD
1000
AcDbSavedByObjectVersion
1070
     0
  0
VISUALSTYLE
  5
31
102
{ACAD_REACTORS
330
2A
102
}
330
2A
100
AcDbVisualStyle
  2
3D Hidden
 70
     6
 71
     1
 72
     2
 73
     2
 90
        0
 40
-0.6
 41
-30.0
 62
     5
 63
     7
 74
     2
 91
        2
 64
     7
 65
   257
 75
     2
175
     1
 42
40.0
 92
        0
 66
   257
 43
1.0
 76
     1
 77
     6
 78
     2
 67
     7
 79
     3
170
     0
171
     0
290
     0
174
     0
 93
        1
 44
0.0
173
     0
291
     0
 45
0.0
1001
ACAD
1000
AcDbSavedByObjectVersion
1070
     0
  0
VISUALSTYLE
  5
30
102
{ACAD_REACTORS
330
2A
102
}
330
2A
100
AcDbVisualStyle
  2
3dWireframe
 70
     5
 71
     0
 72
     2
 73
     0
 90
        0
 40
-0.6
 41
-30.0
 62
     5
 63
     7
 74
     1
 91
        4
 64
     7
 65
   257
 75
     1
175
     1
 42
1.0
 92
        0
 66
   257
 43
1.0
 76
     1
 77
     6
 78
     2
 67
     7
 79
     5
170
     0
171
     0
290
     0
174
     0
 93
        1
 44
0.0
173
     0
291
     0
 45
0.0
1001
ACAD
1000
AcDbSavedByObjectVersion
1070
     0
  0
VISUALSTYLE
  5
32
102
{ACAD_REACTORS
330
2A
102
}
330
2A
100
AcDbVisualStyle
  2
Basic
 70
     7
 71
     1
 72
     0
 73
     1
 90
        0
 40
-0.6
 41
-30.0
 62
     5
 63
     7
 74
     0
 91
        4
 64
     7
 65
   257
 75
     1
175
     1
 42
1.0
 92
        8
 66
     7
 43
1.0
 76
     1
 77
     6
 78
     2
 67
     7
 79
     5
170
     0
171
     0
290
     0
174
     0
 93
        1
 44
0.0
173
     0
291
     1
 45
0.0
1001
ACAD
1000
AcDbSavedByObjectVersion
1070
     0
  0
VISUALSTYLE
  5
36
102
{ACAD_REACTORS
330
2A
102
}
330
2A
100
AcDbVisualStyle
  2
Brighten
 70
    12
 71
     2
 72
     2
 73
     0
 90
        0
 40
-0.6
 41
-30.0
 62
     5
 63
     7
 74
     1
 91
        4
 64
     7
 65
   257
 75
     1
175
     1
 42
1.0
 92
        8
 66
     7
 43
1.0
 76
     1
 77
     6
 78
     2
 67
     7
 79
     5
170
     0
171
     0
290
     0
174
     0
 93
        1
 44
50.0
173
     0
291
     1
 45
0.0
1001
ACAD
1000
AcDbSavedByObjectVersion
1070
     0
  0
VISUALSTYLE
  5
3A
102
{ACAD_REACTORS
330
2A
102
}
330
2A
100
AcDbVisualStyle
  2
ColorChange
 70
    16
 71
     2
 72
     2
 73
     3
 90
        0
 40
-0.6
 41
-30.0
 62
     5
 63
     8
 74
     1
 91
        4
 64
     7
 65
   257
 75
     1
175
     1
 42
1.0
 92
        8
 66
     8
 43
1.0
 76
     1
 77
     6
 78
     2
 67
     7
 79
     5
170
     0
171
     0
290
     0
174
     0
 93
        1
 44
0.0
173
     0
291
     1
 45
0.0
1001
ACAD
1000
AcDbSavedByObjectVersion
1070
     0
  0
VISUALSTYLE
  5
34
102
{ACAD_REACTORS
330
2A
102
}
330
2A
100
AcDbVisualStyle
  2
Conceptual
 70
     9
 71
     3
 72
     2
 73
     0
 90
        0
 40
-0.6
 41
-30.0
 62
     5
 63
     7
 74
     2
 91
        2
 64
     7
 65
   257
 75
     1
175
     1
 42
40.0
 92
        8
 66
     7
 43
1.0
 76
     1
 77
     6
 78
     2
 67
     7
 79
     3
170
     0
171
     0
290
     0
174
     0
 93
        1
 44
0.0
173
     0
291
     0
 45
0.0
1001
ACAD
1000
AcDbSavedByObjectVersion
1070
     0
  0
VISUALSTYLE
  5
35
102
{ACAD_REACTORS
330
2A
102
}
330
2A
100
AcDbVisualStyle
  2
Dim
 70
    11
 71
     2
 72
     2
 73
     0
 90
        0
 40
-0.6
 41
-30.0
 62
     5
 63
     7
 74
     1
 91
        4
 64
     7
 65
   257
 75
     1
175
     1
 42
1.0
 92
        8
 66
     7
 43
1.0
 76
     1
 77
     6
 78
     2
 67
     7
 79
     5
170
     0
171
     0
290
     0
174
     0
 93
        1
 44
-50.0
173
     0
291
     1
 45
0.0
1001
ACAD
1000
AcDbSavedByObjectVersion
1070
     0
  0
VISUALSTYLE
  5
39
102
{ACAD_REACTORS
330
2A
102
}
330
2A
100
AcDbVisualStyle
  2
Facepattern
 70
    15
 71
     2
 72
     2
 73
     0
 90
        0
 40
-0.6
 41
-30.0
 62
     5
 63
     7
 74
     1
 91
        4
 64
     7
 65
   257
 75
     1
175
     1
 42
1.0
 92
        8
 66
     7
 43
1.0
 76
     1
 77
     6
 78
     2
 67
     7
 79
     5
170
     0
171
     0
290
     0
174
     0
 93
        1
 44
0.0
173
     0
291
     1
 45
0.0
1001
ACAD
1000
AcDbSavedByObjectVersion
1070
     0
  0
VISUALSTYLE
  5
2B
102
{ACAD_REACTORS
330
2A
102
}
330
2A
100
AcDbVisualStyle
  2
Flat
 70
     0
 71
     2
 72
     1
 73
     1
 90
        2
 40
-0.6
 41
30.0
 62
     5
 63
     7
 74
     0
 91
        4
 64
     7
 65
   257
 75
     1
175
     1
 42
1.0
 92
        8
 66
     7
 43
1.0
 76
     1
 77
     6
 78
     2
 67
     7
 79
     5
170
     0
171
     0
290
     0
174
     0
 93
       13
 44
0.0
173
     0
291
     1
 45
0.0
1001
ACAD
1000
AcDbSavedByObjectVersion
1070
     0
  0
VISUALSTYLE
  5
2C
102
{ACAD_REACTORS
330
2A
102
}
330
2A
100
AcDbVisualStyle
  2
FlatWithEdges
 70
     1
 71
     2
 72
     1
 73
     1
 90
        2
 40
-0.6
 41
30.0
 62
     5
 63
     7
 74
     1
 91
        4
 64
     7
 65
   257
 75
     1
175
     1
 42
1.0
 92
        0
 66
   257
 43
1.0
 76
     1
 77
     6
 78
     2
 67
     7
 79
     5
170
     0
171
     0
290
     0
174
     0
 93
       13
 44
0.0
173
     0
291
     1
 45
0.0
1001
ACAD
1000
AcDbSavedByObjectVersion
1070
     0
  0
VISUALSTYLE
  5
2D
102
{ACAD_REACTORS
330
2A
102
}
330
2A
100
AcDbVisualStyle
  2
Gouraud
 70
     2
 71
     2
 72
     2
 73
     1
 90
        2
 40
-0.6
 41
30.0
 62
     5
 63
     7
 74
     0
 91
        4
 64
     7
 65
   257
 75
     1
175
     1
 42
1.0
 92
        0
 66
     7
 43
1.0
 76
     1
 77
     6
 78
     2
 67
     7
 79
     5
170
     0
171
     0
290
     0
174
     0
 93
       13
 44
0.0
173
     0
291
     1
 45
0.0
1001
ACAD
1000
AcDbSavedByObjectVersion
1070
     0
  0
VISUALSTYLE
  5
2E
102
{ACAD_REACTORS
330
2A
102
}
330
2A
100
AcDbVisualStyle
  2
GouraudWithEdges
 70
     3
 71
     2
 72
     2
 73
     1
 90
        2
 40
-0.6
 41
30.0
 62
     5
 63
     7
 74
     1
 91
        4
 64
     7
 65
   257
 75
     1
175
     1
 42
1.0
 92
        0
 66
   257
 43
1.0
 76
     1
 77
     6
 78
     2
 67
     7
 79
     5
170
     0
171
     0
290
     0
174
     0
 93
       13
 44
0.0
173
     0
291
     1
 45
0.0
1001
ACAD
1000
AcDbSavedByObjectVersion
1070
     0
  0
VISUALSTYLE
  5
38
102
{ACAD_REACTORS
330
2A
102
}
330
2A
100
AcDbVisualStyle
  2
Linepattern
 70
    14
 71
     2
 72
     2
 73
     0
 90
        0
 40
-0.6
 41
-30.0
 62
     5
 63
     7
 74
     1
 91
        4
 64
     7
 65
   257
 75
     7
175
     7
 42
1.0
 92
        8
 66
     7
 43
1.0
 76
     1
 77
     6
 78
     2
 67
     7
 79
     5
170
     0
171
     0
290
     0
174
     0
 93
        1
 44
0.0
173
     0
291
     1
 45
0.0
1001
ACAD
1000
AcDbSavedByObjectVersion
1070
     0
  0
VISUALSTYLE
  5
33
102
{ACAD_REACTORS
330
2A
102
}
330
2A
100
AcDbVisualStyle
  2
Realistic
 70
     8
 71
     2
 72
     2
 73
     0
 90
        0
 40
-0.6
 41
-30.0
 62
     5
 63
     7
 74
     1
 91
        0
 64
     7
 65
   257
 75
     1
175
     1
 42
1.0
 92
        8
 66
     8
 43
1.0
 76
     1
 77
     6
 78
     2
 67
     7
 79
     5
170
     0
171
     0
290
     0
174
     0
 93
       13
 44
0.0
173
     0
291
     0
 45
0.0
1001
ACAD
1000
AcDbSavedByObjectVersion
1070
     0
  0
VISUALSTYLE
  5
37
102
{ACAD_REACTORS
330
2A
102
}
330
2A
100
AcDbVisualStyle
  2
Thicken
 70
    13
 71
     2
 72
     2
 73
     0
 90
        0
 40
-0.6
 41
-30.0
 62
     5
 63
     7
 74
     1
 91
        4
 64
     7
 65
   257
 75
     1
175
     1
 42
1.0
 92
       12
 66
     7
 43
1.0
 76
     1
 77
     6
 78
     2
 67
     7
 79
     5
170
     0
171
     0
290
     0
174
     0
 93
        1
 44
0.0
173
     0
291
     1
 45
0.0
1001
ACAD
1000
AcDbSavedByObjectVersion
1070
     0
  0
ENDSEC
  0
EOF
